<svg xmlns="http://www.w3.org/2000/svg" viewBox="0 0 780.35 134.78"><defs><style>.cls-1{fill:#1d5e3e;}</style></defs><g id="Layer_2" data-name="Layer 2"><g id="Layer_1-2" data-name="Layer 1"><path class="cls-1" d="M0,97.65V5.5A5.5,5.5,0,0,1,5.5,0h0A5.5,5.5,0,0,1,11,5.5V29.66a2.93,2.93,0,0,0,2.93,2.93H51.31A6.74,6.74,0,0,1,58,39.32V97.65a5.51,5.51,0,0,1-5.5,5.5h0A5.51,5.51,0,0,1,47,97.65v-53a2.45,2.45,0,0,0-2.44-2.45H13.94A2.94,2.94,0,0,0,11,45.16V97.65a5.5,5.5,0,0,1-5.5,5.5h0A5.5,5.5,0,0,1,0,97.65Z"/><path class="cls-1" d="M102.25,125H135.1a2.28,2.28,0,0,0,2.29-2.28V101.22c0-2.89.14-5.09.28-7h-.42c-1.51,4-7.42,10.18-20.35,10.18-15.54,0-26.54-11.83-26.54-28.2V38.1a5.51,5.51,0,0,1,5.5-5.51h0a5.51,5.51,0,0,1,5.5,5.51V76.05c0,10.87,7.42,18.3,18,18.3s18-7.43,18-18.3V38.1a5.51,5.51,0,0,1,5.5-5.51h0a5.51,5.51,0,0,1,5.5,5.51v89.25a7.43,7.43,0,0,1-7.43,7.43H102.25a4.88,4.88,0,0,1-4.88-4.88h0A4.88,4.88,0,0,1,102.25,125Z"/><path class="cls-1" d="M219.91,105.35c-12.65,0-23.24-5.5-27.09-13.76h-.42a47.12,47.12,0,0,1,.42,7.43v31a4.82,4.82,0,0,1-4.82,4.81h-1.37a4.82,4.82,0,0,1-4.82-4.81V37.41a4.82,4.82,0,0,1,4.82-4.82h.68a4.82,4.82,0,0,1,4.82,4.82h0a53.7,53.7,0,0,1-.41,7.42h.41c4.67-8,14.85-14.44,28.33-14.44,21,0,36,15.82,36,37.41S241.36,105.35,219.91,105.35ZM192.4,67.8c0,16,11.14,27.65,26.55,27.65,15,0,26.26-11.69,26.26-27.65S233.94,40.16,219,40.16C203.54,40.16,192.4,51.85,192.4,67.8Z"/><path class="cls-1" d="M323.61,104.76c-24,4.18-45.95-15.74-44.17-40.08,1.45-19.86,16.74-34.29,37-34.29,20.62,0,34.79,16.1,34.79,37.41v0a4.78,4.78,0,0,1-4.78,4.78H293.41a2.12,2.12,0,0,0-2.05,2.61c2.77,12.17,12.39,20.22,25.37,20.22A27.27,27.27,0,0,0,336,88a4.71,4.71,0,0,1,6.6.13h0a4.74,4.74,0,0,1,0,6.61A34,34,0,0,1,323.61,104.76Zm-29.1-41.5h42.34a3,3,0,0,0,3-3.51c-2.14-11.51-11.11-19.59-23.5-19.59s-21.77,7.7-24.74,19.41A3,3,0,0,0,294.51,63.26Z"/><path class="cls-1" d="M410.39,37.48h0a4.89,4.89,0,0,1-4.88,4.88H392.05a2.3,2.3,0,0,0-2.29,2.29v53a5.5,5.5,0,0,1-5.5,5.5h0a5.5,5.5,0,0,1-5.5-5.5V40.35a7.76,7.76,0,0,1,7.75-7.76h19A4.89,4.89,0,0,1,410.39,37.48Z"/><path class="cls-1" d="M490.87,48a4.83,4.83,0,0,1-6.88-.11,25.87,25.87,0,0,0-18.86-7.71c-15.27,0-26.27,11.55-26.27,27.64,0,15.82,11,27.65,26.27,27.65A26,26,0,0,0,484.61,87a4.77,4.77,0,0,1,6.86-.22h0a4.78,4.78,0,0,1,.27,6.51,34.64,34.64,0,0,1-26.61,12.06c-20.12,0-34.67-13.28-37.17-31.79-3.2-23.73,16.34-44.88,40.22-43A34.59,34.59,0,0,1,491,41.19a4.84,4.84,0,0,1-.06,6.73Z"/><path class="cls-1" d="M520.28,97.6V38.1a5.51,5.51,0,0,1,5.5-5.51h0a5.51,5.51,0,0,1,5.5,5.51v53a2.26,2.26,0,0,0,2.26,2.26h30.68a2.27,2.27,0,0,0,2.27-2.26v-53a5.51,5.51,0,0,1,5.5-5.51h0a5.51,5.51,0,0,1,5.5,5.51V97.6a5.56,5.56,0,0,1-5.55,5.55H525.83A5.55,5.55,0,0,1,520.28,97.6Z"/><path class="cls-1" d="M649.14,105.35c-12.38,0-23.38-5.37-27.92-14.58h-.41a59.5,59.5,0,0,1,.41,7.7h0a4.68,4.68,0,0,1-4.67,4.68h-1a4.68,4.68,0,0,1-4.67-4.68V5.5a5.5,5.5,0,0,1,5.5-5.5h0a5.5,5.5,0,0,1,5.5,5.5V36.72a52.79,52.79,0,0,1-.41,7.7h.41c4.54-8.25,15.68-14,27.09-14,22,0,36.59,15.82,36.59,37.41S671.15,105.35,649.14,105.35ZM674.31,67.8c0-16.09-11.28-27.64-26.41-27.64-15.4,0-26.4,11.55-26.4,27.64,0,15.82,11,27.65,26.4,27.65C663,95.45,674.31,83.62,674.31,67.8Z"/><path class="cls-1" d="M751.19,105a38,38,0,0,1-42.75-38.74c.75-20.67,16.31-35.86,37.11-35.86,20.63,0,34.8,16.1,34.8,37.41v0a4.79,4.79,0,0,1-4.78,4.78H721.76a1.51,1.51,0,0,0-1.48,1.8c2.52,12.62,12.28,21,25.55,21A27.26,27.26,0,0,0,765.1,88a4.72,4.72,0,0,1,6.61.13h0a4.75,4.75,0,0,1,0,6.61A34.21,34.21,0,0,1,751.19,105ZM722,63.26h45.37a1.76,1.76,0,0,0,1.75-2c-1.6-12.32-10.81-21.13-23.75-21.13s-22.61,8.41-25.1,21A1.76,1.76,0,0,0,722,63.26Z"/></g></g></svg>