<?xml version="1.0" encoding="utf-8"?>
<!-- Generator: Adobe Adobe Illustrator 24.2.0, SVG Export Plug-In . SVG Version: 6.00 Build 0)  -->
<svg version="1.1" id="Layer_1" xmlns="http://www.w3.org/2000/svg" xmlns:xlink="http://www.w3.org/1999/xlink" x="0px" y="0px"
	 viewBox="0 0 1920 1080" style="enable-background:new 0 0 1920 1080;" xml:space="preserve">
<style type="text/css">
	.st0{fill:#3FBA7D;}
	.st1{fill:#1D5E3E;}
	.st2{fill:#C4FFE2;}
</style>
<rect x="2020" class="st0" width="1920" height="1080"/>
<g>
	<g>
		<path class="st1" d="M2625.39,516.76c0-0.72-0.17-1.4-0.45-2.01c-0.23-0.63-0.59-1.23-1.1-1.73l-59.98-59.98
			c-0.49-0.49-1.08-0.86-1.73-1.09c-0.61-0.29-1.29-0.45-2.02-0.45h-84.82c-0.72,0-1.41,0.17-2.02,0.46
			c-0.64,0.23-1.23,0.6-1.72,1.09l-59.98,59.98c-0.49,0.49-0.86,1.08-1.09,1.72c-0.29,0.61-0.46,1.3-0.46,2.02v84.82
			c0,0.72,0.17,1.4,0.45,2.02c0.23,0.64,0.6,1.23,1.09,1.73l59.98,59.98c0.49,0.49,1.08,0.86,1.73,1.09
			c0.61,0.29,1.29,0.45,2.01,0.45h84.82c0.72,0,1.4-0.17,2.01-0.45c0.63-0.23,1.22-0.59,1.73-1.1l59.98-59.98
			c0.49-0.49,0.86-1.08,1.09-1.72c0.29-0.61,0.46-1.3,0.46-2.02V516.76z M2424.23,532.37l24.85,24.85c1.08,1.08,1.08,2.84,0,3.92
			l-24.85,24.85c-1.75,1.75-4.73,0.51-4.73-1.96v-49.69C2419.5,531.86,2422.48,530.63,2424.23,532.37z M2526.37,586.76
			L2526.37,586.76c-1.08-1.08-1.08-2.84,0-3.92l0,0c0.52-0.52,1.22-0.81,1.96-0.81h0c1.53,0,2.77,1.24,2.77,2.77v0
			C2531.1,587.27,2528.11,588.51,2526.37,586.76z M2509.05,531.59L2509.05,531.59c1.08,1.08,1.08,2.84,0,3.92l0,0
			c-0.52,0.52-1.22,0.81-1.96,0.81h0c-1.53,0-2.77-1.24-2.77-2.77v0C2504.33,531.08,2507.31,529.84,2509.05,531.59z M2511.36,571.75
			l-6.22-6.22c-0.52-0.52-0.81-1.22-0.81-1.96v-8.79c0-0.73,0.29-1.44,0.81-1.96l6.22-6.22c0.52-0.52,1.22-0.81,1.96-0.81h8.79
			c0.73,0,1.44,0.29,1.96,0.81l6.22,6.22c0.52,0.52,0.81,1.22,0.81,1.96v8.79c0,0.73-0.29,1.44-0.81,1.96l-6.22,6.22
			c-0.52,0.52-1.22,0.81-1.96,0.81h-8.79C2512.58,572.56,2511.87,572.27,2511.36,571.75z M2494.04,550.52L2494.04,550.52
			c-1.08,1.08-2.84,1.08-3.92,0l0,0c-1.75-1.75-0.51-4.73,1.96-4.73h0c1.53,0,2.77,1.24,2.77,2.77v0
			C2494.85,549.3,2494.56,550,2494.04,550.52z M2494.85,569.79L2494.85,569.79c0,1.53-1.24,2.77-2.77,2.77h0
			c-2.47,0-3.7-2.98-1.96-4.73l0,0c1.08-1.08,2.84-1.08,3.92,0l0,0C2494.56,568.35,2494.85,569.06,2494.85,569.79z M2541.38,567.83
			L2541.38,567.83c1.08-1.08,2.84-1.08,3.92,0l0,0c1.75,1.75,0.51,4.73-1.96,4.73h0c-1.53,0-2.77-1.24-2.77-2.77v0
			C2540.57,569.06,2540.86,568.35,2541.38,567.83z M2540.57,548.56L2540.57,548.56c0-1.53,1.24-2.77,2.77-2.77h0
			c2.47,0,3.7,2.98,1.96,4.73l0,0c-1.08,1.08-2.84,1.08-3.92,0l0,0C2540.86,550,2540.57,549.3,2540.57,548.56z M2552.62,536.32
			h-9.28c-1.53,0-2.77-1.24-2.77-2.77v-9.28c0-1.53,1.24-2.77,2.77-2.77h9.28c1.53,0,2.77,1.24,2.77,2.77v9.28
			C2555.39,535.08,2554.15,536.32,2552.62,536.32z M2528.33,536.32L2528.33,536.32c-0.73,0-1.44-0.29-1.96-0.81l0,0
			c-1.08-1.08-1.08-2.84,0-3.92l0,0c1.75-1.75,4.73-0.51,4.73,1.96v0C2531.1,535.08,2529.86,536.32,2528.33,536.32z M2515.75,524.89
			l-6.56-6.56c-1.08-1.08-1.08-2.84,0-3.92l6.56-6.56c1.08-1.08,2.84-1.08,3.92,0l6.56,6.56c1.08,1.08,1.08,2.84,0,3.92l-6.56,6.56
			C2518.59,525.97,2516.83,525.97,2515.75,524.89z M2492.08,536.32h-9.28c-1.53,0-2.77-1.24-2.77-2.77v-9.28
			c0-1.53,1.24-2.77,2.77-2.77h9.28c1.53,0,2.77,1.24,2.77,2.77v9.28C2494.85,535.08,2493.61,536.32,2492.08,536.32z
			 M2469.75,540.46l-10.06,10.06c-1.08,1.08-2.84,1.08-3.92,0l-24.29-24.29c-1.75-1.75-0.51-4.73,1.96-4.73h34.35
			c1.53,0,2.77,1.24,2.77,2.77v14.23C2470.56,539.23,2470.27,539.94,2469.75,540.46z M2476.87,550.66l6.56,6.56
			c1.08,1.08,1.08,2.84,0,3.92l-6.56,6.56c-1.08,1.08-2.84,1.08-3.92,0l-6.56-6.56c-1.08-1.08-1.08-2.84,0-3.92l6.56-6.56
			C2474.03,549.57,2475.78,549.57,2476.87,550.66z M2470.56,579.85v14.23c0,1.53-1.24,2.77-2.77,2.77h-34.35
			c-2.47,0-3.7-2.98-1.96-4.73l24.29-24.29c1.08-1.08,2.84-1.08,3.92,0l10.06,10.06C2470.27,578.41,2470.56,579.12,2470.56,579.85z
			 M2482.81,582.03h9.28c1.53,0,2.77,1.24,2.77,2.77v9.28c0,1.53-1.24,2.77-2.77,2.77h-9.28c-1.53,0-2.77-1.24-2.77-2.77v-9.28
			C2480.03,583.27,2481.28,582.03,2482.81,582.03z M2507.1,582.03L2507.1,582.03c0.73,0,1.44,0.29,1.96,0.81l0,0
			c1.08,1.08,1.08,2.84,0,3.92l0,0c-1.75,1.75-4.73,0.51-4.73-1.96v0C2504.33,583.27,2505.57,582.03,2507.1,582.03z M2519.67,593.46
			l6.56,6.56c1.08,1.08,1.08,2.84,0,3.92l-6.56,6.56c-1.08,1.08-2.84,1.08-3.92,0l-6.56-6.56c-1.08-1.08-1.08-2.84,0-3.92l6.56-6.56
			C2516.83,592.38,2518.59,592.38,2519.67,593.46z M2543.34,582.03h9.28c1.53,0,2.77,1.24,2.77,2.77v9.28
			c0,1.53-1.24,2.77-2.77,2.77h-9.28c-1.53,0-2.77-1.24-2.77-2.77v-9.28C2540.57,583.27,2541.81,582.03,2543.34,582.03z
			 M2565.67,577.89l10.06-10.06c1.08-1.08,2.84-1.08,3.92,0l24.29,24.29c1.75,1.75,0.51,4.73-1.96,4.73h-34.35
			c-1.53,0-2.77-1.24-2.77-2.77v-14.23C2564.86,579.12,2565.15,578.41,2565.67,577.89z M2558.56,567.7l-6.56-6.56
			c-1.08-1.08-1.08-2.84,0-3.92l6.56-6.56c1.08-1.08,2.84-1.08,3.92,0l6.56,6.56c1.08,1.08,1.08,2.84,0,3.92l-6.56,6.56
			C2561.39,568.78,2559.64,568.78,2558.56,567.7z M2564.86,538.5v-14.23c0-1.53,1.24-2.77,2.77-2.77h34.35
			c2.47,0,3.7,2.98,1.96,4.73l-24.29,24.29c-1.08,1.08-2.84,1.08-3.92,0l-10.06-10.06C2565.15,539.94,2564.86,539.23,2564.86,538.5z
			 M2564.86,509.26v-35.14c0-2.47,2.98-3.7,4.73-1.96l35.14,35.14c1.75,1.75,0.51,4.73-1.96,4.73h-35.14
			C2566.1,512.03,2564.86,510.79,2564.86,509.26z M2552.62,512.03h-14.23c-0.73,0-1.44-0.29-1.96-0.81l-10.06-10.06
			c-1.08-1.08-1.08-2.84,0-3.92l24.29-24.29c1.75-1.75,4.73-0.51,4.73,1.96v34.35C2555.39,510.79,2554.15,512.03,2552.62,512.03z
			 M2515.75,490.54l-24.85-24.85c-1.75-1.75-0.51-4.73,1.96-4.73h49.69c2.47,0,3.7,2.98,1.96,4.73l-24.85,24.85
			C2518.59,491.62,2516.83,491.62,2515.75,490.54z M2509.06,501.15l-10.06,10.06c-0.52,0.52-1.22,0.81-1.96,0.81h-14.23
			c-1.53,0-2.77-1.24-2.77-2.77V474.9c0-2.47,2.98-3.7,4.73-1.96l24.29,24.29C2510.14,498.32,2510.14,500.07,2509.06,501.15z
			 M2467.79,512.03h-35.14c-2.47,0-3.7-2.98-1.96-4.73l35.14-35.14c1.75-1.75,4.73-0.51,4.73,1.96v35.14
			C2470.56,510.79,2469.32,512.03,2467.79,512.03z M2470.56,609.09v35.14c0,2.47-2.98,3.7-4.73,1.96l-35.14-35.14
			c-1.75-1.75-0.51-4.73,1.96-4.73h35.14C2469.32,606.32,2470.56,607.56,2470.56,609.09z M2482.81,606.32h14.23
			c0.73,0,1.44,0.29,1.96,0.81l10.06,10.06c1.08,1.08,1.08,2.84,0,3.92l-24.29,24.29c-1.75,1.75-4.73,0.51-4.73-1.96v-34.35
			C2480.03,607.56,2481.28,606.32,2482.81,606.32z M2519.67,627.81l24.85,24.85c1.75,1.75,0.51,4.73-1.96,4.73h-49.69
			c-2.47,0-3.7-2.98-1.96-4.73l24.85-24.85C2516.83,626.73,2518.59,626.73,2519.67,627.81z M2526.37,617.2l10.06-10.06
			c0.52-0.52,1.22-0.81,1.96-0.81h14.23c1.53,0,2.77,1.24,2.77,2.77v34.36c0,2.47-2.98,3.7-4.73,1.96l-24.29-24.29
			C2525.29,620.03,2525.29,618.28,2526.37,617.2z M2567.63,606.32h35.14c2.47,0,3.7,2.98,1.96,4.73l-35.14,35.14
			c-1.75,1.75-4.73,0.51-4.73-1.96v-35.14C2564.86,607.56,2566.1,606.32,2567.63,606.32z M2586.35,557.22l24.85-24.85
			c1.75-1.75,4.73-0.51,4.73,1.96v49.69c0,2.47-2.98,3.7-4.73,1.96l-24.85-24.85C2585.27,560.05,2585.27,558.3,2586.35,557.22z"/>
	</g>
	<g>
		<path class="st2" d="M2670.51,593.28V489.43c0-3.42,2.78-6.2,6.2-6.2l0,0c3.42,0,6.2,2.78,6.2,6.2v27.23
			c0,1.83,1.48,3.31,3.3,3.31h42.12c4.19,0,7.58,3.4,7.58,7.58v65.73c0,3.42-2.78,6.2-6.2,6.2l0,0c-3.42,0-6.2-2.78-6.2-6.2v-59.71
			c0-1.52-1.24-2.76-2.76-2.76h-34.54c-1.83,0-3.31,1.48-3.31,3.31v59.16c0,3.42-2.78,6.2-6.2,6.2l0,0
			C2673.29,599.48,2670.51,596.7,2670.51,593.28z"/>
		<path class="st2" d="M2785.75,624.12h37.02c1.42,0,2.58-1.15,2.58-2.58v-24.24c0-3.25,0.15-5.74,0.31-7.91h-0.47
			c-1.71,4.5-8.37,11.47-22.94,11.47c-17.51,0-29.92-13.33-29.92-31.77v-42.93c0-3.42,2.78-6.2,6.2-6.2l0,0c3.42,0,6.2,2.78,6.2,6.2
			v42.78c0,12.25,8.37,20.62,20.3,20.62c11.93,0,20.3-8.37,20.3-20.62v-42.78c0-3.42,2.78-6.2,6.2-6.2l0,0c3.42,0,6.2,2.78,6.2,6.2
			v100.59c0,4.63-3.75,8.38-8.38,8.38h-43.63c-3.04,0-5.5-2.46-5.5-5.5l0,0C2780.25,626.58,2782.71,624.12,2785.75,624.12z"/>
		<path class="st2" d="M2918.35,601.96c-14.26,0-26.19-6.2-30.53-15.5h-0.47c0.31,2.02,0.47,4.34,0.47,8.37v34.88
			c0,3-2.43,5.42-5.42,5.42h-1.55c-3,0-5.42-2.43-5.42-5.42V525.39c0-3,2.43-5.42,5.42-5.42h0.78c3,0,5.42,2.43,5.42,5.42l0,0
			c0,3.72-0.16,6.04-0.46,8.37h0.46c5.27-8.99,16.74-16.27,31.93-16.27c23.71,0,40.61,17.82,40.61,42.16
			C2959.58,584.13,2942.53,601.96,2918.35,601.96z M2887.35,559.64c0,17.98,12.56,31.15,29.92,31.15c16.89,0,29.6-13.17,29.6-31.15
			s-12.71-31.15-29.6-31.15C2899.91,528.49,2887.35,541.66,2887.35,559.64z"/>
		<path class="st2" d="M3035.22,601.29c-27.1,4.72-51.79-17.73-49.78-45.16c1.64-22.39,18.88-38.65,41.72-38.65
			c23.25,0,39.21,18.13,39.21,42.16l0,0.05c0,2.97-2.41,5.38-5.38,5.38l-59.8,0c-1.55,0-2.66,1.44-2.32,2.95
			c3.13,13.71,13.97,22.78,28.6,22.78c8.78,0,15.99-3.03,21.72-8.4c2.11-1.98,5.42-1.93,7.45,0.14l0,0c2.02,2.07,2.01,5.36,0,7.45
			C3050.87,595.98,3043.61,599.83,3035.22,601.29z M3002.43,554.53h47.71c2.1,0,3.73-1.89,3.35-3.96
			c-2.41-12.97-12.52-22.08-26.49-22.08c-13.93,0-24.53,8.68-27.88,21.87C2998.59,552.48,3000.24,554.53,3002.43,554.53z"/>
		<path class="st2" d="M3133.03,525.46L3133.03,525.46c0,3.04-2.46,5.5-5.5,5.5h-15.16c-1.43,0-2.58,1.16-2.58,2.58v59.73
			c0,3.42-2.78,6.2-6.2,6.2l0,0c-3.42,0-6.2-2.78-6.2-6.2V528.7c0-4.83,3.91-8.74,8.74-8.74h21.41
			C3130.56,519.96,3133.03,522.42,3133.03,525.46z"/>
		<path class="st2" d="M3223.72,537.3c-2.16,2.16-5.62,2.05-7.76-0.12c-5.23-5.32-12.45-8.69-21.25-8.69
			c-17.21,0-29.61,13.02-29.61,31.15c0,17.83,12.4,31.15,29.61,31.15c9.24,0,16.66-3.82,21.96-9.52c2.08-2.23,5.55-2.39,7.73-0.25
			l0,0c2.02,1.98,2.14,5.18,0.3,7.33c-6.95,8.17-17.55,13.59-29.99,13.59c-22.67,0-39.07-14.96-41.88-35.83
			c-3.61-26.74,18.42-50.58,45.32-48.52c10.24,0.79,19.1,5.08,25.7,12.04c2.01,2.12,2,5.51-0.07,7.58L3223.72,537.3z"/>
		<path class="st2" d="M3256.87,593.22v-67.06c0-3.42,2.78-6.2,6.2-6.2l0,0c3.42,0,6.2,2.78,6.2,6.2v59.76
			c0,1.41,1.14,2.55,2.55,2.55h34.58c1.41,0,2.55-1.14,2.55-2.55v-59.76c0-3.42,2.78-6.2,6.2-6.2l0,0c3.42,0,6.2,2.78,6.2,6.2v67.06
			c0,3.45-2.8,6.25-6.25,6.25h-51.97C3259.67,599.48,3256.87,596.68,3256.87,593.22z"/>
		<path class="st2" d="M3402.1,601.96c-13.95,0-26.35-6.04-31.46-16.43h-0.46c0.31,2.48,0.46,5.12,0.46,8.68l0,0
			c0,2.91-2.36,5.27-5.27,5.27h-1.08c-2.91,0-5.27-2.36-5.27-5.27V489.43c0-3.42,2.78-6.2,6.2-6.2l0,0c3.42,0,6.2,2.78,6.2,6.2
			v35.18c0,4.18-0.16,6.51-0.47,8.68h0.47c5.11-9.3,17.67-15.81,30.53-15.81c24.8,0,41.23,17.82,41.23,42.16
			C3443.18,584.13,3426.9,601.96,3402.1,601.96z M3430.47,559.64c0-18.13-12.71-31.15-29.76-31.15c-17.36,0-29.76,13.02-29.76,31.15
			c0,17.83,12.4,31.15,29.76,31.15C3417.76,590.8,3430.47,577.47,3430.47,559.64z"/>
		<path class="st2" d="M3517.11,601.55c-25.91,3.45-49.11-17.54-48.17-43.66c0.84-23.29,18.38-40.41,41.82-40.41
			c23.25,0,39.21,18.13,39.21,42.16l0,0.05c0,2.97-2.41,5.38-5.38,5.38l-60.65,0c-1.07,0-1.88,0.98-1.67,2.04
			c2.85,14.22,13.84,23.69,28.79,23.69c8.78,0,15.99-3.03,21.72-8.4c2.11-1.98,5.42-1.93,7.45,0.14l0,0c2.02,2.07,2.01,5.36,0,7.45
			C3534.08,596.39,3526.22,600.34,3517.11,601.55z M3484.26,554.53h51.13c1.19,0,2.12-1.05,1.97-2.23
			c-1.8-13.88-12.18-23.81-26.76-23.81c-14.55,0-25.48,9.48-28.29,23.69C3482.07,553.39,3483.02,554.53,3484.26,554.53z"/>
	</g>
</g>
<g>
	<g>
		<path class="st1" d="M2625.39,516.76c0-0.72-0.17-1.4-0.45-2.01c-0.23-0.63-0.59-1.23-1.1-1.73l-59.98-59.98
			c-0.49-0.49-1.08-0.86-1.73-1.09c-0.61-0.29-1.29-0.45-2.02-0.45h-84.82c-0.72,0-1.41,0.17-2.02,0.46
			c-0.64,0.23-1.23,0.6-1.72,1.09l-59.98,59.98c-0.49,0.49-0.86,1.08-1.09,1.72c-0.29,0.61-0.46,1.3-0.46,2.02v84.82
			c0,0.72,0.17,1.4,0.45,2.02c0.23,0.64,0.6,1.23,1.09,1.73l59.98,59.98c0.49,0.49,1.08,0.86,1.73,1.09
			c0.61,0.29,1.29,0.45,2.01,0.45h84.82c0.72,0,1.4-0.17,2.01-0.45c0.63-0.23,1.22-0.59,1.73-1.1l59.98-59.98
			c0.49-0.49,0.86-1.08,1.09-1.72c0.29-0.61,0.46-1.3,0.46-2.02V516.76z M2424.23,532.37l24.85,24.85c1.08,1.08,1.08,2.84,0,3.92
			l-24.85,24.85c-1.75,1.75-4.73,0.51-4.73-1.96v-49.69C2419.5,531.86,2422.48,530.63,2424.23,532.37z M2526.37,586.76
			L2526.37,586.76c-1.08-1.08-1.08-2.84,0-3.92l0,0c0.52-0.52,1.22-0.81,1.96-0.81h0c1.53,0,2.77,1.24,2.77,2.77v0
			C2531.1,587.27,2528.11,588.51,2526.37,586.76z M2509.05,531.59L2509.05,531.59c1.08,1.08,1.08,2.84,0,3.92l0,0
			c-0.52,0.52-1.22,0.81-1.96,0.81h0c-1.53,0-2.77-1.24-2.77-2.77v0C2504.33,531.08,2507.31,529.84,2509.05,531.59z M2511.36,571.75
			l-6.22-6.22c-0.52-0.52-0.81-1.22-0.81-1.96v-8.79c0-0.73,0.29-1.44,0.81-1.96l6.22-6.22c0.52-0.52,1.22-0.81,1.96-0.81h8.79
			c0.73,0,1.44,0.29,1.96,0.81l6.22,6.22c0.52,0.52,0.81,1.22,0.81,1.96v8.79c0,0.73-0.29,1.44-0.81,1.96l-6.22,6.22
			c-0.52,0.52-1.22,0.81-1.96,0.81h-8.79C2512.58,572.56,2511.87,572.27,2511.36,571.75z M2494.04,550.52L2494.04,550.52
			c-1.08,1.08-2.84,1.08-3.92,0l0,0c-1.75-1.75-0.51-4.73,1.96-4.73h0c1.53,0,2.77,1.24,2.77,2.77v0
			C2494.85,549.3,2494.56,550,2494.04,550.52z M2494.85,569.79L2494.85,569.79c0,1.53-1.24,2.77-2.77,2.77h0
			c-2.47,0-3.7-2.98-1.96-4.73l0,0c1.08-1.08,2.84-1.08,3.92,0l0,0C2494.56,568.35,2494.85,569.06,2494.85,569.79z M2541.38,567.83
			L2541.38,567.83c1.08-1.08,2.84-1.08,3.92,0l0,0c1.75,1.75,0.51,4.73-1.96,4.73h0c-1.53,0-2.77-1.24-2.77-2.77v0
			C2540.57,569.06,2540.86,568.35,2541.38,567.83z M2540.57,548.56L2540.57,548.56c0-1.53,1.24-2.77,2.77-2.77h0
			c2.47,0,3.7,2.98,1.96,4.73l0,0c-1.08,1.08-2.84,1.08-3.92,0l0,0C2540.86,550,2540.57,549.3,2540.57,548.56z M2552.62,536.32
			h-9.28c-1.53,0-2.77-1.24-2.77-2.77v-9.28c0-1.53,1.24-2.77,2.77-2.77h9.28c1.53,0,2.77,1.24,2.77,2.77v9.28
			C2555.39,535.08,2554.15,536.32,2552.62,536.32z M2528.33,536.32L2528.33,536.32c-0.73,0-1.44-0.29-1.96-0.81l0,0
			c-1.08-1.08-1.08-2.84,0-3.92l0,0c1.75-1.75,4.73-0.51,4.73,1.96v0C2531.1,535.08,2529.86,536.32,2528.33,536.32z M2515.75,524.89
			l-6.56-6.56c-1.08-1.08-1.08-2.84,0-3.92l6.56-6.56c1.08-1.08,2.84-1.08,3.92,0l6.56,6.56c1.08,1.08,1.08,2.84,0,3.92l-6.56,6.56
			C2518.59,525.97,2516.83,525.97,2515.75,524.89z M2492.08,536.32h-9.28c-1.53,0-2.77-1.24-2.77-2.77v-9.28
			c0-1.53,1.24-2.77,2.77-2.77h9.28c1.53,0,2.77,1.24,2.77,2.77v9.28C2494.85,535.08,2493.61,536.32,2492.08,536.32z
			 M2469.75,540.46l-10.06,10.06c-1.08,1.08-2.84,1.08-3.92,0l-24.29-24.29c-1.75-1.75-0.51-4.73,1.96-4.73h34.35
			c1.53,0,2.77,1.24,2.77,2.77v14.23C2470.56,539.23,2470.27,539.94,2469.75,540.46z M2476.87,550.66l6.56,6.56
			c1.08,1.08,1.08,2.84,0,3.92l-6.56,6.56c-1.08,1.08-2.84,1.08-3.92,0l-6.56-6.56c-1.08-1.08-1.08-2.84,0-3.92l6.56-6.56
			C2474.03,549.57,2475.78,549.57,2476.87,550.66z M2470.56,579.85v14.23c0,1.53-1.24,2.77-2.77,2.77h-34.35
			c-2.47,0-3.7-2.98-1.96-4.73l24.29-24.29c1.08-1.08,2.84-1.08,3.92,0l10.06,10.06C2470.27,578.41,2470.56,579.12,2470.56,579.85z
			 M2482.81,582.03h9.28c1.53,0,2.77,1.24,2.77,2.77v9.28c0,1.53-1.24,2.77-2.77,2.77h-9.28c-1.53,0-2.77-1.24-2.77-2.77v-9.28
			C2480.03,583.27,2481.28,582.03,2482.81,582.03z M2507.1,582.03L2507.1,582.03c0.73,0,1.44,0.29,1.96,0.81l0,0
			c1.08,1.08,1.08,2.84,0,3.92l0,0c-1.75,1.75-4.73,0.51-4.73-1.96v0C2504.33,583.27,2505.57,582.03,2507.1,582.03z M2519.67,593.46
			l6.56,6.56c1.08,1.08,1.08,2.84,0,3.92l-6.56,6.56c-1.08,1.08-2.84,1.08-3.92,0l-6.56-6.56c-1.08-1.08-1.08-2.84,0-3.92l6.56-6.56
			C2516.83,592.38,2518.59,592.38,2519.67,593.46z M2543.34,582.03h9.28c1.53,0,2.77,1.24,2.77,2.77v9.28
			c0,1.53-1.24,2.77-2.77,2.77h-9.28c-1.53,0-2.77-1.24-2.77-2.77v-9.28C2540.57,583.27,2541.81,582.03,2543.34,582.03z
			 M2565.67,577.89l10.06-10.06c1.08-1.08,2.84-1.08,3.92,0l24.29,24.29c1.75,1.75,0.51,4.73-1.96,4.73h-34.35
			c-1.53,0-2.77-1.24-2.77-2.77v-14.23C2564.86,579.12,2565.15,578.41,2565.67,577.89z M2558.56,567.7l-6.56-6.56
			c-1.08-1.08-1.08-2.84,0-3.92l6.56-6.56c1.08-1.08,2.84-1.08,3.92,0l6.56,6.56c1.08,1.08,1.08,2.84,0,3.92l-6.56,6.56
			C2561.39,568.78,2559.64,568.78,2558.56,567.7z M2564.86,538.5v-14.23c0-1.53,1.24-2.77,2.77-2.77h34.35
			c2.47,0,3.7,2.98,1.96,4.73l-24.29,24.29c-1.08,1.08-2.84,1.08-3.92,0l-10.06-10.06C2565.15,539.94,2564.86,539.23,2564.86,538.5z
			 M2564.86,509.26v-35.14c0-2.47,2.98-3.7,4.73-1.96l35.14,35.14c1.75,1.75,0.51,4.73-1.96,4.73h-35.14
			C2566.1,512.03,2564.86,510.79,2564.86,509.26z M2552.62,512.03h-14.23c-0.73,0-1.44-0.29-1.96-0.81l-10.06-10.06
			c-1.08-1.08-1.08-2.84,0-3.92l24.29-24.29c1.75-1.75,4.73-0.51,4.73,1.96v34.35C2555.39,510.79,2554.15,512.03,2552.62,512.03z
			 M2515.75,490.54l-24.85-24.85c-1.75-1.75-0.51-4.73,1.96-4.73h49.69c2.47,0,3.7,2.98,1.96,4.73l-24.85,24.85
			C2518.59,491.62,2516.83,491.62,2515.75,490.54z M2509.06,501.15l-10.06,10.06c-0.52,0.52-1.22,0.81-1.96,0.81h-14.23
			c-1.53,0-2.77-1.24-2.77-2.77V474.9c0-2.47,2.98-3.7,4.73-1.96l24.29,24.29C2510.14,498.32,2510.14,500.07,2509.06,501.15z
			 M2467.79,512.03h-35.14c-2.47,0-3.7-2.98-1.96-4.73l35.14-35.14c1.75-1.75,4.73-0.51,4.73,1.96v35.14
			C2470.56,510.79,2469.32,512.03,2467.79,512.03z M2470.56,609.09v35.14c0,2.47-2.98,3.7-4.73,1.96l-35.14-35.14
			c-1.75-1.75-0.51-4.73,1.96-4.73h35.14C2469.32,606.32,2470.56,607.56,2470.56,609.09z M2482.81,606.32h14.23
			c0.73,0,1.44,0.29,1.96,0.81l10.06,10.06c1.08,1.08,1.08,2.84,0,3.92l-24.29,24.29c-1.75,1.75-4.73,0.51-4.73-1.96v-34.35
			C2480.03,607.56,2481.28,606.32,2482.81,606.32z M2519.67,627.81l24.85,24.85c1.75,1.75,0.51,4.73-1.96,4.73h-49.69
			c-2.47,0-3.7-2.98-1.96-4.73l24.85-24.85C2516.83,626.73,2518.59,626.73,2519.67,627.81z M2526.37,617.2l10.06-10.06
			c0.52-0.52,1.22-0.81,1.96-0.81h14.23c1.53,0,2.77,1.24,2.77,2.77v34.36c0,2.47-2.98,3.7-4.73,1.96l-24.29-24.29
			C2525.29,620.03,2525.29,618.28,2526.37,617.2z M2567.63,606.32h35.14c2.47,0,3.7,2.98,1.96,4.73l-35.14,35.14
			c-1.75,1.75-4.73,0.51-4.73-1.96v-35.14C2564.86,607.56,2566.1,606.32,2567.63,606.32z M2586.35,557.22l24.85-24.85
			c1.75-1.75,4.73-0.51,4.73,1.96v49.69c0,2.47-2.98,3.7-4.73,1.96l-24.85-24.85C2585.27,560.05,2585.27,558.3,2586.35,557.22z"/>
	</g>
	<g>
		<path class="st2" d="M2670.51,593.28V489.43c0-3.42,2.78-6.2,6.2-6.2l0,0c3.42,0,6.2,2.78,6.2,6.2v27.23
			c0,1.83,1.48,3.31,3.3,3.31h42.12c4.19,0,7.58,3.4,7.58,7.58v65.73c0,3.42-2.78,6.2-6.2,6.2l0,0c-3.42,0-6.2-2.78-6.2-6.2v-59.71
			c0-1.52-1.24-2.76-2.76-2.76h-34.54c-1.83,0-3.31,1.48-3.31,3.31v59.16c0,3.42-2.78,6.2-6.2,6.2l0,0
			C2673.29,599.48,2670.51,596.7,2670.51,593.28z"/>
		<path class="st2" d="M2785.75,624.12h37.02c1.42,0,2.58-1.15,2.58-2.58v-24.24c0-3.25,0.15-5.74,0.31-7.91h-0.47
			c-1.71,4.5-8.37,11.47-22.94,11.47c-17.51,0-29.92-13.33-29.92-31.77v-42.93c0-3.42,2.78-6.2,6.2-6.2l0,0c3.42,0,6.2,2.78,6.2,6.2
			v42.78c0,12.25,8.37,20.62,20.3,20.62c11.93,0,20.3-8.37,20.3-20.62v-42.78c0-3.42,2.78-6.2,6.2-6.2l0,0c3.42,0,6.2,2.78,6.2,6.2
			v100.59c0,4.63-3.75,8.38-8.38,8.38h-43.63c-3.04,0-5.5-2.46-5.5-5.5l0,0C2780.25,626.58,2782.71,624.12,2785.75,624.12z"/>
		<path class="st2" d="M2918.35,601.96c-14.26,0-26.19-6.2-30.53-15.5h-0.47c0.31,2.02,0.47,4.34,0.47,8.37v34.88
			c0,3-2.43,5.42-5.42,5.42h-1.55c-3,0-5.42-2.43-5.42-5.42V525.39c0-3,2.43-5.42,5.42-5.42h0.78c3,0,5.42,2.43,5.42,5.42l0,0
			c0,3.72-0.16,6.04-0.46,8.37h0.46c5.27-8.99,16.74-16.27,31.93-16.27c23.71,0,40.61,17.82,40.61,42.16
			C2959.58,584.13,2942.53,601.96,2918.35,601.96z M2887.35,559.64c0,17.98,12.56,31.15,29.92,31.15c16.89,0,29.6-13.17,29.6-31.15
			s-12.71-31.15-29.6-31.15C2899.91,528.49,2887.35,541.66,2887.35,559.64z"/>
		<path class="st2" d="M3035.22,601.29c-27.1,4.72-51.79-17.73-49.78-45.16c1.64-22.39,18.88-38.65,41.72-38.65
			c23.25,0,39.21,18.13,39.21,42.16l0,0.05c0,2.97-2.41,5.38-5.38,5.38l-59.8,0c-1.55,0-2.66,1.44-2.32,2.95
			c3.13,13.71,13.97,22.78,28.6,22.78c8.78,0,15.99-3.03,21.72-8.4c2.11-1.98,5.42-1.93,7.45,0.14l0,0c2.02,2.07,2.01,5.36,0,7.45
			C3050.87,595.98,3043.61,599.83,3035.22,601.29z M3002.43,554.53h47.71c2.1,0,3.73-1.89,3.35-3.96
			c-2.41-12.97-12.52-22.08-26.49-22.08c-13.93,0-24.53,8.68-27.88,21.87C2998.59,552.48,3000.24,554.53,3002.43,554.53z"/>
		<path class="st2" d="M3133.03,525.46L3133.03,525.46c0,3.04-2.46,5.5-5.5,5.5h-15.16c-1.43,0-2.58,1.16-2.58,2.58v59.73
			c0,3.42-2.78,6.2-6.2,6.2l0,0c-3.42,0-6.2-2.78-6.2-6.2V528.7c0-4.83,3.91-8.74,8.74-8.74h21.41
			C3130.56,519.96,3133.03,522.42,3133.03,525.46z"/>
		<path class="st2" d="M3223.72,537.3c-2.16,2.16-5.62,2.05-7.76-0.12c-5.23-5.32-12.45-8.69-21.25-8.69
			c-17.21,0-29.61,13.02-29.61,31.15c0,17.83,12.4,31.15,29.61,31.15c9.24,0,16.66-3.82,21.96-9.52c2.08-2.23,5.55-2.39,7.73-0.25
			l0,0c2.02,1.98,2.14,5.18,0.3,7.33c-6.95,8.17-17.55,13.59-29.99,13.59c-22.67,0-39.07-14.96-41.88-35.83
			c-3.61-26.74,18.42-50.58,45.32-48.52c10.24,0.79,19.1,5.08,25.7,12.04c2.01,2.12,2,5.51-0.07,7.58L3223.72,537.3z"/>
		<path class="st2" d="M3256.87,593.22v-67.06c0-3.42,2.78-6.2,6.2-6.2l0,0c3.42,0,6.2,2.78,6.2,6.2v59.76
			c0,1.41,1.14,2.55,2.55,2.55h34.58c1.41,0,2.55-1.14,2.55-2.55v-59.76c0-3.42,2.78-6.2,6.2-6.2l0,0c3.42,0,6.2,2.78,6.2,6.2v67.06
			c0,3.45-2.8,6.25-6.25,6.25h-51.97C3259.67,599.48,3256.87,596.68,3256.87,593.22z"/>
		<path class="st2" d="M3402.1,601.96c-13.95,0-26.35-6.04-31.46-16.43h-0.46c0.31,2.48,0.46,5.12,0.46,8.68l0,0
			c0,2.91-2.36,5.27-5.27,5.27h-1.08c-2.91,0-5.27-2.36-5.27-5.27V489.43c0-3.42,2.78-6.2,6.2-6.2l0,0c3.42,0,6.2,2.78,6.2,6.2
			v35.18c0,4.18-0.16,6.51-0.47,8.68h0.47c5.11-9.3,17.67-15.81,30.53-15.81c24.8,0,41.23,17.82,41.23,42.16
			C3443.18,584.13,3426.9,601.96,3402.1,601.96z M3430.47,559.64c0-18.13-12.71-31.15-29.76-31.15c-17.36,0-29.76,13.02-29.76,31.15
			c0,17.83,12.4,31.15,29.76,31.15C3417.76,590.8,3430.47,577.47,3430.47,559.64z"/>
		<path class="st2" d="M3517.11,601.55c-25.91,3.45-49.11-17.54-48.17-43.66c0.84-23.29,18.38-40.41,41.82-40.41
			c23.25,0,39.21,18.13,39.21,42.16l0,0.05c0,2.97-2.41,5.38-5.38,5.38l-60.65,0c-1.07,0-1.88,0.98-1.67,2.04
			c2.85,14.22,13.84,23.69,28.79,23.69c8.78,0,15.99-3.03,21.72-8.4c2.11-1.98,5.42-1.93,7.45,0.14l0,0c2.02,2.07,2.01,5.36,0,7.45
			C3534.08,596.39,3526.22,600.34,3517.11,601.55z M3484.26,554.53h51.13c1.19,0,2.12-1.05,1.97-2.23
			c-1.8-13.88-12.18-23.81-26.76-23.81c-14.55,0-25.48,9.48-28.29,23.69C3482.07,553.39,3483.02,554.53,3484.26,554.53z"/>
	</g>
</g>
<g>
	<g>
		<path class="st1" d="M-1414.61-1042.41c0-0.72-0.16-1.4-0.45-2.01c-0.23-0.63-0.59-1.23-1.1-1.73l-59.98-59.98
			c-0.49-0.49-1.08-0.86-1.73-1.09c-0.61-0.29-1.29-0.45-2.02-0.45h-84.82c-0.72,0-1.41,0.17-2.02,0.46
			c-0.64,0.23-1.23,0.6-1.72,1.09l-59.98,59.98c-0.49,0.49-0.86,1.08-1.09,1.72c-0.29,0.61-0.46,1.3-0.46,2.02v84.82
			c0,0.72,0.17,1.4,0.45,2.02c0.23,0.64,0.6,1.23,1.09,1.73l59.98,59.98c0.49,0.49,1.08,0.86,1.73,1.09
			c0.61,0.29,1.29,0.45,2.02,0.45h84.82c0.72,0,1.4-0.17,2.01-0.45c0.63-0.23,1.22-0.59,1.73-1.1l59.98-59.98
			c0.49-0.49,0.86-1.08,1.09-1.72c0.29-0.61,0.46-1.3,0.46-2.02V-1042.41z M-1615.77-1026.8l24.85,24.85c1.08,1.08,1.08,2.84,0,3.92
			l-24.85,24.85c-1.75,1.75-4.73,0.51-4.73-1.96v-49.69C-1620.5-1027.31-1617.52-1028.55-1615.77-1026.8z M-1513.63-972.41
			L-1513.63-972.41c-1.08-1.08-1.08-2.84,0-3.92l0,0c0.52-0.52,1.22-0.81,1.96-0.81h0c1.53,0,2.77,1.24,2.77,2.77v0
			C-1508.9-971.9-1511.89-970.67-1513.63-972.41z M-1530.95-1027.59L-1530.95-1027.59c1.08,1.08,1.08,2.84,0,3.92l0,0
			c-0.52,0.52-1.22,0.81-1.96,0.81h0c-1.53,0-2.77-1.24-2.77-2.77v0C-1535.67-1028.1-1532.69-1029.33-1530.95-1027.59z
			 M-1528.64-987.43l-6.22-6.22c-0.52-0.52-0.81-1.22-0.81-1.96v-8.79c0-0.73,0.29-1.44,0.81-1.96l6.22-6.22
			c0.52-0.52,1.22-0.81,1.96-0.81h8.79c0.73,0,1.44,0.29,1.96,0.81l6.22,6.22c0.52,0.52,0.81,1.22,0.81,1.96v8.79
			c0,0.73-0.29,1.44-0.81,1.96l-6.22,6.22c-0.52,0.52-1.22,0.81-1.96,0.81h-8.79C-1527.42-986.61-1528.13-986.91-1528.64-987.43z
			 M-1545.96-1008.66L-1545.96-1008.66c-1.08,1.08-2.84,1.08-3.92,0l0,0c-1.75-1.75-0.51-4.73,1.96-4.73h0
			c1.53,0,2.77,1.24,2.77,2.77v0C-1545.15-1009.88-1545.44-1009.18-1545.96-1008.66z M-1545.15-989.38L-1545.15-989.38
			c0,1.53-1.24,2.77-2.77,2.77h0c-2.47,0-3.7-2.98-1.96-4.73l0,0c1.08-1.08,2.84-1.08,3.92,0l0,0
			C-1545.44-990.82-1545.15-990.12-1545.15-989.38z M-1498.62-991.34L-1498.62-991.34c1.08-1.08,2.84-1.08,3.92,0l0,0
			c1.75,1.75,0.51,4.73-1.96,4.73h0c-1.53,0-2.77-1.24-2.77-2.77v0C-1499.43-990.12-1499.14-990.82-1498.62-991.34z
			 M-1499.43-1010.62L-1499.43-1010.62c0-1.53,1.24-2.77,2.77-2.77h0c2.47,0,3.7,2.98,1.96,4.73l0,0c-1.08,1.08-2.84,1.08-3.92,0
			l0,0C-1499.14-1009.18-1499.43-1009.88-1499.43-1010.62z M-1487.38-1022.86h-9.28c-1.53,0-2.77-1.24-2.77-2.77v-9.28
			c0-1.53,1.24-2.77,2.77-2.77h9.28c1.53,0,2.77,1.24,2.77,2.77v9.28C-1484.61-1024.1-1485.85-1022.86-1487.38-1022.86z
			 M-1511.67-1022.86L-1511.67-1022.86c-0.74,0-1.44-0.29-1.96-0.81l0,0c-1.08-1.08-1.08-2.84,0-3.92l0,0
			c1.75-1.75,4.73-0.51,4.73,1.96v0C-1508.9-1024.1-1510.14-1022.86-1511.67-1022.86z M-1524.25-1034.28l-6.56-6.56
			c-1.08-1.08-1.08-2.84,0-3.92l6.56-6.56c1.08-1.08,2.84-1.08,3.92,0l6.56,6.56c1.08,1.08,1.08,2.84,0,3.92l-6.56,6.56
			C-1521.41-1033.2-1523.17-1033.2-1524.25-1034.28z M-1547.92-1022.86h-9.28c-1.53,0-2.77-1.24-2.77-2.77v-9.28
			c0-1.53,1.24-2.77,2.77-2.77h9.28c1.53,0,2.77,1.24,2.77,2.77v9.28C-1545.15-1024.1-1546.39-1022.86-1547.92-1022.86z
			 M-1570.25-1018.72l-10.06,10.06c-1.08,1.08-2.84,1.08-3.92,0l-24.29-24.29c-1.75-1.75-0.51-4.73,1.96-4.73h34.36
			c1.53,0,2.77,1.24,2.77,2.77v14.23C-1569.44-1019.94-1569.73-1019.24-1570.25-1018.72z M-1563.13-1008.52l6.56,6.56
			c1.08,1.08,1.08,2.84,0,3.92l-6.56,6.56c-1.08,1.08-2.84,1.08-3.92,0l-6.56-6.56c-1.08-1.08-1.08-2.84,0-3.92l6.56-6.56
			C-1565.97-1009.6-1564.22-1009.6-1563.13-1008.52z M-1569.44-979.32v14.23c0,1.53-1.24,2.77-2.77,2.77h-34.35
			c-2.47,0-3.7-2.98-1.96-4.73l24.29-24.29c1.08-1.08,2.84-1.08,3.92,0l10.06,10.06C-1569.73-980.76-1569.44-980.06-1569.44-979.32z
			 M-1557.19-977.14h9.28c1.53,0,2.77,1.24,2.77,2.77v9.28c0,1.53-1.24,2.77-2.77,2.77h-9.28c-1.53,0-2.77-1.24-2.77-2.77v-9.28
			C-1559.96-975.9-1558.72-977.14-1557.19-977.14z M-1532.9-977.14L-1532.9-977.14c0.73,0,1.44,0.29,1.96,0.81l0,0
			c1.08,1.08,1.08,2.84,0,3.92l0,0c-1.75,1.75-4.73,0.51-4.73-1.96v0C-1535.67-975.9-1534.43-977.14-1532.9-977.14z
			 M-1520.33-965.72l6.56,6.56c1.08,1.08,1.08,2.84,0,3.92l-6.56,6.56c-1.08,1.08-2.84,1.08-3.92,0l-6.56-6.56
			c-1.08-1.08-1.08-2.84,0-3.92l6.56-6.56C-1523.17-966.8-1521.41-966.8-1520.33-965.72z M-1496.66-977.14h9.28
			c1.53,0,2.77,1.24,2.77,2.77v9.28c0,1.53-1.24,2.77-2.77,2.77h-9.28c-1.53,0-2.77-1.24-2.77-2.77v-9.28
			C-1499.43-975.9-1498.19-977.14-1496.66-977.14z M-1474.33-981.28l10.06-10.06c1.08-1.08,2.84-1.08,3.92,0l24.29,24.29
			c1.75,1.75,0.51,4.73-1.96,4.73h-34.35c-1.53,0-2.77-1.24-2.77-2.77v-14.23C-1475.14-980.06-1474.85-980.76-1474.33-981.28z
			 M-1481.44-991.48l-6.56-6.56c-1.08-1.08-1.08-2.84,0-3.92l6.56-6.56c1.08-1.08,2.84-1.08,3.92,0l6.56,6.56
			c1.08,1.08,1.08,2.84,0,3.92l-6.56,6.56C-1478.61-990.4-1480.36-990.4-1481.44-991.48z M-1475.14-1020.68v-14.23
			c0-1.53,1.24-2.77,2.77-2.77h34.35c2.47,0,3.7,2.98,1.96,4.73l-24.29,24.29c-1.08,1.08-2.84,1.08-3.92,0l-10.06-10.06
			C-1474.85-1019.24-1475.14-1019.94-1475.14-1020.68z M-1475.14-1049.92v-35.14c0-2.47,2.98-3.7,4.73-1.96l35.14,35.14
			c1.75,1.75,0.51,4.73-1.96,4.73h-35.14C-1473.9-1047.15-1475.14-1048.39-1475.14-1049.92z M-1487.38-1047.15h-14.23
			c-0.73,0-1.44-0.29-1.96-0.81l-10.06-10.06c-1.08-1.08-1.08-2.84,0-3.92l24.29-24.29c1.75-1.75,4.73-0.51,4.73,1.96v34.35
			C-1484.61-1048.39-1485.85-1047.15-1487.38-1047.15z M-1524.25-1068.64l-24.85-24.85c-1.75-1.75-0.51-4.73,1.96-4.73h49.69
			c2.47,0,3.7,2.98,1.96,4.73l-24.85,24.85C-1521.41-1067.55-1523.17-1067.55-1524.25-1068.64z M-1530.94-1058.02l-10.06,10.06
			c-0.52,0.52-1.22,0.81-1.96,0.81h-14.23c-1.53,0-2.77-1.24-2.77-2.77v-34.35c0-2.47,2.98-3.7,4.73-1.96l24.29,24.29
			C-1529.86-1060.86-1529.86-1059.1-1530.94-1058.02z M-1572.21-1047.15h-35.14c-2.47,0-3.7-2.98-1.96-4.73l35.14-35.14
			c1.75-1.75,4.73-0.51,4.73,1.96v35.14C-1569.44-1048.39-1570.68-1047.15-1572.21-1047.15z M-1569.44-950.08v35.14
			c0,2.47-2.98,3.7-4.73,1.96l-35.14-35.14c-1.75-1.75-0.51-4.73,1.96-4.73h35.14C-1570.68-952.85-1569.44-951.61-1569.44-950.08z
			 M-1557.19-952.85h14.23c0.73,0,1.44,0.29,1.96,0.81l10.06,10.06c1.08,1.08,1.08,2.84,0,3.92l-24.29,24.29
			c-1.75,1.75-4.73,0.51-4.73-1.96v-34.35C-1559.96-951.61-1558.72-952.85-1557.19-952.85z M-1520.33-931.36l24.85,24.85
			c1.75,1.75,0.51,4.73-1.96,4.73h-49.69c-2.47,0-3.7-2.98-1.96-4.73l24.85-24.85C-1523.17-932.45-1521.41-932.45-1520.33-931.36z
			 M-1513.63-941.98l10.06-10.06c0.52-0.52,1.22-0.81,1.96-0.81h14.23c1.53,0,2.77,1.24,2.77,2.77v34.36c0,2.47-2.98,3.7-4.73,1.96
			l-24.29-24.29C-1514.71-939.14-1514.71-940.9-1513.63-941.98z M-1472.37-952.85h35.14c2.47,0,3.7,2.98,1.96,4.73l-35.14,35.14
			c-1.75,1.75-4.73,0.51-4.73-1.96v-35.14C-1475.14-951.61-1473.9-952.85-1472.37-952.85z M-1453.65-1001.96l24.85-24.85
			c1.75-1.75,4.73-0.51,4.73,1.96v49.69c0,2.47-2.98,3.7-4.73,1.96l-24.85-24.85C-1454.73-999.12-1454.73-1000.88-1453.65-1001.96z"
			/>
	</g>
	<g>
		<path class="st2" d="M-1369.49-965.9v-103.85c0-3.42,2.78-6.2,6.2-6.2l0,0c3.42,0,6.2,2.78,6.2,6.2v27.23
			c0,1.83,1.48,3.31,3.31,3.31h42.12c4.19,0,7.58,3.4,7.58,7.58v65.73c0,3.42-2.78,6.2-6.2,6.2l0,0c-3.42,0-6.2-2.78-6.2-6.2v-59.71
			c0-1.52-1.24-2.76-2.76-2.76h-34.54c-1.83,0-3.31,1.48-3.31,3.31v59.16c0,3.42-2.78,6.2-6.2,6.2l0,0
			C-1366.71-959.7-1369.49-962.48-1369.49-965.9z"/>
		<path class="st2" d="M-1254.25-935.06h37.02c1.42,0,2.58-1.15,2.58-2.58v-24.24c0-3.25,0.15-5.74,0.31-7.91h-0.47
			c-1.71,4.5-8.37,11.47-22.94,11.47c-17.51,0-29.92-13.33-29.92-31.77v-42.93c0-3.42,2.78-6.2,6.2-6.2l0,0c3.42,0,6.2,2.78,6.2,6.2
			v42.78c0,12.25,8.37,20.62,20.3,20.62c11.93,0,20.3-8.37,20.3-20.62v-42.78c0-3.42,2.78-6.2,6.2-6.2l0,0c3.42,0,6.2,2.78,6.2,6.2
			v100.59c0,4.63-3.75,8.38-8.38,8.38h-43.63c-3.04,0-5.5-2.46-5.5-5.5l0,0C-1259.75-932.59-1257.29-935.06-1254.25-935.06z"/>
		<path class="st2" d="M-1121.65-957.22c-14.26,0-26.19-6.2-30.53-15.5h-0.47c0.31,2.02,0.47,4.34,0.47,8.37v34.88
			c0,3-2.43,5.42-5.42,5.42h-1.55c-3,0-5.42-2.43-5.42-5.42v-104.31c0-3,2.43-5.42,5.42-5.42h0.78c3,0,5.42,2.43,5.42,5.42l0,0
			c0,3.72-0.16,6.04-0.46,8.37h0.46c5.27-8.99,16.74-16.27,31.93-16.27c23.71,0,40.61,17.82,40.61,42.16
			C-1080.42-975.04-1097.47-957.22-1121.65-957.22z M-1152.65-999.54c0,17.98,12.56,31.15,29.92,31.15
			c16.89,0,29.6-13.17,29.6-31.15s-12.71-31.15-29.6-31.15C-1140.09-1030.69-1152.65-1017.51-1152.65-999.54z"/>
		<path class="st2" d="M-1004.78-957.89c-27.1,4.72-51.79-17.73-49.78-45.16c1.64-22.39,18.88-38.65,41.72-38.65
			c23.25,0,39.21,18.13,39.21,42.16l0,0.05c0,2.97-2.41,5.38-5.38,5.38l-59.8,0c-1.55,0-2.66,1.44-2.32,2.95
			c3.13,13.71,13.97,22.78,28.6,22.78c8.78,0,15.99-3.03,21.72-8.4c2.11-1.98,5.42-1.93,7.45,0.14l0,0c2.02,2.07,2.01,5.36,0,7.45
			C-989.13-963.19-996.39-959.35-1004.78-957.89z M-1037.57-1004.65h47.71c2.1,0,3.73-1.89,3.35-3.96
			c-2.41-12.97-12.52-22.08-26.49-22.08c-13.93,0-24.53,8.68-27.88,21.87C-1041.41-1006.7-1039.76-1004.65-1037.57-1004.65z"/>
		<path class="st2" d="M-906.97-1033.71L-906.97-1033.71c0,3.04-2.46,5.5-5.5,5.5h-15.16c-1.43,0-2.58,1.16-2.58,2.58v59.73
			c0,3.42-2.78,6.2-6.2,6.2h0c-3.42,0-6.2-2.78-6.2-6.2v-64.57c0-4.83,3.91-8.74,8.74-8.74h21.41
			C-909.44-1039.21-906.97-1036.75-906.97-1033.71z"/>
		<path class="st2" d="M-816.28-1021.88c-2.16,2.16-5.62,2.05-7.76-0.12c-5.23-5.32-12.45-8.69-21.25-8.69
			c-17.21,0-29.61,13.02-29.61,31.15c0,17.83,12.4,31.15,29.61,31.15c9.24,0,16.66-3.82,21.96-9.52c2.08-2.23,5.55-2.39,7.73-0.25
			l0,0c2.02,1.98,2.14,5.18,0.3,7.33c-6.95,8.17-17.55,13.59-29.99,13.59c-22.67,0-39.07-14.96-41.88-35.83
			c-3.61-26.74,18.42-50.58,45.32-48.52c10.24,0.79,19.1,5.08,25.7,12.04c2.01,2.12,2,5.51-0.07,7.58L-816.28-1021.88z"/>
		<path class="st2" d="M-783.13-965.95v-67.06c0-3.42,2.78-6.2,6.2-6.2h0c3.42,0,6.2,2.78,6.2,6.2v59.76c0,1.41,1.14,2.55,2.55,2.55
			h34.58c1.41,0,2.55-1.14,2.55-2.55v-59.76c0-3.42,2.78-6.2,6.2-6.2h0c3.42,0,6.2,2.78,6.2,6.2v67.06c0,3.45-2.8,6.25-6.25,6.25
			h-51.97C-780.33-959.7-783.13-962.5-783.13-965.95z"/>
		<path class="st2" d="M-637.9-957.22c-13.95,0-26.35-6.04-31.46-16.43h-0.46c0.31,2.48,0.46,5.12,0.46,8.68l0,0
			c0,2.91-2.36,5.27-5.27,5.27h-1.08c-2.91,0-5.27-2.36-5.27-5.27v-104.78c0-3.42,2.78-6.2,6.2-6.2h0c3.42,0,6.2,2.78,6.2,6.2v35.18
			c0,4.18-0.16,6.51-0.47,8.68h0.47c5.11-9.3,17.67-15.81,30.53-15.81c24.8,0,41.23,17.82,41.23,42.16
			C-596.82-975.04-613.1-957.22-637.9-957.22z M-609.53-999.54c0-18.13-12.71-31.15-29.76-31.15c-17.36,0-29.76,13.02-29.76,31.15
			c0,17.83,12.4,31.15,29.76,31.15C-622.24-968.38-609.53-981.71-609.53-999.54z"/>
		<path class="st2" d="M-522.89-957.62c-25.91,3.45-49.11-17.54-48.17-43.66c0.84-23.29,18.38-40.41,41.82-40.41
			c23.25,0,39.21,18.13,39.21,42.16l0,0.05c0,2.97-2.41,5.38-5.38,5.38l-60.65,0c-1.07,0-1.88,0.98-1.67,2.04
			c2.85,14.22,13.84,23.69,28.79,23.69c8.78,0,15.99-3.03,21.72-8.4c2.11-1.98,5.42-1.93,7.44,0.14l0,0c2.02,2.07,2.01,5.36,0,7.45
			C-505.92-962.79-513.78-958.84-522.89-957.62z M-555.74-1004.65h51.13c1.19,0,2.12-1.05,1.97-2.23
			c-1.8-13.88-12.18-23.81-26.76-23.81c-14.55,0-25.48,9.48-28.29,23.69C-557.93-1005.78-556.98-1004.65-555.74-1004.65z"/>
	</g>
</g>
<g>
	<g>
		<path d="M605.39-1042.41c0-0.72-0.16-1.4-0.45-2.01c-0.23-0.63-0.59-1.23-1.1-1.73l-59.98-59.98c-0.49-0.49-1.08-0.86-1.73-1.09
			c-0.61-0.29-1.29-0.45-2.02-0.45H455.3c-0.72,0-1.41,0.17-2.02,0.46c-0.64,0.23-1.23,0.6-1.72,1.09l-59.98,59.98
			c-0.49,0.49-0.86,1.08-1.09,1.72c-0.29,0.61-0.46,1.3-0.46,2.02v84.82c0,0.72,0.17,1.4,0.45,2.02c0.23,0.64,0.6,1.23,1.09,1.73
			l59.98,59.98c0.49,0.49,1.08,0.86,1.73,1.09c0.61,0.29,1.29,0.45,2.02,0.45h84.82c0.72,0,1.4-0.17,2.01-0.45
			c0.63-0.23,1.22-0.59,1.73-1.1l59.98-59.98c0.49-0.49,0.86-1.08,1.09-1.72c0.29-0.61,0.46-1.3,0.46-2.02V-1042.41z M404.23-1026.8
			l24.85,24.85c1.08,1.08,1.08,2.84,0,3.92l-24.85,24.85c-1.75,1.75-4.73,0.51-4.73-1.96v-49.69
			C399.5-1027.31,402.48-1028.55,404.23-1026.8z M506.37-972.41L506.37-972.41c-1.08-1.08-1.08-2.84,0-3.92l0,0
			c0.52-0.52,1.22-0.81,1.96-0.81h0c1.53,0,2.77,1.24,2.77,2.77v0C511.1-971.9,508.11-970.67,506.37-972.41z M489.05-1027.59
			L489.05-1027.59c1.08,1.08,1.08,2.84,0,3.92l0,0c-0.52,0.52-1.22,0.81-1.96,0.81h0c-1.53,0-2.77-1.24-2.77-2.77v0
			C484.33-1028.1,487.31-1029.33,489.05-1027.59z M491.36-987.43l-6.22-6.22c-0.52-0.52-0.81-1.22-0.81-1.96v-8.79
			c0-0.73,0.29-1.44,0.81-1.96l6.22-6.22c0.52-0.52,1.22-0.81,1.96-0.81h8.79c0.73,0,1.44,0.29,1.96,0.81l6.22,6.22
			c0.52,0.52,0.81,1.22,0.81,1.96v8.79c0,0.73-0.29,1.44-0.81,1.96l-6.22,6.22c-0.52,0.52-1.22,0.81-1.96,0.81h-8.79
			C492.58-986.61,491.87-986.91,491.36-987.43z M474.04-1008.66L474.04-1008.66c-1.08,1.08-2.84,1.08-3.92,0l0,0
			c-1.75-1.75-0.51-4.73,1.96-4.73h0c1.53,0,2.77,1.24,2.77,2.77v0C474.85-1009.88,474.56-1009.18,474.04-1008.66z M474.85-989.38
			L474.85-989.38c0,1.53-1.24,2.77-2.77,2.77h0c-2.47,0-3.7-2.98-1.96-4.73l0,0c1.08-1.08,2.84-1.08,3.92,0l0,0
			C474.56-990.82,474.85-990.12,474.85-989.38z M521.38-991.34L521.38-991.34c1.08-1.08,2.84-1.08,3.92,0l0,0
			c1.75,1.75,0.51,4.73-1.96,4.73h0c-1.53,0-2.77-1.24-2.77-2.77v0C520.57-990.12,520.86-990.82,521.38-991.34z M520.57-1010.62
			L520.57-1010.62c0-1.53,1.24-2.77,2.77-2.77h0c2.47,0,3.7,2.98,1.96,4.73l0,0c-1.08,1.08-2.84,1.08-3.92,0l0,0
			C520.86-1009.18,520.57-1009.88,520.57-1010.62z M532.62-1022.86h-9.28c-1.53,0-2.77-1.24-2.77-2.77v-9.28
			c0-1.53,1.24-2.77,2.77-2.77h9.28c1.53,0,2.77,1.24,2.77,2.77v9.28C535.39-1024.1,534.15-1022.86,532.62-1022.86z M508.33-1022.86
			L508.33-1022.86c-0.74,0-1.44-0.29-1.96-0.81l0,0c-1.08-1.08-1.08-2.84,0-3.92l0,0c1.75-1.75,4.73-0.51,4.73,1.96v0
			C511.1-1024.1,509.86-1022.86,508.33-1022.86z M495.75-1034.28l-6.56-6.56c-1.08-1.08-1.08-2.84,0-3.92l6.56-6.56
			c1.08-1.08,2.84-1.08,3.92,0l6.56,6.56c1.08,1.08,1.08,2.84,0,3.92l-6.56,6.56C498.59-1033.2,496.83-1033.2,495.75-1034.28z
			 M472.08-1022.86h-9.28c-1.53,0-2.77-1.24-2.77-2.77v-9.28c0-1.53,1.24-2.77,2.77-2.77h9.28c1.53,0,2.77,1.24,2.77,2.77v9.28
			C474.85-1024.1,473.61-1022.86,472.08-1022.86z M449.75-1018.72l-10.06,10.06c-1.08,1.08-2.84,1.08-3.92,0l-24.29-24.29
			c-1.75-1.75-0.51-4.73,1.96-4.73h34.36c1.53,0,2.77,1.24,2.77,2.77v14.23C450.56-1019.94,450.27-1019.24,449.75-1018.72z
			 M456.87-1008.52l6.56,6.56c1.08,1.08,1.08,2.84,0,3.92l-6.56,6.56c-1.08,1.08-2.84,1.08-3.92,0l-6.56-6.56
			c-1.08-1.08-1.08-2.84,0-3.92l6.56-6.56C454.03-1009.6,455.78-1009.6,456.87-1008.52z M450.56-979.32v14.23
			c0,1.53-1.24,2.77-2.77,2.77h-34.35c-2.47,0-3.7-2.98-1.96-4.73l24.29-24.29c1.08-1.08,2.84-1.08,3.92,0l10.06,10.06
			C450.27-980.76,450.56-980.06,450.56-979.32z M462.81-977.14h9.28c1.53,0,2.77,1.24,2.77,2.77v9.28c0,1.53-1.24,2.77-2.77,2.77
			h-9.28c-1.53,0-2.77-1.24-2.77-2.77v-9.28C460.04-975.9,461.28-977.14,462.81-977.14z M487.1-977.14L487.1-977.14
			c0.73,0,1.44,0.29,1.96,0.81l0,0c1.08,1.08,1.08,2.84,0,3.92l0,0c-1.75,1.75-4.73,0.51-4.73-1.96v0
			C484.33-975.9,485.57-977.14,487.1-977.14z M499.67-965.72l6.56,6.56c1.08,1.08,1.08,2.84,0,3.92l-6.56,6.56
			c-1.08,1.08-2.84,1.08-3.92,0l-6.56-6.56c-1.08-1.08-1.08-2.84,0-3.92l6.56-6.56C496.83-966.8,498.59-966.8,499.67-965.72z
			 M523.34-977.14h9.28c1.53,0,2.77,1.24,2.77,2.77v9.28c0,1.53-1.24,2.77-2.77,2.77h-9.28c-1.53,0-2.77-1.24-2.77-2.77v-9.28
			C520.57-975.9,521.81-977.14,523.34-977.14z M545.67-981.28l10.06-10.06c1.08-1.08,2.84-1.08,3.92,0l24.29,24.29
			c1.75,1.75,0.51,4.73-1.96,4.73h-34.35c-1.53,0-2.77-1.24-2.77-2.77v-14.23C544.86-980.06,545.15-980.76,545.67-981.28z
			 M538.56-991.48l-6.56-6.56c-1.08-1.08-1.08-2.84,0-3.92l6.56-6.56c1.08-1.08,2.84-1.08,3.92,0l6.56,6.56
			c1.08,1.08,1.08,2.84,0,3.92l-6.56,6.56C541.39-990.4,539.64-990.4,538.56-991.48z M544.86-1020.68v-14.23
			c0-1.53,1.24-2.77,2.77-2.77h34.35c2.47,0,3.7,2.98,1.96,4.73l-24.29,24.29c-1.08,1.08-2.84,1.08-3.92,0l-10.06-10.06
			C545.15-1019.24,544.86-1019.94,544.86-1020.68z M544.86-1049.92v-35.14c0-2.47,2.98-3.7,4.73-1.96l35.14,35.14
			c1.75,1.75,0.51,4.73-1.96,4.73h-35.14C546.1-1047.15,544.86-1048.39,544.86-1049.92z M532.62-1047.15h-14.23
			c-0.73,0-1.44-0.29-1.96-0.81l-10.06-10.06c-1.08-1.08-1.08-2.84,0-3.92l24.29-24.29c1.75-1.75,4.73-0.51,4.73,1.96v34.35
			C535.39-1048.39,534.15-1047.15,532.62-1047.15z M495.75-1068.64l-24.85-24.85c-1.75-1.75-0.51-4.73,1.96-4.73h49.69
			c2.47,0,3.7,2.98,1.96,4.73l-24.85,24.85C498.59-1067.55,496.83-1067.55,495.75-1068.64z M489.06-1058.02l-10.06,10.06
			c-0.52,0.52-1.22,0.81-1.96,0.81H462.8c-1.53,0-2.77-1.24-2.77-2.77v-34.35c0-2.47,2.98-3.7,4.73-1.96l24.29,24.29
			C490.14-1060.86,490.14-1059.1,489.06-1058.02z M447.79-1047.15h-35.14c-2.47,0-3.7-2.98-1.96-4.73l35.14-35.14
			c1.75-1.75,4.73-0.51,4.73,1.96v35.14C450.56-1048.39,449.32-1047.15,447.79-1047.15z M450.56-950.08v35.14
			c0,2.47-2.98,3.7-4.73,1.96l-35.14-35.14c-1.75-1.75-0.51-4.73,1.96-4.73h35.14C449.32-952.85,450.56-951.61,450.56-950.08z
			 M462.81-952.85h14.23c0.73,0,1.44,0.29,1.96,0.81l10.06,10.06c1.08,1.08,1.08,2.84,0,3.92l-24.29,24.29
			c-1.75,1.75-4.73,0.51-4.73-1.96v-34.35C460.04-951.61,461.28-952.85,462.81-952.85z M499.67-931.36l24.85,24.85
			c1.75,1.75,0.51,4.73-1.96,4.73h-49.69c-2.47,0-3.7-2.98-1.96-4.73l24.85-24.85C496.83-932.45,498.59-932.45,499.67-931.36z
			 M506.37-941.98l10.06-10.06c0.52-0.52,1.22-0.81,1.96-0.81h14.23c1.53,0,2.77,1.24,2.77,2.77v34.36c0,2.47-2.98,3.7-4.73,1.96
			l-24.29-24.29C505.29-939.14,505.29-940.9,506.37-941.98z M547.63-952.85h35.14c2.47,0,3.7,2.98,1.96,4.73l-35.14,35.14
			c-1.75,1.75-4.73,0.51-4.73-1.96v-35.14C544.86-951.61,546.1-952.85,547.63-952.85z M566.35-1001.96l24.85-24.85
			c1.75-1.75,4.73-0.51,4.73,1.96v49.69c0,2.47-2.98,3.7-4.73,1.96l-24.85-24.85C565.27-999.12,565.27-1000.88,566.35-1001.96z"/>
	</g>
	<g>
		<path d="M650.51-965.9v-103.85c0-3.42,2.78-6.2,6.2-6.2h0c3.42,0,6.2,2.78,6.2,6.2v27.23c0,1.83,1.48,3.31,3.31,3.31h42.12
			c4.19,0,7.58,3.4,7.58,7.58v65.73c0,3.42-2.78,6.2-6.2,6.2h0c-3.42,0-6.2-2.78-6.2-6.2v-59.71c0-1.52-1.24-2.76-2.76-2.76h-34.54
			c-1.83,0-3.31,1.48-3.31,3.31v59.16c0,3.42-2.78,6.2-6.2,6.2h0C653.29-959.7,650.51-962.48,650.51-965.9z"/>
		<path d="M765.75-935.06h37.02c1.42,0,2.58-1.15,2.58-2.58v-24.24c0-3.25,0.15-5.74,0.31-7.91h-0.47
			c-1.71,4.5-8.37,11.47-22.94,11.47c-17.51,0-29.92-13.33-29.92-31.77v-42.93c0-3.42,2.78-6.2,6.2-6.2h0c3.42,0,6.2,2.78,6.2,6.2
			v42.78c0,12.25,8.37,20.62,20.3,20.62c11.93,0,20.3-8.37,20.3-20.62v-42.78c0-3.42,2.78-6.2,6.2-6.2h0c3.42,0,6.2,2.78,6.2,6.2
			v100.59c0,4.63-3.75,8.38-8.38,8.38h-43.63c-3.04,0-5.5-2.46-5.5-5.5l0,0C760.25-932.59,762.71-935.06,765.75-935.06z"/>
		<path d="M898.35-957.22c-14.26,0-26.19-6.2-30.53-15.5h-0.47c0.31,2.02,0.47,4.34,0.47,8.37v34.88c0,3-2.43,5.42-5.42,5.42h-1.55
			c-3,0-5.42-2.43-5.42-5.42v-104.31c0-3,2.43-5.42,5.42-5.42h0.78c3,0,5.42,2.43,5.42,5.42l0,0c0,3.72-0.16,6.04-0.46,8.37h0.46
			c5.27-8.99,16.74-16.27,31.93-16.27c23.71,0,40.61,17.82,40.61,42.16C939.58-975.04,922.53-957.22,898.35-957.22z M867.35-999.54
			c0,17.98,12.56,31.15,29.92,31.15c16.89,0,29.6-13.17,29.6-31.15s-12.71-31.15-29.6-31.15
			C879.91-1030.69,867.35-1017.51,867.35-999.54z"/>
		<path d="M1015.22-957.89c-27.1,4.72-51.79-17.73-49.78-45.16c1.64-22.39,18.88-38.65,41.72-38.65c23.25,0,39.21,18.13,39.21,42.16
			v0.05c0,2.97-2.41,5.38-5.38,5.38l-59.8,0c-1.55,0-2.66,1.44-2.32,2.95c3.13,13.71,13.97,22.78,28.6,22.78
			c8.78,0,15.99-3.03,21.72-8.4c2.11-1.98,5.42-1.93,7.44,0.14l0,0c2.02,2.07,2.01,5.36,0,7.45
			C1030.87-963.19,1023.61-959.35,1015.22-957.89z M982.43-1004.65h47.71c2.1,0,3.73-1.89,3.35-3.96
			c-2.41-12.97-12.52-22.08-26.49-22.08c-13.93,0-24.53,8.68-27.88,21.87C978.59-1006.7,980.24-1004.65,982.43-1004.65z"/>
		<path d="M1113.03-1033.71L1113.03-1033.71c0,3.04-2.46,5.5-5.5,5.5h-15.16c-1.43,0-2.58,1.16-2.58,2.58v59.73
			c0,3.42-2.78,6.2-6.2,6.2l0,0c-3.42,0-6.2-2.78-6.2-6.2v-64.57c0-4.83,3.91-8.74,8.74-8.74h21.41
			C1110.56-1039.21,1113.03-1036.75,1113.03-1033.71z"/>
		<path d="M1203.72-1021.88c-2.16,2.16-5.62,2.05-7.76-0.12c-5.23-5.32-12.45-8.69-21.25-8.69c-17.21,0-29.61,13.02-29.61,31.15
			c0,17.83,12.4,31.15,29.61,31.15c9.24,0,16.66-3.82,21.96-9.52c2.08-2.23,5.55-2.39,7.73-0.25l0,0c2.02,1.98,2.14,5.18,0.3,7.33
			c-6.95,8.17-17.55,13.59-29.99,13.59c-22.67,0-39.07-14.96-41.88-35.83c-3.61-26.74,18.42-50.58,45.32-48.52
			c10.24,0.79,19.1,5.08,25.7,12.04c2.01,2.12,2,5.51-0.07,7.58L1203.72-1021.88z"/>
		<path d="M1236.87-965.95v-67.06c0-3.42,2.78-6.2,6.2-6.2l0,0c3.42,0,6.2,2.78,6.2,6.2v59.76c0,1.41,1.14,2.55,2.55,2.55h34.58
			c1.41,0,2.55-1.14,2.55-2.55v-59.76c0-3.42,2.78-6.2,6.2-6.2l0,0c3.42,0,6.2,2.78,6.2,6.2v67.06c0,3.45-2.8,6.25-6.25,6.25h-51.97
			C1239.67-959.7,1236.87-962.5,1236.87-965.95z"/>
		<path d="M1382.1-957.22c-13.95,0-26.35-6.04-31.46-16.43h-0.46c0.31,2.48,0.46,5.12,0.46,8.68l0,0c0,2.91-2.36,5.27-5.27,5.27
			h-1.08c-2.91,0-5.27-2.36-5.27-5.27v-104.78c0-3.42,2.78-6.2,6.2-6.2l0,0c3.42,0,6.2,2.78,6.2,6.2v35.18
			c0,4.18-0.16,6.51-0.47,8.68h0.47c5.11-9.3,17.67-15.81,30.53-15.81c24.8,0,41.23,17.82,41.23,42.16
			C1423.18-975.04,1406.9-957.22,1382.1-957.22z M1410.47-999.54c0-18.13-12.71-31.15-29.76-31.15c-17.36,0-29.76,13.02-29.76,31.15
			c0,17.83,12.4,31.15,29.76,31.15C1397.76-968.38,1410.47-981.71,1410.47-999.54z"/>
		<path d="M1497.11-957.62c-25.91,3.45-49.11-17.54-48.17-43.66c0.84-23.29,18.38-40.41,41.82-40.41
			c23.25,0,39.21,18.13,39.21,42.16v0.05c0,2.97-2.41,5.38-5.38,5.38l-60.65,0c-1.07,0-1.88,0.98-1.67,2.04
			c2.85,14.22,13.84,23.69,28.79,23.69c8.78,0,15.99-3.03,21.72-8.4c2.11-1.98,5.42-1.93,7.44,0.14l0,0c2.02,2.07,2.01,5.36,0,7.45
			C1514.08-962.79,1506.22-958.84,1497.11-957.62z M1464.26-1004.65h51.13c1.19,0,2.12-1.05,1.97-2.23
			c-1.8-13.88-12.18-23.81-26.76-23.81c-14.55,0-25.48,9.48-28.29,23.69C1462.07-1005.78,1463.02-1004.65,1464.26-1004.65z"/>
	</g>
</g>
<g>
	<path class="st1" d="M3315.83-1132.27c0-2.24-0.51-4.36-1.41-6.26c-0.71-1.97-1.84-3.82-3.42-5.4L3123.94-1331
		c-1.54-1.53-3.38-2.68-5.38-3.41c-1.91-0.9-4.03-1.42-6.29-1.42h-264.54c-2.26,0-4.39,0.52-6.31,1.43
		c-1.99,0.73-3.83,1.87-5.36,3.4L2649-1143.93c-1.53,1.53-2.68,3.37-3.41,5.37c-0.9,1.91-1.42,4.04-1.42,6.3v264.54
		c0,2.25,0.52,4.38,1.42,6.28c0.73,2,1.88,3.85,3.41,5.38L2836.06-669c1.54,1.54,3.38,2.68,5.38,3.41c1.91,0.9,4.03,1.42,6.28,1.42
		h264.54c2.25,0,4.37-0.52,6.27-1.41c1.96-0.71,3.81-1.84,5.39-3.42l187.06-187.06c1.53-1.53,2.68-3.37,3.41-5.37
		c0.9-1.91,1.43-4.04,1.43-6.3V-1132.27z M2688.46-1083.59l77.49,77.48c3.37,3.37,3.37,8.84,0,12.22l-77.49,77.48
		c-5.44,5.44-14.75,1.59-14.75-6.11v-154.97C2673.71-1085.18,2683.02-1089.04,2688.46-1083.59z M3007-913.96L3007-913.96
		c-3.38-3.38-3.38-8.85,0-12.22l0,0c1.62-1.62,3.82-2.53,6.11-2.53h0c4.77,0,8.64,3.87,8.64,8.64v0.01
		C3021.75-912.37,3012.44-908.52,3007-913.96z M2953-1086.04L2953-1086.04c3.38,3.38,3.38,8.85,0,12.22l0,0
		c-1.62,1.62-3.82,2.53-6.11,2.53h0c-4.77,0-8.64-3.87-8.64-8.64v0C2938.25-1087.62,2947.56-1091.48,2953-1086.04z M2960.18-960.78
		l-19.39-19.39c-1.62-1.62-2.53-3.82-2.53-6.11v-27.43c0-2.29,0.91-4.49,2.53-6.11l19.4-19.39c1.62-1.62,3.82-2.53,6.11-2.53h27.43
		c2.29,0,4.49,0.91,6.11,2.53l19.39,19.39c1.62,1.62,2.53,3.82,2.53,6.11v27.43c0,2.29-0.91,4.49-2.53,6.11l-19.4,19.39
		c-1.62,1.62-3.82,2.53-6.11,2.53h-27.43C2963.99-958.25,2961.8-959.16,2960.18-960.78z M2906.19-1027L2906.19-1027
		c-3.38,3.38-8.85,3.38-12.22,0l0,0c-5.44-5.44-1.59-14.75,6.11-14.75h0.01c4.77,0,8.64,3.87,8.64,8.64v0
		C2908.72-1030.81,2907.81-1028.62,2906.19-1027z M2908.72-966.89L2908.72-966.89c0,4.77-3.87,8.64-8.64,8.64h0
		c-7.7,0-11.55-9.31-6.11-14.75l0,0c3.37-3.37,8.84-3.37,12.22,0l0,0C2907.81-971.38,2908.72-969.18,2908.72-966.89z M3053.81-973
		L3053.81-973c3.38-3.38,8.85-3.38,12.22,0l0,0c5.44,5.44,1.59,14.75-6.11,14.75h-0.01c-4.77,0-8.64-3.87-8.64-8.64v0
		C3051.28-969.19,3052.19-971.38,3053.81-973z M3051.28-1033.11L3051.28-1033.11c0-4.77,3.87-8.64,8.64-8.64h0
		c7.7,0,11.55,9.31,6.11,14.75l0,0c-3.37,3.37-8.84,3.37-12.22,0l0,0C3052.19-1028.62,3051.28-1030.82,3051.28-1033.11z
		 M3088.86-1071.28h-28.94c-4.77,0-8.64-3.87-8.64-8.64v-28.94c0-4.77,3.87-8.64,8.64-8.64h28.94c4.77,0,8.64,3.87,8.64,8.64v28.94
		C3097.5-1075.15,3093.63-1071.28,3088.86-1071.28z M3013.11-1071.28L3013.11-1071.28c-2.29,0-4.49-0.91-6.11-2.53l0,0
		c-3.37-3.37-3.37-8.84,0-12.22l0,0c5.44-5.44,14.75-1.59,14.75,6.11v0C3021.75-1075.15,3017.88-1071.28,3013.11-1071.28z
		 M2973.89-1106.92l-20.46-20.46c-3.37-3.37-3.37-8.84,0-12.22l20.46-20.46c3.37-3.37,8.84-3.37,12.22,0l20.46,20.46
		c3.37,3.37,3.37,8.84,0,12.22l-20.46,20.46C2982.74-1103.55,2977.26-1103.55,2973.89-1106.92z M2900.08-1071.28h-28.94
		c-4.77,0-8.64-3.87-8.64-8.64v-28.94c0-4.77,3.87-8.64,8.64-8.64h28.94c4.77,0,8.64,3.87,8.64,8.64v28.94
		C2908.72-1075.15,2904.85-1071.28,2900.08-1071.28z M2830.43-1058.37l-31.38,31.38c-3.37,3.37-8.84,3.37-12.22,0l-75.76-75.76
		c-5.44-5.44-1.59-14.75,6.11-14.75h107.14c4.77,0,8.64,3.87,8.64,8.64v44.38C2832.96-1062.19,2832.05-1060,2830.43-1058.37z
		 M2852.62-1026.57l20.46,20.46c3.37,3.37,3.37,8.84,0,12.22l-20.46,20.46c-3.37,3.37-8.84,3.37-12.22,0l-20.46-20.46
		c-3.37-3.37-3.37-8.84,0-12.22l20.46-20.46C2843.77-1029.95,2849.24-1029.95,2852.62-1026.57z M2832.96-935.51v44.37
		c0,4.77-3.87,8.64-8.64,8.64h-107.14c-7.7,0-11.55-9.31-6.11-14.75l75.76-75.76c3.37-3.37,8.84-3.37,12.22,0l31.38,31.38
		C2832.05-940,2832.96-937.8,2832.96-935.51z M2871.14-928.72h28.94c4.77,0,8.64,3.87,8.64,8.64v28.94c0,4.77-3.87,8.64-8.64,8.64
		h-28.94c-4.77,0-8.64-3.87-8.64-8.64v-28.94C2862.5-924.85,2866.37-928.72,2871.14-928.72z M2946.89-928.72L2946.89-928.72
		c2.29,0,4.49,0.91,6.11,2.53l0,0c3.37,3.37,3.37,8.84,0,12.22l0,0c-5.44,5.44-14.75,1.59-14.75-6.11v0
		C2938.25-924.85,2942.12-928.72,2946.89-928.72z M2986.11-893.08l20.46,20.46c3.37,3.37,3.37,8.84,0,12.22l-20.46,20.46
		c-3.37,3.37-8.84,3.37-12.22,0l-20.46-20.46c-3.37-3.37-3.37-8.84,0-12.22l20.46-20.46
		C2977.26-896.45,2982.73-896.45,2986.11-893.08z M3059.92-928.72h28.94c4.77,0,8.64,3.87,8.64,8.64v28.94
		c0,4.77-3.87,8.64-8.64,8.64h-28.94c-4.77,0-8.64-3.87-8.64-8.64v-28.94C3051.28-924.85,3055.15-928.72,3059.92-928.72z
		 M3129.57-941.63l31.38-31.38c3.37-3.37,8.84-3.37,12.22,0l75.76,75.76c5.44,5.44,1.59,14.75-6.11,14.75h-107.14
		c-4.77,0-8.64-3.87-8.64-8.64v-44.38C3127.04-937.81,3127.95-940,3129.57-941.63z M3107.38-973.43l-20.46-20.46
		c-3.37-3.37-3.37-8.84,0-12.22l20.46-20.46c3.37-3.37,8.84-3.37,12.22,0l20.46,20.46c3.37,3.37,3.37,8.84,0,12.22l-20.46,20.46
		C3116.23-970.05,3110.76-970.05,3107.38-973.43z M3127.04-1064.48v-44.38c0-4.77,3.87-8.64,8.64-8.64h107.14
		c7.7,0,11.55,9.31,6.11,14.75l-75.76,75.76c-3.37,3.37-8.84,3.37-12.22,0l-31.38-31.38
		C3127.95-1060,3127.04-1062.19,3127.04-1064.48z M3127.04-1155.68v-109.58c0-7.7,9.31-11.55,14.75-6.11l109.58,109.58
		c5.44,5.44,1.59,14.75-6.11,14.75h-109.58C3130.91-1147.04,3127.04-1150.91,3127.04-1155.68z M3088.86-1147.04h-44.38
		c-2.29,0-4.49-0.91-6.11-2.53l-31.38-31.38c-3.37-3.37-3.37-8.84,0-12.22l75.76-75.76c5.44-5.44,14.75-1.59,14.75,6.11v107.14
		C3097.5-1150.91,3093.63-1147.04,3088.86-1147.04z M2973.89-1214.05l-77.49-77.49c-5.44-5.44-1.59-14.75,6.11-14.75h154.97
		c7.7,0,11.55,9.31,6.11,14.75l-77.49,77.49C2982.73-1210.68,2977.26-1210.68,2973.89-1214.05z M2953-1180.95l-31.38,31.38
		c-1.62,1.62-3.82,2.53-6.11,2.53h-44.38c-4.77,0-8.64-3.87-8.64-8.64v-107.14c0-7.7,9.31-11.55,14.75-6.11l75.76,75.76
		C2956.38-1189.79,2956.38-1184.32,2953-1180.95z M2824.32-1147.04h-109.58c-7.7,0-11.55-9.31-6.11-14.75l109.58-109.58
		c5.44-5.44,14.75-1.59,14.75,6.11v109.58C2832.96-1150.91,2829.09-1147.04,2824.32-1147.04z M2832.96-844.32v109.59
		c0,7.7-9.31,11.55-14.75,6.11l-109.59-109.59c-5.44-5.44-1.59-14.75,6.11-14.75h109.59
		C2829.09-852.96,2832.96-849.09,2832.96-844.32z M2871.14-852.96h44.37c2.29,0,4.49,0.91,6.11,2.53l31.38,31.38
		c3.37,3.37,3.37,8.84,0,12.22l-75.76,75.76c-5.44,5.44-14.75,1.59-14.75-6.11v-107.14C2862.5-849.09,2866.37-852.96,2871.14-852.96
		z M2986.11-785.94l77.49,77.49c5.44,5.44,1.59,14.75-6.11,14.75h-154.97c-7.7,0-11.55-9.31-6.11-14.75l77.48-77.49
		C2977.26-789.32,2982.73-789.32,2986.11-785.94z M3006.99-819.05l31.38-31.38c1.62-1.62,3.82-2.53,6.11-2.53h44.38
		c4.77,0,8.64,3.87,8.64,8.64v107.14c0,7.7-9.31,11.55-14.75,6.11l-75.76-75.76C3003.62-810.2,3003.62-815.68,3006.99-819.05z
		 M3135.68-852.96h109.58c7.7,0,11.55,9.31,6.11,14.75l-109.58,109.58c-5.44,5.44-14.75,1.59-14.75-6.11v-109.58
		C3127.04-849.09,3130.91-852.96,3135.68-852.96z M3194.05-1006.11l77.49-77.49c5.44-5.44,14.75-1.59,14.75,6.11v154.97
		c0,7.7-9.31,11.55-14.75,6.11l-77.49-77.49C3190.68-997.26,3190.68-1002.73,3194.05-1006.11z"/>
</g>
<g>
	<path d="M5335.83-1132.27c0-2.24-0.51-4.36-1.41-6.26c-0.71-1.97-1.85-3.82-3.42-5.4L5143.94-1331c-1.54-1.53-3.38-2.68-5.38-3.41
		c-1.91-0.9-4.03-1.42-6.29-1.42h-264.54c-2.26,0-4.39,0.52-6.31,1.43c-1.99,0.73-3.83,1.87-5.36,3.4L4669-1143.93
		c-1.53,1.53-2.68,3.37-3.41,5.37c-0.9,1.91-1.42,4.04-1.42,6.3v264.54c0,2.25,0.52,4.38,1.42,6.28c0.73,2,1.88,3.85,3.41,5.38
		L4856.06-669c1.54,1.54,3.38,2.68,5.38,3.41c1.91,0.9,4.03,1.42,6.28,1.42h264.54c2.25,0,4.37-0.52,6.27-1.41
		c1.96-0.71,3.81-1.84,5.39-3.42l187.06-187.06c1.53-1.53,2.68-3.37,3.41-5.37c0.9-1.91,1.43-4.04,1.43-6.3V-1132.27z
		 M4708.46-1083.59l77.49,77.48c3.37,3.37,3.37,8.84,0,12.22l-77.49,77.48c-5.44,5.44-14.75,1.59-14.75-6.11v-154.97
		C4693.71-1085.18,4703.02-1089.04,4708.46-1083.59z M5027-913.96L5027-913.96c-3.38-3.38-3.38-8.85,0-12.22l0,0
		c1.62-1.62,3.82-2.53,6.11-2.53h0c4.77,0,8.64,3.87,8.64,8.64v0.01C5041.75-912.37,5032.44-908.52,5027-913.96z M4973-1086.04
		L4973-1086.04c3.38,3.38,3.38,8.85,0,12.22l0,0c-1.62,1.62-3.82,2.53-6.11,2.53h0c-4.77,0-8.64-3.87-8.64-8.64v0
		C4958.25-1087.62,4967.56-1091.48,4973-1086.04z M4980.18-960.78l-19.39-19.39c-1.62-1.62-2.53-3.82-2.53-6.11v-27.43
		c0-2.29,0.91-4.49,2.53-6.11l19.4-19.39c1.62-1.62,3.82-2.53,6.11-2.53h27.43c2.29,0,4.49,0.91,6.11,2.53l19.39,19.39
		c1.62,1.62,2.53,3.82,2.53,6.11v27.43c0,2.29-0.91,4.49-2.53,6.11l-19.4,19.39c-1.62,1.62-3.82,2.53-6.11,2.53h-27.43
		C4983.99-958.25,4981.8-959.16,4980.18-960.78z M4926.19-1027L4926.19-1027c-3.38,3.38-8.85,3.38-12.22,0l0,0
		c-5.44-5.44-1.59-14.75,6.11-14.75h0.01c4.77,0,8.64,3.87,8.64,8.64v0C4928.72-1030.81,4927.81-1028.62,4926.19-1027z
		 M4928.72-966.89L4928.72-966.89c0,4.77-3.87,8.64-8.64,8.64h0c-7.7,0-11.55-9.31-6.11-14.75l0,0c3.37-3.37,8.84-3.37,12.22,0l0,0
		C4927.81-971.38,4928.72-969.18,4928.72-966.89z M5073.81-973L5073.81-973c3.38-3.38,8.85-3.38,12.22,0l0,0
		c5.44,5.44,1.59,14.75-6.11,14.75h-0.01c-4.77,0-8.64-3.87-8.64-8.64v0C5071.28-969.19,5072.19-971.38,5073.81-973z
		 M5071.28-1033.11L5071.28-1033.11c0-4.77,3.87-8.64,8.64-8.64h0c7.7,0,11.55,9.31,6.11,14.75l0,0c-3.37,3.37-8.84,3.37-12.22,0
		l0,0C5072.19-1028.62,5071.28-1030.82,5071.28-1033.11z M5108.86-1071.28h-28.94c-4.77,0-8.64-3.87-8.64-8.64v-28.94
		c0-4.77,3.87-8.64,8.64-8.64h28.94c4.77,0,8.64,3.87,8.64,8.64v28.94C5117.5-1075.15,5113.63-1071.28,5108.86-1071.28z
		 M5033.11-1071.28L5033.11-1071.28c-2.29,0-4.49-0.91-6.11-2.53l0,0c-3.37-3.37-3.37-8.84,0-12.22l0,0
		c5.44-5.44,14.75-1.59,14.75,6.11v0C5041.75-1075.15,5037.88-1071.28,5033.11-1071.28z M4993.89-1106.92l-20.46-20.46
		c-3.37-3.37-3.37-8.84,0-12.22l20.46-20.46c3.37-3.37,8.84-3.37,12.22,0l20.46,20.46c3.37,3.37,3.37,8.84,0,12.22l-20.46,20.46
		C5002.74-1103.55,4997.26-1103.55,4993.89-1106.92z M4920.08-1071.28h-28.94c-4.77,0-8.64-3.87-8.64-8.64v-28.94
		c0-4.77,3.87-8.64,8.64-8.64h28.94c4.77,0,8.64,3.87,8.64,8.64v28.94C4928.72-1075.15,4924.85-1071.28,4920.08-1071.28z
		 M4850.43-1058.37l-31.38,31.38c-3.37,3.37-8.84,3.37-12.22,0l-75.76-75.76c-5.44-5.44-1.59-14.75,6.11-14.75h107.14
		c4.77,0,8.64,3.87,8.64,8.64v44.38C4852.96-1062.19,4852.05-1060,4850.43-1058.37z M4872.62-1026.57l20.46,20.46
		c3.37,3.37,3.37,8.84,0,12.22l-20.46,20.46c-3.37,3.37-8.84,3.37-12.22,0l-20.46-20.46c-3.37-3.37-3.37-8.84,0-12.22l20.46-20.46
		C4863.77-1029.95,4869.24-1029.95,4872.62-1026.57z M4852.96-935.51v44.37c0,4.77-3.87,8.64-8.64,8.64h-107.14
		c-7.7,0-11.55-9.31-6.11-14.75l75.76-75.76c3.37-3.37,8.84-3.37,12.22,0l31.38,31.38C4852.05-940,4852.96-937.8,4852.96-935.51z
		 M4891.14-928.72h28.94c4.77,0,8.64,3.87,8.64,8.64v28.94c0,4.77-3.87,8.64-8.64,8.64h-28.94c-4.77,0-8.64-3.87-8.64-8.64v-28.94
		C4882.5-924.85,4886.37-928.72,4891.14-928.72z M4966.89-928.72L4966.89-928.72c2.29,0,4.49,0.91,6.11,2.53l0,0
		c3.37,3.37,3.37,8.84,0,12.22l0,0c-5.44,5.44-14.75,1.59-14.75-6.11v0C4958.25-924.85,4962.12-928.72,4966.89-928.72z
		 M5006.11-893.08l20.46,20.46c3.37,3.37,3.37,8.84,0,12.22l-20.46,20.46c-3.37,3.37-8.84,3.37-12.22,0l-20.46-20.46
		c-3.37-3.37-3.37-8.84,0-12.22l20.46-20.46C4997.26-896.45,5002.73-896.45,5006.11-893.08z M5079.92-928.72h28.94
		c4.77,0,8.64,3.87,8.64,8.64v28.94c0,4.77-3.87,8.64-8.64,8.64h-28.94c-4.77,0-8.64-3.87-8.64-8.64v-28.94
		C5071.28-924.85,5075.15-928.72,5079.92-928.72z M5149.57-941.63l31.38-31.38c3.37-3.37,8.84-3.37,12.22,0l75.76,75.76
		c5.44,5.44,1.59,14.75-6.11,14.75h-107.14c-4.77,0-8.64-3.87-8.64-8.64v-44.38C5147.04-937.81,5147.95-940,5149.57-941.63z
		 M5127.38-973.43l-20.46-20.46c-3.37-3.37-3.37-8.84,0-12.22l20.46-20.46c3.37-3.37,8.84-3.37,12.22,0l20.46,20.46
		c3.37,3.37,3.37,8.84,0,12.22l-20.46,20.46C5136.23-970.05,5130.76-970.05,5127.38-973.43z M5147.04-1064.48v-44.38
		c0-4.77,3.87-8.64,8.64-8.64h107.14c7.7,0,11.55,9.31,6.11,14.75l-75.76,75.76c-3.37,3.37-8.84,3.37-12.22,0l-31.38-31.38
		C5147.95-1060,5147.04-1062.19,5147.04-1064.48z M5147.04-1155.68v-109.58c0-7.7,9.31-11.55,14.75-6.11l109.58,109.58
		c5.44,5.44,1.59,14.75-6.11,14.75h-109.58C5150.91-1147.04,5147.04-1150.91,5147.04-1155.68z M5108.86-1147.04h-44.38
		c-2.29,0-4.49-0.91-6.11-2.53l-31.38-31.38c-3.37-3.37-3.37-8.84,0-12.22l75.76-75.76c5.44-5.44,14.75-1.59,14.75,6.11v107.14
		C5117.5-1150.91,5113.63-1147.04,5108.86-1147.04z M4993.89-1214.05l-77.49-77.49c-5.44-5.44-1.59-14.75,6.11-14.75h154.97
		c7.7,0,11.55,9.31,6.11,14.75l-77.49,77.49C5002.73-1210.68,4997.26-1210.68,4993.89-1214.05z M4973-1180.95l-31.38,31.38
		c-1.62,1.62-3.82,2.53-6.11,2.53h-44.38c-4.77,0-8.64-3.87-8.64-8.64v-107.14c0-7.7,9.31-11.55,14.75-6.11l75.76,75.76
		C4976.38-1189.79,4976.38-1184.32,4973-1180.95z M4844.32-1147.04h-109.58c-7.7,0-11.55-9.31-6.11-14.75l109.58-109.58
		c5.44-5.44,14.75-1.59,14.75,6.11v109.58C4852.96-1150.91,4849.09-1147.04,4844.32-1147.04z M4852.96-844.32v109.59
		c0,7.7-9.31,11.55-14.75,6.11l-109.59-109.59c-5.44-5.44-1.59-14.75,6.11-14.75h109.59
		C4849.09-852.96,4852.96-849.09,4852.96-844.32z M4891.14-852.96h44.37c2.29,0,4.49,0.91,6.11,2.53l31.38,31.38
		c3.37,3.37,3.37,8.84,0,12.22l-75.76,75.76c-5.44,5.44-14.75,1.59-14.75-6.11v-107.14C4882.5-849.09,4886.37-852.96,4891.14-852.96
		z M5006.11-785.94l77.49,77.49c5.44,5.44,1.59,14.75-6.11,14.75h-154.97c-7.7,0-11.55-9.31-6.11-14.75l77.48-77.49
		C4997.26-789.32,5002.73-789.32,5006.11-785.94z M5026.99-819.05l31.38-31.38c1.62-1.62,3.82-2.53,6.11-2.53h44.38
		c4.77,0,8.64,3.87,8.64,8.64v107.14c0,7.7-9.31,11.55-14.75,6.11l-75.76-75.76C5023.62-810.2,5023.62-815.68,5026.99-819.05z
		 M5155.68-852.96h109.58c7.7,0,11.55,9.31,6.11,14.75l-109.58,109.58c-5.44,5.44-14.75,1.59-14.75-6.11v-109.58
		C5147.04-849.09,5150.91-852.96,5155.68-852.96z M5214.05-1006.11l77.49-77.49c5.44-5.44,14.75-1.59,14.75,6.11v154.97
		c0,7.7-9.31,11.55-14.75,6.11l-77.49-77.49C5210.68-997.26,5210.68-1002.73,5214.05-1006.11z"/>
</g>
<g>
	<path class="st2" d="M-1450.17,589.43v-92.15c0-3.04,2.46-5.5,5.5-5.5l0,0c3.04,0,5.5,2.46,5.5,5.5v24.16
		c0,1.62,1.31,2.93,2.93,2.93h37.37c3.72,0,6.73,3.01,6.73,6.73v58.32c0,3.04-2.46,5.5-5.5,5.5l0,0c-3.04,0-5.5-2.46-5.5-5.5v-52.98
		c0-1.35-1.1-2.45-2.45-2.45h-30.65c-1.62,0-2.93,1.31-2.93,2.93v52.49c0,3.04-2.46,5.5-5.5,5.5l0,0
		C-1447.71,594.93-1450.17,592.47-1450.17,589.43z"/>
	<path class="st2" d="M-1347.92,616.8h32.85c1.26,0,2.29-1.02,2.29-2.29v-21.5c0-2.89,0.14-5.09,0.28-7.01h-0.41
		c-1.51,3.99-7.43,10.18-20.35,10.18c-15.54,0-26.54-11.83-26.54-28.19v-38.1c0-3.04,2.46-5.5,5.5-5.5l0,0c3.04,0,5.5,2.46,5.5,5.5
		v37.96c0,10.87,7.43,18.29,18.02,18.29c10.59,0,18.02-7.43,18.02-18.29v-37.96c0-3.04,2.46-5.5,5.5-5.5l0,0
		c3.04,0,5.5,2.46,5.5,5.5v89.25c0,4.1-3.33,7.43-7.43,7.43h-38.71c-2.7,0-4.88-2.19-4.88-4.88l0,0
		C-1352.8,618.99-1350.62,616.8-1347.92,616.8z"/>
	<path class="st2" d="M-1230.26,597.13c-12.65,0-23.24-5.5-27.09-13.75h-0.41c0.27,1.79,0.41,3.85,0.41,7.43v30.94
		c0,2.66-2.16,4.81-4.81,4.81h-1.38c-2.66,0-4.81-2.16-4.81-4.81v-92.56c0-2.66,2.16-4.81,4.81-4.81h0.69
		c2.66,0,4.81,2.16,4.81,4.81l0,0c0,3.3-0.14,5.36-0.41,7.43h0.41c4.68-7.98,14.85-14.44,28.33-14.44
		c21.04,0,36.03,15.82,36.03,37.41C-1193.68,581.32-1208.81,597.13-1230.26,597.13z M-1257.77,559.59
		c0,15.95,11.14,27.64,26.54,27.64c14.99,0,26.27-11.69,26.27-27.64c0-15.95-11.28-27.64-26.27-27.64
		C-1246.63,531.95-1257.77,543.64-1257.77,559.59z"/>
	<path class="st2" d="M-1126.56,596.54c-24.04,4.19-45.95-15.73-44.17-40.07c1.45-19.86,16.75-34.29,37.02-34.29
		c20.63,0,34.79,16.09,34.79,37.41v0.04c0,2.64-2.14,4.77-4.78,4.77l-53.06,0c-1.37,0-2.36,1.28-2.05,2.62
		c2.78,12.16,12.39,20.21,25.37,20.21c7.79,0,14.19-2.69,19.27-7.45c1.88-1.76,4.81-1.71,6.61,0.12h0c1.8,1.83,1.78,4.76,0,6.61
		C-1112.68,591.84-1119.12,595.25-1126.56,596.54z M-1155.66,555.05h42.34c1.86,0,3.31-1.68,2.97-3.51
		c-2.14-11.51-11.11-19.59-23.5-19.59c-12.36,0-21.77,7.7-24.74,19.41C-1159.07,553.23-1157.6,555.05-1155.66,555.05z"/>
	<path class="st2" d="M-1039.78,529.26L-1039.78,529.26c0,2.7-2.19,4.88-4.88,4.88h-13.46c-1.27,0-2.29,1.03-2.29,2.29v53
		c0,3.04-2.46,5.5-5.5,5.5l0,0c-3.04,0-5.5-2.46-5.5-5.5v-57.3c0-4.28,3.47-7.76,7.76-7.76h18.99
		C-1041.97,524.38-1039.78,526.57-1039.78,529.26z"/>
	<path class="st2" d="M-959.31,539.76c-1.91,1.91-4.98,1.82-6.88-0.11c-4.64-4.72-11.05-7.71-18.86-7.71
		c-15.27,0-26.27,11.55-26.27,27.64c0,15.82,11,27.64,26.27,27.64c8.2,0,14.79-3.39,19.48-8.44c1.84-1.98,4.93-2.12,6.86-0.22l0,0
		c1.79,1.76,1.9,4.6,0.27,6.51c-6.17,7.24-15.57,12.06-26.61,12.06c-20.11,0-34.67-13.28-37.16-31.79
		c-3.2-23.73,16.34-44.88,40.21-43.05c9.09,0.7,16.94,4.51,22.8,10.68c1.79,1.88,1.78,4.89-0.06,6.73L-959.31,539.76z"/>
	<path class="st2" d="M-929.9,589.38v-59.5c0-3.04,2.46-5.5,5.5-5.5l0,0c3.04,0,5.5,2.46,5.5,5.5v53.02c0,1.25,1.01,2.26,2.26,2.26
		h30.68c1.25,0,2.26-1.01,2.26-2.26v-53.02c0-3.04,2.46-5.5,5.5-5.5l0,0c3.04,0,5.5,2.46,5.5,5.5v59.5c0,3.06-2.48,5.55-5.55,5.55
		h-46.11C-927.41,594.93-929.9,592.45-929.9,589.38z"/>
	<path class="st2" d="M-801.03,597.13c-12.38,0-23.38-5.36-27.92-14.58h-0.41c0.27,2.2,0.41,4.54,0.41,7.7l0,0
		c0,2.58-2.09,4.68-4.68,4.68h-0.96c-2.58,0-4.68-2.09-4.68-4.68v-92.97c0-3.04,2.46-5.5,5.5-5.5h0c3.04,0,5.5,2.46,5.5,5.5v31.22
		c0,3.71-0.14,5.78-0.41,7.7h0.41c4.54-8.25,15.68-14.03,27.09-14.03c22,0,36.58,15.82,36.58,37.41
		C-764.59,581.32-779.03,597.13-801.03,597.13z M-775.86,559.59c0-16.09-11.28-27.64-26.41-27.64c-15.4,0-26.41,11.55-26.41,27.64
		c0,15.82,11,27.64,26.41,27.64C-787.14,587.23-775.86,575.4-775.86,559.59z"/>
	<path class="st2" d="M-698.99,596.78c-22.99,3.07-43.57-15.56-42.74-38.74c0.74-20.67,16.3-35.86,37.11-35.86
		c20.63,0,34.79,16.09,34.79,37.41v0.04c0,2.64-2.14,4.77-4.78,4.77l-53.81,0c-0.95,0-1.67,0.87-1.48,1.81
		c2.53,12.62,12.28,21.02,25.55,21.02c7.79,0,14.19-2.69,19.27-7.45c1.88-1.76,4.81-1.71,6.61,0.12l0,0c1.8,1.83,1.78,4.76,0,6.61
		C-683.93,592.2-690.9,595.7-698.99,596.78z M-728.13,555.05h45.37c1.06,0,1.88-0.93,1.75-1.97c-1.6-12.32-10.81-21.13-23.74-21.13
		c-12.91,0-22.61,8.41-25.1,21.02C-730.08,554.04-729.23,555.05-728.13,555.05z"/>
</g>
<g>
	<path d="M569.83,589.43v-92.15c0-3.04,2.46-5.5,5.5-5.5l0,0c3.04,0,5.5,2.46,5.5,5.5v24.16c0,1.62,1.31,2.93,2.93,2.93h37.37
		c3.72,0,6.73,3.01,6.73,6.73v58.32c0,3.04-2.46,5.5-5.5,5.5l0,0c-3.04,0-5.5-2.46-5.5-5.5v-52.98c0-1.35-1.1-2.45-2.45-2.45h-30.65
		c-1.62,0-2.93,1.31-2.93,2.93v52.49c0,3.04-2.46,5.5-5.5,5.5l0,0C572.29,594.93,569.83,592.47,569.83,589.43z"/>
	<path d="M672.08,616.8h32.85c1.26,0,2.29-1.02,2.29-2.29v-21.5c0-2.89,0.14-5.09,0.28-7.01h-0.41
		c-1.51,3.99-7.43,10.18-20.35,10.18c-15.54,0-26.54-11.83-26.54-28.19v-38.1c0-3.04,2.46-5.5,5.5-5.5l0,0c3.04,0,5.5,2.46,5.5,5.5
		v37.96c0,10.87,7.43,18.29,18.02,18.29c10.59,0,18.02-7.43,18.02-18.29v-37.96c0-3.04,2.46-5.5,5.5-5.5l0,0
		c3.04,0,5.5,2.46,5.5,5.5v89.25c0,4.1-3.33,7.43-7.43,7.43h-38.71c-2.7,0-4.88-2.19-4.88-4.88l0,0
		C667.2,618.99,669.38,616.8,672.08,616.8z"/>
	<path d="M789.74,597.13c-12.65,0-23.24-5.5-27.09-13.75h-0.41c0.27,1.79,0.41,3.85,0.41,7.43v30.94c0,2.66-2.16,4.81-4.81,4.81
		h-1.38c-2.66,0-4.81-2.16-4.81-4.81v-92.56c0-2.66,2.16-4.81,4.81-4.81h0.69c2.66,0,4.81,2.16,4.81,4.81l0,0
		c0,3.3-0.14,5.36-0.41,7.43h0.41c4.68-7.98,14.85-14.44,28.33-14.44c21.04,0,36.03,15.82,36.03,37.41
		C826.32,581.32,811.19,597.13,789.74,597.13z M762.23,559.59c0,15.95,11.14,27.64,26.54,27.64c14.99,0,26.27-11.69,26.27-27.64
		c0-15.95-11.28-27.64-26.27-27.64C773.37,531.95,762.23,543.64,762.23,559.59z"/>
	<path d="M893.44,596.54c-24.04,4.19-45.95-15.73-44.17-40.07c1.45-19.86,16.75-34.29,37.02-34.29c20.63,0,34.79,16.09,34.79,37.41
		l0,0.04c0,2.64-2.14,4.77-4.78,4.77l-53.06,0c-1.37,0-2.36,1.28-2.05,2.62c2.78,12.16,12.39,20.21,25.37,20.21
		c7.79,0,14.19-2.69,19.27-7.45c1.88-1.76,4.81-1.71,6.61,0.12l0,0c1.8,1.83,1.78,4.76,0,6.61
		C907.32,591.84,900.88,595.25,893.44,596.54z M864.34,555.05h42.34c1.86,0,3.31-1.68,2.97-3.51c-2.14-11.51-11.11-19.59-23.5-19.59
		c-12.36,0-21.77,7.7-24.74,19.41C860.93,553.23,862.4,555.05,864.34,555.05z"/>
	<path d="M980.22,529.26L980.22,529.26c0,2.7-2.19,4.88-4.88,4.88h-13.45c-1.27,0-2.29,1.03-2.29,2.29v53c0,3.04-2.46,5.5-5.5,5.5
		l0,0c-3.04,0-5.5-2.46-5.5-5.5v-57.3c0-4.28,3.47-7.76,7.76-7.76h18.99C978.03,524.38,980.22,526.57,980.22,529.26z"/>
	<path d="M1060.69,539.76c-1.91,1.91-4.98,1.82-6.88-0.11c-4.64-4.72-11.05-7.71-18.86-7.71c-15.27,0-26.27,11.55-26.27,27.64
		c0,15.82,11,27.64,26.27,27.64c8.2,0,14.79-3.39,19.48-8.44c1.84-1.98,4.93-2.12,6.86-0.22l0,0c1.79,1.76,1.9,4.6,0.27,6.51
		c-6.17,7.24-15.57,12.06-26.61,12.06c-20.11,0-34.67-13.28-37.16-31.79c-3.2-23.73,16.34-44.88,40.21-43.05
		c9.09,0.7,16.94,4.51,22.8,10.68c1.79,1.88,1.78,4.89-0.06,6.73L1060.69,539.76z"/>
	<path d="M1090.1,589.38v-59.5c0-3.04,2.46-5.5,5.5-5.5l0,0c3.04,0,5.5,2.46,5.5,5.5v53.02c0,1.25,1.01,2.26,2.26,2.26h30.68
		c1.25,0,2.26-1.01,2.26-2.26v-53.02c0-3.04,2.46-5.5,5.5-5.5l0,0c3.04,0,5.5,2.46,5.5,5.5v59.5c0,3.06-2.48,5.55-5.55,5.55h-46.11
		C1092.59,594.93,1090.1,592.45,1090.1,589.38z"/>
	<path d="M1218.97,597.13c-12.38,0-23.38-5.36-27.92-14.58h-0.41c0.27,2.2,0.41,4.54,0.41,7.7l0,0c0,2.58-2.09,4.68-4.68,4.68h-0.96
		c-2.58,0-4.68-2.09-4.68-4.68v-92.97c0-3.04,2.46-5.5,5.5-5.5l0,0c3.04,0,5.5,2.46,5.5,5.5v31.22c0,3.71-0.14,5.78-0.41,7.7h0.41
		c4.54-8.25,15.68-14.03,27.09-14.03c22,0,36.58,15.82,36.58,37.41C1255.41,581.32,1240.97,597.13,1218.97,597.13z M1244.14,559.59
		c0-16.09-11.28-27.64-26.41-27.64c-15.4,0-26.41,11.55-26.41,27.64c0,15.82,11,27.64,26.41,27.64
		C1232.86,587.23,1244.14,575.4,1244.14,559.59z"/>
	<path d="M1321.01,596.78c-22.99,3.07-43.57-15.56-42.74-38.74c0.74-20.67,16.3-35.86,37.11-35.86c20.63,0,34.79,16.09,34.79,37.41
		l0,0.04c0,2.64-2.14,4.77-4.78,4.77l-53.81,0c-0.95,0-1.67,0.87-1.48,1.81c2.53,12.62,12.28,21.02,25.55,21.02
		c7.79,0,14.19-2.69,19.27-7.45c1.88-1.76,4.81-1.71,6.61,0.12l0,0c1.8,1.83,1.78,4.76,0,6.61
		C1336.07,592.2,1329.1,595.7,1321.01,596.78z M1291.87,555.05h45.37c1.06,0,1.88-0.93,1.75-1.97
		c-1.6-12.32-10.81-21.13-23.74-21.13c-12.91,0-22.61,8.41-25.1,21.02C1289.92,554.04,1290.77,555.05,1291.87,555.05z"/>
</g>
</svg>
