<?xml version="1.0" encoding="utf-8"?>
<!-- Generator: Adobe Adobe Illustrator 24.2.0, SVG Export Plug-In . SVG Version: 6.00 Build 0)  -->
<svg version="1.1" id="Layer_1" xmlns="http://www.w3.org/2000/svg" xmlns:xlink="http://www.w3.org/1999/xlink" x="0px" y="0px"
	 viewBox="0 0 1920 1080" style="enable-background:new 0 0 1920 1080;" xml:space="preserve">
<style type="text/css">
	.st0{fill:#3FBA7D;}
	.st1{fill:#1D5E3E;}
	.st2{fill:#C4FFE2;}
</style>
<rect y="1540" class="st0" width="1920" height="1080"/>
<g>
	<g>
		<path class="st1" d="M605.39,2056.76c0-0.72-0.16-1.4-0.45-2.01c-0.23-0.63-0.59-1.23-1.1-1.73l-59.98-59.98
			c-0.49-0.49-1.08-0.86-1.73-1.09c-0.61-0.29-1.29-0.45-2.02-0.45H455.3c-0.72,0-1.41,0.17-2.02,0.46
			c-0.64,0.23-1.23,0.6-1.72,1.09l-59.98,59.98c-0.49,0.49-0.86,1.08-1.09,1.72c-0.29,0.61-0.46,1.3-0.46,2.02v84.82
			c0,0.72,0.17,1.4,0.45,2.01c0.23,0.64,0.6,1.23,1.09,1.73l59.98,59.98c0.49,0.49,1.08,0.86,1.73,1.09
			c0.61,0.29,1.29,0.45,2.02,0.45h84.82c0.72,0,1.4-0.17,2.01-0.45c0.63-0.23,1.22-0.59,1.73-1.1l59.98-59.98
			c0.49-0.49,0.86-1.08,1.09-1.72c0.29-0.61,0.46-1.3,0.46-2.02V2056.76z M404.23,2072.37l24.85,24.85c1.08,1.08,1.08,2.84,0,3.92
			l-24.85,24.85c-1.75,1.75-4.73,0.51-4.73-1.96v-49.69C399.5,2071.86,402.48,2070.63,404.23,2072.37z M506.37,2126.76
			L506.37,2126.76c-1.08-1.08-1.08-2.84,0-3.92l0,0c0.52-0.52,1.22-0.81,1.96-0.81h0c1.53,0,2.77,1.24,2.77,2.77v0
			C511.1,2127.27,508.11,2128.51,506.37,2126.76z M489.05,2071.59L489.05,2071.59c1.08,1.08,1.08,2.84,0,3.92l0,0
			c-0.52,0.52-1.22,0.81-1.96,0.81h0c-1.53,0-2.77-1.24-2.77-2.77v0C484.33,2071.08,487.31,2069.84,489.05,2071.59z M491.36,2111.75
			l-6.22-6.22c-0.52-0.52-0.81-1.22-0.81-1.96v-8.79c0-0.73,0.29-1.44,0.81-1.96l6.22-6.22c0.52-0.52,1.22-0.81,1.96-0.81h8.79
			c0.73,0,1.44,0.29,1.96,0.81l6.22,6.22c0.52,0.52,0.81,1.22,0.81,1.96v8.79c0,0.73-0.29,1.44-0.81,1.96l-6.22,6.22
			c-0.52,0.52-1.22,0.81-1.96,0.81h-8.79C492.58,2112.56,491.87,2112.27,491.36,2111.75z M474.04,2090.52L474.04,2090.52
			c-1.08,1.08-2.84,1.08-3.92,0l0,0c-1.75-1.75-0.51-4.73,1.96-4.73h0c1.53,0,2.77,1.24,2.77,2.77v0
			C474.85,2089.3,474.56,2090,474.04,2090.52z M474.85,2109.79L474.85,2109.79c0,1.53-1.24,2.77-2.77,2.77h0
			c-2.47,0-3.7-2.98-1.96-4.73l0,0c1.08-1.08,2.84-1.08,3.92,0l0,0C474.56,2108.35,474.85,2109.06,474.85,2109.79z M521.38,2107.83
			L521.38,2107.83c1.08-1.08,2.84-1.08,3.92,0l0,0c1.75,1.75,0.51,4.73-1.96,4.73h0c-1.53,0-2.77-1.24-2.77-2.77v0
			C520.57,2109.06,520.86,2108.35,521.38,2107.83z M520.57,2088.56L520.57,2088.56c0-1.53,1.24-2.77,2.77-2.77h0
			c2.47,0,3.7,2.98,1.96,4.73l0,0c-1.08,1.08-2.84,1.08-3.92,0l0,0C520.86,2090,520.57,2089.3,520.57,2088.56z M532.62,2076.32
			h-9.28c-1.53,0-2.77-1.24-2.77-2.77v-9.28c0-1.53,1.24-2.77,2.77-2.77h9.28c1.53,0,2.77,1.24,2.77,2.77v9.28
			C535.39,2075.08,534.15,2076.32,532.62,2076.32z M508.33,2076.32L508.33,2076.32c-0.74,0-1.44-0.29-1.96-0.81l0,0
			c-1.08-1.08-1.08-2.84,0-3.92l0,0c1.75-1.75,4.73-0.51,4.73,1.96v0C511.1,2075.08,509.86,2076.32,508.33,2076.32z M495.75,2064.89
			l-6.56-6.56c-1.08-1.08-1.08-2.84,0-3.92l6.56-6.56c1.08-1.08,2.84-1.08,3.92,0l6.56,6.56c1.08,1.08,1.08,2.84,0,3.92l-6.56,6.56
			C498.59,2065.97,496.83,2065.97,495.75,2064.89z M472.08,2076.32h-9.28c-1.53,0-2.77-1.24-2.77-2.77v-9.28
			c0-1.53,1.24-2.77,2.77-2.77h9.28c1.53,0,2.77,1.24,2.77,2.77v9.28C474.85,2075.08,473.61,2076.32,472.08,2076.32z
			 M449.75,2080.46l-10.06,10.06c-1.08,1.08-2.84,1.08-3.92,0l-24.29-24.29c-1.75-1.75-0.51-4.73,1.96-4.73h34.36
			c1.53,0,2.77,1.24,2.77,2.77v14.23C450.56,2079.23,450.27,2079.94,449.75,2080.46z M456.87,2090.66l6.56,6.56
			c1.08,1.08,1.08,2.84,0,3.92l-6.56,6.56c-1.08,1.08-2.84,1.08-3.92,0l-6.56-6.56c-1.08-1.08-1.08-2.84,0-3.92l6.56-6.56
			C454.03,2089.57,455.78,2089.57,456.87,2090.66z M450.56,2119.85v14.23c0,1.53-1.24,2.77-2.77,2.77h-34.35
			c-2.47,0-3.7-2.98-1.96-4.73l24.29-24.29c1.08-1.08,2.84-1.08,3.92,0l10.06,10.06C450.27,2118.41,450.56,2119.12,450.56,2119.85z
			 M462.81,2122.03h9.28c1.53,0,2.77,1.24,2.77,2.77v9.28c0,1.53-1.24,2.77-2.77,2.77h-9.28c-1.53,0-2.77-1.24-2.77-2.77v-9.28
			C460.04,2123.27,461.28,2122.03,462.81,2122.03z M487.1,2122.03L487.1,2122.03c0.73,0,1.44,0.29,1.96,0.81l0,0
			c1.08,1.08,1.08,2.84,0,3.92l0,0c-1.75,1.75-4.73,0.51-4.73-1.96v0C484.33,2123.27,485.57,2122.03,487.1,2122.03z M499.67,2133.46
			l6.56,6.56c1.08,1.08,1.08,2.84,0,3.92l-6.56,6.56c-1.08,1.08-2.84,1.08-3.92,0l-6.56-6.56c-1.08-1.08-1.08-2.84,0-3.92l6.56-6.56
			C496.83,2132.38,498.59,2132.38,499.67,2133.46z M523.34,2122.03h9.28c1.53,0,2.77,1.24,2.77,2.77v9.28
			c0,1.53-1.24,2.77-2.77,2.77h-9.28c-1.53,0-2.77-1.24-2.77-2.77v-9.28C520.57,2123.27,521.81,2122.03,523.34,2122.03z
			 M545.67,2117.89l10.06-10.06c1.08-1.08,2.84-1.08,3.92,0l24.29,24.29c1.75,1.75,0.51,4.73-1.96,4.73h-34.35
			c-1.53,0-2.77-1.24-2.77-2.77v-14.23C544.86,2119.12,545.15,2118.41,545.67,2117.89z M538.56,2107.7l-6.56-6.56
			c-1.08-1.08-1.08-2.84,0-3.92l6.56-6.56c1.08-1.08,2.84-1.08,3.92,0l6.56,6.56c1.08,1.08,1.08,2.84,0,3.92l-6.56,6.56
			C541.39,2108.78,539.64,2108.78,538.56,2107.7z M544.86,2078.5v-14.23c0-1.53,1.24-2.77,2.77-2.77h34.35
			c2.47,0,3.7,2.98,1.96,4.73l-24.29,24.29c-1.08,1.08-2.84,1.08-3.92,0l-10.06-10.06C545.15,2079.94,544.86,2079.23,544.86,2078.5z
			 M544.86,2049.26v-35.14c0-2.47,2.98-3.7,4.73-1.96l35.14,35.14c1.75,1.75,0.51,4.73-1.96,4.73h-35.14
			C546.1,2052.03,544.86,2050.79,544.86,2049.26z M532.62,2052.03h-14.23c-0.73,0-1.44-0.29-1.96-0.81l-10.06-10.06
			c-1.08-1.08-1.08-2.84,0-3.92l24.29-24.29c1.75-1.75,4.73-0.51,4.73,1.96v34.35C535.39,2050.79,534.15,2052.03,532.62,2052.03z
			 M495.75,2030.54l-24.85-24.85c-1.75-1.75-0.51-4.73,1.96-4.73h49.69c2.47,0,3.7,2.98,1.96,4.73l-24.85,24.85
			C498.59,2031.62,496.83,2031.62,495.75,2030.54z M489.06,2041.15l-10.06,10.06c-0.52,0.52-1.22,0.81-1.96,0.81H462.8
			c-1.53,0-2.77-1.24-2.77-2.77v-34.35c0-2.47,2.98-3.7,4.73-1.96l24.29,24.29C490.14,2038.32,490.14,2040.07,489.06,2041.15z
			 M447.79,2052.03h-35.14c-2.47,0-3.7-2.98-1.96-4.73l35.14-35.14c1.75-1.75,4.73-0.51,4.73,1.96v35.14
			C450.56,2050.79,449.32,2052.03,447.79,2052.03z M450.56,2149.09v35.14c0,2.47-2.98,3.7-4.73,1.96l-35.14-35.14
			c-1.75-1.75-0.51-4.73,1.96-4.73h35.14C449.32,2146.32,450.56,2147.56,450.56,2149.09z M462.81,2146.32h14.23
			c0.73,0,1.44,0.29,1.96,0.81l10.06,10.06c1.08,1.08,1.08,2.84,0,3.92l-24.29,24.29c-1.75,1.75-4.73,0.51-4.73-1.96v-34.35
			C460.04,2147.56,461.28,2146.32,462.81,2146.32z M499.67,2167.81l24.85,24.85c1.75,1.75,0.51,4.73-1.96,4.73h-49.69
			c-2.47,0-3.7-2.98-1.96-4.73l24.85-24.85C496.83,2166.73,498.59,2166.73,499.67,2167.81z M506.37,2157.2l10.06-10.06
			c0.52-0.52,1.22-0.81,1.96-0.81h14.23c1.53,0,2.77,1.24,2.77,2.77v34.36c0,2.47-2.98,3.7-4.73,1.96l-24.29-24.29
			C505.29,2160.03,505.29,2158.28,506.37,2157.2z M547.63,2146.32h35.14c2.47,0,3.7,2.98,1.96,4.73l-35.14,35.14
			c-1.75,1.75-4.73,0.51-4.73-1.96v-35.14C544.86,2147.56,546.1,2146.32,547.63,2146.32z M566.35,2097.22l24.85-24.85
			c1.75-1.75,4.73-0.51,4.73,1.96v49.69c0,2.47-2.98,3.7-4.73,1.96l-24.85-24.85C565.27,2100.05,565.27,2098.3,566.35,2097.22z"/>
	</g>
	<g>
		<path class="st2" d="M650.51,2133.28v-103.85c0-3.42,2.78-6.2,6.2-6.2h0c3.42,0,6.2,2.78,6.2,6.2v27.23
			c0,1.83,1.48,3.31,3.31,3.31h42.12c4.19,0,7.58,3.4,7.58,7.58v65.73c0,3.42-2.78,6.2-6.2,6.2h0c-3.42,0-6.2-2.78-6.2-6.2v-59.71
			c0-1.52-1.24-2.76-2.76-2.76h-34.54c-1.83,0-3.31,1.48-3.31,3.31v59.16c0,3.42-2.78,6.2-6.2,6.2h0
			C653.29,2139.48,650.51,2136.7,650.51,2133.28z"/>
		<path class="st2" d="M765.75,2164.12h37.02c1.42,0,2.58-1.15,2.58-2.58v-24.24c0-3.25,0.15-5.74,0.31-7.91h-0.47
			c-1.71,4.5-8.37,11.47-22.94,11.47c-17.51,0-29.92-13.33-29.92-31.77v-42.93c0-3.42,2.78-6.2,6.2-6.2h0c3.42,0,6.2,2.78,6.2,6.2
			v42.78c0,12.25,8.37,20.62,20.3,20.62c11.93,0,20.3-8.37,20.3-20.62v-42.78c0-3.42,2.78-6.2,6.2-6.2h0c3.42,0,6.2,2.78,6.2,6.2
			v100.59c0,4.63-3.75,8.38-8.38,8.38h-43.63c-3.04,0-5.5-2.46-5.5-5.5l0,0C760.25,2166.58,762.71,2164.12,765.75,2164.12z"/>
		<path class="st2" d="M898.35,2141.96c-14.26,0-26.19-6.2-30.53-15.5h-0.47c0.31,2.02,0.47,4.34,0.47,8.37v34.88
			c0,3-2.43,5.42-5.42,5.42h-1.55c-3,0-5.42-2.43-5.42-5.42v-104.31c0-3,2.43-5.42,5.42-5.42h0.78c3,0,5.42,2.43,5.42,5.42l0,0
			c0,3.72-0.16,6.04-0.46,8.37h0.46c5.27-8.99,16.74-16.27,31.93-16.27c23.71,0,40.61,17.82,40.61,42.16
			C939.58,2124.13,922.53,2141.96,898.35,2141.96z M867.35,2099.64c0,17.98,12.56,31.15,29.92,31.15c16.89,0,29.6-13.17,29.6-31.15
			s-12.71-31.15-29.6-31.15C879.91,2068.49,867.35,2081.66,867.35,2099.64z"/>
		<path class="st2" d="M1015.22,2141.29c-27.1,4.72-51.79-17.73-49.78-45.16c1.64-22.39,18.88-38.65,41.72-38.65
			c23.25,0,39.21,18.13,39.21,42.16v0.05c0,2.97-2.41,5.38-5.38,5.38h-59.8c-1.55,0-2.66,1.44-2.32,2.95
			c3.13,13.71,13.97,22.78,28.6,22.78c8.78,0,15.99-3.03,21.72-8.4c2.11-1.98,5.42-1.93,7.44,0.14l0,0c2.02,2.07,2.01,5.36,0,7.45
			C1030.87,2135.98,1023.61,2139.83,1015.22,2141.29z M982.43,2094.53h47.71c2.1,0,3.73-1.89,3.35-3.96
			c-2.41-12.97-12.52-22.08-26.49-22.08c-13.93,0-24.53,8.68-27.88,21.87C978.59,2092.48,980.24,2094.53,982.43,2094.53z"/>
		<path class="st2" d="M1113.03,2065.46L1113.03,2065.46c0,3.04-2.46,5.5-5.5,5.5h-15.16c-1.43,0-2.58,1.16-2.58,2.58v59.73
			c0,3.42-2.78,6.2-6.2,6.2l0,0c-3.42,0-6.2-2.78-6.2-6.2v-64.57c0-4.83,3.91-8.74,8.74-8.74h21.41
			C1110.56,2059.96,1113.03,2062.42,1113.03,2065.46z"/>
		<path class="st2" d="M1203.72,2077.3c-2.16,2.16-5.62,2.05-7.76-0.12c-5.23-5.32-12.45-8.69-21.25-8.69
			c-17.21,0-29.61,13.02-29.61,31.15c0,17.83,12.4,31.15,29.61,31.15c9.24,0,16.66-3.82,21.96-9.52c2.08-2.23,5.55-2.39,7.73-0.25
			l0,0c2.02,1.98,2.14,5.18,0.3,7.33c-6.95,8.17-17.55,13.59-29.99,13.59c-22.67,0-39.07-14.96-41.88-35.83
			c-3.61-26.74,18.42-50.58,45.32-48.52c10.24,0.79,19.1,5.08,25.7,12.04c2.01,2.12,2,5.51-0.07,7.58L1203.72,2077.3z"/>
		<path class="st2" d="M1236.87,2133.22v-67.06c0-3.42,2.78-6.2,6.2-6.2l0,0c3.42,0,6.2,2.78,6.2,6.2v59.76
			c0,1.41,1.14,2.55,2.55,2.55h34.58c1.41,0,2.55-1.14,2.55-2.55v-59.76c0-3.42,2.78-6.2,6.2-6.2l0,0c3.42,0,6.2,2.78,6.2,6.2v67.06
			c0,3.45-2.8,6.25-6.25,6.25h-51.97C1239.67,2139.48,1236.87,2136.68,1236.87,2133.22z"/>
		<path class="st2" d="M1382.1,2141.96c-13.95,0-26.35-6.04-31.46-16.43h-0.46c0.31,2.48,0.46,5.12,0.46,8.68l0,0
			c0,2.91-2.36,5.27-5.27,5.27h-1.08c-2.91,0-5.27-2.36-5.27-5.27v-104.78c0-3.42,2.78-6.2,6.2-6.2l0,0c3.42,0,6.2,2.78,6.2,6.2
			v35.18c0,4.18-0.16,6.51-0.47,8.68h0.47c5.11-9.3,17.67-15.81,30.53-15.81c24.8,0,41.23,17.82,41.23,42.16
			C1423.18,2124.13,1406.9,2141.96,1382.1,2141.96z M1410.47,2099.64c0-18.13-12.71-31.15-29.76-31.15
			c-17.36,0-29.76,13.02-29.76,31.15c0,17.83,12.4,31.15,29.76,31.15C1397.76,2130.8,1410.47,2117.47,1410.47,2099.64z"/>
		<path class="st2" d="M1497.11,2141.55c-25.91,3.45-49.11-17.54-48.17-43.66c0.84-23.29,18.38-40.41,41.82-40.41
			c23.25,0,39.21,18.13,39.21,42.16v0.05c0,2.97-2.41,5.38-5.38,5.38h-60.65c-1.07,0-1.88,0.98-1.67,2.04
			c2.85,14.22,13.84,23.69,28.79,23.69c8.78,0,15.99-3.03,21.72-8.4c2.11-1.98,5.42-1.93,7.44,0.14l0,0c2.02,2.07,2.01,5.36,0,7.45
			C1514.08,2136.39,1506.22,2140.34,1497.11,2141.55z M1464.26,2094.53h51.13c1.19,0,2.12-1.05,1.97-2.23
			c-1.8-13.88-12.18-23.81-26.76-23.81c-14.55,0-25.48,9.48-28.29,23.69C1462.07,2093.39,1463.02,2094.53,1464.26,2094.53z"/>
	</g>
</g>
<g>
	<g>
		<path class="st1" d="M605.39,2056.76c0-0.72-0.16-1.4-0.45-2.01c-0.23-0.63-0.59-1.23-1.1-1.73l-59.98-59.98
			c-0.49-0.49-1.08-0.86-1.73-1.09c-0.61-0.29-1.29-0.45-2.02-0.45H455.3c-0.72,0-1.41,0.17-2.02,0.46
			c-0.64,0.23-1.23,0.6-1.72,1.09l-59.98,59.98c-0.49,0.49-0.86,1.08-1.09,1.72c-0.29,0.61-0.46,1.3-0.46,2.02v84.82
			c0,0.72,0.17,1.4,0.45,2.01c0.23,0.64,0.6,1.23,1.09,1.73l59.98,59.98c0.49,0.49,1.08,0.86,1.73,1.09
			c0.61,0.29,1.29,0.45,2.02,0.45h84.82c0.72,0,1.4-0.17,2.01-0.45c0.63-0.23,1.22-0.59,1.73-1.1l59.98-59.98
			c0.49-0.49,0.86-1.08,1.09-1.72c0.29-0.61,0.46-1.3,0.46-2.02V2056.76z M404.23,2072.37l24.85,24.85c1.08,1.08,1.08,2.84,0,3.92
			l-24.85,24.85c-1.75,1.75-4.73,0.51-4.73-1.96v-49.69C399.5,2071.86,402.48,2070.63,404.23,2072.37z M506.37,2126.76
			L506.37,2126.76c-1.08-1.08-1.08-2.84,0-3.92l0,0c0.52-0.52,1.22-0.81,1.96-0.81h0c1.53,0,2.77,1.24,2.77,2.77v0
			C511.1,2127.27,508.11,2128.51,506.37,2126.76z M489.05,2071.59L489.05,2071.59c1.08,1.08,1.08,2.84,0,3.92l0,0
			c-0.52,0.52-1.22,0.81-1.96,0.81h0c-1.53,0-2.77-1.24-2.77-2.77v0C484.33,2071.08,487.31,2069.84,489.05,2071.59z M491.36,2111.75
			l-6.22-6.22c-0.52-0.52-0.81-1.22-0.81-1.96v-8.79c0-0.73,0.29-1.44,0.81-1.96l6.22-6.22c0.52-0.52,1.22-0.81,1.96-0.81h8.79
			c0.73,0,1.44,0.29,1.96,0.81l6.22,6.22c0.52,0.52,0.81,1.22,0.81,1.96v8.79c0,0.73-0.29,1.44-0.81,1.96l-6.22,6.22
			c-0.52,0.52-1.22,0.81-1.96,0.81h-8.79C492.58,2112.56,491.87,2112.27,491.36,2111.75z M474.04,2090.52L474.04,2090.52
			c-1.08,1.08-2.84,1.08-3.92,0l0,0c-1.75-1.75-0.51-4.73,1.96-4.73h0c1.53,0,2.77,1.24,2.77,2.77v0
			C474.85,2089.3,474.56,2090,474.04,2090.52z M474.85,2109.79L474.85,2109.79c0,1.53-1.24,2.77-2.77,2.77h0
			c-2.47,0-3.7-2.98-1.96-4.73l0,0c1.08-1.08,2.84-1.08,3.92,0l0,0C474.56,2108.35,474.85,2109.06,474.85,2109.79z M521.38,2107.83
			L521.38,2107.83c1.08-1.08,2.84-1.08,3.92,0l0,0c1.75,1.75,0.51,4.73-1.96,4.73h0c-1.53,0-2.77-1.24-2.77-2.77v0
			C520.57,2109.06,520.86,2108.35,521.38,2107.83z M520.57,2088.56L520.57,2088.56c0-1.53,1.24-2.77,2.77-2.77h0
			c2.47,0,3.7,2.98,1.96,4.73l0,0c-1.08,1.08-2.84,1.08-3.92,0l0,0C520.86,2090,520.57,2089.3,520.57,2088.56z M532.62,2076.32
			h-9.28c-1.53,0-2.77-1.24-2.77-2.77v-9.28c0-1.53,1.24-2.77,2.77-2.77h9.28c1.53,0,2.77,1.24,2.77,2.77v9.28
			C535.39,2075.08,534.15,2076.32,532.62,2076.32z M508.33,2076.32L508.33,2076.32c-0.74,0-1.44-0.29-1.96-0.81l0,0
			c-1.08-1.08-1.08-2.84,0-3.92l0,0c1.75-1.75,4.73-0.51,4.73,1.96v0C511.1,2075.08,509.86,2076.32,508.33,2076.32z M495.75,2064.89
			l-6.56-6.56c-1.08-1.08-1.08-2.84,0-3.92l6.56-6.56c1.08-1.08,2.84-1.08,3.92,0l6.56,6.56c1.08,1.08,1.08,2.84,0,3.92l-6.56,6.56
			C498.59,2065.97,496.83,2065.97,495.75,2064.89z M472.08,2076.32h-9.28c-1.53,0-2.77-1.24-2.77-2.77v-9.28
			c0-1.53,1.24-2.77,2.77-2.77h9.28c1.53,0,2.77,1.24,2.77,2.77v9.28C474.85,2075.08,473.61,2076.32,472.08,2076.32z
			 M449.75,2080.46l-10.06,10.06c-1.08,1.08-2.84,1.08-3.92,0l-24.29-24.29c-1.75-1.75-0.51-4.73,1.96-4.73h34.36
			c1.53,0,2.77,1.24,2.77,2.77v14.23C450.56,2079.23,450.27,2079.94,449.75,2080.46z M456.87,2090.66l6.56,6.56
			c1.08,1.08,1.08,2.84,0,3.92l-6.56,6.56c-1.08,1.08-2.84,1.08-3.92,0l-6.56-6.56c-1.08-1.08-1.08-2.84,0-3.92l6.56-6.56
			C454.03,2089.57,455.78,2089.57,456.87,2090.66z M450.56,2119.85v14.23c0,1.53-1.24,2.77-2.77,2.77h-34.35
			c-2.47,0-3.7-2.98-1.96-4.73l24.29-24.29c1.08-1.08,2.84-1.08,3.92,0l10.06,10.06C450.27,2118.41,450.56,2119.12,450.56,2119.85z
			 M462.81,2122.03h9.28c1.53,0,2.77,1.24,2.77,2.77v9.28c0,1.53-1.24,2.77-2.77,2.77h-9.28c-1.53,0-2.77-1.24-2.77-2.77v-9.28
			C460.04,2123.27,461.28,2122.03,462.81,2122.03z M487.1,2122.03L487.1,2122.03c0.73,0,1.44,0.29,1.96,0.81l0,0
			c1.08,1.08,1.08,2.84,0,3.92l0,0c-1.75,1.75-4.73,0.51-4.73-1.96v0C484.33,2123.27,485.57,2122.03,487.1,2122.03z M499.67,2133.46
			l6.56,6.56c1.08,1.08,1.08,2.84,0,3.92l-6.56,6.56c-1.08,1.08-2.84,1.08-3.92,0l-6.56-6.56c-1.08-1.08-1.08-2.84,0-3.92l6.56-6.56
			C496.83,2132.38,498.59,2132.38,499.67,2133.46z M523.34,2122.03h9.28c1.53,0,2.77,1.24,2.77,2.77v9.28
			c0,1.53-1.24,2.77-2.77,2.77h-9.28c-1.53,0-2.77-1.24-2.77-2.77v-9.28C520.57,2123.27,521.81,2122.03,523.34,2122.03z
			 M545.67,2117.89l10.06-10.06c1.08-1.08,2.84-1.08,3.92,0l24.29,24.29c1.75,1.75,0.51,4.73-1.96,4.73h-34.35
			c-1.53,0-2.77-1.24-2.77-2.77v-14.23C544.86,2119.12,545.15,2118.41,545.67,2117.89z M538.56,2107.7l-6.56-6.56
			c-1.08-1.08-1.08-2.84,0-3.92l6.56-6.56c1.08-1.08,2.84-1.08,3.92,0l6.56,6.56c1.08,1.08,1.08,2.84,0,3.92l-6.56,6.56
			C541.39,2108.78,539.64,2108.78,538.56,2107.7z M544.86,2078.5v-14.23c0-1.53,1.24-2.77,2.77-2.77h34.35
			c2.47,0,3.7,2.98,1.96,4.73l-24.29,24.29c-1.08,1.08-2.84,1.08-3.92,0l-10.06-10.06C545.15,2079.94,544.86,2079.23,544.86,2078.5z
			 M544.86,2049.26v-35.14c0-2.47,2.98-3.7,4.73-1.96l35.14,35.14c1.75,1.75,0.51,4.73-1.96,4.73h-35.14
			C546.1,2052.03,544.86,2050.79,544.86,2049.26z M532.62,2052.03h-14.23c-0.73,0-1.44-0.29-1.96-0.81l-10.06-10.06
			c-1.08-1.08-1.08-2.84,0-3.92l24.29-24.29c1.75-1.75,4.73-0.51,4.73,1.96v34.35C535.39,2050.79,534.15,2052.03,532.62,2052.03z
			 M495.75,2030.54l-24.85-24.85c-1.75-1.75-0.51-4.73,1.96-4.73h49.69c2.47,0,3.7,2.98,1.96,4.73l-24.85,24.85
			C498.59,2031.62,496.83,2031.62,495.75,2030.54z M489.06,2041.15l-10.06,10.06c-0.52,0.52-1.22,0.81-1.96,0.81H462.8
			c-1.53,0-2.77-1.24-2.77-2.77v-34.35c0-2.47,2.98-3.7,4.73-1.96l24.29,24.29C490.14,2038.32,490.14,2040.07,489.06,2041.15z
			 M447.79,2052.03h-35.14c-2.47,0-3.7-2.98-1.96-4.73l35.14-35.14c1.75-1.75,4.73-0.51,4.73,1.96v35.14
			C450.56,2050.79,449.32,2052.03,447.79,2052.03z M450.56,2149.09v35.14c0,2.47-2.98,3.7-4.73,1.96l-35.14-35.14
			c-1.75-1.75-0.51-4.73,1.96-4.73h35.14C449.32,2146.32,450.56,2147.56,450.56,2149.09z M462.81,2146.32h14.23
			c0.73,0,1.44,0.29,1.96,0.81l10.06,10.06c1.08,1.08,1.08,2.84,0,3.92l-24.29,24.29c-1.75,1.75-4.73,0.51-4.73-1.96v-34.35
			C460.04,2147.56,461.28,2146.32,462.81,2146.32z M499.67,2167.81l24.85,24.85c1.75,1.75,0.51,4.73-1.96,4.73h-49.69
			c-2.47,0-3.7-2.98-1.96-4.73l24.85-24.85C496.83,2166.73,498.59,2166.73,499.67,2167.81z M506.37,2157.2l10.06-10.06
			c0.52-0.52,1.22-0.81,1.96-0.81h14.23c1.53,0,2.77,1.24,2.77,2.77v34.36c0,2.47-2.98,3.7-4.73,1.96l-24.29-24.29
			C505.29,2160.03,505.29,2158.28,506.37,2157.2z M547.63,2146.32h35.14c2.47,0,3.7,2.98,1.96,4.73l-35.14,35.14
			c-1.75,1.75-4.73,0.51-4.73-1.96v-35.14C544.86,2147.56,546.1,2146.32,547.63,2146.32z M566.35,2097.22l24.85-24.85
			c1.75-1.75,4.73-0.51,4.73,1.96v49.69c0,2.47-2.98,3.7-4.73,1.96l-24.85-24.85C565.27,2100.05,565.27,2098.3,566.35,2097.22z"/>
	</g>
	<g>
		<path class="st2" d="M650.51,2133.28v-103.85c0-3.42,2.78-6.2,6.2-6.2h0c3.42,0,6.2,2.78,6.2,6.2v27.23
			c0,1.83,1.48,3.31,3.31,3.31h42.12c4.19,0,7.58,3.4,7.58,7.58v65.73c0,3.42-2.78,6.2-6.2,6.2h0c-3.42,0-6.2-2.78-6.2-6.2v-59.71
			c0-1.52-1.24-2.76-2.76-2.76h-34.54c-1.83,0-3.31,1.48-3.31,3.31v59.16c0,3.42-2.78,6.2-6.2,6.2h0
			C653.29,2139.48,650.51,2136.7,650.51,2133.28z"/>
		<path class="st2" d="M765.75,2164.12h37.02c1.42,0,2.58-1.15,2.58-2.58v-24.24c0-3.25,0.15-5.74,0.31-7.91h-0.47
			c-1.71,4.5-8.37,11.47-22.94,11.47c-17.51,0-29.92-13.33-29.92-31.77v-42.93c0-3.42,2.78-6.2,6.2-6.2h0c3.42,0,6.2,2.78,6.2,6.2
			v42.78c0,12.25,8.37,20.62,20.3,20.62c11.93,0,20.3-8.37,20.3-20.62v-42.78c0-3.42,2.78-6.2,6.2-6.2h0c3.42,0,6.2,2.78,6.2,6.2
			v100.59c0,4.63-3.75,8.38-8.38,8.38h-43.63c-3.04,0-5.5-2.46-5.5-5.5l0,0C760.25,2166.58,762.71,2164.12,765.75,2164.12z"/>
		<path class="st2" d="M898.35,2141.96c-14.26,0-26.19-6.2-30.53-15.5h-0.47c0.31,2.02,0.47,4.34,0.47,8.37v34.88
			c0,3-2.43,5.42-5.42,5.42h-1.55c-3,0-5.42-2.43-5.42-5.42v-104.31c0-3,2.43-5.42,5.42-5.42h0.78c3,0,5.42,2.43,5.42,5.42l0,0
			c0,3.72-0.16,6.04-0.46,8.37h0.46c5.27-8.99,16.74-16.27,31.93-16.27c23.71,0,40.61,17.82,40.61,42.16
			C939.58,2124.13,922.53,2141.96,898.35,2141.96z M867.35,2099.64c0,17.98,12.56,31.15,29.92,31.15c16.89,0,29.6-13.17,29.6-31.15
			s-12.71-31.15-29.6-31.15C879.91,2068.49,867.35,2081.66,867.35,2099.64z"/>
		<path class="st2" d="M1015.22,2141.29c-27.1,4.72-51.79-17.73-49.78-45.16c1.64-22.39,18.88-38.65,41.72-38.65
			c23.25,0,39.21,18.13,39.21,42.16v0.05c0,2.97-2.41,5.38-5.38,5.38h-59.8c-1.55,0-2.66,1.44-2.32,2.95
			c3.13,13.71,13.97,22.78,28.6,22.78c8.78,0,15.99-3.03,21.72-8.4c2.11-1.98,5.42-1.93,7.44,0.14l0,0c2.02,2.07,2.01,5.36,0,7.45
			C1030.87,2135.98,1023.61,2139.83,1015.22,2141.29z M982.43,2094.53h47.71c2.1,0,3.73-1.89,3.35-3.96
			c-2.41-12.97-12.52-22.08-26.49-22.08c-13.93,0-24.53,8.68-27.88,21.87C978.59,2092.48,980.24,2094.53,982.43,2094.53z"/>
		<path class="st2" d="M1113.03,2065.46L1113.03,2065.46c0,3.04-2.46,5.5-5.5,5.5h-15.16c-1.43,0-2.58,1.16-2.58,2.58v59.73
			c0,3.42-2.78,6.2-6.2,6.2l0,0c-3.42,0-6.2-2.78-6.2-6.2v-64.57c0-4.83,3.91-8.74,8.74-8.74h21.41
			C1110.56,2059.96,1113.03,2062.42,1113.03,2065.46z"/>
		<path class="st2" d="M1203.72,2077.3c-2.16,2.16-5.62,2.05-7.76-0.12c-5.23-5.32-12.45-8.69-21.25-8.69
			c-17.21,0-29.61,13.02-29.61,31.15c0,17.83,12.4,31.15,29.61,31.15c9.24,0,16.66-3.82,21.96-9.52c2.08-2.23,5.55-2.39,7.73-0.25
			l0,0c2.02,1.98,2.14,5.18,0.3,7.33c-6.95,8.17-17.55,13.59-29.99,13.59c-22.67,0-39.07-14.96-41.88-35.83
			c-3.61-26.74,18.42-50.58,45.32-48.52c10.24,0.79,19.1,5.08,25.7,12.04c2.01,2.12,2,5.51-0.07,7.58L1203.72,2077.3z"/>
		<path class="st2" d="M1236.87,2133.22v-67.06c0-3.42,2.78-6.2,6.2-6.2l0,0c3.42,0,6.2,2.78,6.2,6.2v59.76
			c0,1.41,1.14,2.55,2.55,2.55h34.58c1.41,0,2.55-1.14,2.55-2.55v-59.76c0-3.42,2.78-6.2,6.2-6.2l0,0c3.42,0,6.2,2.78,6.2,6.2v67.06
			c0,3.45-2.8,6.25-6.25,6.25h-51.97C1239.67,2139.48,1236.87,2136.68,1236.87,2133.22z"/>
		<path class="st2" d="M1382.1,2141.96c-13.95,0-26.35-6.04-31.46-16.43h-0.46c0.31,2.48,0.46,5.12,0.46,8.68l0,0
			c0,2.91-2.36,5.27-5.27,5.27h-1.08c-2.91,0-5.27-2.36-5.27-5.27v-104.78c0-3.42,2.78-6.2,6.2-6.2l0,0c3.42,0,6.2,2.78,6.2,6.2
			v35.18c0,4.18-0.16,6.51-0.47,8.68h0.47c5.11-9.3,17.67-15.81,30.53-15.81c24.8,0,41.23,17.82,41.23,42.16
			C1423.18,2124.13,1406.9,2141.96,1382.1,2141.96z M1410.47,2099.64c0-18.13-12.71-31.15-29.76-31.15
			c-17.36,0-29.76,13.02-29.76,31.15c0,17.83,12.4,31.15,29.76,31.15C1397.76,2130.8,1410.47,2117.47,1410.47,2099.64z"/>
		<path class="st2" d="M1497.11,2141.55c-25.91,3.45-49.11-17.54-48.17-43.66c0.84-23.29,18.38-40.41,41.82-40.41
			c23.25,0,39.21,18.13,39.21,42.16v0.05c0,2.97-2.41,5.38-5.38,5.38h-60.65c-1.07,0-1.88,0.98-1.67,2.04
			c2.85,14.22,13.84,23.69,28.79,23.69c8.78,0,15.99-3.03,21.72-8.4c2.11-1.98,5.42-1.93,7.44,0.14l0,0c2.02,2.07,2.01,5.36,0,7.45
			C1514.08,2136.39,1506.22,2140.34,1497.11,2141.55z M1464.26,2094.53h51.13c1.19,0,2.12-1.05,1.97-2.23
			c-1.8-13.88-12.18-23.81-26.76-23.81c-14.55,0-25.48,9.48-28.29,23.69C1462.07,2093.39,1463.02,2094.53,1464.26,2094.53z"/>
	</g>
</g>
<g>
	<g>
		<path class="st1" d="M-3434.61,497.59c0-0.72-0.17-1.4-0.45-2.01c-0.23-0.63-0.59-1.23-1.1-1.73l-59.98-59.98
			c-0.49-0.49-1.08-0.86-1.73-1.09c-0.61-0.29-1.29-0.45-2.02-0.45h-84.82c-0.72,0-1.41,0.17-2.02,0.46
			c-0.64,0.23-1.23,0.6-1.72,1.09l-59.98,59.98c-0.49,0.49-0.86,1.08-1.09,1.72c-0.29,0.61-0.46,1.3-0.46,2.02v84.82
			c0,0.72,0.17,1.4,0.45,2.02c0.23,0.64,0.6,1.23,1.09,1.73l59.98,59.98c0.49,0.49,1.08,0.86,1.73,1.09
			c0.61,0.29,1.29,0.45,2.01,0.45h84.82c0.72,0,1.4-0.17,2.01-0.45c0.63-0.23,1.22-0.59,1.73-1.1l59.98-59.98
			c0.49-0.49,0.86-1.08,1.09-1.72c0.29-0.61,0.46-1.3,0.46-2.02V497.59z M-3635.77,513.2l24.85,24.85c1.08,1.08,1.08,2.84,0,3.92
			l-24.85,24.85c-1.75,1.75-4.73,0.51-4.73-1.96v-49.69C-3640.5,512.69-3637.52,511.45-3635.77,513.2z M-3533.63,567.59
			L-3533.63,567.59c-1.08-1.08-1.08-2.84,0-3.92l0,0c0.52-0.52,1.22-0.81,1.96-0.81h0c1.53,0,2.77,1.24,2.77,2.77v0
			C-3528.9,568.1-3531.89,569.33-3533.63,567.59z M-3550.95,512.41L-3550.95,512.41c1.08,1.08,1.08,2.84,0,3.92l0,0
			c-0.52,0.52-1.22,0.81-1.96,0.81h0c-1.53,0-2.77-1.24-2.77-2.77v0C-3555.67,511.9-3552.69,510.67-3550.95,512.41z
			 M-3548.64,552.57l-6.22-6.22c-0.52-0.52-0.81-1.22-0.81-1.96v-8.79c0-0.73,0.29-1.44,0.81-1.96l6.22-6.22
			c0.52-0.52,1.22-0.81,1.96-0.81h8.79c0.73,0,1.44,0.29,1.96,0.81l6.22,6.22c0.52,0.52,0.81,1.22,0.81,1.96v8.79
			c0,0.73-0.29,1.44-0.81,1.96l-6.22,6.22c-0.52,0.52-1.22,0.81-1.96,0.81h-8.79C-3547.42,553.39-3548.13,553.09-3548.64,552.57z
			 M-3565.96,531.34L-3565.96,531.34c-1.08,1.08-2.84,1.08-3.92,0l0,0c-1.75-1.75-0.51-4.73,1.96-4.73h0c1.53,0,2.77,1.24,2.77,2.77
			v0C-3565.15,530.12-3565.44,530.82-3565.96,531.34z M-3565.15,550.62L-3565.15,550.62c0,1.53-1.24,2.77-2.77,2.77h0
			c-2.47,0-3.7-2.98-1.96-4.73l0,0c1.08-1.08,2.84-1.08,3.92,0l0,0C-3565.44,549.18-3565.15,549.88-3565.15,550.62z
			 M-3518.62,548.66L-3518.62,548.66c1.08-1.08,2.84-1.08,3.92,0l0,0c1.75,1.75,0.51,4.73-1.96,4.73h0c-1.53,0-2.77-1.24-2.77-2.77
			v0C-3519.43,549.88-3519.14,549.18-3518.62,548.66z M-3519.43,529.38L-3519.43,529.38c0-1.53,1.24-2.77,2.77-2.77h0
			c2.47,0,3.7,2.98,1.96,4.73l0,0c-1.08,1.08-2.84,1.08-3.92,0l0,0C-3519.14,530.82-3519.43,530.12-3519.43,529.38z
			 M-3507.38,517.14h-9.28c-1.53,0-2.77-1.24-2.77-2.77v-9.28c0-1.53,1.24-2.77,2.77-2.77h9.28c1.53,0,2.77,1.24,2.77,2.77v9.28
			C-3504.61,515.9-3505.85,517.14-3507.38,517.14z M-3531.67,517.14L-3531.67,517.14c-0.73,0-1.44-0.29-1.96-0.81l0,0
			c-1.08-1.08-1.08-2.84,0-3.92l0,0c1.75-1.75,4.73-0.51,4.73,1.96v0C-3528.9,515.9-3530.14,517.14-3531.67,517.14z
			 M-3544.25,505.72l-6.56-6.56c-1.08-1.08-1.08-2.84,0-3.92l6.56-6.56c1.08-1.08,2.84-1.08,3.92,0l6.56,6.56
			c1.08,1.08,1.08,2.84,0,3.92l-6.56,6.56C-3541.41,506.8-3543.17,506.8-3544.25,505.72z M-3567.92,517.14h-9.28
			c-1.53,0-2.77-1.24-2.77-2.77v-9.28c0-1.53,1.24-2.77,2.77-2.77h9.28c1.53,0,2.77,1.24,2.77,2.77v9.28
			C-3565.15,515.9-3566.39,517.14-3567.92,517.14z M-3590.25,521.28l-10.06,10.06c-1.08,1.08-2.84,1.08-3.92,0l-24.29-24.29
			c-1.75-1.75-0.51-4.73,1.96-4.73h34.35c1.53,0,2.77,1.24,2.77,2.77v14.23C-3589.44,520.06-3589.73,520.76-3590.25,521.28z
			 M-3583.13,531.48l6.56,6.56c1.08,1.08,1.08,2.84,0,3.92l-6.56,6.56c-1.08,1.08-2.84,1.08-3.92,0l-6.56-6.56
			c-1.08-1.08-1.08-2.84,0-3.92l6.56-6.56C-3585.97,530.4-3584.22,530.4-3583.13,531.48z M-3589.44,560.68v14.23
			c0,1.53-1.24,2.77-2.77,2.77h-34.35c-2.47,0-3.7-2.98-1.96-4.73l24.29-24.29c1.08-1.08,2.84-1.08,3.92,0l10.06,10.06
			C-3589.73,559.24-3589.44,559.94-3589.44,560.68z M-3577.19,562.86h9.28c1.53,0,2.77,1.24,2.77,2.77v9.28
			c0,1.53-1.24,2.77-2.77,2.77h-9.28c-1.53,0-2.77-1.24-2.77-2.77v-9.28C-3579.97,564.1-3578.72,562.86-3577.19,562.86z
			 M-3552.9,562.86L-3552.9,562.86c0.73,0,1.44,0.29,1.96,0.81l0,0c1.08,1.08,1.08,2.84,0,3.92l0,0c-1.75,1.75-4.73,0.51-4.73-1.96
			v0C-3555.67,564.1-3554.43,562.86-3552.9,562.86z M-3540.33,574.28l6.56,6.56c1.08,1.08,1.08,2.84,0,3.92l-6.56,6.56
			c-1.08,1.08-2.84,1.08-3.92,0l-6.56-6.56c-1.08-1.08-1.08-2.84,0-3.92l6.56-6.56C-3543.17,573.2-3541.41,573.2-3540.33,574.28z
			 M-3516.66,562.86h9.28c1.53,0,2.77,1.24,2.77,2.77v9.28c0,1.53-1.24,2.77-2.77,2.77h-9.28c-1.53,0-2.77-1.24-2.77-2.77v-9.28
			C-3519.43,564.1-3518.19,562.86-3516.66,562.86z M-3494.33,558.72l10.06-10.06c1.08-1.08,2.84-1.08,3.92,0l24.29,24.29
			c1.75,1.75,0.51,4.73-1.96,4.73h-34.35c-1.53,0-2.77-1.24-2.77-2.77v-14.23C-3495.14,559.94-3494.85,559.24-3494.33,558.72z
			 M-3501.44,548.52l-6.56-6.56c-1.08-1.08-1.08-2.84,0-3.92l6.56-6.56c1.08-1.08,2.84-1.08,3.92,0l6.56,6.56
			c1.08,1.08,1.08,2.84,0,3.92l-6.56,6.56C-3498.61,549.6-3500.36,549.6-3501.44,548.52z M-3495.14,519.32v-14.23
			c0-1.53,1.24-2.77,2.77-2.77h34.35c2.47,0,3.7,2.98,1.96,4.73l-24.29,24.29c-1.08,1.08-2.84,1.08-3.92,0l-10.06-10.06
			C-3494.85,520.76-3495.14,520.06-3495.14,519.32z M-3495.14,490.08v-35.14c0-2.47,2.98-3.7,4.73-1.96l35.14,35.14
			c1.75,1.75,0.51,4.73-1.96,4.73h-35.14C-3493.9,492.85-3495.14,491.61-3495.14,490.08z M-3507.38,492.85h-14.23
			c-0.73,0-1.44-0.29-1.96-0.81l-10.06-10.06c-1.08-1.08-1.08-2.84,0-3.92l24.29-24.29c1.75-1.75,4.73-0.51,4.73,1.96v34.35
			C-3504.61,491.61-3505.85,492.85-3507.38,492.85z M-3544.25,471.36l-24.85-24.85c-1.75-1.75-0.51-4.73,1.96-4.73h49.69
			c2.47,0,3.7,2.98,1.96,4.73l-24.85,24.85C-3541.41,472.45-3543.17,472.45-3544.25,471.36z M-3550.94,481.98l-10.06,10.06
			c-0.52,0.52-1.22,0.81-1.96,0.81h-14.23c-1.53,0-2.77-1.24-2.77-2.77v-34.35c0-2.47,2.98-3.7,4.73-1.96l24.29,24.29
			C-3549.86,479.14-3549.86,480.9-3550.94,481.98z M-3592.21,492.85h-35.14c-2.47,0-3.7-2.98-1.96-4.73l35.14-35.14
			c1.75-1.75,4.73-0.51,4.73,1.96v35.14C-3589.44,491.61-3590.68,492.85-3592.21,492.85z M-3589.44,589.92v35.14
			c0,2.47-2.98,3.7-4.73,1.96l-35.14-35.14c-1.75-1.75-0.51-4.73,1.96-4.73h35.14C-3590.68,587.15-3589.44,588.39-3589.44,589.92z
			 M-3577.19,587.15h14.23c0.73,0,1.44,0.29,1.96,0.81l10.06,10.06c1.08,1.08,1.08,2.84,0,3.92l-24.29,24.29
			c-1.75,1.75-4.73,0.51-4.73-1.96v-34.35C-3579.97,588.39-3578.72,587.15-3577.19,587.15z M-3540.33,608.64l24.85,24.85
			c1.75,1.75,0.51,4.73-1.96,4.73h-49.69c-2.47,0-3.7-2.98-1.96-4.73l24.85-24.85C-3543.17,607.55-3541.41,607.55-3540.33,608.64z
			 M-3533.63,598.02l10.06-10.06c0.52-0.52,1.22-0.81,1.96-0.81h14.23c1.53,0,2.77,1.24,2.77,2.77v34.36c0,2.47-2.98,3.7-4.73,1.96
			l-24.29-24.29C-3534.71,600.86-3534.71,599.1-3533.63,598.02z M-3492.37,587.15h35.14c2.47,0,3.7,2.98,1.96,4.73l-35.14,35.14
			c-1.75,1.75-4.73,0.51-4.73-1.96v-35.14C-3495.14,588.39-3493.9,587.15-3492.37,587.15z M-3473.65,538.04l24.85-24.85
			c1.75-1.75,4.73-0.51,4.73,1.96v49.69c0,2.47-2.98,3.7-4.73,1.96l-24.85-24.85C-3474.73,540.88-3474.73,539.12-3473.65,538.04z"/>
	</g>
	<g>
		<path class="st2" d="M-3389.49,574.1V470.25c0-3.42,2.78-6.2,6.2-6.2l0,0c3.42,0,6.2,2.78,6.2,6.2v27.23
			c0,1.83,1.48,3.31,3.3,3.31h42.12c4.19,0,7.58,3.4,7.58,7.58v65.73c0,3.42-2.78,6.2-6.2,6.2l0,0c-3.42,0-6.2-2.78-6.2-6.2v-59.71
			c0-1.52-1.24-2.76-2.76-2.76h-34.54c-1.83,0-3.31,1.48-3.31,3.31v59.16c0,3.42-2.78,6.2-6.2,6.2l0,0
			C-3386.71,580.3-3389.49,577.52-3389.49,574.1z"/>
		<path class="st2" d="M-3274.25,604.94h37.02c1.42,0,2.58-1.15,2.58-2.58v-24.24c0-3.25,0.15-5.74,0.31-7.91h-0.47
			c-1.71,4.5-8.37,11.47-22.94,11.47c-17.51,0-29.92-13.33-29.92-31.77v-42.93c0-3.42,2.78-6.2,6.2-6.2l0,0c3.42,0,6.2,2.78,6.2,6.2
			v42.78c0,12.25,8.37,20.62,20.3,20.62c11.93,0,20.3-8.37,20.3-20.62v-42.78c0-3.42,2.78-6.2,6.2-6.2l0,0c3.42,0,6.2,2.78,6.2,6.2
			v100.59c0,4.63-3.75,8.38-8.38,8.38h-43.63c-3.04,0-5.5-2.46-5.5-5.5l0,0C-3279.75,607.41-3277.29,604.94-3274.25,604.94z"/>
		<path class="st2" d="M-3141.65,582.78c-14.26,0-26.19-6.2-30.53-15.5h-0.47c0.31,2.02,0.47,4.34,0.47,8.37v34.88
			c0,3-2.43,5.42-5.42,5.42h-1.55c-3,0-5.42-2.43-5.42-5.42V506.21c0-3,2.43-5.42,5.42-5.42h0.78c3,0,5.42,2.43,5.42,5.42l0,0
			c0,3.72-0.16,6.04-0.46,8.37h0.46c5.27-8.99,16.74-16.27,31.93-16.27c23.71,0,40.61,17.82,40.61,42.16
			C-3100.42,564.96-3117.47,582.78-3141.65,582.78z M-3172.65,540.46c0,17.98,12.56,31.15,29.92,31.15
			c16.89,0,29.6-13.17,29.6-31.15s-12.71-31.15-29.6-31.15C-3160.09,509.31-3172.65,522.49-3172.65,540.46z"/>
		<path class="st2" d="M-3024.78,582.11c-27.1,4.72-51.79-17.73-49.78-45.16c1.64-22.39,18.88-38.65,41.72-38.65
			c23.25,0,39.21,18.13,39.21,42.16l0,0.05c0,2.97-2.41,5.38-5.38,5.38l-59.8,0c-1.55,0-2.66,1.44-2.32,2.95
			c3.13,13.71,13.97,22.78,28.6,22.78c8.78,0,15.99-3.03,21.72-8.4c2.11-1.98,5.42-1.93,7.45,0.14l0,0c2.02,2.07,2.01,5.36,0,7.45
			C-3009.13,576.81-3016.39,580.65-3024.78,582.11z M-3057.57,535.35h47.71c2.1,0,3.73-1.89,3.35-3.96
			c-2.41-12.97-12.52-22.08-26.49-22.08c-13.93,0-24.53,8.68-27.88,21.87C-3061.41,533.3-3059.76,535.35-3057.57,535.35z"/>
		<path class="st2" d="M-2926.97,506.29L-2926.97,506.29c0,3.04-2.46,5.5-5.5,5.5h-15.16c-1.43,0-2.58,1.16-2.58,2.58v59.73
			c0,3.42-2.78,6.2-6.2,6.2l0,0c-3.42,0-6.2-2.78-6.2-6.2v-64.57c0-4.83,3.91-8.74,8.74-8.74h21.41
			C-2929.44,500.79-2926.97,503.25-2926.97,506.29z"/>
		<path class="st2" d="M-2836.28,518.12c-2.16,2.16-5.62,2.05-7.76-0.12c-5.23-5.32-12.45-8.69-21.25-8.69
			c-17.21,0-29.61,13.02-29.61,31.15c0,17.83,12.4,31.15,29.61,31.15c9.24,0,16.66-3.82,21.96-9.52c2.08-2.23,5.55-2.39,7.73-0.25
			l0,0c2.02,1.98,2.14,5.18,0.3,7.33c-6.95,8.17-17.55,13.59-29.99,13.59c-22.67,0-39.07-14.96-41.88-35.83
			c-3.61-26.74,18.42-50.58,45.32-48.52c10.24,0.79,19.1,5.08,25.7,12.04c2.01,2.12,2,5.51-0.07,7.58L-2836.28,518.12z"/>
		<path class="st2" d="M-2803.13,574.05v-67.06c0-3.42,2.78-6.2,6.2-6.2l0,0c3.42,0,6.2,2.78,6.2,6.2v59.76
			c0,1.41,1.14,2.55,2.55,2.55h34.58c1.41,0,2.55-1.14,2.55-2.55v-59.76c0-3.42,2.78-6.2,6.2-6.2l0,0c3.42,0,6.2,2.78,6.2,6.2v67.06
			c0,3.45-2.8,6.25-6.25,6.25h-51.97C-2800.33,580.3-2803.13,577.5-2803.13,574.05z"/>
		<path class="st2" d="M-2657.9,582.78c-13.95,0-26.35-6.04-31.46-16.43h-0.46c0.31,2.48,0.46,5.12,0.46,8.68l0,0
			c0,2.91-2.36,5.27-5.27,5.27h-1.08c-2.91,0-5.27-2.36-5.27-5.27V470.25c0-3.42,2.78-6.2,6.2-6.2l0,0c3.42,0,6.2,2.78,6.2,6.2
			v35.18c0,4.18-0.16,6.51-0.47,8.68h0.47c5.11-9.3,17.67-15.81,30.53-15.81c24.8,0,41.23,17.82,41.23,42.16
			C-2616.82,564.96-2633.1,582.78-2657.9,582.78z M-2629.53,540.46c0-18.13-12.71-31.15-29.76-31.15
			c-17.36,0-29.76,13.02-29.76,31.15c0,17.83,12.4,31.15,29.76,31.15C-2642.24,571.62-2629.53,558.29-2629.53,540.46z"/>
		<path class="st2" d="M-2542.89,582.38c-25.91,3.45-49.11-17.54-48.17-43.66c0.84-23.29,18.38-40.41,41.82-40.41
			c23.25,0,39.21,18.13,39.21,42.16l0,0.05c0,2.97-2.41,5.38-5.38,5.38l-60.65,0c-1.07,0-1.88,0.98-1.67,2.04
			c2.85,14.22,13.84,23.69,28.79,23.69c8.78,0,15.99-3.03,21.72-8.4c2.11-1.98,5.42-1.93,7.45,0.14l0,0c2.02,2.07,2.01,5.36,0,7.45
			C-2525.92,577.21-2533.78,581.16-2542.89,582.38z M-2575.74,535.35h51.13c1.19,0,2.12-1.05,1.97-2.23
			c-1.8-13.88-12.18-23.81-26.76-23.81c-14.55,0-25.48,9.48-28.29,23.69C-2577.93,534.22-2576.98,535.35-2575.74,535.35z"/>
	</g>
</g>
<g>
	<g>
		<path d="M-1414.61,497.59c0-0.72-0.16-1.4-0.45-2.01c-0.23-0.63-0.59-1.23-1.1-1.73l-59.98-59.98c-0.49-0.49-1.08-0.86-1.73-1.09
			c-0.61-0.29-1.29-0.45-2.02-0.45h-84.82c-0.72,0-1.41,0.17-2.02,0.46c-0.64,0.23-1.23,0.6-1.72,1.09l-59.98,59.98
			c-0.49,0.49-0.86,1.08-1.09,1.72c-0.29,0.61-0.46,1.3-0.46,2.02v84.82c0,0.72,0.17,1.4,0.45,2.02c0.23,0.64,0.6,1.23,1.09,1.73
			l59.98,59.98c0.49,0.49,1.08,0.86,1.73,1.09c0.61,0.29,1.29,0.45,2.02,0.45h84.82c0.72,0,1.4-0.17,2.01-0.45
			c0.63-0.23,1.22-0.59,1.73-1.1l59.98-59.98c0.49-0.49,0.86-1.08,1.09-1.72c0.29-0.61,0.46-1.3,0.46-2.02V497.59z M-1615.77,513.2
			l24.85,24.85c1.08,1.08,1.08,2.84,0,3.92l-24.85,24.85c-1.75,1.75-4.73,0.51-4.73-1.96v-49.69
			C-1620.5,512.69-1617.52,511.45-1615.77,513.2z M-1513.63,567.59L-1513.63,567.59c-1.08-1.08-1.08-2.84,0-3.92l0,0
			c0.52-0.52,1.22-0.81,1.96-0.81h0c1.53,0,2.77,1.24,2.77,2.77v0C-1508.9,568.1-1511.89,569.33-1513.63,567.59z M-1530.95,512.41
			L-1530.95,512.41c1.08,1.08,1.08,2.84,0,3.92l0,0c-0.52,0.52-1.22,0.81-1.96,0.81h0c-1.53,0-2.77-1.24-2.77-2.77v0
			C-1535.67,511.9-1532.69,510.67-1530.95,512.41z M-1528.64,552.57l-6.22-6.22c-0.52-0.52-0.81-1.22-0.81-1.96v-8.79
			c0-0.73,0.29-1.44,0.81-1.96l6.22-6.22c0.52-0.52,1.22-0.81,1.96-0.81h8.79c0.73,0,1.44,0.29,1.96,0.81l6.22,6.22
			c0.52,0.52,0.81,1.22,0.81,1.96v8.79c0,0.73-0.29,1.44-0.81,1.96l-6.22,6.22c-0.52,0.52-1.22,0.81-1.96,0.81h-8.79
			C-1527.42,553.39-1528.13,553.09-1528.64,552.57z M-1545.96,531.34L-1545.96,531.34c-1.08,1.08-2.84,1.08-3.92,0l0,0
			c-1.75-1.75-0.51-4.73,1.96-4.73h0c1.53,0,2.77,1.24,2.77,2.77v0C-1545.15,530.12-1545.44,530.82-1545.96,531.34z
			 M-1545.15,550.62L-1545.15,550.62c0,1.53-1.24,2.77-2.77,2.77h0c-2.47,0-3.7-2.98-1.96-4.73l0,0c1.08-1.08,2.84-1.08,3.92,0l0,0
			C-1545.44,549.18-1545.15,549.88-1545.15,550.62z M-1498.62,548.66L-1498.62,548.66c1.08-1.08,2.84-1.08,3.92,0l0,0
			c1.75,1.75,0.51,4.73-1.96,4.73h0c-1.53,0-2.77-1.24-2.77-2.77v0C-1499.43,549.88-1499.14,549.18-1498.62,548.66z
			 M-1499.43,529.38L-1499.43,529.38c0-1.53,1.24-2.77,2.77-2.77h0c2.47,0,3.7,2.98,1.96,4.73l0,0c-1.08,1.08-2.84,1.08-3.92,0l0,0
			C-1499.14,530.82-1499.43,530.12-1499.43,529.38z M-1487.38,517.14h-9.28c-1.53,0-2.77-1.24-2.77-2.77v-9.28
			c0-1.53,1.24-2.77,2.77-2.77h9.28c1.53,0,2.77,1.24,2.77,2.77v9.28C-1484.61,515.9-1485.85,517.14-1487.38,517.14z
			 M-1511.67,517.14L-1511.67,517.14c-0.74,0-1.44-0.29-1.96-0.81l0,0c-1.08-1.08-1.08-2.84,0-3.92l0,0
			c1.75-1.75,4.73-0.51,4.73,1.96v0C-1508.9,515.9-1510.14,517.14-1511.67,517.14z M-1524.25,505.72l-6.56-6.56
			c-1.08-1.08-1.08-2.84,0-3.92l6.56-6.56c1.08-1.08,2.84-1.08,3.92,0l6.56,6.56c1.08,1.08,1.08,2.84,0,3.92l-6.56,6.56
			C-1521.41,506.8-1523.17,506.8-1524.25,505.72z M-1547.92,517.14h-9.28c-1.53,0-2.77-1.24-2.77-2.77v-9.28
			c0-1.53,1.24-2.77,2.77-2.77h9.28c1.53,0,2.77,1.24,2.77,2.77v9.28C-1545.15,515.9-1546.39,517.14-1547.92,517.14z
			 M-1570.25,521.28l-10.06,10.06c-1.08,1.08-2.84,1.08-3.92,0l-24.29-24.29c-1.75-1.75-0.51-4.73,1.96-4.73h34.36
			c1.53,0,2.77,1.24,2.77,2.77v14.23C-1569.44,520.06-1569.73,520.76-1570.25,521.28z M-1563.13,531.48l6.56,6.56
			c1.08,1.08,1.08,2.84,0,3.92l-6.56,6.56c-1.08,1.08-2.84,1.08-3.92,0l-6.56-6.56c-1.08-1.08-1.08-2.84,0-3.92l6.56-6.56
			C-1565.97,530.4-1564.22,530.4-1563.13,531.48z M-1569.44,560.68v14.23c0,1.53-1.24,2.77-2.77,2.77h-34.35
			c-2.47,0-3.7-2.98-1.96-4.73l24.29-24.29c1.08-1.08,2.84-1.08,3.92,0l10.06,10.06C-1569.73,559.24-1569.44,559.94-1569.44,560.68z
			 M-1557.19,562.86h9.28c1.53,0,2.77,1.24,2.77,2.77v9.28c0,1.53-1.24,2.77-2.77,2.77h-9.28c-1.53,0-2.77-1.24-2.77-2.77v-9.28
			C-1559.96,564.1-1558.72,562.86-1557.19,562.86z M-1532.9,562.86L-1532.9,562.86c0.73,0,1.44,0.29,1.96,0.81l0,0
			c1.08,1.08,1.08,2.84,0,3.92l0,0c-1.75,1.75-4.73,0.51-4.73-1.96v0C-1535.67,564.1-1534.43,562.86-1532.9,562.86z
			 M-1520.33,574.28l6.56,6.56c1.08,1.08,1.08,2.84,0,3.92l-6.56,6.56c-1.08,1.08-2.84,1.08-3.92,0l-6.56-6.56
			c-1.08-1.08-1.08-2.84,0-3.92l6.56-6.56C-1523.17,573.2-1521.41,573.2-1520.33,574.28z M-1496.66,562.86h9.28
			c1.53,0,2.77,1.24,2.77,2.77v9.28c0,1.53-1.24,2.77-2.77,2.77h-9.28c-1.53,0-2.77-1.24-2.77-2.77v-9.28
			C-1499.43,564.1-1498.19,562.86-1496.66,562.86z M-1474.33,558.72l10.06-10.06c1.08-1.08,2.84-1.08,3.92,0l24.29,24.29
			c1.75,1.75,0.51,4.73-1.96,4.73h-34.35c-1.53,0-2.77-1.24-2.77-2.77v-14.23C-1475.14,559.94-1474.85,559.24-1474.33,558.72z
			 M-1481.44,548.52l-6.56-6.56c-1.08-1.08-1.08-2.84,0-3.92l6.56-6.56c1.08-1.08,2.84-1.08,3.92,0l6.56,6.56
			c1.08,1.08,1.08,2.84,0,3.92l-6.56,6.56C-1478.61,549.6-1480.36,549.6-1481.44,548.52z M-1475.14,519.32v-14.23
			c0-1.53,1.24-2.77,2.77-2.77h34.35c2.47,0,3.7,2.98,1.96,4.73l-24.29,24.29c-1.08,1.08-2.84,1.08-3.92,0l-10.06-10.06
			C-1474.85,520.76-1475.14,520.06-1475.14,519.32z M-1475.14,490.08v-35.14c0-2.47,2.98-3.7,4.73-1.96l35.14,35.14
			c1.75,1.75,0.51,4.73-1.96,4.73h-35.14C-1473.9,492.85-1475.14,491.61-1475.14,490.08z M-1487.38,492.85h-14.23
			c-0.73,0-1.44-0.29-1.96-0.81l-10.06-10.06c-1.08-1.08-1.08-2.84,0-3.92l24.29-24.29c1.75-1.75,4.73-0.51,4.73,1.96v34.35
			C-1484.61,491.61-1485.85,492.85-1487.38,492.85z M-1524.25,471.36l-24.85-24.85c-1.75-1.75-0.51-4.73,1.96-4.73h49.69
			c2.47,0,3.7,2.98,1.96,4.73l-24.85,24.85C-1521.41,472.45-1523.17,472.45-1524.25,471.36z M-1530.94,481.98l-10.06,10.06
			c-0.52,0.52-1.22,0.81-1.96,0.81h-14.23c-1.53,0-2.77-1.24-2.77-2.77v-34.35c0-2.47,2.98-3.7,4.73-1.96l24.29,24.29
			C-1529.86,479.14-1529.86,480.9-1530.94,481.98z M-1572.21,492.85h-35.14c-2.47,0-3.7-2.98-1.96-4.73l35.14-35.14
			c1.75-1.75,4.73-0.51,4.73,1.96v35.14C-1569.44,491.61-1570.68,492.85-1572.21,492.85z M-1569.44,589.92v35.14
			c0,2.47-2.98,3.7-4.73,1.96l-35.14-35.14c-1.75-1.75-0.51-4.73,1.96-4.73h35.14C-1570.68,587.15-1569.44,588.39-1569.44,589.92z
			 M-1557.19,587.15h14.23c0.73,0,1.44,0.29,1.96,0.81l10.06,10.06c1.08,1.08,1.08,2.84,0,3.92l-24.29,24.29
			c-1.75,1.75-4.73,0.51-4.73-1.96v-34.35C-1559.96,588.39-1558.72,587.15-1557.19,587.15z M-1520.33,608.64l24.85,24.85
			c1.75,1.75,0.51,4.73-1.96,4.73h-49.69c-2.47,0-3.7-2.98-1.96-4.73l24.85-24.85C-1523.17,607.55-1521.41,607.55-1520.33,608.64z
			 M-1513.63,598.02l10.06-10.06c0.52-0.52,1.22-0.81,1.96-0.81h14.23c1.53,0,2.77,1.24,2.77,2.77v34.36c0,2.47-2.98,3.7-4.73,1.96
			l-24.29-24.29C-1514.71,600.86-1514.71,599.1-1513.63,598.02z M-1472.37,587.15h35.14c2.47,0,3.7,2.98,1.96,4.73l-35.14,35.14
			c-1.75,1.75-4.73,0.51-4.73-1.96v-35.14C-1475.14,588.39-1473.9,587.15-1472.37,587.15z M-1453.65,538.04l24.85-24.85
			c1.75-1.75,4.73-0.51,4.73,1.96v49.69c0,2.47-2.98,3.7-4.73,1.96l-24.85-24.85C-1454.73,540.88-1454.73,539.12-1453.65,538.04z"/>
	</g>
	<g>
		<path d="M-1369.49,574.1V470.25c0-3.42,2.78-6.2,6.2-6.2l0,0c3.42,0,6.2,2.78,6.2,6.2v27.23c0,1.83,1.48,3.31,3.31,3.31h42.12
			c4.19,0,7.58,3.4,7.58,7.58v65.73c0,3.42-2.78,6.2-6.2,6.2l0,0c-3.42,0-6.2-2.78-6.2-6.2v-59.71c0-1.52-1.24-2.76-2.76-2.76
			h-34.54c-1.83,0-3.31,1.48-3.31,3.31v59.16c0,3.42-2.78,6.2-6.2,6.2l0,0C-1366.71,580.3-1369.49,577.52-1369.49,574.1z"/>
		<path d="M-1254.25,604.94h37.02c1.42,0,2.58-1.15,2.58-2.58v-24.24c0-3.25,0.15-5.74,0.31-7.91h-0.47
			c-1.71,4.5-8.37,11.47-22.94,11.47c-17.51,0-29.92-13.33-29.92-31.77v-42.93c0-3.42,2.78-6.2,6.2-6.2l0,0c3.42,0,6.2,2.78,6.2,6.2
			v42.78c0,12.25,8.37,20.62,20.3,20.62c11.93,0,20.3-8.37,20.3-20.62v-42.78c0-3.42,2.78-6.2,6.2-6.2l0,0c3.42,0,6.2,2.78,6.2,6.2
			v100.59c0,4.63-3.75,8.38-8.38,8.38h-43.63c-3.04,0-5.5-2.46-5.5-5.5l0,0C-1259.75,607.41-1257.29,604.94-1254.25,604.94z"/>
		<path d="M-1121.65,582.78c-14.26,0-26.19-6.2-30.53-15.5h-0.47c0.31,2.02,0.47,4.34,0.47,8.37v34.88c0,3-2.43,5.42-5.42,5.42
			h-1.55c-3,0-5.42-2.43-5.42-5.42V506.21c0-3,2.43-5.42,5.42-5.42h0.78c3,0,5.42,2.43,5.42,5.42l0,0c0,3.72-0.16,6.04-0.46,8.37
			h0.46c5.27-8.99,16.74-16.27,31.93-16.27c23.71,0,40.61,17.82,40.61,42.16C-1080.42,564.96-1097.47,582.78-1121.65,582.78z
			 M-1152.65,540.46c0,17.98,12.56,31.15,29.92,31.15c16.89,0,29.6-13.17,29.6-31.15s-12.71-31.15-29.6-31.15
			C-1140.09,509.31-1152.65,522.49-1152.65,540.46z"/>
		<path d="M-1004.78,582.11c-27.1,4.72-51.79-17.73-49.78-45.16c1.64-22.39,18.88-38.65,41.72-38.65
			c23.25,0,39.21,18.13,39.21,42.16l0,0.05c0,2.97-2.41,5.38-5.38,5.38l-59.8,0c-1.55,0-2.66,1.44-2.32,2.95
			c3.13,13.71,13.97,22.78,28.6,22.78c8.78,0,15.99-3.03,21.72-8.4c2.11-1.98,5.42-1.93,7.45,0.14l0,0c2.02,2.07,2.01,5.36,0,7.45
			C-989.13,576.81-996.39,580.65-1004.78,582.11z M-1037.57,535.35h47.71c2.1,0,3.73-1.89,3.35-3.96
			c-2.41-12.97-12.52-22.08-26.49-22.08c-13.93,0-24.53,8.68-27.88,21.87C-1041.41,533.3-1039.76,535.35-1037.57,535.35z"/>
		<path d="M-906.97,506.29L-906.97,506.29c0,3.04-2.46,5.5-5.5,5.5h-15.16c-1.43,0-2.58,1.16-2.58,2.58v59.73
			c0,3.42-2.78,6.2-6.2,6.2h0c-3.42,0-6.2-2.78-6.2-6.2v-64.57c0-4.83,3.91-8.74,8.74-8.74h21.41
			C-909.44,500.79-906.97,503.25-906.97,506.29z"/>
		<path d="M-816.28,518.12c-2.16,2.16-5.62,2.05-7.76-0.12c-5.23-5.32-12.45-8.69-21.25-8.69c-17.21,0-29.61,13.02-29.61,31.15
			c0,17.83,12.4,31.15,29.61,31.15c9.24,0,16.66-3.82,21.96-9.52c2.08-2.23,5.55-2.39,7.73-0.25l0,0c2.02,1.98,2.14,5.18,0.3,7.33
			c-6.95,8.17-17.55,13.59-29.99,13.59c-22.67,0-39.07-14.96-41.88-35.83c-3.61-26.74,18.42-50.58,45.32-48.52
			c10.24,0.79,19.1,5.08,25.7,12.04c2.01,2.12,2,5.51-0.07,7.58L-816.28,518.12z"/>
		<path d="M-783.13,574.05v-67.06c0-3.42,2.78-6.2,6.2-6.2h0c3.42,0,6.2,2.78,6.2,6.2v59.76c0,1.41,1.14,2.55,2.55,2.55h34.58
			c1.41,0,2.55-1.14,2.55-2.55v-59.76c0-3.42,2.78-6.2,6.2-6.2h0c3.42,0,6.2,2.78,6.2,6.2v67.06c0,3.45-2.8,6.25-6.25,6.25h-51.97
			C-780.33,580.3-783.13,577.5-783.13,574.05z"/>
		<path d="M-637.9,582.78c-13.95,0-26.35-6.04-31.46-16.43h-0.46c0.31,2.48,0.46,5.12,0.46,8.68l0,0c0,2.91-2.36,5.27-5.27,5.27
			h-1.08c-2.91,0-5.27-2.36-5.27-5.27V470.25c0-3.42,2.78-6.2,6.2-6.2h0c3.42,0,6.2,2.78,6.2,6.2v35.18c0,4.18-0.16,6.51-0.47,8.68
			h0.47c5.11-9.3,17.67-15.81,30.53-15.81c24.8,0,41.23,17.82,41.23,42.16C-596.82,564.96-613.1,582.78-637.9,582.78z
			 M-609.53,540.46c0-18.13-12.71-31.15-29.76-31.15c-17.36,0-29.76,13.02-29.76,31.15c0,17.83,12.4,31.15,29.76,31.15
			C-622.24,571.62-609.53,558.29-609.53,540.46z"/>
		<path d="M-522.89,582.38c-25.91,3.45-49.11-17.54-48.17-43.66c0.84-23.29,18.38-40.41,41.82-40.41
			c23.25,0,39.21,18.13,39.21,42.16l0,0.05c0,2.97-2.41,5.38-5.38,5.38l-60.65,0c-1.07,0-1.88,0.98-1.67,2.04
			c2.85,14.22,13.84,23.69,28.79,23.69c8.78,0,15.99-3.03,21.72-8.4c2.11-1.98,5.42-1.93,7.44,0.14l0,0c2.02,2.07,2.01,5.36,0,7.45
			C-505.92,577.21-513.78,581.16-522.89,582.38z M-555.74,535.35h51.13c1.19,0,2.12-1.05,1.97-2.23
			c-1.8-13.88-12.18-23.81-26.76-23.81c-14.55,0-25.48,9.48-28.29,23.69C-557.93,534.22-556.98,535.35-555.74,535.35z"/>
	</g>
</g>
<g>
	<path class="st1" d="M1295.83,407.73c0-2.24-0.51-4.36-1.41-6.26c-0.71-1.97-1.85-3.82-3.42-5.4L1103.94,209
		c-1.54-1.53-3.38-2.68-5.38-3.41c-1.91-0.9-4.03-1.42-6.29-1.42H827.73c-2.26,0-4.39,0.52-6.31,1.43c-1.99,0.73-3.83,1.87-5.36,3.4
		L629,396.07c-1.53,1.53-2.68,3.37-3.41,5.37c-0.9,1.91-1.42,4.04-1.42,6.3v264.54c0,2.25,0.52,4.38,1.42,6.28
		c0.73,2,1.88,3.85,3.41,5.38L816.06,871c1.54,1.54,3.38,2.68,5.38,3.41c1.91,0.9,4.03,1.42,6.28,1.42h264.54
		c2.25,0,4.37-0.52,6.27-1.41c1.96-0.71,3.81-1.84,5.39-3.42l187.06-187.06c1.53-1.53,2.68-3.37,3.41-5.37
		c0.9-1.91,1.43-4.04,1.43-6.3V407.73z M668.46,456.41l77.49,77.48c3.37,3.37,3.37,8.84,0,12.22l-77.49,77.48
		c-5.44,5.44-14.75,1.59-14.75-6.11V462.52C653.71,454.82,663.02,450.96,668.46,456.41z M987,626.04L987,626.04
		c-3.38-3.38-3.38-8.85,0-12.22l0,0c1.62-1.62,3.82-2.53,6.11-2.53h0c4.77,0,8.64,3.87,8.64,8.64v0.01
		C1001.75,627.63,992.44,631.48,987,626.04z M933,453.96L933,453.96c3.38,3.38,3.38,8.85,0,12.22l0,0
		c-1.62,1.62-3.82,2.53-6.11,2.53h0c-4.77,0-8.64-3.87-8.64-8.64v0C918.25,452.38,927.56,448.52,933,453.96z M940.18,579.22
		l-19.39-19.39c-1.62-1.62-2.53-3.82-2.53-6.11v-27.43c0-2.29,0.91-4.49,2.53-6.11l19.39-19.39c1.62-1.62,3.82-2.53,6.11-2.53h27.43
		c2.29,0,4.49,0.91,6.11,2.53l19.39,19.39c1.62,1.62,2.53,3.82,2.53,6.11v27.43c0,2.29-0.91,4.49-2.53,6.11l-19.39,19.39
		c-1.62,1.62-3.82,2.53-6.11,2.53h-27.43C943.99,581.75,941.8,580.84,940.18,579.22z M886.19,513L886.19,513
		c-3.38,3.38-8.85,3.38-12.22,0l0,0c-5.44-5.44-1.59-14.75,6.11-14.75h0.01c4.77,0,8.64,3.87,8.64,8.64v0
		C888.72,509.19,887.81,511.38,886.19,513z M888.72,573.11L888.72,573.11c0,4.77-3.87,8.64-8.64,8.64h0
		c-7.7,0-11.55-9.31-6.11-14.75l0,0c3.37-3.37,8.84-3.37,12.22,0l0,0C887.81,568.62,888.72,570.82,888.72,573.11z M1033.81,567
		L1033.81,567c3.38-3.38,8.85-3.38,12.22,0l0,0c5.44,5.44,1.59,14.75-6.11,14.75h-0.01c-4.77,0-8.64-3.87-8.64-8.64v0
		C1031.28,570.81,1032.19,568.62,1033.81,567z M1031.28,506.89L1031.28,506.89c0-4.77,3.87-8.64,8.64-8.64h0
		c7.7,0,11.55,9.31,6.11,14.75l0,0c-3.37,3.37-8.84,3.37-12.22,0l0,0C1032.19,511.38,1031.28,509.18,1031.28,506.89z
		 M1068.86,468.72h-28.94c-4.77,0-8.64-3.87-8.64-8.64v-28.94c0-4.77,3.87-8.64,8.64-8.64h28.94c4.77,0,8.64,3.87,8.64,8.64v28.94
		C1077.5,464.85,1073.63,468.72,1068.86,468.72z M993.11,468.72L993.11,468.72c-2.29,0-4.49-0.91-6.11-2.53l0,0
		c-3.37-3.37-3.37-8.84,0-12.22l0,0c5.44-5.44,14.75-1.59,14.75,6.11v0C1001.75,464.85,997.88,468.72,993.11,468.72z M953.89,433.08
		l-20.46-20.46c-3.37-3.37-3.37-8.84,0-12.22l20.46-20.46c3.37-3.37,8.84-3.37,12.22,0l20.46,20.46c3.37,3.37,3.37,8.84,0,12.22
		l-20.46,20.46C962.74,436.45,957.26,436.45,953.89,433.08z M880.08,468.72h-28.94c-4.77,0-8.64-3.87-8.64-8.64v-28.94
		c0-4.77,3.87-8.64,8.64-8.64h28.94c4.77,0,8.64,3.87,8.64,8.64v28.94C888.72,464.85,884.85,468.72,880.08,468.72z M810.43,481.63
		l-31.38,31.38c-3.37,3.37-8.84,3.37-12.22,0l-75.76-75.76c-5.44-5.44-1.59-14.75,6.11-14.75h107.14c4.77,0,8.64,3.87,8.64,8.64
		v44.38C812.96,477.81,812.05,480,810.43,481.63z M832.62,513.43l20.46,20.46c3.37,3.37,3.37,8.84,0,12.22l-20.46,20.46
		c-3.37,3.37-8.84,3.37-12.22,0l-20.46-20.46c-3.37-3.37-3.37-8.84,0-12.22l20.46-20.46C823.77,510.05,829.24,510.05,832.62,513.43z
		 M812.96,604.49v44.37c0,4.77-3.87,8.64-8.64,8.64H697.18c-7.7,0-11.55-9.31-6.11-14.75L766.83,567c3.37-3.37,8.84-3.37,12.22,0
		l31.38,31.38C812.05,600,812.96,602.2,812.96,604.49z M851.14,611.28h28.94c4.77,0,8.64,3.87,8.64,8.64v28.94
		c0,4.77-3.87,8.64-8.64,8.64h-28.94c-4.77,0-8.64-3.87-8.64-8.64v-28.94C842.5,615.15,846.37,611.28,851.14,611.28z M926.89,611.28
		L926.89,611.28c2.29,0,4.49,0.91,6.11,2.53l0,0c3.37,3.37,3.37,8.84,0,12.22l0,0c-5.44,5.44-14.75,1.59-14.75-6.11v0
		C918.25,615.15,922.12,611.28,926.89,611.28z M966.11,646.92l20.46,20.46c3.37,3.37,3.37,8.84,0,12.22l-20.46,20.46
		c-3.37,3.37-8.84,3.37-12.22,0l-20.46-20.46c-3.37-3.37-3.37-8.84,0-12.22l20.46-20.46C957.26,643.55,962.73,643.55,966.11,646.92z
		 M1039.92,611.28h28.94c4.77,0,8.64,3.87,8.64,8.64v28.94c0,4.77-3.87,8.64-8.64,8.64h-28.94c-4.77,0-8.64-3.87-8.64-8.64v-28.94
		C1031.28,615.15,1035.15,611.28,1039.92,611.28z M1109.57,598.37l31.38-31.38c3.37-3.37,8.84-3.37,12.22,0l75.76,75.76
		c5.44,5.44,1.59,14.75-6.11,14.75h-107.14c-4.77,0-8.64-3.87-8.64-8.64v-44.38C1107.04,602.19,1107.95,600,1109.57,598.37z
		 M1087.38,566.57l-20.46-20.46c-3.37-3.37-3.37-8.84,0-12.22l20.46-20.46c3.37-3.37,8.84-3.37,12.22,0l20.46,20.46
		c3.37,3.37,3.37,8.84,0,12.22l-20.46,20.46C1096.23,569.95,1090.76,569.95,1087.38,566.57z M1107.04,475.52v-44.38
		c0-4.77,3.87-8.64,8.64-8.64h107.14c7.7,0,11.55,9.31,6.11,14.75l-75.76,75.76c-3.37,3.37-8.84,3.37-12.22,0l-31.38-31.38
		C1107.95,480,1107.04,477.81,1107.04,475.52z M1107.04,384.32V274.74c0-7.7,9.31-11.55,14.75-6.11l109.58,109.58
		c5.44,5.44,1.59,14.75-6.11,14.75h-109.58C1110.91,392.96,1107.04,389.09,1107.04,384.32z M1068.86,392.96h-44.38
		c-2.29,0-4.49-0.91-6.11-2.53l-31.38-31.38c-3.37-3.37-3.37-8.84,0-12.22l75.76-75.76c5.44-5.44,14.75-1.59,14.75,6.11v107.14
		C1077.5,389.09,1073.63,392.96,1068.86,392.96z M953.89,325.95l-77.49-77.49c-5.44-5.44-1.59-14.75,6.11-14.75h154.97
		c7.7,0,11.55,9.31,6.11,14.75l-77.49,77.49C962.73,329.32,957.26,329.32,953.89,325.95z M933,359.05l-31.38,31.38
		c-1.62,1.62-3.82,2.53-6.11,2.53h-44.38c-4.77,0-8.64-3.87-8.64-8.64V277.18c0-7.7,9.31-11.55,14.75-6.11L933,346.83
		C936.38,350.21,936.38,355.68,933,359.05z M804.32,392.96H694.74c-7.7,0-11.55-9.31-6.11-14.75l109.58-109.58
		c5.44-5.44,14.75-1.59,14.75,6.11v109.58C812.96,389.09,809.09,392.96,804.32,392.96z M812.96,695.68v109.59
		c0,7.7-9.31,11.55-14.75,6.11L688.63,701.79c-5.44-5.44-1.59-14.75,6.11-14.75h109.59C809.09,687.04,812.96,690.91,812.96,695.68z
		 M851.14,687.04h44.37c2.29,0,4.49,0.91,6.11,2.53L933,720.95c3.37,3.37,3.37,8.84,0,12.22l-75.76,75.76
		c-5.44,5.44-14.75,1.59-14.75-6.11V695.68C842.5,690.91,846.37,687.04,851.14,687.04z M966.11,754.06l77.49,77.49
		c5.44,5.44,1.59,14.75-6.11,14.75H882.51c-7.7,0-11.55-9.31-6.11-14.75l77.48-77.49C957.26,750.68,962.73,750.68,966.11,754.06z
		 M986.99,720.95l31.38-31.38c1.62-1.62,3.82-2.53,6.11-2.53h44.38c4.77,0,8.64,3.87,8.64,8.64v107.14c0,7.7-9.31,11.55-14.75,6.11
		l-75.76-75.76C983.62,729.8,983.62,724.32,986.99,720.95z M1115.68,687.04h109.58c7.7,0,11.55,9.31,6.11,14.75l-109.58,109.58
		c-5.44,5.44-14.75,1.59-14.75-6.11V695.68C1107.04,690.91,1110.91,687.04,1115.68,687.04z M1174.05,533.89l77.49-77.49
		c5.44-5.44,14.75-1.59,14.75,6.11v154.97c0,7.7-9.31,11.55-14.75,6.11l-77.49-77.49C1170.68,542.74,1170.68,537.27,1174.05,533.89z
		"/>
</g>
<g>
	<path d="M3315.83,407.73c0-2.24-0.51-4.36-1.41-6.26c-0.71-1.97-1.84-3.82-3.42-5.4L3123.94,209c-1.54-1.53-3.38-2.68-5.38-3.41
		c-1.91-0.9-4.03-1.42-6.29-1.42h-264.54c-2.26,0-4.39,0.52-6.31,1.43c-1.99,0.73-3.83,1.87-5.36,3.4L2649,396.07
		c-1.53,1.53-2.68,3.37-3.41,5.37c-0.9,1.91-1.42,4.04-1.42,6.3v264.54c0,2.25,0.52,4.38,1.42,6.28c0.73,2,1.88,3.85,3.41,5.38
		L2836.06,871c1.54,1.54,3.38,2.68,5.38,3.41c1.91,0.9,4.03,1.42,6.28,1.42h264.54c2.25,0,4.37-0.52,6.27-1.41
		c1.96-0.71,3.81-1.84,5.39-3.42l187.06-187.06c1.53-1.53,2.68-3.37,3.41-5.37c0.9-1.91,1.43-4.04,1.43-6.3V407.73z M2688.46,456.41
		l77.49,77.48c3.37,3.37,3.37,8.84,0,12.22l-77.49,77.48c-5.44,5.44-14.75,1.59-14.75-6.11V462.52
		C2673.71,454.82,2683.02,450.96,2688.46,456.41z M3007,626.04L3007,626.04c-3.38-3.38-3.38-8.85,0-12.22l0,0
		c1.62-1.62,3.82-2.53,6.11-2.53h0c4.77,0,8.64,3.87,8.64,8.64v0.01C3021.75,627.63,3012.44,631.48,3007,626.04z M2953,453.96
		L2953,453.96c3.38,3.38,3.38,8.85,0,12.22l0,0c-1.62,1.62-3.82,2.53-6.11,2.53h0c-4.77,0-8.64-3.87-8.64-8.64v0
		C2938.25,452.38,2947.56,448.52,2953,453.96z M2960.18,579.22l-19.39-19.39c-1.62-1.62-2.53-3.82-2.53-6.11v-27.43
		c0-2.29,0.91-4.49,2.53-6.11l19.4-19.39c1.62-1.62,3.82-2.53,6.11-2.53h27.43c2.29,0,4.49,0.91,6.11,2.53l19.39,19.39
		c1.62,1.62,2.53,3.82,2.53,6.11v27.43c0,2.29-0.91,4.49-2.53,6.11l-19.4,19.39c-1.62,1.62-3.82,2.53-6.11,2.53h-27.43
		C2963.99,581.75,2961.8,580.84,2960.18,579.22z M2906.19,513L2906.19,513c-3.38,3.38-8.85,3.38-12.22,0l0,0
		c-5.44-5.44-1.59-14.75,6.11-14.75h0.01c4.77,0,8.64,3.87,8.64,8.64v0C2908.72,509.19,2907.81,511.38,2906.19,513z M2908.72,573.11
		L2908.72,573.11c0,4.77-3.87,8.64-8.64,8.64h0c-7.7,0-11.55-9.31-6.11-14.75l0,0c3.37-3.37,8.84-3.37,12.22,0l0,0
		C2907.81,568.62,2908.72,570.82,2908.72,573.11z M3053.81,567L3053.81,567c3.38-3.38,8.85-3.38,12.22,0l0,0
		c5.44,5.44,1.59,14.75-6.11,14.75h-0.01c-4.77,0-8.64-3.87-8.64-8.64v0C3051.28,570.81,3052.19,568.62,3053.81,567z
		 M3051.28,506.89L3051.28,506.89c0-4.77,3.87-8.64,8.64-8.64h0c7.7,0,11.55,9.31,6.11,14.75l0,0c-3.37,3.37-8.84,3.37-12.22,0l0,0
		C3052.19,511.38,3051.28,509.18,3051.28,506.89z M3088.86,468.72h-28.94c-4.77,0-8.64-3.87-8.64-8.64v-28.94
		c0-4.77,3.87-8.64,8.64-8.64h28.94c4.77,0,8.64,3.87,8.64,8.64v28.94C3097.5,464.85,3093.63,468.72,3088.86,468.72z
		 M3013.11,468.72L3013.11,468.72c-2.29,0-4.49-0.91-6.11-2.53l0,0c-3.37-3.37-3.37-8.84,0-12.22l0,0
		c5.44-5.44,14.75-1.59,14.75,6.11v0C3021.75,464.85,3017.88,468.72,3013.11,468.72z M2973.89,433.08l-20.46-20.46
		c-3.37-3.37-3.37-8.84,0-12.22l20.46-20.46c3.37-3.37,8.84-3.37,12.22,0l20.46,20.46c3.37,3.37,3.37,8.84,0,12.22l-20.46,20.46
		C2982.74,436.45,2977.26,436.45,2973.89,433.08z M2900.08,468.72h-28.94c-4.77,0-8.64-3.87-8.64-8.64v-28.94
		c0-4.77,3.87-8.64,8.64-8.64h28.94c4.77,0,8.64,3.87,8.64,8.64v28.94C2908.72,464.85,2904.85,468.72,2900.08,468.72z
		 M2830.43,481.63l-31.38,31.38c-3.37,3.37-8.84,3.37-12.22,0l-75.76-75.76c-5.44-5.44-1.59-14.75,6.11-14.75h107.14
		c4.77,0,8.64,3.87,8.64,8.64v44.38C2832.96,477.81,2832.05,480,2830.43,481.63z M2852.62,513.43l20.46,20.46
		c3.37,3.37,3.37,8.84,0,12.22l-20.46,20.46c-3.37,3.37-8.84,3.37-12.22,0l-20.46-20.46c-3.37-3.37-3.37-8.84,0-12.22l20.46-20.46
		C2843.77,510.05,2849.24,510.05,2852.62,513.43z M2832.96,604.49v44.37c0,4.77-3.87,8.64-8.64,8.64h-107.14
		c-7.7,0-11.55-9.31-6.11-14.75l75.76-75.76c3.37-3.37,8.84-3.37,12.22,0l31.38,31.38C2832.05,600,2832.96,602.2,2832.96,604.49z
		 M2871.14,611.28h28.94c4.77,0,8.64,3.87,8.64,8.64v28.94c0,4.77-3.87,8.64-8.64,8.64h-28.94c-4.77,0-8.64-3.87-8.64-8.64v-28.94
		C2862.5,615.15,2866.37,611.28,2871.14,611.28z M2946.89,611.28L2946.89,611.28c2.29,0,4.49,0.91,6.11,2.53l0,0
		c3.37,3.37,3.37,8.84,0,12.22l0,0c-5.44,5.44-14.75,1.59-14.75-6.11v0C2938.25,615.15,2942.12,611.28,2946.89,611.28z
		 M2986.11,646.92l20.46,20.46c3.37,3.37,3.37,8.84,0,12.22l-20.46,20.46c-3.37,3.37-8.84,3.37-12.22,0l-20.46-20.46
		c-3.37-3.37-3.37-8.84,0-12.22l20.46-20.46C2977.26,643.55,2982.73,643.55,2986.11,646.92z M3059.92,611.28h28.94
		c4.77,0,8.64,3.87,8.64,8.64v28.94c0,4.77-3.87,8.64-8.64,8.64h-28.94c-4.77,0-8.64-3.87-8.64-8.64v-28.94
		C3051.28,615.15,3055.15,611.28,3059.92,611.28z M3129.57,598.37l31.38-31.38c3.37-3.37,8.84-3.37,12.22,0l75.76,75.76
		c5.44,5.44,1.59,14.75-6.11,14.75h-107.14c-4.77,0-8.64-3.87-8.64-8.64v-44.38C3127.04,602.19,3127.95,600,3129.57,598.37z
		 M3107.38,566.57l-20.46-20.46c-3.37-3.37-3.37-8.84,0-12.22l20.46-20.46c3.37-3.37,8.84-3.37,12.22,0l20.46,20.46
		c3.37,3.37,3.37,8.84,0,12.22l-20.46,20.46C3116.23,569.95,3110.76,569.95,3107.38,566.57z M3127.04,475.52v-44.38
		c0-4.77,3.87-8.64,8.64-8.64h107.14c7.7,0,11.55,9.31,6.11,14.75l-75.76,75.76c-3.37,3.37-8.84,3.37-12.22,0l-31.38-31.38
		C3127.95,480,3127.04,477.81,3127.04,475.52z M3127.04,384.32V274.74c0-7.7,9.31-11.55,14.75-6.11l109.58,109.58
		c5.44,5.44,1.59,14.75-6.11,14.75h-109.58C3130.91,392.96,3127.04,389.09,3127.04,384.32z M3088.86,392.96h-44.38
		c-2.29,0-4.49-0.91-6.11-2.53l-31.38-31.38c-3.37-3.37-3.37-8.84,0-12.22l75.76-75.76c5.44-5.44,14.75-1.59,14.75,6.11v107.14
		C3097.5,389.09,3093.63,392.96,3088.86,392.96z M2973.89,325.95l-77.49-77.49c-5.44-5.44-1.59-14.75,6.11-14.75h154.97
		c7.7,0,11.55,9.31,6.11,14.75l-77.49,77.49C2982.73,329.32,2977.26,329.32,2973.89,325.95z M2953,359.05l-31.38,31.38
		c-1.62,1.62-3.82,2.53-6.11,2.53h-44.38c-4.77,0-8.64-3.87-8.64-8.64V277.18c0-7.7,9.31-11.55,14.75-6.11l75.76,75.76
		C2956.38,350.21,2956.38,355.68,2953,359.05z M2824.32,392.96h-109.58c-7.7,0-11.55-9.31-6.11-14.75l109.58-109.58
		c5.44-5.44,14.75-1.59,14.75,6.11v109.58C2832.96,389.09,2829.09,392.96,2824.32,392.96z M2832.96,695.68v109.59
		c0,7.7-9.31,11.55-14.75,6.11l-109.59-109.59c-5.44-5.44-1.59-14.75,6.11-14.75h109.59
		C2829.09,687.04,2832.96,690.91,2832.96,695.68z M2871.14,687.04h44.37c2.29,0,4.49,0.91,6.11,2.53l31.38,31.38
		c3.37,3.37,3.37,8.84,0,12.22l-75.76,75.76c-5.44,5.44-14.75,1.59-14.75-6.11V695.68C2862.5,690.91,2866.37,687.04,2871.14,687.04z
		 M2986.11,754.06l77.49,77.49c5.44,5.44,1.59,14.75-6.11,14.75h-154.97c-7.7,0-11.55-9.31-6.11-14.75l77.48-77.49
		C2977.26,750.68,2982.73,750.68,2986.11,754.06z M3006.99,720.95l31.38-31.38c1.62-1.62,3.82-2.53,6.11-2.53h44.38
		c4.77,0,8.64,3.87,8.64,8.64v107.14c0,7.7-9.31,11.55-14.75,6.11l-75.76-75.76C3003.62,729.8,3003.62,724.32,3006.99,720.95z
		 M3135.68,687.04h109.58c7.7,0,11.55,9.31,6.11,14.75l-109.58,109.58c-5.44,5.44-14.75,1.59-14.75-6.11V695.68
		C3127.04,690.91,3130.91,687.04,3135.68,687.04z M3194.05,533.89l77.49-77.49c5.44-5.44,14.75-1.59,14.75,6.11v154.97
		c0,7.7-9.31,11.55-14.75,6.11l-77.49-77.49C3190.68,542.74,3190.68,537.27,3194.05,533.89z"/>
</g>
<g>
	<path class="st2" d="M-3470.17,2129.43v-92.15c0-3.04,2.46-5.5,5.5-5.5l0,0c3.04,0,5.5,2.46,5.5,5.5v24.16
		c0,1.62,1.31,2.93,2.93,2.93h37.37c3.72,0,6.73,3.01,6.73,6.73v58.32c0,3.04-2.46,5.5-5.5,5.5l0,0c-3.04,0-5.5-2.46-5.5-5.5v-52.98
		c0-1.35-1.1-2.45-2.45-2.45h-30.65c-1.62,0-2.93,1.31-2.93,2.93v52.49c0,3.04-2.46,5.5-5.5,5.5l0,0
		C-3467.71,2134.93-3470.17,2132.47-3470.17,2129.43z"/>
	<path class="st2" d="M-3367.92,2156.8h32.85c1.26,0,2.29-1.02,2.29-2.29v-21.5c0-2.89,0.14-5.09,0.28-7.01h-0.41
		c-1.51,3.99-7.43,10.18-20.35,10.18c-15.54,0-26.54-11.83-26.54-28.19v-38.1c0-3.04,2.46-5.5,5.5-5.5l0,0c3.04,0,5.5,2.46,5.5,5.5
		v37.96c0,10.87,7.43,18.29,18.02,18.29c10.59,0,18.02-7.43,18.02-18.29v-37.96c0-3.04,2.46-5.5,5.5-5.5l0,0
		c3.04,0,5.5,2.46,5.5,5.5v89.25c0,4.1-3.33,7.43-7.43,7.43h-38.71c-2.7,0-4.88-2.19-4.88-4.88l0,0
		C-3372.8,2158.99-3370.62,2156.8-3367.92,2156.8z"/>
	<path class="st2" d="M-3250.26,2137.13c-12.65,0-23.24-5.5-27.09-13.75h-0.41c0.27,1.79,0.41,3.85,0.41,7.43v30.94
		c0,2.66-2.16,4.81-4.81,4.81h-1.38c-2.66,0-4.81-2.16-4.81-4.81v-92.56c0-2.66,2.16-4.81,4.81-4.81h0.69
		c2.66,0,4.81,2.16,4.81,4.81l0,0c0,3.3-0.14,5.36-0.41,7.43h0.41c4.68-7.98,14.85-14.44,28.33-14.44
		c21.04,0,36.03,15.82,36.03,37.41C-3213.68,2121.32-3228.81,2137.13-3250.26,2137.13z M-3277.77,2099.59
		c0,15.95,11.14,27.64,26.54,27.64c14.99,0,26.27-11.69,26.27-27.64c0-15.95-11.28-27.64-26.27-27.64
		C-3266.63,2071.95-3277.77,2083.64-3277.77,2099.59z"/>
	<path class="st2" d="M-3146.56,2136.54c-24.04,4.19-45.95-15.73-44.17-40.07c1.45-19.86,16.75-34.29,37.02-34.29
		c20.63,0,34.79,16.09,34.79,37.41v0.04c0,2.64-2.14,4.77-4.78,4.77l-53.06,0c-1.37,0-2.36,1.28-2.05,2.62
		c2.78,12.16,12.39,20.21,25.37,20.21c7.79,0,14.19-2.69,19.27-7.45c1.88-1.76,4.81-1.71,6.61,0.12l0,0c1.8,1.83,1.78,4.76,0,6.61
		C-3132.68,2131.84-3139.12,2135.25-3146.56,2136.54z M-3175.66,2095.05l42.34,0c1.86,0,3.31-1.68,2.97-3.51
		c-2.14-11.51-11.11-19.59-23.5-19.59c-12.36,0-21.77,7.7-24.74,19.41C-3179.07,2093.23-3177.6,2095.05-3175.66,2095.05z"/>
	<path class="st2" d="M-3059.78,2069.26L-3059.78,2069.26c0,2.7-2.19,4.88-4.88,4.88h-13.45c-1.27,0-2.29,1.03-2.29,2.29v53
		c0,3.04-2.46,5.5-5.5,5.5l0,0c-3.04,0-5.5-2.46-5.5-5.5v-57.3c0-4.28,3.47-7.76,7.76-7.76h18.99
		C-3061.97,2064.38-3059.78,2066.57-3059.78,2069.26z"/>
	<path class="st2" d="M-2979.31,2079.76c-1.91,1.91-4.98,1.82-6.88-0.11c-4.64-4.72-11.05-7.71-18.86-7.71
		c-15.27,0-26.27,11.55-26.27,27.64c0,15.82,11,27.64,26.27,27.64c8.2,0,14.79-3.39,19.48-8.44c1.84-1.98,4.93-2.12,6.86-0.22l0,0
		c1.79,1.76,1.9,4.6,0.27,6.51c-6.17,7.25-15.57,12.06-26.61,12.06c-20.11,0-34.67-13.28-37.16-31.79
		c-3.2-23.73,16.34-44.88,40.21-43.05c9.09,0.7,16.94,4.51,22.8,10.68c1.79,1.88,1.78,4.89-0.06,6.73L-2979.31,2079.76z"/>
	<path class="st2" d="M-2949.9,2129.38v-59.5c0-3.04,2.46-5.5,5.5-5.5l0,0c3.04,0,5.5,2.46,5.5,5.5v53.02
		c0,1.25,1.01,2.26,2.26,2.26h30.68c1.25,0,2.26-1.01,2.26-2.26v-53.02c0-3.04,2.46-5.5,5.5-5.5l0,0c3.04,0,5.5,2.46,5.5,5.5v59.5
		c0,3.06-2.48,5.55-5.55,5.55h-46.11C-2947.41,2134.93-2949.9,2132.45-2949.9,2129.38z"/>
	<path class="st2" d="M-2821.03,2137.13c-12.38,0-23.38-5.36-27.92-14.58h-0.41c0.27,2.2,0.41,4.54,0.41,7.7l0,0
		c0,2.58-2.09,4.68-4.68,4.68h-0.96c-2.58,0-4.68-2.09-4.68-4.68v-92.97c0-3.04,2.46-5.5,5.5-5.5l0,0c3.04,0,5.5,2.46,5.5,5.5v31.22
		c0,3.71-0.14,5.78-0.41,7.7h0.41c4.54-8.25,15.68-14.03,27.09-14.03c22,0,36.58,15.82,36.58,37.41
		C-2784.59,2121.32-2799.03,2137.13-2821.03,2137.13z M-2795.86,2099.59c0-16.09-11.28-27.64-26.41-27.64
		c-15.4,0-26.41,11.55-26.41,27.64c0,15.82,11,27.64,26.41,27.64C-2807.14,2127.23-2795.86,2115.4-2795.86,2099.59z"/>
	<path class="st2" d="M-2718.99,2136.78c-22.99,3.07-43.57-15.56-42.74-38.74c0.74-20.67,16.3-35.86,37.11-35.86
		c20.63,0,34.79,16.09,34.79,37.41v0.04c0,2.64-2.14,4.77-4.78,4.77l-53.81,0c-0.95,0-1.67,0.87-1.48,1.81
		c2.53,12.62,12.28,21.02,25.55,21.02c7.79,0,14.19-2.69,19.27-7.45c1.88-1.76,4.81-1.71,6.61,0.12l0,0c1.8,1.83,1.78,4.76,0,6.61
		C-2703.93,2132.2-2710.9,2135.7-2718.99,2136.78z M-2748.13,2095.05h45.37c1.06,0,1.88-0.93,1.75-1.97
		c-1.6-12.32-10.81-21.13-23.74-21.13c-12.91,0-22.61,8.41-25.1,21.02C-2750.08,2094.04-2749.23,2095.05-2748.13,2095.05z"/>
</g>
<g>
	<path d="M-1450.17,2129.43v-92.15c0-3.04,2.46-5.5,5.5-5.5l0,0c3.04,0,5.5,2.46,5.5,5.5v24.16c0,1.62,1.31,2.93,2.93,2.93h37.37
		c3.72,0,6.73,3.01,6.73,6.73v58.32c0,3.04-2.46,5.5-5.5,5.5l0,0c-3.04,0-5.5-2.46-5.5-5.5v-52.98c0-1.35-1.1-2.45-2.45-2.45h-30.65
		c-1.62,0-2.93,1.31-2.93,2.93v52.49c0,3.04-2.46,5.5-5.5,5.5l0,0C-1447.71,2134.93-1450.17,2132.47-1450.17,2129.43z"/>
	<path d="M-1347.92,2156.8h32.85c1.26,0,2.29-1.02,2.29-2.29v-21.5c0-2.89,0.14-5.09,0.28-7.01h-0.41
		c-1.51,3.99-7.43,10.18-20.35,10.18c-15.54,0-26.54-11.83-26.54-28.19v-38.1c0-3.04,2.46-5.5,5.5-5.5l0,0c3.04,0,5.5,2.46,5.5,5.5
		v37.96c0,10.87,7.43,18.29,18.02,18.29c10.59,0,18.02-7.43,18.02-18.29v-37.96c0-3.04,2.46-5.5,5.5-5.5l0,0
		c3.04,0,5.5,2.46,5.5,5.5v89.25c0,4.1-3.33,7.43-7.43,7.43h-38.71c-2.7,0-4.88-2.19-4.88-4.88l0,0
		C-1352.8,2158.99-1350.62,2156.8-1347.92,2156.8z"/>
	<path d="M-1230.26,2137.13c-12.65,0-23.24-5.5-27.09-13.75h-0.41c0.27,1.79,0.41,3.85,0.41,7.43v30.94c0,2.66-2.16,4.81-4.81,4.81
		h-1.38c-2.66,0-4.81-2.16-4.81-4.81v-92.56c0-2.66,2.16-4.81,4.81-4.81h0.69c2.66,0,4.81,2.16,4.81,4.81l0,0
		c0,3.3-0.14,5.36-0.41,7.43h0.41c4.68-7.98,14.85-14.44,28.33-14.44c21.04,0,36.03,15.82,36.03,37.41
		C-1193.68,2121.32-1208.81,2137.13-1230.26,2137.13z M-1257.77,2099.59c0,15.95,11.14,27.64,26.54,27.64
		c14.99,0,26.27-11.69,26.27-27.64c0-15.95-11.28-27.64-26.27-27.64C-1246.63,2071.95-1257.77,2083.64-1257.77,2099.59z"/>
	<path d="M-1126.56,2136.54c-24.04,4.19-45.95-15.73-44.17-40.07c1.45-19.86,16.75-34.29,37.02-34.29
		c20.63,0,34.79,16.09,34.79,37.41v0.04c0,2.64-2.14,4.77-4.78,4.77l-53.06,0c-1.37,0-2.36,1.28-2.05,2.62
		c2.78,12.16,12.39,20.21,25.37,20.21c7.79,0,14.19-2.69,19.27-7.45c1.88-1.76,4.81-1.71,6.61,0.12h0c1.8,1.83,1.78,4.76,0,6.61
		C-1112.68,2131.84-1119.12,2135.25-1126.56,2136.54z M-1155.66,2095.05l42.34,0c1.86,0,3.31-1.68,2.97-3.51
		c-2.14-11.51-11.11-19.59-23.5-19.59c-12.36,0-21.77,7.7-24.74,19.41C-1159.07,2093.23-1157.6,2095.05-1155.66,2095.05z"/>
	<path d="M-1039.78,2069.26L-1039.78,2069.26c0,2.7-2.19,4.88-4.88,4.88h-13.46c-1.27,0-2.29,1.03-2.29,2.29v53
		c0,3.04-2.46,5.5-5.5,5.5l0,0c-3.04,0-5.5-2.46-5.5-5.5v-57.3c0-4.28,3.47-7.76,7.76-7.76h18.99
		C-1041.97,2064.38-1039.78,2066.57-1039.78,2069.26z"/>
	<path d="M-959.31,2079.76c-1.91,1.91-4.98,1.82-6.88-0.11c-4.64-4.72-11.05-7.71-18.86-7.71c-15.27,0-26.27,11.55-26.27,27.64
		c0,15.82,11,27.64,26.27,27.64c8.2,0,14.79-3.39,19.48-8.44c1.84-1.98,4.93-2.12,6.86-0.22l0,0c1.79,1.76,1.9,4.6,0.27,6.51
		c-6.17,7.25-15.57,12.06-26.61,12.06c-20.11,0-34.67-13.28-37.16-31.79c-3.2-23.73,16.34-44.88,40.21-43.05
		c9.09,0.7,16.94,4.51,22.8,10.68c1.79,1.88,1.78,4.89-0.06,6.73L-959.31,2079.76z"/>
	<path d="M-929.9,2129.38v-59.5c0-3.04,2.46-5.5,5.5-5.5l0,0c3.04,0,5.5,2.46,5.5,5.5v53.02c0,1.25,1.01,2.26,2.26,2.26h30.68
		c1.25,0,2.26-1.01,2.26-2.26v-53.02c0-3.04,2.46-5.5,5.5-5.5l0,0c3.04,0,5.5,2.46,5.5,5.5v59.5c0,3.06-2.48,5.55-5.55,5.55h-46.11
		C-927.41,2134.93-929.9,2132.45-929.9,2129.38z"/>
	<path d="M-801.03,2137.13c-12.38,0-23.38-5.36-27.92-14.58h-0.41c0.27,2.2,0.41,4.54,0.41,7.7l0,0c0,2.58-2.09,4.68-4.68,4.68
		h-0.96c-2.58,0-4.68-2.09-4.68-4.68v-92.97c0-3.04,2.46-5.5,5.5-5.5h0c3.04,0,5.5,2.46,5.5,5.5v31.22c0,3.71-0.14,5.78-0.41,7.7
		h0.41c4.54-8.25,15.68-14.03,27.09-14.03c22,0,36.58,15.82,36.58,37.41C-764.59,2121.32-779.03,2137.13-801.03,2137.13z
		 M-775.86,2099.59c0-16.09-11.28-27.64-26.41-27.64c-15.4,0-26.41,11.55-26.41,27.64c0,15.82,11,27.64,26.41,27.64
		C-787.14,2127.23-775.86,2115.4-775.86,2099.59z"/>
	<path d="M-698.99,2136.78c-22.99,3.07-43.57-15.56-42.74-38.74c0.74-20.67,16.3-35.86,37.11-35.86c20.63,0,34.79,16.09,34.79,37.41
		v0.04c0,2.64-2.14,4.77-4.78,4.77l-53.81,0c-0.95,0-1.67,0.87-1.48,1.81c2.53,12.62,12.28,21.02,25.55,21.02
		c7.79,0,14.19-2.69,19.27-7.45c1.88-1.76,4.81-1.71,6.61,0.12l0,0c1.8,1.83,1.78,4.76,0,6.61
		C-683.93,2132.2-690.9,2135.7-698.99,2136.78z M-728.13,2095.05h45.37c1.06,0,1.88-0.93,1.75-1.97
		c-1.6-12.32-10.81-21.13-23.74-21.13c-12.91,0-22.61,8.41-25.1,21.02C-730.08,2094.04-729.23,2095.05-728.13,2095.05z"/>
</g>
</svg>
