<?xml version="1.0" encoding="utf-8"?>
<!-- Generator: Adobe Adobe Illustrator 24.2.0, SVG Export Plug-In . SVG Version: 6.00 Build 0)  -->
<svg version="1.1" id="Layer_1" xmlns="http://www.w3.org/2000/svg" xmlns:xlink="http://www.w3.org/1999/xlink" x="0px" y="0px"
	 viewBox="0 0 1920 1080" style="enable-background:new 0 0 1920 1080;" xml:space="preserve">
<style type="text/css">
	.st0{fill:#3FBA7D;}
	.st1{fill:#1D5E3E;}
	.st2{fill:#C4FFE2;}
</style>
<rect x="4040" class="st0" width="1920" height="1080"/>
<g>
	<g>
		<path class="st1" d="M4645.39,516.76c0-0.72-0.17-1.4-0.45-2.01c-0.23-0.63-0.59-1.23-1.1-1.73l-59.98-59.98
			c-0.49-0.49-1.08-0.86-1.73-1.09c-0.61-0.29-1.29-0.45-2.02-0.45h-84.82c-0.72,0-1.41,0.17-2.02,0.46
			c-0.64,0.23-1.23,0.6-1.72,1.09l-59.98,59.98c-0.49,0.49-0.86,1.08-1.09,1.72c-0.29,0.61-0.46,1.3-0.46,2.02v84.82
			c0,0.72,0.17,1.4,0.45,2.02c0.23,0.64,0.6,1.23,1.09,1.73l59.98,59.98c0.49,0.49,1.08,0.86,1.73,1.09
			c0.61,0.29,1.29,0.45,2.02,0.45h84.82c0.72,0,1.4-0.17,2.01-0.45c0.63-0.23,1.22-0.59,1.73-1.1l59.98-59.98
			c0.49-0.49,0.86-1.08,1.09-1.72c0.29-0.61,0.46-1.3,0.46-2.02V516.76z M4444.23,532.37l24.85,24.85c1.08,1.08,1.08,2.84,0,3.92
			l-24.85,24.85c-1.75,1.75-4.73,0.51-4.73-1.96v-49.69C4439.5,531.86,4442.48,530.63,4444.23,532.37z M4546.37,586.76
			L4546.37,586.76c-1.08-1.08-1.08-2.84,0-3.92l0,0c0.52-0.52,1.22-0.81,1.96-0.81h0c1.53,0,2.77,1.24,2.77,2.77v0
			C4551.1,587.27,4548.11,588.51,4546.37,586.76z M4529.05,531.59L4529.05,531.59c1.08,1.08,1.08,2.84,0,3.92l0,0
			c-0.52,0.52-1.22,0.81-1.96,0.81h0c-1.53,0-2.77-1.24-2.77-2.77v0C4524.33,531.08,4527.31,529.84,4529.05,531.59z M4531.36,571.75
			l-6.22-6.22c-0.52-0.52-0.81-1.22-0.81-1.96v-8.79c0-0.73,0.29-1.44,0.81-1.96l6.22-6.22c0.52-0.52,1.22-0.81,1.96-0.81h8.79
			c0.73,0,1.44,0.29,1.96,0.81l6.22,6.22c0.52,0.52,0.81,1.22,0.81,1.96v8.79c0,0.73-0.29,1.44-0.81,1.96l-6.22,6.22
			c-0.52,0.52-1.22,0.81-1.96,0.81h-8.79C4532.58,572.56,4531.88,572.27,4531.36,571.75z M4514.04,550.52L4514.04,550.52
			c-1.08,1.08-2.84,1.08-3.92,0l0,0c-1.75-1.75-0.51-4.73,1.96-4.73h0c1.53,0,2.77,1.24,2.77,2.77v0
			C4514.85,549.3,4514.56,550,4514.04,550.52z M4514.85,569.79L4514.85,569.79c0,1.53-1.24,2.77-2.77,2.77h0
			c-2.47,0-3.7-2.98-1.96-4.73l0,0c1.08-1.08,2.84-1.08,3.92,0l0,0C4514.56,568.35,4514.85,569.06,4514.85,569.79z M4561.38,567.83
			L4561.38,567.83c1.08-1.08,2.84-1.08,3.92,0l0,0c1.75,1.75,0.51,4.73-1.96,4.73h0c-1.53,0-2.77-1.24-2.77-2.77v0
			C4560.57,569.06,4560.86,568.35,4561.38,567.83z M4560.57,548.56L4560.57,548.56c0-1.53,1.24-2.77,2.77-2.77h0
			c2.47,0,3.7,2.98,1.96,4.73l0,0c-1.08,1.08-2.84,1.08-3.92,0l0,0C4560.86,550,4560.57,549.3,4560.57,548.56z M4572.62,536.32
			h-9.28c-1.53,0-2.77-1.24-2.77-2.77v-9.28c0-1.53,1.24-2.77,2.77-2.77h9.28c1.53,0,2.77,1.24,2.77,2.77v9.28
			C4575.39,535.08,4574.15,536.32,4572.62,536.32z M4548.33,536.32L4548.33,536.32c-0.74,0-1.44-0.29-1.96-0.81l0,0
			c-1.08-1.08-1.08-2.84,0-3.92l0,0c1.75-1.75,4.73-0.51,4.73,1.96v0C4551.1,535.08,4549.86,536.32,4548.33,536.32z M4535.75,524.89
			l-6.56-6.56c-1.08-1.08-1.08-2.84,0-3.92l6.56-6.56c1.08-1.08,2.84-1.08,3.92,0l6.56,6.56c1.08,1.08,1.08,2.84,0,3.92l-6.56,6.56
			C4538.59,525.97,4536.83,525.97,4535.75,524.89z M4512.08,536.32h-9.28c-1.53,0-2.77-1.24-2.77-2.77v-9.28
			c0-1.53,1.24-2.77,2.77-2.77h9.28c1.53,0,2.77,1.24,2.77,2.77v9.28C4514.85,535.08,4513.61,536.32,4512.08,536.32z
			 M4489.75,540.46l-10.06,10.06c-1.08,1.08-2.84,1.08-3.92,0l-24.29-24.29c-1.75-1.75-0.51-4.73,1.96-4.73h34.36
			c1.53,0,2.77,1.24,2.77,2.77v14.23C4490.56,539.23,4490.27,539.94,4489.75,540.46z M4496.87,550.66l6.56,6.56
			c1.08,1.08,1.08,2.84,0,3.92l-6.56,6.56c-1.08,1.08-2.84,1.08-3.92,0l-6.56-6.56c-1.08-1.08-1.08-2.84,0-3.92l6.56-6.56
			C4494.03,549.57,4495.78,549.57,4496.87,550.66z M4490.56,579.85v14.23c0,1.53-1.24,2.77-2.77,2.77h-34.35
			c-2.47,0-3.7-2.98-1.96-4.73l24.29-24.29c1.08-1.08,2.84-1.08,3.92,0l10.06,10.06C4490.27,578.41,4490.56,579.12,4490.56,579.85z
			 M4502.81,582.03h9.28c1.53,0,2.77,1.24,2.77,2.77v9.28c0,1.53-1.24,2.77-2.77,2.77h-9.28c-1.53,0-2.77-1.24-2.77-2.77v-9.28
			C4500.04,583.27,4501.28,582.03,4502.81,582.03z M4527.1,582.03L4527.1,582.03c0.73,0,1.44,0.29,1.96,0.81l0,0
			c1.08,1.08,1.08,2.84,0,3.92l0,0c-1.75,1.75-4.73,0.51-4.73-1.96v0C4524.33,583.27,4525.57,582.03,4527.1,582.03z M4539.67,593.46
			l6.56,6.56c1.08,1.08,1.08,2.84,0,3.92l-6.56,6.56c-1.08,1.08-2.84,1.08-3.92,0l-6.56-6.56c-1.08-1.08-1.08-2.84,0-3.92l6.56-6.56
			C4536.83,592.38,4538.59,592.38,4539.67,593.46z M4563.34,582.03h9.28c1.53,0,2.77,1.24,2.77,2.77v9.28
			c0,1.53-1.24,2.77-2.77,2.77h-9.28c-1.53,0-2.77-1.24-2.77-2.77v-9.28C4560.57,583.27,4561.81,582.03,4563.34,582.03z
			 M4585.67,577.89l10.06-10.06c1.08-1.08,2.84-1.08,3.92,0l24.29,24.29c1.75,1.75,0.51,4.73-1.96,4.73h-34.35
			c-1.53,0-2.77-1.24-2.77-2.77v-14.23C4584.86,579.12,4585.15,578.41,4585.67,577.89z M4578.56,567.7l-6.56-6.56
			c-1.08-1.08-1.08-2.84,0-3.92l6.56-6.56c1.08-1.08,2.84-1.08,3.92,0l6.56,6.56c1.08,1.08,1.08,2.84,0,3.92l-6.56,6.56
			C4581.39,568.78,4579.64,568.78,4578.56,567.7z M4584.86,538.5v-14.23c0-1.53,1.24-2.77,2.77-2.77h34.35
			c2.47,0,3.7,2.98,1.96,4.73l-24.29,24.29c-1.08,1.08-2.84,1.08-3.92,0l-10.06-10.06C4585.15,539.94,4584.86,539.23,4584.86,538.5z
			 M4584.86,509.26v-35.14c0-2.47,2.98-3.7,4.73-1.96l35.14,35.14c1.75,1.75,0.51,4.73-1.96,4.73h-35.14
			C4586.1,512.03,4584.86,510.79,4584.86,509.26z M4572.62,512.03h-14.23c-0.73,0-1.44-0.29-1.96-0.81l-10.06-10.06
			c-1.08-1.08-1.08-2.84,0-3.92l24.29-24.29c1.75-1.75,4.73-0.51,4.73,1.96v34.35C4575.39,510.79,4574.15,512.03,4572.62,512.03z
			 M4535.75,490.54l-24.85-24.85c-1.75-1.75-0.51-4.73,1.96-4.73h49.69c2.47,0,3.7,2.98,1.96,4.73l-24.85,24.85
			C4538.59,491.62,4536.83,491.62,4535.75,490.54z M4529.06,501.15l-10.06,10.06c-0.52,0.52-1.22,0.81-1.96,0.81h-14.23
			c-1.53,0-2.77-1.24-2.77-2.77V474.9c0-2.47,2.98-3.7,4.73-1.96l24.29,24.29C4530.14,498.32,4530.14,500.07,4529.06,501.15z
			 M4487.79,512.03h-35.14c-2.47,0-3.7-2.98-1.96-4.73l35.14-35.14c1.75-1.75,4.73-0.51,4.73,1.96v35.14
			C4490.56,510.79,4489.32,512.03,4487.79,512.03z M4490.56,609.09v35.14c0,2.47-2.98,3.7-4.73,1.96l-35.14-35.14
			c-1.75-1.75-0.51-4.73,1.96-4.73h35.14C4489.32,606.32,4490.56,607.56,4490.56,609.09z M4502.81,606.32h14.23
			c0.73,0,1.44,0.29,1.96,0.81l10.06,10.06c1.08,1.08,1.08,2.84,0,3.92l-24.29,24.29c-1.75,1.75-4.73,0.51-4.73-1.96v-34.35
			C4500.04,607.56,4501.28,606.32,4502.81,606.32z M4539.67,627.81l24.85,24.85c1.75,1.75,0.51,4.73-1.96,4.73h-49.69
			c-2.47,0-3.7-2.98-1.96-4.73l24.85-24.85C4536.83,626.73,4538.59,626.73,4539.67,627.81z M4546.37,617.2l10.06-10.06
			c0.52-0.52,1.22-0.81,1.96-0.81h14.23c1.53,0,2.77,1.24,2.77,2.77v34.36c0,2.47-2.98,3.7-4.73,1.96l-24.29-24.29
			C4545.29,620.03,4545.29,618.28,4546.37,617.2z M4587.63,606.32h35.14c2.47,0,3.7,2.98,1.96,4.73l-35.14,35.14
			c-1.75,1.75-4.73,0.51-4.73-1.96v-35.14C4584.86,607.56,4586.1,606.32,4587.63,606.32z M4606.35,557.22l24.85-24.85
			c1.75-1.75,4.73-0.51,4.73,1.96v49.69c0,2.47-2.98,3.7-4.73,1.96l-24.85-24.85C4605.27,560.05,4605.27,558.3,4606.35,557.22z"/>
	</g>
	<g>
		<path class="st2" d="M4690.51,593.28V489.43c0-3.42,2.78-6.2,6.2-6.2l0,0c3.42,0,6.2,2.78,6.2,6.2v27.23
			c0,1.83,1.48,3.31,3.31,3.31h42.12c4.19,0,7.58,3.4,7.58,7.58v65.73c0,3.42-2.78,6.2-6.2,6.2l0,0c-3.42,0-6.2-2.78-6.2-6.2v-59.71
			c0-1.52-1.24-2.76-2.76-2.76h-34.54c-1.83,0-3.31,1.48-3.31,3.31v59.16c0,3.42-2.78,6.2-6.2,6.2l0,0
			C4693.29,599.48,4690.51,596.7,4690.51,593.28z"/>
		<path class="st2" d="M4805.75,624.12h37.02c1.42,0,2.58-1.15,2.58-2.58v-24.24c0-3.25,0.15-5.74,0.31-7.91h-0.47
			c-1.71,4.5-8.37,11.47-22.94,11.47c-17.51,0-29.92-13.33-29.92-31.77v-42.93c0-3.42,2.78-6.2,6.2-6.2l0,0c3.42,0,6.2,2.78,6.2,6.2
			v42.78c0,12.25,8.37,20.62,20.3,20.62c11.93,0,20.3-8.37,20.3-20.62v-42.78c0-3.42,2.78-6.2,6.2-6.2l0,0c3.42,0,6.2,2.78,6.2,6.2
			v100.59c0,4.63-3.75,8.38-8.38,8.38h-43.63c-3.04,0-5.5-2.46-5.5-5.5l0,0C4800.25,626.58,4802.71,624.12,4805.75,624.12z"/>
		<path class="st2" d="M4938.35,601.96c-14.26,0-26.19-6.2-30.53-15.5h-0.47c0.31,2.02,0.47,4.34,0.47,8.37v34.88
			c0,3-2.43,5.42-5.42,5.42h-1.55c-3,0-5.42-2.43-5.42-5.42V525.39c0-3,2.43-5.42,5.42-5.42h0.78c3,0,5.42,2.43,5.42,5.42l0,0
			c0,3.72-0.16,6.04-0.46,8.37h0.46c5.27-8.99,16.74-16.27,31.93-16.27c23.71,0,40.61,17.82,40.61,42.16
			C4979.58,584.13,4962.53,601.96,4938.35,601.96z M4907.35,559.64c0,17.98,12.56,31.15,29.92,31.15c16.89,0,29.6-13.17,29.6-31.15
			s-12.71-31.15-29.6-31.15C4919.91,528.49,4907.35,541.66,4907.35,559.64z"/>
		<path class="st2" d="M5055.22,601.29c-27.1,4.72-51.79-17.73-49.78-45.16c1.64-22.39,18.88-38.65,41.72-38.65
			c23.25,0,39.21,18.13,39.21,42.16v0.05c0,2.97-2.41,5.38-5.38,5.38l-59.8,0c-1.55,0-2.66,1.44-2.32,2.95
			c3.13,13.71,13.97,22.78,28.6,22.78c8.78,0,15.99-3.03,21.72-8.4c2.12-1.98,5.42-1.93,7.44,0.14h0c2.02,2.07,2.01,5.36,0,7.45
			C5070.87,595.98,5063.61,599.83,5055.22,601.29z M5022.43,554.53h47.71c2.1,0,3.73-1.89,3.35-3.96
			c-2.41-12.97-12.52-22.08-26.49-22.08c-13.93,0-24.53,8.68-27.88,21.87C5018.59,552.48,5020.24,554.53,5022.43,554.53z"/>
		<path class="st2" d="M5153.03,525.46L5153.03,525.46c0,3.04-2.46,5.5-5.5,5.5h-15.16c-1.43,0-2.58,1.16-2.58,2.58v59.73
			c0,3.42-2.78,6.2-6.2,6.2l0,0c-3.42,0-6.2-2.78-6.2-6.2V528.7c0-4.83,3.91-8.74,8.74-8.74h21.41
			C5150.56,519.96,5153.03,522.42,5153.03,525.46z"/>
		<path class="st2" d="M5243.73,537.3c-2.16,2.16-5.62,2.05-7.76-0.12c-5.23-5.32-12.45-8.69-21.25-8.69
			c-17.21,0-29.61,13.02-29.61,31.15c0,17.83,12.4,31.15,29.61,31.15c9.24,0,16.67-3.82,21.96-9.52c2.08-2.23,5.55-2.39,7.73-0.25
			l0,0c2.02,1.98,2.14,5.18,0.3,7.33c-6.95,8.17-17.55,13.59-29.99,13.59c-22.67,0-39.07-14.96-41.88-35.83
			c-3.61-26.74,18.42-50.58,45.32-48.52c10.24,0.79,19.1,5.08,25.7,12.04c2.01,2.12,2,5.51-0.07,7.58L5243.73,537.3z"/>
		<path class="st2" d="M5276.87,593.22v-67.06c0-3.42,2.78-6.2,6.2-6.2l0,0c3.42,0,6.2,2.78,6.2,6.2v59.76
			c0,1.41,1.14,2.55,2.55,2.55h34.58c1.41,0,2.55-1.14,2.55-2.55v-59.76c0-3.42,2.78-6.2,6.2-6.2l0,0c3.42,0,6.2,2.78,6.2,6.2v67.06
			c0,3.45-2.8,6.25-6.25,6.25h-51.97C5279.67,599.48,5276.87,596.68,5276.87,593.22z"/>
		<path class="st2" d="M5422.1,601.96c-13.95,0-26.35-6.04-31.46-16.43h-0.46c0.31,2.48,0.46,5.12,0.46,8.68l0,0
			c0,2.91-2.36,5.27-5.27,5.27h-1.08c-2.91,0-5.27-2.36-5.27-5.27V489.43c0-3.42,2.78-6.2,6.2-6.2l0,0c3.42,0,6.2,2.78,6.2,6.2
			v35.18c0,4.18-0.16,6.51-0.47,8.68h0.47c5.11-9.3,17.67-15.81,30.53-15.81c24.8,0,41.23,17.82,41.23,42.16
			C5463.18,584.13,5446.9,601.96,5422.1,601.96z M5450.47,559.64c0-18.13-12.71-31.15-29.76-31.15c-17.36,0-29.76,13.02-29.76,31.15
			c0,17.83,12.4,31.15,29.76,31.15C5437.76,590.8,5450.47,577.47,5450.47,559.64z"/>
		<path class="st2" d="M5537.11,601.55c-25.91,3.45-49.11-17.54-48.17-43.66c0.84-23.29,18.38-40.41,41.82-40.41
			c23.25,0,39.21,18.13,39.21,42.16v0.05c0,2.97-2.41,5.38-5.38,5.38l-60.65,0c-1.07,0-1.88,0.98-1.67,2.04
			c2.85,14.22,13.84,23.69,28.79,23.69c8.78,0,15.99-3.03,21.72-8.4c2.12-1.98,5.42-1.93,7.44,0.14h0c2.02,2.07,2.01,5.36,0,7.45
			C5554.08,596.39,5546.22,600.34,5537.11,601.55z M5504.26,554.53h51.13c1.19,0,2.12-1.05,1.97-2.23
			c-1.8-13.88-12.18-23.81-26.76-23.81c-14.55,0-25.48,9.48-28.29,23.69C5502.07,553.39,5503.02,554.53,5504.26,554.53z"/>
	</g>
</g>
<g>
	<g>
		<path class="st1" d="M4645.39,516.76c0-0.72-0.17-1.4-0.45-2.01c-0.23-0.63-0.59-1.23-1.1-1.73l-59.98-59.98
			c-0.49-0.49-1.08-0.86-1.73-1.09c-0.61-0.29-1.29-0.45-2.02-0.45h-84.82c-0.72,0-1.41,0.17-2.02,0.46
			c-0.64,0.23-1.23,0.6-1.72,1.09l-59.98,59.98c-0.49,0.49-0.86,1.08-1.09,1.72c-0.29,0.61-0.46,1.3-0.46,2.02v84.82
			c0,0.72,0.17,1.4,0.45,2.02c0.23,0.64,0.6,1.23,1.09,1.73l59.98,59.98c0.49,0.49,1.08,0.86,1.73,1.09
			c0.61,0.29,1.29,0.45,2.02,0.45h84.82c0.72,0,1.4-0.17,2.01-0.45c0.63-0.23,1.22-0.59,1.73-1.1l59.98-59.98
			c0.49-0.49,0.86-1.08,1.09-1.72c0.29-0.61,0.46-1.3,0.46-2.02V516.76z M4444.23,532.37l24.85,24.85c1.08,1.08,1.08,2.84,0,3.92
			l-24.85,24.85c-1.75,1.75-4.73,0.51-4.73-1.96v-49.69C4439.5,531.86,4442.48,530.63,4444.23,532.37z M4546.37,586.76
			L4546.37,586.76c-1.08-1.08-1.08-2.84,0-3.92l0,0c0.52-0.52,1.22-0.81,1.96-0.81h0c1.53,0,2.77,1.24,2.77,2.77v0
			C4551.1,587.27,4548.11,588.51,4546.37,586.76z M4529.05,531.59L4529.05,531.59c1.08,1.08,1.08,2.84,0,3.92l0,0
			c-0.52,0.52-1.22,0.81-1.96,0.81h0c-1.53,0-2.77-1.24-2.77-2.77v0C4524.33,531.08,4527.31,529.84,4529.05,531.59z M4531.36,571.75
			l-6.22-6.22c-0.52-0.52-0.81-1.22-0.81-1.96v-8.79c0-0.73,0.29-1.44,0.81-1.96l6.22-6.22c0.52-0.52,1.22-0.81,1.96-0.81h8.79
			c0.73,0,1.44,0.29,1.96,0.81l6.22,6.22c0.52,0.52,0.81,1.22,0.81,1.96v8.79c0,0.73-0.29,1.44-0.81,1.96l-6.22,6.22
			c-0.52,0.52-1.22,0.81-1.96,0.81h-8.79C4532.58,572.56,4531.88,572.27,4531.36,571.75z M4514.04,550.52L4514.04,550.52
			c-1.08,1.08-2.84,1.08-3.92,0l0,0c-1.75-1.75-0.51-4.73,1.96-4.73h0c1.53,0,2.77,1.24,2.77,2.77v0
			C4514.85,549.3,4514.56,550,4514.04,550.52z M4514.85,569.79L4514.85,569.79c0,1.53-1.24,2.77-2.77,2.77h0
			c-2.47,0-3.7-2.98-1.96-4.73l0,0c1.08-1.08,2.84-1.08,3.92,0l0,0C4514.56,568.35,4514.85,569.06,4514.85,569.79z M4561.38,567.83
			L4561.38,567.83c1.08-1.08,2.84-1.08,3.92,0l0,0c1.75,1.75,0.51,4.73-1.96,4.73h0c-1.53,0-2.77-1.24-2.77-2.77v0
			C4560.57,569.06,4560.86,568.35,4561.38,567.83z M4560.57,548.56L4560.57,548.56c0-1.53,1.24-2.77,2.77-2.77h0
			c2.47,0,3.7,2.98,1.96,4.73l0,0c-1.08,1.08-2.84,1.08-3.92,0l0,0C4560.86,550,4560.57,549.3,4560.57,548.56z M4572.62,536.32
			h-9.28c-1.53,0-2.77-1.24-2.77-2.77v-9.28c0-1.53,1.24-2.77,2.77-2.77h9.28c1.53,0,2.77,1.24,2.77,2.77v9.28
			C4575.39,535.08,4574.15,536.32,4572.62,536.32z M4548.33,536.32L4548.33,536.32c-0.74,0-1.44-0.29-1.96-0.81l0,0
			c-1.08-1.08-1.08-2.84,0-3.92l0,0c1.75-1.75,4.73-0.51,4.73,1.96v0C4551.1,535.08,4549.86,536.32,4548.33,536.32z M4535.75,524.89
			l-6.56-6.56c-1.08-1.08-1.08-2.84,0-3.92l6.56-6.56c1.08-1.08,2.84-1.08,3.92,0l6.56,6.56c1.08,1.08,1.08,2.84,0,3.92l-6.56,6.56
			C4538.59,525.97,4536.83,525.97,4535.75,524.89z M4512.08,536.32h-9.28c-1.53,0-2.77-1.24-2.77-2.77v-9.28
			c0-1.53,1.24-2.77,2.77-2.77h9.28c1.53,0,2.77,1.24,2.77,2.77v9.28C4514.85,535.08,4513.61,536.32,4512.08,536.32z
			 M4489.75,540.46l-10.06,10.06c-1.08,1.08-2.84,1.08-3.92,0l-24.29-24.29c-1.75-1.75-0.51-4.73,1.96-4.73h34.36
			c1.53,0,2.77,1.24,2.77,2.77v14.23C4490.56,539.23,4490.27,539.94,4489.75,540.46z M4496.87,550.66l6.56,6.56
			c1.08,1.08,1.08,2.84,0,3.92l-6.56,6.56c-1.08,1.08-2.84,1.08-3.92,0l-6.56-6.56c-1.08-1.08-1.08-2.84,0-3.92l6.56-6.56
			C4494.03,549.57,4495.78,549.57,4496.87,550.66z M4490.56,579.85v14.23c0,1.53-1.24,2.77-2.77,2.77h-34.35
			c-2.47,0-3.7-2.98-1.96-4.73l24.29-24.29c1.08-1.08,2.84-1.08,3.92,0l10.06,10.06C4490.27,578.41,4490.56,579.12,4490.56,579.85z
			 M4502.81,582.03h9.28c1.53,0,2.77,1.24,2.77,2.77v9.28c0,1.53-1.24,2.77-2.77,2.77h-9.28c-1.53,0-2.77-1.24-2.77-2.77v-9.28
			C4500.04,583.27,4501.28,582.03,4502.81,582.03z M4527.1,582.03L4527.1,582.03c0.73,0,1.44,0.29,1.96,0.81l0,0
			c1.08,1.08,1.08,2.84,0,3.92l0,0c-1.75,1.75-4.73,0.51-4.73-1.96v0C4524.33,583.27,4525.57,582.03,4527.1,582.03z M4539.67,593.46
			l6.56,6.56c1.08,1.08,1.08,2.84,0,3.92l-6.56,6.56c-1.08,1.08-2.84,1.08-3.92,0l-6.56-6.56c-1.08-1.08-1.08-2.84,0-3.92l6.56-6.56
			C4536.83,592.38,4538.59,592.38,4539.67,593.46z M4563.34,582.03h9.28c1.53,0,2.77,1.24,2.77,2.77v9.28
			c0,1.53-1.24,2.77-2.77,2.77h-9.28c-1.53,0-2.77-1.24-2.77-2.77v-9.28C4560.57,583.27,4561.81,582.03,4563.34,582.03z
			 M4585.67,577.89l10.06-10.06c1.08-1.08,2.84-1.08,3.92,0l24.29,24.29c1.75,1.75,0.51,4.73-1.96,4.73h-34.35
			c-1.53,0-2.77-1.24-2.77-2.77v-14.23C4584.86,579.12,4585.15,578.41,4585.67,577.89z M4578.56,567.7l-6.56-6.56
			c-1.08-1.08-1.08-2.84,0-3.92l6.56-6.56c1.08-1.08,2.84-1.08,3.92,0l6.56,6.56c1.08,1.08,1.08,2.84,0,3.92l-6.56,6.56
			C4581.39,568.78,4579.64,568.78,4578.56,567.7z M4584.86,538.5v-14.23c0-1.53,1.24-2.77,2.77-2.77h34.35
			c2.47,0,3.7,2.98,1.96,4.73l-24.29,24.29c-1.08,1.08-2.84,1.08-3.92,0l-10.06-10.06C4585.15,539.94,4584.86,539.23,4584.86,538.5z
			 M4584.86,509.26v-35.14c0-2.47,2.98-3.7,4.73-1.96l35.14,35.14c1.75,1.75,0.51,4.73-1.96,4.73h-35.14
			C4586.1,512.03,4584.86,510.79,4584.86,509.26z M4572.62,512.03h-14.23c-0.73,0-1.44-0.29-1.96-0.81l-10.06-10.06
			c-1.08-1.08-1.08-2.84,0-3.92l24.29-24.29c1.75-1.75,4.73-0.51,4.73,1.96v34.35C4575.39,510.79,4574.15,512.03,4572.62,512.03z
			 M4535.75,490.54l-24.85-24.85c-1.75-1.75-0.51-4.73,1.96-4.73h49.69c2.47,0,3.7,2.98,1.96,4.73l-24.85,24.85
			C4538.59,491.62,4536.83,491.62,4535.75,490.54z M4529.06,501.15l-10.06,10.06c-0.52,0.52-1.22,0.81-1.96,0.81h-14.23
			c-1.53,0-2.77-1.24-2.77-2.77V474.9c0-2.47,2.98-3.7,4.73-1.96l24.29,24.29C4530.14,498.32,4530.14,500.07,4529.06,501.15z
			 M4487.79,512.03h-35.14c-2.47,0-3.7-2.98-1.96-4.73l35.14-35.14c1.75-1.75,4.73-0.51,4.73,1.96v35.14
			C4490.56,510.79,4489.32,512.03,4487.79,512.03z M4490.56,609.09v35.14c0,2.47-2.98,3.7-4.73,1.96l-35.14-35.14
			c-1.75-1.75-0.51-4.73,1.96-4.73h35.14C4489.32,606.32,4490.56,607.56,4490.56,609.09z M4502.81,606.32h14.23
			c0.73,0,1.44,0.29,1.96,0.81l10.06,10.06c1.08,1.08,1.08,2.84,0,3.92l-24.29,24.29c-1.75,1.75-4.73,0.51-4.73-1.96v-34.35
			C4500.04,607.56,4501.28,606.32,4502.81,606.32z M4539.67,627.81l24.85,24.85c1.75,1.75,0.51,4.73-1.96,4.73h-49.69
			c-2.47,0-3.7-2.98-1.96-4.73l24.85-24.85C4536.83,626.73,4538.59,626.73,4539.67,627.81z M4546.37,617.2l10.06-10.06
			c0.52-0.52,1.22-0.81,1.96-0.81h14.23c1.53,0,2.77,1.24,2.77,2.77v34.36c0,2.47-2.98,3.7-4.73,1.96l-24.29-24.29
			C4545.29,620.03,4545.29,618.28,4546.37,617.2z M4587.63,606.32h35.14c2.47,0,3.7,2.98,1.96,4.73l-35.14,35.14
			c-1.75,1.75-4.73,0.51-4.73-1.96v-35.14C4584.86,607.56,4586.1,606.32,4587.63,606.32z M4606.35,557.22l24.85-24.85
			c1.75-1.75,4.73-0.51,4.73,1.96v49.69c0,2.47-2.98,3.7-4.73,1.96l-24.85-24.85C4605.27,560.05,4605.27,558.3,4606.35,557.22z"/>
	</g>
	<g>
		<path class="st2" d="M4690.51,593.28V489.43c0-3.42,2.78-6.2,6.2-6.2l0,0c3.42,0,6.2,2.78,6.2,6.2v27.23
			c0,1.83,1.48,3.31,3.31,3.31h42.12c4.19,0,7.58,3.4,7.58,7.58v65.73c0,3.42-2.78,6.2-6.2,6.2l0,0c-3.42,0-6.2-2.78-6.2-6.2v-59.71
			c0-1.52-1.24-2.76-2.76-2.76h-34.54c-1.83,0-3.31,1.48-3.31,3.31v59.16c0,3.42-2.78,6.2-6.2,6.2l0,0
			C4693.29,599.48,4690.51,596.7,4690.51,593.28z"/>
		<path class="st2" d="M4805.75,624.12h37.02c1.42,0,2.58-1.15,2.58-2.58v-24.24c0-3.25,0.15-5.74,0.31-7.91h-0.47
			c-1.71,4.5-8.37,11.47-22.94,11.47c-17.51,0-29.92-13.33-29.92-31.77v-42.93c0-3.42,2.78-6.2,6.2-6.2l0,0c3.42,0,6.2,2.78,6.2,6.2
			v42.78c0,12.25,8.37,20.62,20.3,20.62c11.93,0,20.3-8.37,20.3-20.62v-42.78c0-3.42,2.78-6.2,6.2-6.2l0,0c3.42,0,6.2,2.78,6.2,6.2
			v100.59c0,4.63-3.75,8.38-8.38,8.38h-43.63c-3.04,0-5.5-2.46-5.5-5.5l0,0C4800.25,626.58,4802.71,624.12,4805.75,624.12z"/>
		<path class="st2" d="M4938.35,601.96c-14.26,0-26.19-6.2-30.53-15.5h-0.47c0.31,2.02,0.47,4.34,0.47,8.37v34.88
			c0,3-2.43,5.42-5.42,5.42h-1.55c-3,0-5.42-2.43-5.42-5.42V525.39c0-3,2.43-5.42,5.42-5.42h0.78c3,0,5.42,2.43,5.42,5.42l0,0
			c0,3.72-0.16,6.04-0.46,8.37h0.46c5.27-8.99,16.74-16.27,31.93-16.27c23.71,0,40.61,17.82,40.61,42.16
			C4979.58,584.13,4962.53,601.96,4938.35,601.96z M4907.35,559.64c0,17.98,12.56,31.15,29.92,31.15c16.89,0,29.6-13.17,29.6-31.15
			s-12.71-31.15-29.6-31.15C4919.91,528.49,4907.35,541.66,4907.35,559.64z"/>
		<path class="st2" d="M5055.22,601.29c-27.1,4.72-51.79-17.73-49.78-45.16c1.64-22.39,18.88-38.65,41.72-38.65
			c23.25,0,39.21,18.13,39.21,42.16v0.05c0,2.97-2.41,5.38-5.38,5.38l-59.8,0c-1.55,0-2.66,1.44-2.32,2.95
			c3.13,13.71,13.97,22.78,28.6,22.78c8.78,0,15.99-3.03,21.72-8.4c2.12-1.98,5.42-1.93,7.44,0.14h0c2.02,2.07,2.01,5.36,0,7.45
			C5070.87,595.98,5063.61,599.83,5055.22,601.29z M5022.43,554.53h47.71c2.1,0,3.73-1.89,3.35-3.96
			c-2.41-12.97-12.52-22.08-26.49-22.08c-13.93,0-24.53,8.68-27.88,21.87C5018.59,552.48,5020.24,554.53,5022.43,554.53z"/>
		<path class="st2" d="M5153.03,525.46L5153.03,525.46c0,3.04-2.46,5.5-5.5,5.5h-15.16c-1.43,0-2.58,1.16-2.58,2.58v59.73
			c0,3.42-2.78,6.2-6.2,6.2l0,0c-3.42,0-6.2-2.78-6.2-6.2V528.7c0-4.83,3.91-8.74,8.74-8.74h21.41
			C5150.56,519.96,5153.03,522.42,5153.03,525.46z"/>
		<path class="st2" d="M5243.73,537.3c-2.16,2.16-5.62,2.05-7.76-0.12c-5.23-5.32-12.45-8.69-21.25-8.69
			c-17.21,0-29.61,13.02-29.61,31.15c0,17.83,12.4,31.15,29.61,31.15c9.24,0,16.67-3.82,21.96-9.52c2.08-2.23,5.55-2.39,7.73-0.25
			l0,0c2.02,1.98,2.14,5.18,0.3,7.33c-6.95,8.17-17.55,13.59-29.99,13.59c-22.67,0-39.07-14.96-41.88-35.83
			c-3.61-26.74,18.42-50.58,45.32-48.52c10.24,0.79,19.1,5.08,25.7,12.04c2.01,2.12,2,5.51-0.07,7.58L5243.73,537.3z"/>
		<path class="st2" d="M5276.87,593.22v-67.06c0-3.42,2.78-6.2,6.2-6.2l0,0c3.42,0,6.2,2.78,6.2,6.2v59.76
			c0,1.41,1.14,2.55,2.55,2.55h34.58c1.41,0,2.55-1.14,2.55-2.55v-59.76c0-3.42,2.78-6.2,6.2-6.2l0,0c3.42,0,6.2,2.78,6.2,6.2v67.06
			c0,3.45-2.8,6.25-6.25,6.25h-51.97C5279.67,599.48,5276.87,596.68,5276.87,593.22z"/>
		<path class="st2" d="M5422.1,601.96c-13.95,0-26.35-6.04-31.46-16.43h-0.46c0.31,2.48,0.46,5.12,0.46,8.68l0,0
			c0,2.91-2.36,5.27-5.27,5.27h-1.08c-2.91,0-5.27-2.36-5.27-5.27V489.43c0-3.42,2.78-6.2,6.2-6.2l0,0c3.42,0,6.2,2.78,6.2,6.2
			v35.18c0,4.18-0.16,6.51-0.47,8.68h0.47c5.11-9.3,17.67-15.81,30.53-15.81c24.8,0,41.23,17.82,41.23,42.16
			C5463.18,584.13,5446.9,601.96,5422.1,601.96z M5450.47,559.64c0-18.13-12.71-31.15-29.76-31.15c-17.36,0-29.76,13.02-29.76,31.15
			c0,17.83,12.4,31.15,29.76,31.15C5437.76,590.8,5450.47,577.47,5450.47,559.64z"/>
		<path class="st2" d="M5537.11,601.55c-25.91,3.45-49.11-17.54-48.17-43.66c0.84-23.29,18.38-40.41,41.82-40.41
			c23.25,0,39.21,18.13,39.21,42.16v0.05c0,2.97-2.41,5.38-5.38,5.38l-60.65,0c-1.07,0-1.88,0.98-1.67,2.04
			c2.85,14.22,13.84,23.69,28.79,23.69c8.78,0,15.99-3.03,21.72-8.4c2.12-1.98,5.42-1.93,7.44,0.14h0c2.02,2.07,2.01,5.36,0,7.45
			C5554.08,596.39,5546.22,600.34,5537.11,601.55z M5504.26,554.53h51.13c1.19,0,2.12-1.05,1.97-2.23
			c-1.8-13.88-12.18-23.81-26.76-23.81c-14.55,0-25.48,9.48-28.29,23.69C5502.07,553.39,5503.02,554.53,5504.26,554.53z"/>
	</g>
</g>
<g>
	<g>
		<path class="st1" d="M605.39-1042.41c0-0.72-0.16-1.4-0.45-2.01c-0.23-0.63-0.59-1.23-1.1-1.73l-59.98-59.98
			c-0.49-0.49-1.08-0.86-1.73-1.09c-0.61-0.29-1.29-0.45-2.02-0.45H455.3c-0.72,0-1.41,0.17-2.02,0.46
			c-0.64,0.23-1.23,0.6-1.72,1.09l-59.98,59.98c-0.49,0.49-0.86,1.08-1.09,1.72c-0.29,0.61-0.46,1.3-0.46,2.02v84.82
			c0,0.72,0.17,1.4,0.45,2.02c0.23,0.64,0.6,1.23,1.09,1.73l59.98,59.98c0.49,0.49,1.08,0.86,1.73,1.09
			c0.61,0.29,1.29,0.45,2.02,0.45h84.82c0.72,0,1.4-0.17,2.01-0.45c0.63-0.23,1.22-0.59,1.73-1.1l59.98-59.98
			c0.49-0.49,0.86-1.08,1.09-1.72c0.29-0.61,0.46-1.3,0.46-2.02V-1042.41z M404.23-1026.8l24.85,24.85c1.08,1.08,1.08,2.84,0,3.92
			l-24.85,24.85c-1.75,1.75-4.73,0.51-4.73-1.96v-49.69C399.5-1027.31,402.48-1028.55,404.23-1026.8z M506.37-972.41L506.37-972.41
			c-1.08-1.08-1.08-2.84,0-3.92l0,0c0.52-0.52,1.22-0.81,1.96-0.81h0c1.53,0,2.77,1.24,2.77,2.77v0
			C511.1-971.9,508.11-970.67,506.37-972.41z M489.05-1027.59L489.05-1027.59c1.08,1.08,1.08,2.84,0,3.92l0,0
			c-0.52,0.52-1.22,0.81-1.96,0.81h0c-1.53,0-2.77-1.24-2.77-2.77v0C484.33-1028.1,487.31-1029.33,489.05-1027.59z M491.36-987.43
			l-6.22-6.22c-0.52-0.52-0.81-1.22-0.81-1.96v-8.79c0-0.73,0.29-1.44,0.81-1.96l6.22-6.22c0.52-0.52,1.22-0.81,1.96-0.81h8.79
			c0.73,0,1.44,0.29,1.96,0.81l6.22,6.22c0.52,0.52,0.81,1.22,0.81,1.96v8.79c0,0.73-0.29,1.44-0.81,1.96l-6.22,6.22
			c-0.52,0.52-1.22,0.81-1.96,0.81h-8.79C492.58-986.61,491.87-986.91,491.36-987.43z M474.04-1008.66L474.04-1008.66
			c-1.08,1.08-2.84,1.08-3.92,0l0,0c-1.75-1.75-0.51-4.73,1.96-4.73h0c1.53,0,2.77,1.24,2.77,2.77v0
			C474.85-1009.88,474.56-1009.18,474.04-1008.66z M474.85-989.38L474.85-989.38c0,1.53-1.24,2.77-2.77,2.77h0
			c-2.47,0-3.7-2.98-1.96-4.73l0,0c1.08-1.08,2.84-1.08,3.92,0l0,0C474.56-990.82,474.85-990.12,474.85-989.38z M521.38-991.34
			L521.38-991.34c1.08-1.08,2.84-1.08,3.92,0l0,0c1.75,1.75,0.51,4.73-1.96,4.73h0c-1.53,0-2.77-1.24-2.77-2.77v0
			C520.57-990.12,520.86-990.82,521.38-991.34z M520.57-1010.62L520.57-1010.62c0-1.53,1.24-2.77,2.77-2.77h0
			c2.47,0,3.7,2.98,1.96,4.73l0,0c-1.08,1.08-2.84,1.08-3.92,0l0,0C520.86-1009.18,520.57-1009.88,520.57-1010.62z M532.62-1022.86
			h-9.28c-1.53,0-2.77-1.24-2.77-2.77v-9.28c0-1.53,1.24-2.77,2.77-2.77h9.28c1.53,0,2.77,1.24,2.77,2.77v9.28
			C535.39-1024.1,534.15-1022.86,532.62-1022.86z M508.33-1022.86L508.33-1022.86c-0.74,0-1.44-0.29-1.96-0.81l0,0
			c-1.08-1.08-1.08-2.84,0-3.92l0,0c1.75-1.75,4.73-0.51,4.73,1.96v0C511.1-1024.1,509.86-1022.86,508.33-1022.86z M495.75-1034.28
			l-6.56-6.56c-1.08-1.08-1.08-2.84,0-3.92l6.56-6.56c1.08-1.08,2.84-1.08,3.92,0l6.56,6.56c1.08,1.08,1.08,2.84,0,3.92l-6.56,6.56
			C498.59-1033.2,496.83-1033.2,495.75-1034.28z M472.08-1022.86h-9.28c-1.53,0-2.77-1.24-2.77-2.77v-9.28
			c0-1.53,1.24-2.77,2.77-2.77h9.28c1.53,0,2.77,1.24,2.77,2.77v9.28C474.85-1024.1,473.61-1022.86,472.08-1022.86z M449.75-1018.72
			l-10.06,10.06c-1.08,1.08-2.84,1.08-3.92,0l-24.29-24.29c-1.75-1.75-0.51-4.73,1.96-4.73h34.36c1.53,0,2.77,1.24,2.77,2.77v14.23
			C450.56-1019.94,450.27-1019.24,449.75-1018.72z M456.87-1008.52l6.56,6.56c1.08,1.08,1.08,2.84,0,3.92l-6.56,6.56
			c-1.08,1.08-2.84,1.08-3.92,0l-6.56-6.56c-1.08-1.08-1.08-2.84,0-3.92l6.56-6.56C454.03-1009.6,455.78-1009.6,456.87-1008.52z
			 M450.56-979.32v14.23c0,1.53-1.24,2.77-2.77,2.77h-34.35c-2.47,0-3.7-2.98-1.96-4.73l24.29-24.29c1.08-1.08,2.84-1.08,3.92,0
			l10.06,10.06C450.27-980.76,450.56-980.06,450.56-979.32z M462.81-977.14h9.28c1.53,0,2.77,1.24,2.77,2.77v9.28
			c0,1.53-1.24,2.77-2.77,2.77h-9.28c-1.53,0-2.77-1.24-2.77-2.77v-9.28C460.04-975.9,461.28-977.14,462.81-977.14z M487.1-977.14
			L487.1-977.14c0.73,0,1.44,0.29,1.96,0.81l0,0c1.08,1.08,1.08,2.84,0,3.92l0,0c-1.75,1.75-4.73,0.51-4.73-1.96v0
			C484.33-975.9,485.57-977.14,487.1-977.14z M499.67-965.72l6.56,6.56c1.08,1.08,1.08,2.84,0,3.92l-6.56,6.56
			c-1.08,1.08-2.84,1.08-3.92,0l-6.56-6.56c-1.08-1.08-1.08-2.84,0-3.92l6.56-6.56C496.83-966.8,498.59-966.8,499.67-965.72z
			 M523.34-977.14h9.28c1.53,0,2.77,1.24,2.77,2.77v9.28c0,1.53-1.24,2.77-2.77,2.77h-9.28c-1.53,0-2.77-1.24-2.77-2.77v-9.28
			C520.57-975.9,521.81-977.14,523.34-977.14z M545.67-981.28l10.06-10.06c1.08-1.08,2.84-1.08,3.92,0l24.29,24.29
			c1.75,1.75,0.51,4.73-1.96,4.73h-34.35c-1.53,0-2.77-1.24-2.77-2.77v-14.23C544.86-980.06,545.15-980.76,545.67-981.28z
			 M538.56-991.48l-6.56-6.56c-1.08-1.08-1.08-2.84,0-3.92l6.56-6.56c1.08-1.08,2.84-1.08,3.92,0l6.56,6.56
			c1.08,1.08,1.08,2.84,0,3.92l-6.56,6.56C541.39-990.4,539.64-990.4,538.56-991.48z M544.86-1020.68v-14.23
			c0-1.53,1.24-2.77,2.77-2.77h34.35c2.47,0,3.7,2.98,1.96,4.73l-24.29,24.29c-1.08,1.08-2.84,1.08-3.92,0l-10.06-10.06
			C545.15-1019.24,544.86-1019.94,544.86-1020.68z M544.86-1049.92v-35.14c0-2.47,2.98-3.7,4.73-1.96l35.14,35.14
			c1.75,1.75,0.51,4.73-1.96,4.73h-35.14C546.1-1047.15,544.86-1048.39,544.86-1049.92z M532.62-1047.15h-14.23
			c-0.73,0-1.44-0.29-1.96-0.81l-10.06-10.06c-1.08-1.08-1.08-2.84,0-3.92l24.29-24.29c1.75-1.75,4.73-0.51,4.73,1.96v34.35
			C535.39-1048.39,534.15-1047.15,532.62-1047.15z M495.75-1068.64l-24.85-24.85c-1.75-1.75-0.51-4.73,1.96-4.73h49.69
			c2.47,0,3.7,2.98,1.96,4.73l-24.85,24.85C498.59-1067.55,496.83-1067.55,495.75-1068.64z M489.06-1058.02l-10.06,10.06
			c-0.52,0.52-1.22,0.81-1.96,0.81H462.8c-1.53,0-2.77-1.24-2.77-2.77v-34.35c0-2.47,2.98-3.7,4.73-1.96l24.29,24.29
			C490.14-1060.86,490.14-1059.1,489.06-1058.02z M447.79-1047.15h-35.14c-2.47,0-3.7-2.98-1.96-4.73l35.14-35.14
			c1.75-1.75,4.73-0.51,4.73,1.96v35.14C450.56-1048.39,449.32-1047.15,447.79-1047.15z M450.56-950.08v35.14
			c0,2.47-2.98,3.7-4.73,1.96l-35.14-35.14c-1.75-1.75-0.51-4.73,1.96-4.73h35.14C449.32-952.85,450.56-951.61,450.56-950.08z
			 M462.81-952.85h14.23c0.73,0,1.44,0.29,1.96,0.81l10.06,10.06c1.08,1.08,1.08,2.84,0,3.92l-24.29,24.29
			c-1.75,1.75-4.73,0.51-4.73-1.96v-34.35C460.04-951.61,461.28-952.85,462.81-952.85z M499.67-931.36l24.85,24.85
			c1.75,1.75,0.51,4.73-1.96,4.73h-49.69c-2.47,0-3.7-2.98-1.96-4.73l24.85-24.85C496.83-932.45,498.59-932.45,499.67-931.36z
			 M506.37-941.98l10.06-10.06c0.52-0.52,1.22-0.81,1.96-0.81h14.23c1.53,0,2.77,1.24,2.77,2.77v34.36c0,2.47-2.98,3.7-4.73,1.96
			l-24.29-24.29C505.29-939.14,505.29-940.9,506.37-941.98z M547.63-952.85h35.14c2.47,0,3.7,2.98,1.96,4.73l-35.14,35.14
			c-1.75,1.75-4.73,0.51-4.73-1.96v-35.14C544.86-951.61,546.1-952.85,547.63-952.85z M566.35-1001.96l24.85-24.85
			c1.75-1.75,4.73-0.51,4.73,1.96v49.69c0,2.47-2.98,3.7-4.73,1.96l-24.85-24.85C565.27-999.12,565.27-1000.88,566.35-1001.96z"/>
	</g>
	<g>
		<path class="st2" d="M650.51-965.9v-103.85c0-3.42,2.78-6.2,6.2-6.2h0c3.42,0,6.2,2.78,6.2,6.2v27.23c0,1.83,1.48,3.31,3.31,3.31
			h42.12c4.19,0,7.58,3.4,7.58,7.58v65.73c0,3.42-2.78,6.2-6.2,6.2h0c-3.42,0-6.2-2.78-6.2-6.2v-59.71c0-1.52-1.24-2.76-2.76-2.76
			h-34.54c-1.83,0-3.31,1.48-3.31,3.31v59.16c0,3.42-2.78,6.2-6.2,6.2h0C653.29-959.7,650.51-962.48,650.51-965.9z"/>
		<path class="st2" d="M765.75-935.06h37.02c1.42,0,2.58-1.15,2.58-2.58v-24.24c0-3.25,0.15-5.74,0.31-7.91h-0.47
			c-1.71,4.5-8.37,11.47-22.94,11.47c-17.51,0-29.92-13.33-29.92-31.77v-42.93c0-3.42,2.78-6.2,6.2-6.2h0c3.42,0,6.2,2.78,6.2,6.2
			v42.78c0,12.25,8.37,20.62,20.3,20.62c11.93,0,20.3-8.37,20.3-20.62v-42.78c0-3.42,2.78-6.2,6.2-6.2h0c3.42,0,6.2,2.78,6.2,6.2
			v100.59c0,4.63-3.75,8.38-8.38,8.38h-43.63c-3.04,0-5.5-2.46-5.5-5.5l0,0C760.25-932.59,762.71-935.06,765.75-935.06z"/>
		<path class="st2" d="M898.35-957.22c-14.26,0-26.19-6.2-30.53-15.5h-0.47c0.31,2.02,0.47,4.34,0.47,8.37v34.88
			c0,3-2.43,5.42-5.42,5.42h-1.55c-3,0-5.42-2.43-5.42-5.42v-104.31c0-3,2.43-5.42,5.42-5.42h0.78c3,0,5.42,2.43,5.42,5.42l0,0
			c0,3.72-0.16,6.04-0.46,8.37h0.46c5.27-8.99,16.74-16.27,31.93-16.27c23.71,0,40.61,17.82,40.61,42.16
			C939.58-975.04,922.53-957.22,898.35-957.22z M867.35-999.54c0,17.98,12.56,31.15,29.92,31.15c16.89,0,29.6-13.17,29.6-31.15
			s-12.71-31.15-29.6-31.15C879.91-1030.69,867.35-1017.51,867.35-999.54z"/>
		<path class="st2" d="M1015.22-957.89c-27.1,4.72-51.79-17.73-49.78-45.16c1.64-22.39,18.88-38.65,41.72-38.65
			c23.25,0,39.21,18.13,39.21,42.16v0.05c0,2.97-2.41,5.38-5.38,5.38l-59.8,0c-1.55,0-2.66,1.44-2.32,2.95
			c3.13,13.71,13.97,22.78,28.6,22.78c8.78,0,15.99-3.03,21.72-8.4c2.11-1.98,5.42-1.93,7.44,0.14l0,0c2.02,2.07,2.01,5.36,0,7.45
			C1030.87-963.19,1023.61-959.35,1015.22-957.89z M982.43-1004.65h47.71c2.1,0,3.73-1.89,3.35-3.96
			c-2.41-12.97-12.52-22.08-26.49-22.08c-13.93,0-24.53,8.68-27.88,21.87C978.59-1006.7,980.24-1004.65,982.43-1004.65z"/>
		<path class="st2" d="M1113.03-1033.71L1113.03-1033.71c0,3.04-2.46,5.5-5.5,5.5h-15.16c-1.43,0-2.58,1.16-2.58,2.58v59.73
			c0,3.42-2.78,6.2-6.2,6.2l0,0c-3.42,0-6.2-2.78-6.2-6.2v-64.57c0-4.83,3.91-8.74,8.74-8.74h21.41
			C1110.56-1039.21,1113.03-1036.75,1113.03-1033.71z"/>
		<path class="st2" d="M1203.72-1021.88c-2.16,2.16-5.62,2.05-7.76-0.12c-5.23-5.32-12.45-8.69-21.25-8.69
			c-17.21,0-29.61,13.02-29.61,31.15c0,17.83,12.4,31.15,29.61,31.15c9.24,0,16.66-3.82,21.96-9.52c2.08-2.23,5.55-2.39,7.73-0.25
			l0,0c2.02,1.98,2.14,5.18,0.3,7.33c-6.95,8.17-17.55,13.59-29.99,13.59c-22.67,0-39.07-14.96-41.88-35.83
			c-3.61-26.74,18.42-50.58,45.32-48.52c10.24,0.79,19.1,5.08,25.7,12.04c2.01,2.12,2,5.51-0.07,7.58L1203.72-1021.88z"/>
		<path class="st2" d="M1236.87-965.95v-67.06c0-3.42,2.78-6.2,6.2-6.2l0,0c3.42,0,6.2,2.78,6.2,6.2v59.76
			c0,1.41,1.14,2.55,2.55,2.55h34.58c1.41,0,2.55-1.14,2.55-2.55v-59.76c0-3.42,2.78-6.2,6.2-6.2l0,0c3.42,0,6.2,2.78,6.2,6.2v67.06
			c0,3.45-2.8,6.25-6.25,6.25h-51.97C1239.67-959.7,1236.87-962.5,1236.87-965.95z"/>
		<path class="st2" d="M1382.1-957.22c-13.95,0-26.35-6.04-31.46-16.43h-0.46c0.31,2.48,0.46,5.12,0.46,8.68l0,0
			c0,2.91-2.36,5.27-5.27,5.27h-1.08c-2.91,0-5.27-2.36-5.27-5.27v-104.78c0-3.42,2.78-6.2,6.2-6.2l0,0c3.42,0,6.2,2.78,6.2,6.2
			v35.18c0,4.18-0.16,6.51-0.47,8.68h0.47c5.11-9.3,17.67-15.81,30.53-15.81c24.8,0,41.23,17.82,41.23,42.16
			C1423.18-975.04,1406.9-957.22,1382.1-957.22z M1410.47-999.54c0-18.13-12.71-31.15-29.76-31.15c-17.36,0-29.76,13.02-29.76,31.15
			c0,17.83,12.4,31.15,29.76,31.15C1397.76-968.38,1410.47-981.71,1410.47-999.54z"/>
		<path class="st2" d="M1497.11-957.62c-25.91,3.45-49.11-17.54-48.17-43.66c0.84-23.29,18.38-40.41,41.82-40.41
			c23.25,0,39.21,18.13,39.21,42.16v0.05c0,2.97-2.41,5.38-5.38,5.38l-60.65,0c-1.07,0-1.88,0.98-1.67,2.04
			c2.85,14.22,13.84,23.69,28.79,23.69c8.78,0,15.99-3.03,21.72-8.4c2.11-1.98,5.42-1.93,7.44,0.14l0,0c2.02,2.07,2.01,5.36,0,7.45
			C1514.08-962.79,1506.22-958.84,1497.11-957.62z M1464.26-1004.65h51.13c1.19,0,2.12-1.05,1.97-2.23
			c-1.8-13.88-12.18-23.81-26.76-23.81c-14.55,0-25.48,9.48-28.29,23.69C1462.07-1005.78,1463.02-1004.65,1464.26-1004.65z"/>
	</g>
</g>
<g>
	<g>
		<path d="M2625.39-1042.41c0-0.72-0.17-1.4-0.45-2.01c-0.23-0.63-0.59-1.23-1.1-1.73l-59.98-59.98c-0.49-0.49-1.08-0.86-1.73-1.09
			c-0.61-0.29-1.29-0.45-2.02-0.45h-84.82c-0.72,0-1.41,0.17-2.02,0.46c-0.64,0.23-1.23,0.6-1.72,1.09l-59.98,59.98
			c-0.49,0.49-0.86,1.08-1.09,1.72c-0.29,0.61-0.46,1.3-0.46,2.02v84.82c0,0.72,0.17,1.4,0.45,2.02c0.23,0.64,0.6,1.23,1.09,1.73
			l59.98,59.98c0.49,0.49,1.08,0.86,1.73,1.09c0.61,0.29,1.29,0.45,2.01,0.45h84.82c0.72,0,1.4-0.17,2.01-0.45
			c0.63-0.23,1.22-0.59,1.73-1.1l59.98-59.98c0.49-0.49,0.86-1.08,1.09-1.72c0.29-0.61,0.46-1.3,0.46-2.02V-1042.41z
			 M2424.23-1026.8l24.85,24.85c1.08,1.08,1.08,2.84,0,3.92l-24.85,24.85c-1.75,1.75-4.73,0.51-4.73-1.96v-49.69
			C2419.5-1027.31,2422.48-1028.55,2424.23-1026.8z M2526.37-972.41L2526.37-972.41c-1.08-1.08-1.08-2.84,0-3.92l0,0
			c0.52-0.52,1.22-0.81,1.96-0.81h0c1.53,0,2.77,1.24,2.77,2.77v0C2531.1-971.9,2528.11-970.67,2526.37-972.41z M2509.05-1027.59
			L2509.05-1027.59c1.08,1.08,1.08,2.84,0,3.92l0,0c-0.52,0.52-1.22,0.81-1.96,0.81h0c-1.53,0-2.77-1.24-2.77-2.77v0
			C2504.33-1028.1,2507.31-1029.33,2509.05-1027.59z M2511.36-987.43l-6.22-6.22c-0.52-0.52-0.81-1.22-0.81-1.96v-8.79
			c0-0.73,0.29-1.44,0.81-1.96l6.22-6.22c0.52-0.52,1.22-0.81,1.96-0.81h8.79c0.73,0,1.44,0.29,1.96,0.81l6.22,6.22
			c0.52,0.52,0.81,1.22,0.81,1.96v8.79c0,0.73-0.29,1.44-0.81,1.96l-6.22,6.22c-0.52,0.52-1.22,0.81-1.96,0.81h-8.79
			C2512.58-986.61,2511.87-986.91,2511.36-987.43z M2494.04-1008.66L2494.04-1008.66c-1.08,1.08-2.84,1.08-3.92,0l0,0
			c-1.75-1.75-0.51-4.73,1.96-4.73h0c1.53,0,2.77,1.24,2.77,2.77v0C2494.85-1009.88,2494.56-1009.18,2494.04-1008.66z
			 M2494.85-989.38L2494.85-989.38c0,1.53-1.24,2.77-2.77,2.77h0c-2.47,0-3.7-2.98-1.96-4.73l0,0c1.08-1.08,2.84-1.08,3.92,0l0,0
			C2494.56-990.82,2494.85-990.12,2494.85-989.38z M2541.38-991.34L2541.38-991.34c1.08-1.08,2.84-1.08,3.92,0l0,0
			c1.75,1.75,0.51,4.73-1.96,4.73h0c-1.53,0-2.77-1.24-2.77-2.77v0C2540.57-990.12,2540.86-990.82,2541.38-991.34z M2540.57-1010.62
			L2540.57-1010.62c0-1.53,1.24-2.77,2.77-2.77h0c2.47,0,3.7,2.98,1.96,4.73l0,0c-1.08,1.08-2.84,1.08-3.92,0l0,0
			C2540.86-1009.18,2540.57-1009.88,2540.57-1010.62z M2552.62-1022.86h-9.28c-1.53,0-2.77-1.24-2.77-2.77v-9.28
			c0-1.53,1.24-2.77,2.77-2.77h9.28c1.53,0,2.77,1.24,2.77,2.77v9.28C2555.39-1024.1,2554.15-1022.86,2552.62-1022.86z
			 M2528.33-1022.86L2528.33-1022.86c-0.73,0-1.44-0.29-1.96-0.81l0,0c-1.08-1.08-1.08-2.84,0-3.92l0,0
			c1.75-1.75,4.73-0.51,4.73,1.96v0C2531.1-1024.1,2529.86-1022.86,2528.33-1022.86z M2515.75-1034.28l-6.56-6.56
			c-1.08-1.08-1.08-2.84,0-3.92l6.56-6.56c1.08-1.08,2.84-1.08,3.92,0l6.56,6.56c1.08,1.08,1.08,2.84,0,3.92l-6.56,6.56
			C2518.59-1033.2,2516.83-1033.2,2515.75-1034.28z M2492.08-1022.86h-9.28c-1.53,0-2.77-1.24-2.77-2.77v-9.28
			c0-1.53,1.24-2.77,2.77-2.77h9.28c1.53,0,2.77,1.24,2.77,2.77v9.28C2494.85-1024.1,2493.61-1022.86,2492.08-1022.86z
			 M2469.75-1018.72l-10.06,10.06c-1.08,1.08-2.84,1.08-3.92,0l-24.29-24.29c-1.75-1.75-0.51-4.73,1.96-4.73h34.35
			c1.53,0,2.77,1.24,2.77,2.77v14.23C2470.56-1019.94,2470.27-1019.24,2469.75-1018.72z M2476.87-1008.52l6.56,6.56
			c1.08,1.08,1.08,2.84,0,3.92l-6.56,6.56c-1.08,1.08-2.84,1.08-3.92,0l-6.56-6.56c-1.08-1.08-1.08-2.84,0-3.92l6.56-6.56
			C2474.03-1009.6,2475.78-1009.6,2476.87-1008.52z M2470.56-979.32v14.23c0,1.53-1.24,2.77-2.77,2.77h-34.35
			c-2.47,0-3.7-2.98-1.96-4.73l24.29-24.29c1.08-1.08,2.84-1.08,3.92,0l10.06,10.06C2470.27-980.76,2470.56-980.06,2470.56-979.32z
			 M2482.81-977.14h9.28c1.53,0,2.77,1.24,2.77,2.77v9.28c0,1.53-1.24,2.77-2.77,2.77h-9.28c-1.53,0-2.77-1.24-2.77-2.77v-9.28
			C2480.03-975.9,2481.28-977.14,2482.81-977.14z M2507.1-977.14L2507.1-977.14c0.73,0,1.44,0.29,1.96,0.81l0,0
			c1.08,1.08,1.08,2.84,0,3.92l0,0c-1.75,1.75-4.73,0.51-4.73-1.96v0C2504.33-975.9,2505.57-977.14,2507.1-977.14z M2519.67-965.72
			l6.56,6.56c1.08,1.08,1.08,2.84,0,3.92l-6.56,6.56c-1.08,1.08-2.84,1.08-3.92,0l-6.56-6.56c-1.08-1.08-1.08-2.84,0-3.92l6.56-6.56
			C2516.83-966.8,2518.59-966.8,2519.67-965.72z M2543.34-977.14h9.28c1.53,0,2.77,1.24,2.77,2.77v9.28c0,1.53-1.24,2.77-2.77,2.77
			h-9.28c-1.53,0-2.77-1.24-2.77-2.77v-9.28C2540.57-975.9,2541.81-977.14,2543.34-977.14z M2565.67-981.28l10.06-10.06
			c1.08-1.08,2.84-1.08,3.92,0l24.29,24.29c1.75,1.75,0.51,4.73-1.96,4.73h-34.35c-1.53,0-2.77-1.24-2.77-2.77v-14.23
			C2564.86-980.06,2565.15-980.76,2565.67-981.28z M2558.56-991.48l-6.56-6.56c-1.08-1.08-1.08-2.84,0-3.92l6.56-6.56
			c1.08-1.08,2.84-1.08,3.92,0l6.56,6.56c1.08,1.08,1.08,2.84,0,3.92l-6.56,6.56C2561.39-990.4,2559.64-990.4,2558.56-991.48z
			 M2564.86-1020.68v-14.23c0-1.53,1.24-2.77,2.77-2.77h34.35c2.47,0,3.7,2.98,1.96,4.73l-24.29,24.29c-1.08,1.08-2.84,1.08-3.92,0
			l-10.06-10.06C2565.15-1019.24,2564.86-1019.94,2564.86-1020.68z M2564.86-1049.92v-35.14c0-2.47,2.98-3.7,4.73-1.96l35.14,35.14
			c1.75,1.75,0.51,4.73-1.96,4.73h-35.14C2566.1-1047.15,2564.86-1048.39,2564.86-1049.92z M2552.62-1047.15h-14.23
			c-0.73,0-1.44-0.29-1.96-0.81l-10.06-10.06c-1.08-1.08-1.08-2.84,0-3.92l24.29-24.29c1.75-1.75,4.73-0.51,4.73,1.96v34.35
			C2555.39-1048.39,2554.15-1047.15,2552.62-1047.15z M2515.75-1068.64l-24.85-24.85c-1.75-1.75-0.51-4.73,1.96-4.73h49.69
			c2.47,0,3.7,2.98,1.96,4.73l-24.85,24.85C2518.59-1067.55,2516.83-1067.55,2515.75-1068.64z M2509.06-1058.02l-10.06,10.06
			c-0.52,0.52-1.22,0.81-1.96,0.81h-14.23c-1.53,0-2.77-1.24-2.77-2.77v-34.35c0-2.47,2.98-3.7,4.73-1.96l24.29,24.29
			C2510.14-1060.86,2510.14-1059.1,2509.06-1058.02z M2467.79-1047.15h-35.14c-2.47,0-3.7-2.98-1.96-4.73l35.14-35.14
			c1.75-1.75,4.73-0.51,4.73,1.96v35.14C2470.56-1048.39,2469.32-1047.15,2467.79-1047.15z M2470.56-950.08v35.14
			c0,2.47-2.98,3.7-4.73,1.96l-35.14-35.14c-1.75-1.75-0.51-4.73,1.96-4.73h35.14C2469.32-952.85,2470.56-951.61,2470.56-950.08z
			 M2482.81-952.85h14.23c0.73,0,1.44,0.29,1.96,0.81l10.06,10.06c1.08,1.08,1.08,2.84,0,3.92l-24.29,24.29
			c-1.75,1.75-4.73,0.51-4.73-1.96v-34.35C2480.03-951.61,2481.28-952.85,2482.81-952.85z M2519.67-931.36l24.85,24.85
			c1.75,1.75,0.51,4.73-1.96,4.73h-49.69c-2.47,0-3.7-2.98-1.96-4.73l24.85-24.85C2516.83-932.45,2518.59-932.45,2519.67-931.36z
			 M2526.37-941.98l10.06-10.06c0.52-0.52,1.22-0.81,1.96-0.81h14.23c1.53,0,2.77,1.24,2.77,2.77v34.36c0,2.47-2.98,3.7-4.73,1.96
			l-24.29-24.29C2525.29-939.14,2525.29-940.9,2526.37-941.98z M2567.63-952.85h35.14c2.47,0,3.7,2.98,1.96,4.73l-35.14,35.14
			c-1.75,1.75-4.73,0.51-4.73-1.96v-35.14C2564.86-951.61,2566.1-952.85,2567.63-952.85z M2586.35-1001.96l24.85-24.85
			c1.75-1.75,4.73-0.51,4.73,1.96v49.69c0,2.47-2.98,3.7-4.73,1.96l-24.85-24.85C2585.27-999.12,2585.27-1000.88,2586.35-1001.96z"
			/>
	</g>
	<g>
		<path d="M2670.51-965.9v-103.85c0-3.42,2.78-6.2,6.2-6.2l0,0c3.42,0,6.2,2.78,6.2,6.2v27.23c0,1.83,1.48,3.31,3.3,3.31h42.12
			c4.19,0,7.58,3.4,7.58,7.58v65.73c0,3.42-2.78,6.2-6.2,6.2l0,0c-3.42,0-6.2-2.78-6.2-6.2v-59.71c0-1.52-1.24-2.76-2.76-2.76
			h-34.54c-1.83,0-3.31,1.48-3.31,3.31v59.16c0,3.42-2.78,6.2-6.2,6.2l0,0C2673.29-959.7,2670.51-962.48,2670.51-965.9z"/>
		<path d="M2785.75-935.06h37.02c1.42,0,2.58-1.15,2.58-2.58v-24.24c0-3.25,0.15-5.74,0.31-7.91h-0.47
			c-1.71,4.5-8.37,11.47-22.94,11.47c-17.51,0-29.92-13.33-29.92-31.77v-42.93c0-3.42,2.78-6.2,6.2-6.2l0,0c3.42,0,6.2,2.78,6.2,6.2
			v42.78c0,12.25,8.37,20.62,20.3,20.62c11.93,0,20.3-8.37,20.3-20.62v-42.78c0-3.42,2.78-6.2,6.2-6.2l0,0c3.42,0,6.2,2.78,6.2,6.2
			v100.59c0,4.63-3.75,8.38-8.38,8.38h-43.63c-3.04,0-5.5-2.46-5.5-5.5l0,0C2780.25-932.59,2782.71-935.06,2785.75-935.06z"/>
		<path d="M2918.35-957.22c-14.26,0-26.19-6.2-30.53-15.5h-0.47c0.31,2.02,0.47,4.34,0.47,8.37v34.88c0,3-2.43,5.42-5.42,5.42h-1.55
			c-3,0-5.42-2.43-5.42-5.42v-104.31c0-3,2.43-5.42,5.42-5.42h0.78c3,0,5.42,2.43,5.42,5.42l0,0c0,3.72-0.16,6.04-0.46,8.37h0.46
			c5.27-8.99,16.74-16.27,31.93-16.27c23.71,0,40.61,17.82,40.61,42.16C2959.58-975.04,2942.53-957.22,2918.35-957.22z
			 M2887.35-999.54c0,17.98,12.56,31.15,29.92,31.15c16.89,0,29.6-13.17,29.6-31.15s-12.71-31.15-29.6-31.15
			C2899.91-1030.69,2887.35-1017.51,2887.35-999.54z"/>
		<path d="M3035.22-957.89c-27.1,4.72-51.79-17.73-49.78-45.16c1.64-22.39,18.88-38.65,41.72-38.65c23.25,0,39.21,18.13,39.21,42.16
			l0,0.05c0,2.97-2.41,5.38-5.38,5.38l-59.8,0c-1.55,0-2.66,1.44-2.32,2.95c3.13,13.71,13.97,22.78,28.6,22.78
			c8.78,0,15.99-3.03,21.72-8.4c2.11-1.98,5.42-1.93,7.45,0.14l0,0c2.02,2.07,2.01,5.36,0,7.45
			C3050.87-963.19,3043.61-959.35,3035.22-957.89z M3002.43-1004.65h47.71c2.1,0,3.73-1.89,3.35-3.96
			c-2.41-12.97-12.52-22.08-26.49-22.08c-13.93,0-24.53,8.68-27.88,21.87C2998.59-1006.7,3000.24-1004.65,3002.43-1004.65z"/>
		<path d="M3133.03-1033.71L3133.03-1033.71c0,3.04-2.46,5.5-5.5,5.5h-15.16c-1.43,0-2.58,1.16-2.58,2.58v59.73
			c0,3.42-2.78,6.2-6.2,6.2l0,0c-3.42,0-6.2-2.78-6.2-6.2v-64.57c0-4.83,3.91-8.74,8.74-8.74h21.41
			C3130.56-1039.21,3133.03-1036.75,3133.03-1033.71z"/>
		<path d="M3223.72-1021.88c-2.16,2.16-5.62,2.05-7.76-0.12c-5.23-5.32-12.45-8.69-21.25-8.69c-17.21,0-29.61,13.02-29.61,31.15
			c0,17.83,12.4,31.15,29.61,31.15c9.24,0,16.66-3.82,21.96-9.52c2.08-2.23,5.55-2.39,7.73-0.25l0,0c2.02,1.98,2.14,5.18,0.3,7.33
			c-6.95,8.17-17.55,13.59-29.99,13.59c-22.67,0-39.07-14.96-41.88-35.83c-3.61-26.74,18.42-50.58,45.32-48.52
			c10.24,0.79,19.1,5.08,25.7,12.04c2.01,2.12,2,5.51-0.07,7.58L3223.72-1021.88z"/>
		<path d="M3256.87-965.95v-67.06c0-3.42,2.78-6.2,6.2-6.2l0,0c3.42,0,6.2,2.78,6.2,6.2v59.76c0,1.41,1.14,2.55,2.55,2.55h34.58
			c1.41,0,2.55-1.14,2.55-2.55v-59.76c0-3.42,2.78-6.2,6.2-6.2l0,0c3.42,0,6.2,2.78,6.2,6.2v67.06c0,3.45-2.8,6.25-6.25,6.25h-51.97
			C3259.67-959.7,3256.87-962.5,3256.87-965.95z"/>
		<path d="M3402.1-957.22c-13.95,0-26.35-6.04-31.46-16.43h-0.46c0.31,2.48,0.46,5.12,0.46,8.68l0,0c0,2.91-2.36,5.27-5.27,5.27
			h-1.08c-2.91,0-5.27-2.36-5.27-5.27v-104.78c0-3.42,2.78-6.2,6.2-6.2l0,0c3.42,0,6.2,2.78,6.2,6.2v35.18
			c0,4.18-0.16,6.51-0.47,8.68h0.47c5.11-9.3,17.67-15.81,30.53-15.81c24.8,0,41.23,17.82,41.23,42.16
			C3443.18-975.04,3426.9-957.22,3402.1-957.22z M3430.47-999.54c0-18.13-12.71-31.15-29.76-31.15c-17.36,0-29.76,13.02-29.76,31.15
			c0,17.83,12.4,31.15,29.76,31.15C3417.76-968.38,3430.47-981.71,3430.47-999.54z"/>
		<path d="M3517.11-957.62c-25.91,3.45-49.11-17.54-48.17-43.66c0.84-23.29,18.38-40.41,41.82-40.41
			c23.25,0,39.21,18.13,39.21,42.16l0,0.05c0,2.97-2.41,5.38-5.38,5.38l-60.65,0c-1.07,0-1.88,0.98-1.67,2.04
			c2.85,14.22,13.84,23.69,28.79,23.69c8.78,0,15.99-3.03,21.72-8.4c2.11-1.98,5.42-1.93,7.45,0.14l0,0c2.02,2.07,2.01,5.36,0,7.45
			C3534.08-962.79,3526.22-958.84,3517.11-957.62z M3484.26-1004.65h51.13c1.19,0,2.12-1.05,1.97-2.23
			c-1.8-13.88-12.18-23.81-26.76-23.81c-14.55,0-25.48,9.48-28.29,23.69C3482.07-1005.78,3483.02-1004.65,3484.26-1004.65z"/>
	</g>
</g>
<g>
	<path class="st1" d="M5335.83-1132.27c0-2.24-0.51-4.36-1.41-6.26c-0.71-1.97-1.85-3.82-3.42-5.4L5143.94-1331
		c-1.54-1.53-3.38-2.68-5.38-3.41c-1.91-0.9-4.03-1.42-6.29-1.42h-264.54c-2.26,0-4.39,0.52-6.31,1.43
		c-1.99,0.73-3.83,1.87-5.36,3.4L4669-1143.93c-1.53,1.53-2.68,3.37-3.41,5.37c-0.9,1.91-1.42,4.04-1.42,6.3v264.54
		c0,2.25,0.52,4.38,1.42,6.28c0.73,2,1.88,3.85,3.41,5.38L4856.06-669c1.54,1.54,3.38,2.68,5.38,3.41c1.91,0.9,4.03,1.42,6.28,1.42
		h264.54c2.25,0,4.37-0.52,6.27-1.41c1.96-0.71,3.81-1.84,5.39-3.42l187.06-187.06c1.53-1.53,2.68-3.37,3.41-5.37
		c0.9-1.91,1.43-4.04,1.43-6.3V-1132.27z M4708.46-1083.59l77.49,77.48c3.37,3.37,3.37,8.84,0,12.22l-77.49,77.48
		c-5.44,5.44-14.75,1.59-14.75-6.11v-154.97C4693.71-1085.18,4703.02-1089.04,4708.46-1083.59z M5027-913.96L5027-913.96
		c-3.38-3.38-3.38-8.85,0-12.22l0,0c1.62-1.62,3.82-2.53,6.11-2.53h0c4.77,0,8.64,3.87,8.64,8.64v0.01
		C5041.75-912.37,5032.44-908.52,5027-913.96z M4973-1086.04L4973-1086.04c3.38,3.38,3.38,8.85,0,12.22l0,0
		c-1.62,1.62-3.82,2.53-6.11,2.53h0c-4.77,0-8.64-3.87-8.64-8.64v0C4958.25-1087.62,4967.56-1091.48,4973-1086.04z M4980.18-960.78
		l-19.39-19.39c-1.62-1.62-2.53-3.82-2.53-6.11v-27.43c0-2.29,0.91-4.49,2.53-6.11l19.4-19.39c1.62-1.62,3.82-2.53,6.11-2.53h27.43
		c2.29,0,4.49,0.91,6.11,2.53l19.39,19.39c1.62,1.62,2.53,3.82,2.53,6.11v27.43c0,2.29-0.91,4.49-2.53,6.11l-19.4,19.39
		c-1.62,1.62-3.82,2.53-6.11,2.53h-27.43C4983.99-958.25,4981.8-959.16,4980.18-960.78z M4926.19-1027L4926.19-1027
		c-3.38,3.38-8.85,3.38-12.22,0l0,0c-5.44-5.44-1.59-14.75,6.11-14.75h0.01c4.77,0,8.64,3.87,8.64,8.64v0
		C4928.72-1030.81,4927.81-1028.62,4926.19-1027z M4928.72-966.89L4928.72-966.89c0,4.77-3.87,8.64-8.64,8.64h0
		c-7.7,0-11.55-9.31-6.11-14.75l0,0c3.37-3.37,8.84-3.37,12.22,0l0,0C4927.81-971.38,4928.72-969.18,4928.72-966.89z M5073.81-973
		L5073.81-973c3.38-3.38,8.85-3.38,12.22,0l0,0c5.44,5.44,1.59,14.75-6.11,14.75h-0.01c-4.77,0-8.64-3.87-8.64-8.64v0
		C5071.28-969.19,5072.19-971.38,5073.81-973z M5071.28-1033.11L5071.28-1033.11c0-4.77,3.87-8.64,8.64-8.64h0
		c7.7,0,11.55,9.31,6.11,14.75l0,0c-3.37,3.37-8.84,3.37-12.22,0l0,0C5072.19-1028.62,5071.28-1030.82,5071.28-1033.11z
		 M5108.86-1071.28h-28.94c-4.77,0-8.64-3.87-8.64-8.64v-28.94c0-4.77,3.87-8.64,8.64-8.64h28.94c4.77,0,8.64,3.87,8.64,8.64v28.94
		C5117.5-1075.15,5113.63-1071.28,5108.86-1071.28z M5033.11-1071.28L5033.11-1071.28c-2.29,0-4.49-0.91-6.11-2.53l0,0
		c-3.37-3.37-3.37-8.84,0-12.22l0,0c5.44-5.44,14.75-1.59,14.75,6.11v0C5041.75-1075.15,5037.88-1071.28,5033.11-1071.28z
		 M4993.89-1106.92l-20.46-20.46c-3.37-3.37-3.37-8.84,0-12.22l20.46-20.46c3.37-3.37,8.84-3.37,12.22,0l20.46,20.46
		c3.37,3.37,3.37,8.84,0,12.22l-20.46,20.46C5002.74-1103.55,4997.26-1103.55,4993.89-1106.92z M4920.08-1071.28h-28.94
		c-4.77,0-8.64-3.87-8.64-8.64v-28.94c0-4.77,3.87-8.64,8.64-8.64h28.94c4.77,0,8.64,3.87,8.64,8.64v28.94
		C4928.72-1075.15,4924.85-1071.28,4920.08-1071.28z M4850.43-1058.37l-31.38,31.38c-3.37,3.37-8.84,3.37-12.22,0l-75.76-75.76
		c-5.44-5.44-1.59-14.75,6.11-14.75h107.14c4.77,0,8.64,3.87,8.64,8.64v44.38C4852.96-1062.19,4852.05-1060,4850.43-1058.37z
		 M4872.62-1026.57l20.46,20.46c3.37,3.37,3.37,8.84,0,12.22l-20.46,20.46c-3.37,3.37-8.84,3.37-12.22,0l-20.46-20.46
		c-3.37-3.37-3.37-8.84,0-12.22l20.46-20.46C4863.77-1029.95,4869.24-1029.95,4872.62-1026.57z M4852.96-935.51v44.37
		c0,4.77-3.87,8.64-8.64,8.64h-107.14c-7.7,0-11.55-9.31-6.11-14.75l75.76-75.76c3.37-3.37,8.84-3.37,12.22,0l31.38,31.38
		C4852.05-940,4852.96-937.8,4852.96-935.51z M4891.14-928.72h28.94c4.77,0,8.64,3.87,8.64,8.64v28.94c0,4.77-3.87,8.64-8.64,8.64
		h-28.94c-4.77,0-8.64-3.87-8.64-8.64v-28.94C4882.5-924.85,4886.37-928.72,4891.14-928.72z M4966.89-928.72L4966.89-928.72
		c2.29,0,4.49,0.91,6.11,2.53l0,0c3.37,3.37,3.37,8.84,0,12.22l0,0c-5.44,5.44-14.75,1.59-14.75-6.11v0
		C4958.25-924.85,4962.12-928.72,4966.89-928.72z M5006.11-893.08l20.46,20.46c3.37,3.37,3.37,8.84,0,12.22l-20.46,20.46
		c-3.37,3.37-8.84,3.37-12.22,0l-20.46-20.46c-3.37-3.37-3.37-8.84,0-12.22l20.46-20.46
		C4997.26-896.45,5002.73-896.45,5006.11-893.08z M5079.92-928.72h28.94c4.77,0,8.64,3.87,8.64,8.64v28.94
		c0,4.77-3.87,8.64-8.64,8.64h-28.94c-4.77,0-8.64-3.87-8.64-8.64v-28.94C5071.28-924.85,5075.15-928.72,5079.92-928.72z
		 M5149.57-941.63l31.38-31.38c3.37-3.37,8.84-3.37,12.22,0l75.76,75.76c5.44,5.44,1.59,14.75-6.11,14.75h-107.14
		c-4.77,0-8.64-3.87-8.64-8.64v-44.38C5147.04-937.81,5147.95-940,5149.57-941.63z M5127.38-973.43l-20.46-20.46
		c-3.37-3.37-3.37-8.84,0-12.22l20.46-20.46c3.37-3.37,8.84-3.37,12.22,0l20.46,20.46c3.37,3.37,3.37,8.84,0,12.22l-20.46,20.46
		C5136.23-970.05,5130.76-970.05,5127.38-973.43z M5147.04-1064.48v-44.38c0-4.77,3.87-8.64,8.64-8.64h107.14
		c7.7,0,11.55,9.31,6.11,14.75l-75.76,75.76c-3.37,3.37-8.84,3.37-12.22,0l-31.38-31.38
		C5147.95-1060,5147.04-1062.19,5147.04-1064.48z M5147.04-1155.68v-109.58c0-7.7,9.31-11.55,14.75-6.11l109.58,109.58
		c5.44,5.44,1.59,14.75-6.11,14.75h-109.58C5150.91-1147.04,5147.04-1150.91,5147.04-1155.68z M5108.86-1147.04h-44.38
		c-2.29,0-4.49-0.91-6.11-2.53l-31.38-31.38c-3.37-3.37-3.37-8.84,0-12.22l75.76-75.76c5.44-5.44,14.75-1.59,14.75,6.11v107.14
		C5117.5-1150.91,5113.63-1147.04,5108.86-1147.04z M4993.89-1214.05l-77.49-77.49c-5.44-5.44-1.59-14.75,6.11-14.75h154.97
		c7.7,0,11.55,9.31,6.11,14.75l-77.49,77.49C5002.73-1210.68,4997.26-1210.68,4993.89-1214.05z M4973-1180.95l-31.38,31.38
		c-1.62,1.62-3.82,2.53-6.11,2.53h-44.38c-4.77,0-8.64-3.87-8.64-8.64v-107.14c0-7.7,9.31-11.55,14.75-6.11l75.76,75.76
		C4976.38-1189.79,4976.38-1184.32,4973-1180.95z M4844.32-1147.04h-109.58c-7.7,0-11.55-9.31-6.11-14.75l109.58-109.58
		c5.44-5.44,14.75-1.59,14.75,6.11v109.58C4852.96-1150.91,4849.09-1147.04,4844.32-1147.04z M4852.96-844.32v109.59
		c0,7.7-9.31,11.55-14.75,6.11l-109.59-109.59c-5.44-5.44-1.59-14.75,6.11-14.75h109.59
		C4849.09-852.96,4852.96-849.09,4852.96-844.32z M4891.14-852.96h44.37c2.29,0,4.49,0.91,6.11,2.53l31.38,31.38
		c3.37,3.37,3.37,8.84,0,12.22l-75.76,75.76c-5.44,5.44-14.75,1.59-14.75-6.11v-107.14C4882.5-849.09,4886.37-852.96,4891.14-852.96
		z M5006.11-785.94l77.49,77.49c5.44,5.44,1.59,14.75-6.11,14.75h-154.97c-7.7,0-11.55-9.31-6.11-14.75l77.48-77.49
		C4997.26-789.32,5002.73-789.32,5006.11-785.94z M5026.99-819.05l31.38-31.38c1.62-1.62,3.82-2.53,6.11-2.53h44.38
		c4.77,0,8.64,3.87,8.64,8.64v107.14c0,7.7-9.31,11.55-14.75,6.11l-75.76-75.76C5023.62-810.2,5023.62-815.68,5026.99-819.05z
		 M5155.68-852.96h109.58c7.7,0,11.55,9.31,6.11,14.75l-109.58,109.58c-5.44,5.44-14.75,1.59-14.75-6.11v-109.58
		C5147.04-849.09,5150.91-852.96,5155.68-852.96z M5214.05-1006.11l77.49-77.49c5.44-5.44,14.75-1.59,14.75,6.11v154.97
		c0,7.7-9.31,11.55-14.75,6.11l-77.49-77.49C5210.68-997.26,5210.68-1002.73,5214.05-1006.11z"/>
</g>
<g>
	<path d="M7355.83-1132.27c0-2.24-0.51-4.36-1.41-6.26c-0.71-1.97-1.85-3.82-3.42-5.4L7163.94-1331c-1.54-1.53-3.38-2.68-5.38-3.41
		c-1.91-0.9-4.03-1.42-6.29-1.42h-264.54c-2.26,0-4.39,0.52-6.31,1.43c-1.99,0.73-3.83,1.87-5.36,3.4L6689-1143.93
		c-1.53,1.53-2.68,3.37-3.41,5.37c-0.9,1.91-1.42,4.04-1.42,6.3v264.54c0,2.25,0.52,4.38,1.42,6.28c0.73,2,1.88,3.85,3.41,5.38
		L6876.06-669c1.54,1.54,3.38,2.68,5.38,3.41c1.91,0.9,4.03,1.42,6.28,1.42h264.54c2.25,0,4.37-0.52,6.27-1.41
		c1.96-0.71,3.81-1.84,5.39-3.42l187.06-187.06c1.53-1.53,2.68-3.37,3.41-5.37c0.9-1.91,1.43-4.04,1.43-6.3V-1132.27z
		 M6728.46-1083.59l77.49,77.48c3.37,3.37,3.37,8.84,0,12.22l-77.49,77.48c-5.44,5.44-14.75,1.59-14.75-6.11v-154.97
		C6713.71-1085.18,6723.02-1089.04,6728.46-1083.59z M7047-913.96L7047-913.96c-3.38-3.38-3.38-8.85,0-12.22l0,0
		c1.62-1.62,3.82-2.53,6.11-2.53h0c4.77,0,8.64,3.87,8.64,8.64v0.01C7061.75-912.37,7052.44-908.52,7047-913.96z M6993-1086.04
		L6993-1086.04c3.38,3.38,3.38,8.85,0,12.22l0,0c-1.62,1.62-3.82,2.53-6.11,2.53h0c-4.77,0-8.64-3.87-8.64-8.64v0
		C6978.25-1087.62,6987.56-1091.48,6993-1086.04z M7000.18-960.78l-19.39-19.39c-1.62-1.62-2.53-3.82-2.53-6.11v-27.43
		c0-2.29,0.91-4.49,2.53-6.11l19.4-19.39c1.62-1.62,3.82-2.53,6.11-2.53h27.43c2.29,0,4.49,0.91,6.11,2.53l19.39,19.39
		c1.62,1.62,2.53,3.82,2.53,6.11v27.43c0,2.29-0.91,4.49-2.53,6.11l-19.4,19.39c-1.62,1.62-3.82,2.53-6.11,2.53h-27.43
		C7003.99-958.25,7001.8-959.16,7000.18-960.78z M6946.19-1027L6946.19-1027c-3.38,3.38-8.85,3.38-12.22,0l0,0
		c-5.44-5.44-1.59-14.75,6.11-14.75h0.01c4.77,0,8.64,3.87,8.64,8.64v0C6948.72-1030.81,6947.81-1028.62,6946.19-1027z
		 M6948.72-966.89L6948.72-966.89c0,4.77-3.87,8.64-8.64,8.64h0c-7.7,0-11.55-9.31-6.11-14.75l0,0c3.37-3.37,8.84-3.37,12.22,0l0,0
		C6947.81-971.38,6948.72-969.18,6948.72-966.89z M7093.81-973L7093.81-973c3.38-3.38,8.85-3.38,12.22,0l0,0
		c5.44,5.44,1.59,14.75-6.11,14.75h-0.01c-4.77,0-8.64-3.87-8.64-8.64v0C7091.28-969.19,7092.19-971.38,7093.81-973z
		 M7091.28-1033.11L7091.28-1033.11c0-4.77,3.87-8.64,8.64-8.64h0c7.7,0,11.55,9.31,6.11,14.75l0,0c-3.37,3.37-8.84,3.37-12.22,0
		l0,0C7092.19-1028.62,7091.28-1030.82,7091.28-1033.11z M7128.86-1071.28h-28.94c-4.77,0-8.64-3.87-8.64-8.64v-28.94
		c0-4.77,3.87-8.64,8.64-8.64h28.94c4.77,0,8.64,3.87,8.64,8.64v28.94C7137.5-1075.15,7133.63-1071.28,7128.86-1071.28z
		 M7053.11-1071.28L7053.11-1071.28c-2.29,0-4.49-0.91-6.11-2.53l0,0c-3.37-3.37-3.37-8.84,0-12.22l0,0
		c5.44-5.44,14.75-1.59,14.75,6.11v0C7061.75-1075.15,7057.88-1071.28,7053.11-1071.28z M7013.89-1106.92l-20.46-20.46
		c-3.37-3.37-3.37-8.84,0-12.22l20.46-20.46c3.37-3.37,8.84-3.37,12.22,0l20.46,20.46c3.37,3.37,3.37,8.84,0,12.22l-20.46,20.46
		C7022.74-1103.55,7017.26-1103.55,7013.89-1106.92z M6940.08-1071.28h-28.94c-4.77,0-8.64-3.87-8.64-8.64v-28.94
		c0-4.77,3.87-8.64,8.64-8.64h28.94c4.77,0,8.64,3.87,8.64,8.64v28.94C6948.72-1075.15,6944.85-1071.28,6940.08-1071.28z
		 M6870.43-1058.37l-31.38,31.38c-3.37,3.37-8.84,3.37-12.22,0l-75.76-75.76c-5.44-5.44-1.59-14.75,6.11-14.75h107.14
		c4.77,0,8.64,3.87,8.64,8.64v44.38C6872.96-1062.19,6872.05-1060,6870.43-1058.37z M6892.62-1026.57l20.46,20.46
		c3.37,3.37,3.37,8.84,0,12.22l-20.46,20.46c-3.37,3.37-8.84,3.37-12.22,0l-20.46-20.46c-3.37-3.37-3.37-8.84,0-12.22l20.46-20.46
		C6883.77-1029.95,6889.24-1029.95,6892.62-1026.57z M6872.96-935.51v44.37c0,4.77-3.87,8.64-8.64,8.64h-107.14
		c-7.7,0-11.55-9.31-6.11-14.75l75.76-75.76c3.37-3.37,8.84-3.37,12.22,0l31.38,31.38C6872.05-940,6872.96-937.8,6872.96-935.51z
		 M6911.14-928.72h28.94c4.77,0,8.64,3.87,8.64,8.64v28.94c0,4.77-3.87,8.64-8.64,8.64h-28.94c-4.77,0-8.64-3.87-8.64-8.64v-28.94
		C6902.5-924.85,6906.37-928.72,6911.14-928.72z M6986.89-928.72L6986.89-928.72c2.29,0,4.49,0.91,6.11,2.53l0,0
		c3.37,3.37,3.37,8.84,0,12.22l0,0c-5.44,5.44-14.75,1.59-14.75-6.11v0C6978.25-924.85,6982.12-928.72,6986.89-928.72z
		 M7026.11-893.08l20.46,20.46c3.37,3.37,3.37,8.84,0,12.22l-20.46,20.46c-3.37,3.37-8.84,3.37-12.22,0l-20.46-20.46
		c-3.37-3.37-3.37-8.84,0-12.22l20.46-20.46C7017.26-896.45,7022.73-896.45,7026.11-893.08z M7099.92-928.72h28.94
		c4.77,0,8.64,3.87,8.64,8.64v28.94c0,4.77-3.87,8.64-8.64,8.64h-28.94c-4.77,0-8.64-3.87-8.64-8.64v-28.94
		C7091.28-924.85,7095.15-928.72,7099.92-928.72z M7169.57-941.63l31.38-31.38c3.37-3.37,8.84-3.37,12.22,0l75.76,75.76
		c5.44,5.44,1.59,14.75-6.11,14.75h-107.14c-4.77,0-8.64-3.87-8.64-8.64v-44.38C7167.04-937.81,7167.95-940,7169.57-941.63z
		 M7147.38-973.43l-20.46-20.46c-3.37-3.37-3.37-8.84,0-12.22l20.46-20.46c3.37-3.37,8.84-3.37,12.22,0l20.46,20.46
		c3.37,3.37,3.37,8.84,0,12.22l-20.46,20.46C7156.23-970.05,7150.76-970.05,7147.38-973.43z M7167.04-1064.48v-44.38
		c0-4.77,3.87-8.64,8.64-8.64h107.14c7.7,0,11.55,9.31,6.11,14.75l-75.76,75.76c-3.37,3.37-8.84,3.37-12.22,0l-31.38-31.38
		C7167.95-1060,7167.04-1062.19,7167.04-1064.48z M7167.04-1155.68v-109.58c0-7.7,9.31-11.55,14.75-6.11l109.58,109.58
		c5.44,5.44,1.59,14.75-6.11,14.75h-109.58C7170.91-1147.04,7167.04-1150.91,7167.04-1155.68z M7128.86-1147.04h-44.38
		c-2.29,0-4.49-0.91-6.11-2.53l-31.38-31.38c-3.37-3.37-3.37-8.84,0-12.22l75.76-75.76c5.44-5.44,14.75-1.59,14.75,6.11v107.14
		C7137.5-1150.91,7133.63-1147.04,7128.86-1147.04z M7013.89-1214.05l-77.49-77.49c-5.44-5.44-1.59-14.75,6.11-14.75h154.97
		c7.7,0,11.55,9.31,6.11,14.75l-77.49,77.49C7022.73-1210.68,7017.26-1210.68,7013.89-1214.05z M6993-1180.95l-31.38,31.38
		c-1.62,1.62-3.82,2.53-6.11,2.53h-44.38c-4.77,0-8.64-3.87-8.64-8.64v-107.14c0-7.7,9.31-11.55,14.75-6.11l75.76,75.76
		C6996.38-1189.79,6996.38-1184.32,6993-1180.95z M6864.32-1147.04h-109.58c-7.7,0-11.55-9.31-6.11-14.75l109.58-109.58
		c5.44-5.44,14.75-1.59,14.75,6.11v109.58C6872.96-1150.91,6869.09-1147.04,6864.32-1147.04z M6872.96-844.32v109.59
		c0,7.7-9.31,11.55-14.75,6.11l-109.59-109.59c-5.44-5.44-1.59-14.75,6.11-14.75h109.59
		C6869.09-852.96,6872.96-849.09,6872.96-844.32z M6911.14-852.96h44.37c2.29,0,4.49,0.91,6.11,2.53l31.38,31.38
		c3.37,3.37,3.37,8.84,0,12.22l-75.76,75.76c-5.44,5.44-14.75,1.59-14.75-6.11v-107.14C6902.5-849.09,6906.37-852.96,6911.14-852.96
		z M7026.11-785.94l77.49,77.49c5.44,5.44,1.59,14.75-6.11,14.75h-154.97c-7.7,0-11.55-9.31-6.11-14.75l77.48-77.49
		C7017.26-789.32,7022.73-789.32,7026.11-785.94z M7046.99-819.05l31.38-31.38c1.62-1.62,3.82-2.53,6.11-2.53h44.38
		c4.77,0,8.64,3.87,8.64,8.64v107.14c0,7.7-9.31,11.55-14.75,6.11l-75.76-75.76C7043.62-810.2,7043.62-815.68,7046.99-819.05z
		 M7175.68-852.96h109.58c7.7,0,11.55,9.31,6.11,14.75l-109.58,109.58c-5.44,5.44-14.75,1.59-14.75-6.11v-109.58
		C7167.04-849.09,7170.91-852.96,7175.68-852.96z M7234.05-1006.11l77.49-77.49c5.44-5.44,14.75-1.59,14.75,6.11v154.97
		c0,7.7-9.31,11.55-14.75,6.11l-77.49-77.49C7230.68-997.26,7230.68-1002.73,7234.05-1006.11z"/>
</g>
<g>
	<path class="st2" d="M569.83,589.43v-92.15c0-3.04,2.46-5.5,5.5-5.5l0,0c3.04,0,5.5,2.46,5.5,5.5v24.16c0,1.62,1.31,2.93,2.93,2.93
		h37.37c3.72,0,6.73,3.01,6.73,6.73v58.32c0,3.04-2.46,5.5-5.5,5.5l0,0c-3.04,0-5.5-2.46-5.5-5.5v-52.98c0-1.35-1.1-2.45-2.45-2.45
		h-30.65c-1.62,0-2.93,1.31-2.93,2.93v52.49c0,3.04-2.46,5.5-5.5,5.5l0,0C572.29,594.93,569.83,592.47,569.83,589.43z"/>
	<path class="st2" d="M672.08,616.8h32.85c1.26,0,2.29-1.02,2.29-2.29v-21.5c0-2.89,0.14-5.09,0.28-7.01h-0.41
		c-1.51,3.99-7.43,10.18-20.35,10.18c-15.54,0-26.54-11.83-26.54-28.19v-38.1c0-3.04,2.46-5.5,5.5-5.5l0,0c3.04,0,5.5,2.46,5.5,5.5
		v37.96c0,10.87,7.43,18.29,18.02,18.29c10.59,0,18.02-7.43,18.02-18.29v-37.96c0-3.04,2.46-5.5,5.5-5.5l0,0
		c3.04,0,5.5,2.46,5.5,5.5v89.25c0,4.1-3.33,7.43-7.43,7.43h-38.71c-2.7,0-4.88-2.19-4.88-4.88l0,0
		C667.2,618.99,669.38,616.8,672.08,616.8z"/>
	<path class="st2" d="M789.74,597.13c-12.65,0-23.24-5.5-27.09-13.75h-0.41c0.27,1.79,0.41,3.85,0.41,7.43v30.94
		c0,2.66-2.16,4.81-4.81,4.81h-1.38c-2.66,0-4.81-2.16-4.81-4.81v-92.56c0-2.66,2.16-4.81,4.81-4.81h0.69
		c2.66,0,4.81,2.16,4.81,4.81l0,0c0,3.3-0.14,5.36-0.41,7.43h0.41c4.68-7.98,14.85-14.44,28.33-14.44
		c21.04,0,36.03,15.82,36.03,37.41C826.32,581.32,811.19,597.13,789.74,597.13z M762.23,559.59c0,15.95,11.14,27.64,26.54,27.64
		c14.99,0,26.27-11.69,26.27-27.64c0-15.95-11.28-27.64-26.27-27.64C773.37,531.95,762.23,543.64,762.23,559.59z"/>
	<path class="st2" d="M893.44,596.54c-24.04,4.19-45.95-15.73-44.17-40.07c1.45-19.86,16.75-34.29,37.02-34.29
		c20.63,0,34.79,16.09,34.79,37.41l0,0.04c0,2.64-2.14,4.77-4.78,4.77l-53.06,0c-1.37,0-2.36,1.28-2.05,2.62
		c2.78,12.16,12.39,20.21,25.37,20.21c7.79,0,14.19-2.69,19.27-7.45c1.88-1.76,4.81-1.71,6.61,0.12l0,0c1.8,1.83,1.78,4.76,0,6.61
		C907.32,591.84,900.88,595.25,893.44,596.54z M864.34,555.05h42.34c1.86,0,3.31-1.68,2.97-3.51c-2.14-11.51-11.11-19.59-23.5-19.59
		c-12.36,0-21.77,7.7-24.74,19.41C860.93,553.23,862.4,555.05,864.34,555.05z"/>
	<path class="st2" d="M980.22,529.26L980.22,529.26c0,2.7-2.19,4.88-4.88,4.88h-13.45c-1.27,0-2.29,1.03-2.29,2.29v53
		c0,3.04-2.46,5.5-5.5,5.5l0,0c-3.04,0-5.5-2.46-5.5-5.5v-57.3c0-4.28,3.47-7.76,7.76-7.76h18.99
		C978.03,524.38,980.22,526.57,980.22,529.26z"/>
	<path class="st2" d="M1060.69,539.76c-1.91,1.91-4.98,1.82-6.88-0.11c-4.64-4.72-11.05-7.71-18.86-7.71
		c-15.27,0-26.27,11.55-26.27,27.64c0,15.82,11,27.64,26.27,27.64c8.2,0,14.79-3.39,19.48-8.44c1.84-1.98,4.93-2.12,6.86-0.22l0,0
		c1.79,1.76,1.9,4.6,0.27,6.51c-6.17,7.24-15.57,12.06-26.61,12.06c-20.11,0-34.67-13.28-37.16-31.79
		c-3.2-23.73,16.34-44.88,40.21-43.05c9.09,0.7,16.94,4.51,22.8,10.68c1.79,1.88,1.78,4.89-0.06,6.73L1060.69,539.76z"/>
	<path class="st2" d="M1090.1,589.38v-59.5c0-3.04,2.46-5.5,5.5-5.5l0,0c3.04,0,5.5,2.46,5.5,5.5v53.02c0,1.25,1.01,2.26,2.26,2.26
		h30.68c1.25,0,2.26-1.01,2.26-2.26v-53.02c0-3.04,2.46-5.5,5.5-5.5l0,0c3.04,0,5.5,2.46,5.5,5.5v59.5c0,3.06-2.48,5.55-5.55,5.55
		h-46.11C1092.59,594.93,1090.1,592.45,1090.1,589.38z"/>
	<path class="st2" d="M1218.97,597.13c-12.38,0-23.38-5.36-27.92-14.58h-0.41c0.27,2.2,0.41,4.54,0.41,7.7l0,0
		c0,2.58-2.09,4.68-4.68,4.68h-0.96c-2.58,0-4.68-2.09-4.68-4.68v-92.97c0-3.04,2.46-5.5,5.5-5.5l0,0c3.04,0,5.5,2.46,5.5,5.5v31.22
		c0,3.71-0.14,5.78-0.41,7.7h0.41c4.54-8.25,15.68-14.03,27.09-14.03c22,0,36.58,15.82,36.58,37.41
		C1255.41,581.32,1240.97,597.13,1218.97,597.13z M1244.14,559.59c0-16.09-11.28-27.64-26.41-27.64c-15.4,0-26.41,11.55-26.41,27.64
		c0,15.82,11,27.64,26.41,27.64C1232.86,587.23,1244.14,575.4,1244.14,559.59z"/>
	<path class="st2" d="M1321.01,596.78c-22.99,3.07-43.57-15.56-42.74-38.74c0.74-20.67,16.3-35.86,37.11-35.86
		c20.63,0,34.79,16.09,34.79,37.41l0,0.04c0,2.64-2.14,4.77-4.78,4.77l-53.81,0c-0.95,0-1.67,0.87-1.48,1.81
		c2.53,12.62,12.28,21.02,25.55,21.02c7.79,0,14.19-2.69,19.27-7.45c1.88-1.76,4.81-1.71,6.61,0.12l0,0c1.8,1.83,1.78,4.76,0,6.61
		C1336.07,592.2,1329.1,595.7,1321.01,596.78z M1291.87,555.05h45.37c1.06,0,1.88-0.93,1.75-1.97
		c-1.6-12.32-10.81-21.13-23.74-21.13c-12.91,0-22.61,8.41-25.1,21.02C1289.92,554.04,1290.77,555.05,1291.87,555.05z"/>
</g>
<g>
	<path d="M2589.83,589.43v-92.15c0-3.04,2.46-5.5,5.5-5.5l0,0c3.04,0,5.5,2.46,5.5,5.5v24.16c0,1.62,1.31,2.93,2.93,2.93h37.37
		c3.72,0,6.73,3.01,6.73,6.73v58.32c0,3.04-2.46,5.5-5.5,5.5l0,0c-3.04,0-5.5-2.46-5.5-5.5v-52.98c0-1.35-1.1-2.45-2.45-2.45h-30.65
		c-1.62,0-2.93,1.31-2.93,2.93v52.49c0,3.04-2.46,5.5-5.5,5.5l0,0C2592.29,594.93,2589.83,592.47,2589.83,589.43z"/>
	<path d="M2692.08,616.8h32.85c1.26,0,2.29-1.02,2.29-2.29v-21.5c0-2.89,0.14-5.09,0.28-7.01h-0.41
		c-1.51,3.99-7.43,10.18-20.35,10.18c-15.54,0-26.54-11.83-26.54-28.19v-38.1c0-3.04,2.46-5.5,5.5-5.5l0,0c3.04,0,5.5,2.46,5.5,5.5
		v37.96c0,10.87,7.43,18.29,18.02,18.29c10.59,0,18.02-7.43,18.02-18.29v-37.96c0-3.04,2.46-5.5,5.5-5.5l0,0
		c3.04,0,5.5,2.46,5.5,5.5v89.25c0,4.1-3.33,7.43-7.43,7.43h-38.71c-2.7,0-4.88-2.19-4.88-4.88l0,0
		C2687.2,618.99,2689.38,616.8,2692.08,616.8z"/>
	<path d="M2809.74,597.13c-12.65,0-23.24-5.5-27.09-13.75h-0.41c0.27,1.79,0.41,3.85,0.41,7.43v30.94c0,2.66-2.16,4.81-4.81,4.81
		h-1.38c-2.66,0-4.81-2.16-4.81-4.81v-92.56c0-2.66,2.16-4.81,4.81-4.81h0.69c2.66,0,4.81,2.16,4.81,4.81l0,0
		c0,3.3-0.14,5.36-0.41,7.43h0.41c4.68-7.98,14.85-14.44,28.33-14.44c21.04,0,36.03,15.82,36.03,37.41
		C2846.32,581.32,2831.19,597.13,2809.74,597.13z M2782.23,559.59c0,15.95,11.14,27.64,26.54,27.64c14.99,0,26.27-11.69,26.27-27.64
		c0-15.95-11.28-27.64-26.27-27.64C2793.37,531.95,2782.23,543.64,2782.23,559.59z"/>
	<path d="M2913.44,596.54c-24.04,4.19-45.95-15.73-44.17-40.07c1.45-19.86,16.75-34.29,37.02-34.29c20.63,0,34.79,16.09,34.79,37.41
		v0.04c0,2.64-2.14,4.77-4.78,4.77l-53.06,0c-1.37,0-2.36,1.28-2.05,2.62c2.78,12.16,12.39,20.21,25.37,20.21
		c7.79,0,14.19-2.69,19.27-7.45c1.88-1.76,4.81-1.71,6.61,0.12l0,0c1.8,1.83,1.78,4.76,0,6.61
		C2927.32,591.84,2920.88,595.25,2913.44,596.54z M2884.34,555.05h42.34c1.86,0,3.31-1.68,2.97-3.51
		c-2.14-11.51-11.11-19.59-23.5-19.59c-12.36,0-21.77,7.7-24.74,19.41C2880.93,553.23,2882.4,555.05,2884.34,555.05z"/>
	<path d="M3000.22,529.26L3000.22,529.26c0,2.7-2.19,4.88-4.88,4.88h-13.45c-1.27,0-2.29,1.03-2.29,2.29v53c0,3.04-2.46,5.5-5.5,5.5
		l0,0c-3.04,0-5.5-2.46-5.5-5.5v-57.3c0-4.28,3.47-7.76,7.76-7.76h18.99C2998.03,524.38,3000.22,526.57,3000.22,529.26z"/>
	<path d="M3080.69,539.76c-1.91,1.91-4.98,1.82-6.88-0.11c-4.64-4.72-11.05-7.71-18.86-7.71c-15.27,0-26.27,11.55-26.27,27.64
		c0,15.82,11,27.64,26.27,27.64c8.2,0,14.79-3.39,19.48-8.44c1.84-1.98,4.93-2.12,6.86-0.22l0,0c1.79,1.76,1.9,4.6,0.27,6.51
		c-6.17,7.24-15.57,12.06-26.61,12.06c-20.11,0-34.67-13.28-37.16-31.79c-3.2-23.73,16.34-44.88,40.21-43.05
		c9.09,0.7,16.94,4.51,22.8,10.68c1.79,1.88,1.78,4.89-0.06,6.73L3080.69,539.76z"/>
	<path d="M3110.1,589.38v-59.5c0-3.04,2.46-5.5,5.5-5.5l0,0c3.04,0,5.5,2.46,5.5,5.5v53.02c0,1.25,1.01,2.26,2.26,2.26h30.68
		c1.25,0,2.26-1.01,2.26-2.26v-53.02c0-3.04,2.46-5.5,5.5-5.5l0,0c3.04,0,5.5,2.46,5.5,5.5v59.5c0,3.06-2.48,5.55-5.55,5.55h-46.11
		C3112.59,594.93,3110.1,592.45,3110.1,589.38z"/>
	<path d="M3238.97,597.13c-12.38,0-23.38-5.36-27.92-14.58h-0.41c0.27,2.2,0.41,4.54,0.41,7.7l0,0c0,2.58-2.09,4.68-4.68,4.68h-0.96
		c-2.58,0-4.68-2.09-4.68-4.68v-92.97c0-3.04,2.46-5.5,5.5-5.5l0,0c3.04,0,5.5,2.46,5.5,5.5v31.22c0,3.71-0.14,5.78-0.41,7.7h0.41
		c4.54-8.25,15.68-14.03,27.09-14.03c22,0,36.58,15.82,36.58,37.41C3275.41,581.32,3260.97,597.13,3238.97,597.13z M3264.14,559.59
		c0-16.09-11.28-27.64-26.41-27.64c-15.4,0-26.41,11.55-26.41,27.64c0,15.82,11,27.64,26.41,27.64
		C3252.86,587.23,3264.14,575.4,3264.14,559.59z"/>
	<path d="M3341.01,596.78c-22.99,3.07-43.57-15.56-42.74-38.74c0.74-20.67,16.3-35.86,37.11-35.86c20.63,0,34.79,16.09,34.79,37.41
		v0.04c0,2.64-2.14,4.77-4.78,4.77l-53.81,0c-0.95,0-1.67,0.87-1.48,1.81c2.53,12.62,12.28,21.02,25.55,21.02
		c7.79,0,14.19-2.69,19.27-7.45c1.88-1.76,4.81-1.71,6.61,0.12l0,0c1.8,1.83,1.78,4.76,0,6.61
		C3356.07,592.2,3349.1,595.7,3341.01,596.78z M3311.87,555.05h45.37c1.06,0,1.88-0.93,1.75-1.97
		c-1.6-12.32-10.81-21.13-23.74-21.13c-12.91,0-22.61,8.41-25.1,21.02C3309.92,554.04,3310.77,555.05,3311.87,555.05z"/>
</g>
</svg>
