<?xml version="1.0" encoding="utf-8"?>
<!-- Generator: Adobe Adobe Illustrator 24.2.0, SVG Export Plug-In . SVG Version: 6.00 Build 0)  -->
<svg version="1.1" id="Layer_1" xmlns="http://www.w3.org/2000/svg" xmlns:xlink="http://www.w3.org/1999/xlink" x="0px" y="0px"
	 viewBox="0 0 1920 1080" style="enable-background:new 0 0 1920 1080;" xml:space="preserve">
<style type="text/css">
	.st0{fill:#3FBA7D;}
	.st1{fill:#1D5E3E;}
	.st2{fill:#C4FFE2;}
</style>
<rect x="4040" y="1540" class="st0" width="1920" height="1080"/>
<g>
	<g>
		<path class="st1" d="M4645.39,2056.76c0-0.72-0.17-1.4-0.45-2.01c-0.23-0.63-0.59-1.23-1.1-1.73l-59.98-59.98
			c-0.49-0.49-1.08-0.86-1.73-1.09c-0.61-0.29-1.29-0.45-2.02-0.45h-84.82c-0.72,0-1.41,0.17-2.02,0.46
			c-0.64,0.23-1.23,0.6-1.72,1.09l-59.98,59.98c-0.49,0.49-0.86,1.08-1.09,1.72c-0.29,0.61-0.46,1.3-0.46,2.02v84.82
			c0,0.72,0.17,1.4,0.45,2.01c0.23,0.64,0.6,1.23,1.09,1.73l59.98,59.98c0.49,0.49,1.08,0.86,1.73,1.09
			c0.61,0.29,1.29,0.45,2.02,0.45h84.82c0.72,0,1.4-0.17,2.01-0.45c0.63-0.23,1.22-0.59,1.73-1.1l59.98-59.98
			c0.49-0.49,0.86-1.08,1.09-1.72c0.29-0.61,0.46-1.3,0.46-2.02V2056.76z M4444.23,2072.37l24.85,24.85c1.08,1.08,1.08,2.84,0,3.92
			l-24.85,24.85c-1.75,1.75-4.73,0.51-4.73-1.96v-49.69C4439.5,2071.86,4442.48,2070.63,4444.23,2072.37z M4546.37,2126.76
			L4546.37,2126.76c-1.08-1.08-1.08-2.84,0-3.92l0,0c0.52-0.52,1.22-0.81,1.96-0.81h0c1.53,0,2.77,1.24,2.77,2.77v0
			C4551.1,2127.27,4548.11,2128.51,4546.37,2126.76z M4529.05,2071.59L4529.05,2071.59c1.08,1.08,1.08,2.84,0,3.92l0,0
			c-0.52,0.52-1.22,0.81-1.96,0.81h0c-1.53,0-2.77-1.24-2.77-2.77v0C4524.33,2071.08,4527.31,2069.84,4529.05,2071.59z
			 M4531.36,2111.75l-6.22-6.22c-0.52-0.52-0.81-1.22-0.81-1.96v-8.79c0-0.73,0.29-1.44,0.81-1.96l6.22-6.22
			c0.52-0.52,1.22-0.81,1.96-0.81h8.79c0.73,0,1.44,0.29,1.96,0.81l6.22,6.22c0.52,0.52,0.81,1.22,0.81,1.96v8.79
			c0,0.73-0.29,1.44-0.81,1.96l-6.22,6.22c-0.52,0.52-1.22,0.81-1.96,0.81h-8.79C4532.58,2112.56,4531.88,2112.27,4531.36,2111.75z
			 M4514.04,2090.52L4514.04,2090.52c-1.08,1.08-2.84,1.08-3.92,0l0,0c-1.75-1.75-0.51-4.73,1.96-4.73h0c1.53,0,2.77,1.24,2.77,2.77
			v0C4514.85,2089.3,4514.56,2090,4514.04,2090.52z M4514.85,2109.79L4514.85,2109.79c0,1.53-1.24,2.77-2.77,2.77h0
			c-2.47,0-3.7-2.98-1.96-4.73l0,0c1.08-1.08,2.84-1.08,3.92,0l0,0C4514.56,2108.35,4514.85,2109.06,4514.85,2109.79z
			 M4561.38,2107.83L4561.38,2107.83c1.08-1.08,2.84-1.08,3.92,0l0,0c1.75,1.75,0.51,4.73-1.96,4.73h0c-1.53,0-2.77-1.24-2.77-2.77
			v0C4560.57,2109.06,4560.86,2108.35,4561.38,2107.83z M4560.57,2088.56L4560.57,2088.56c0-1.53,1.24-2.77,2.77-2.77h0
			c2.47,0,3.7,2.98,1.96,4.73l0,0c-1.08,1.08-2.84,1.08-3.92,0l0,0C4560.86,2090,4560.57,2089.3,4560.57,2088.56z M4572.62,2076.32
			h-9.28c-1.53,0-2.77-1.24-2.77-2.77v-9.28c0-1.53,1.24-2.77,2.77-2.77h9.28c1.53,0,2.77,1.24,2.77,2.77v9.28
			C4575.39,2075.08,4574.15,2076.32,4572.62,2076.32z M4548.33,2076.32L4548.33,2076.32c-0.74,0-1.44-0.29-1.96-0.81l0,0
			c-1.08-1.08-1.08-2.84,0-3.92l0,0c1.75-1.75,4.73-0.51,4.73,1.96v0C4551.1,2075.08,4549.86,2076.32,4548.33,2076.32z
			 M4535.75,2064.89l-6.56-6.56c-1.08-1.08-1.08-2.84,0-3.92l6.56-6.56c1.08-1.08,2.84-1.08,3.92,0l6.56,6.56
			c1.08,1.08,1.08,2.84,0,3.92l-6.56,6.56C4538.59,2065.97,4536.83,2065.97,4535.75,2064.89z M4512.08,2076.32h-9.28
			c-1.53,0-2.77-1.24-2.77-2.77v-9.28c0-1.53,1.24-2.77,2.77-2.77h9.28c1.53,0,2.77,1.24,2.77,2.77v9.28
			C4514.85,2075.08,4513.61,2076.32,4512.08,2076.32z M4489.75,2080.46l-10.06,10.06c-1.08,1.08-2.84,1.08-3.92,0l-24.29-24.29
			c-1.75-1.75-0.51-4.73,1.96-4.73h34.36c1.53,0,2.77,1.24,2.77,2.77v14.23C4490.56,2079.23,4490.27,2079.94,4489.75,2080.46z
			 M4496.87,2090.66l6.56,6.56c1.08,1.08,1.08,2.84,0,3.92l-6.56,6.56c-1.08,1.08-2.84,1.08-3.92,0l-6.56-6.56
			c-1.08-1.08-1.08-2.84,0-3.92l6.56-6.56C4494.03,2089.57,4495.78,2089.57,4496.87,2090.66z M4490.56,2119.85v14.23
			c0,1.53-1.24,2.77-2.77,2.77h-34.35c-2.47,0-3.7-2.98-1.96-4.73l24.29-24.29c1.08-1.08,2.84-1.08,3.92,0l10.06,10.06
			C4490.27,2118.41,4490.56,2119.12,4490.56,2119.85z M4502.81,2122.03h9.28c1.53,0,2.77,1.24,2.77,2.77v9.28
			c0,1.53-1.24,2.77-2.77,2.77h-9.28c-1.53,0-2.77-1.24-2.77-2.77v-9.28C4500.04,2123.27,4501.28,2122.03,4502.81,2122.03z
			 M4527.1,2122.03L4527.1,2122.03c0.73,0,1.44,0.29,1.96,0.81l0,0c1.08,1.08,1.08,2.84,0,3.92l0,0c-1.75,1.75-4.73,0.51-4.73-1.96
			v0C4524.33,2123.27,4525.57,2122.03,4527.1,2122.03z M4539.67,2133.46l6.56,6.56c1.08,1.08,1.08,2.84,0,3.92l-6.56,6.56
			c-1.08,1.08-2.84,1.08-3.92,0l-6.56-6.56c-1.08-1.08-1.08-2.84,0-3.92l6.56-6.56C4536.83,2132.38,4538.59,2132.38,4539.67,2133.46
			z M4563.34,2122.03h9.28c1.53,0,2.77,1.24,2.77,2.77v9.28c0,1.53-1.24,2.77-2.77,2.77h-9.28c-1.53,0-2.77-1.24-2.77-2.77v-9.28
			C4560.57,2123.27,4561.81,2122.03,4563.34,2122.03z M4585.67,2117.89l10.06-10.06c1.08-1.08,2.84-1.08,3.92,0l24.29,24.29
			c1.75,1.75,0.51,4.73-1.96,4.73h-34.35c-1.53,0-2.77-1.24-2.77-2.77v-14.23C4584.86,2119.12,4585.15,2118.41,4585.67,2117.89z
			 M4578.56,2107.7l-6.56-6.56c-1.08-1.08-1.08-2.84,0-3.92l6.56-6.56c1.08-1.08,2.84-1.08,3.92,0l6.56,6.56
			c1.08,1.08,1.08,2.84,0,3.92l-6.56,6.56C4581.39,2108.78,4579.64,2108.78,4578.56,2107.7z M4584.86,2078.5v-14.23
			c0-1.53,1.24-2.77,2.77-2.77h34.35c2.47,0,3.7,2.98,1.96,4.73l-24.29,24.29c-1.08,1.08-2.84,1.08-3.92,0l-10.06-10.06
			C4585.15,2079.94,4584.86,2079.23,4584.86,2078.5z M4584.86,2049.26v-35.14c0-2.47,2.98-3.7,4.73-1.96l35.14,35.14
			c1.75,1.75,0.51,4.73-1.96,4.73h-35.14C4586.1,2052.03,4584.86,2050.79,4584.86,2049.26z M4572.62,2052.03h-14.23
			c-0.73,0-1.44-0.29-1.96-0.81l-10.06-10.06c-1.08-1.08-1.08-2.84,0-3.92l24.29-24.29c1.75-1.75,4.73-0.51,4.73,1.96v34.35
			C4575.39,2050.79,4574.15,2052.03,4572.62,2052.03z M4535.75,2030.54l-24.85-24.85c-1.75-1.75-0.51-4.73,1.96-4.73h49.69
			c2.47,0,3.7,2.98,1.96,4.73l-24.85,24.85C4538.59,2031.62,4536.83,2031.62,4535.75,2030.54z M4529.06,2041.15l-10.06,10.06
			c-0.52,0.52-1.22,0.81-1.96,0.81h-14.23c-1.53,0-2.77-1.24-2.77-2.77v-34.35c0-2.47,2.98-3.7,4.73-1.96l24.29,24.29
			C4530.14,2038.32,4530.14,2040.07,4529.06,2041.15z M4487.79,2052.03h-35.14c-2.47,0-3.7-2.98-1.96-4.73l35.14-35.14
			c1.75-1.75,4.73-0.51,4.73,1.96v35.14C4490.56,2050.79,4489.32,2052.03,4487.79,2052.03z M4490.56,2149.09v35.14
			c0,2.47-2.98,3.7-4.73,1.96l-35.14-35.14c-1.75-1.75-0.51-4.73,1.96-4.73h35.14C4489.32,2146.32,4490.56,2147.56,4490.56,2149.09z
			 M4502.81,2146.32h14.23c0.73,0,1.44,0.29,1.96,0.81l10.06,10.06c1.08,1.08,1.08,2.84,0,3.92l-24.29,24.29
			c-1.75,1.75-4.73,0.51-4.73-1.96v-34.35C4500.04,2147.56,4501.28,2146.32,4502.81,2146.32z M4539.67,2167.81l24.85,24.85
			c1.75,1.75,0.51,4.73-1.96,4.73h-49.69c-2.47,0-3.7-2.98-1.96-4.73l24.85-24.85C4536.83,2166.73,4538.59,2166.73,4539.67,2167.81z
			 M4546.37,2157.2l10.06-10.06c0.52-0.52,1.22-0.81,1.96-0.81h14.23c1.53,0,2.77,1.24,2.77,2.77v34.36c0,2.47-2.98,3.7-4.73,1.96
			l-24.29-24.29C4545.29,2160.03,4545.29,2158.28,4546.37,2157.2z M4587.63,2146.32h35.14c2.47,0,3.7,2.98,1.96,4.73l-35.14,35.14
			c-1.75,1.75-4.73,0.51-4.73-1.96v-35.14C4584.86,2147.56,4586.1,2146.32,4587.63,2146.32z M4606.35,2097.22l24.85-24.85
			c1.75-1.75,4.73-0.51,4.73,1.96v49.69c0,2.47-2.98,3.7-4.73,1.96l-24.85-24.85C4605.27,2100.05,4605.27,2098.3,4606.35,2097.22z"
			/>
	</g>
	<g>
		<path class="st2" d="M4690.51,2133.28v-103.85c0-3.42,2.78-6.2,6.2-6.2l0,0c3.42,0,6.2,2.78,6.2,6.2v27.23
			c0,1.83,1.48,3.31,3.31,3.31h42.12c4.19,0,7.58,3.4,7.58,7.58v65.73c0,3.42-2.78,6.2-6.2,6.2l0,0c-3.42,0-6.2-2.78-6.2-6.2v-59.71
			c0-1.52-1.24-2.76-2.76-2.76h-34.54c-1.83,0-3.31,1.48-3.31,3.31v59.16c0,3.42-2.78,6.2-6.2,6.2l0,0
			C4693.29,2139.48,4690.51,2136.7,4690.51,2133.28z"/>
		<path class="st2" d="M4805.75,2164.12h37.02c1.42,0,2.58-1.15,2.58-2.58v-24.24c0-3.25,0.15-5.74,0.31-7.91h-0.47
			c-1.71,4.5-8.37,11.47-22.94,11.47c-17.51,0-29.92-13.33-29.92-31.77v-42.93c0-3.42,2.78-6.2,6.2-6.2l0,0c3.42,0,6.2,2.78,6.2,6.2
			v42.78c0,12.25,8.37,20.62,20.3,20.62c11.93,0,20.3-8.37,20.3-20.62v-42.78c0-3.42,2.78-6.2,6.2-6.2l0,0c3.42,0,6.2,2.78,6.2,6.2
			v100.59c0,4.63-3.75,8.38-8.38,8.38h-43.63c-3.04,0-5.5-2.46-5.5-5.5l0,0C4800.25,2166.58,4802.71,2164.12,4805.75,2164.12z"/>
		<path class="st2" d="M4938.35,2141.96c-14.26,0-26.19-6.2-30.53-15.5h-0.47c0.31,2.02,0.47,4.34,0.47,8.37v34.88
			c0,3-2.43,5.42-5.42,5.42h-1.55c-3,0-5.42-2.43-5.42-5.42v-104.31c0-3,2.43-5.42,5.42-5.42h0.78c3,0,5.42,2.43,5.42,5.42l0,0
			c0,3.72-0.16,6.04-0.46,8.37h0.46c5.27-8.99,16.74-16.27,31.93-16.27c23.71,0,40.61,17.82,40.61,42.16
			C4979.58,2124.13,4962.53,2141.96,4938.35,2141.96z M4907.35,2099.64c0,17.98,12.56,31.15,29.92,31.15
			c16.89,0,29.6-13.17,29.6-31.15s-12.71-31.15-29.6-31.15C4919.91,2068.49,4907.35,2081.66,4907.35,2099.64z"/>
		<path class="st2" d="M5055.22,2141.29c-27.1,4.72-51.79-17.73-49.78-45.16c1.64-22.39,18.88-38.65,41.72-38.65
			c23.25,0,39.21,18.13,39.21,42.16v0.05c0,2.97-2.41,5.38-5.38,5.38h-59.8c-1.55,0-2.66,1.44-2.32,2.95
			c3.13,13.71,13.97,22.78,28.6,22.78c8.78,0,15.99-3.03,21.72-8.4c2.12-1.98,5.42-1.93,7.44,0.14h0c2.02,2.07,2.01,5.36,0,7.45
			C5070.87,2135.98,5063.61,2139.83,5055.22,2141.29z M5022.43,2094.53h47.71c2.1,0,3.73-1.89,3.35-3.96
			c-2.41-12.97-12.52-22.08-26.49-22.08c-13.93,0-24.53,8.68-27.88,21.87C5018.59,2092.48,5020.24,2094.53,5022.43,2094.53z"/>
		<path class="st2" d="M5153.03,2065.46L5153.03,2065.46c0,3.04-2.46,5.5-5.5,5.5h-15.16c-1.43,0-2.58,1.16-2.58,2.58v59.73
			c0,3.42-2.78,6.2-6.2,6.2l0,0c-3.42,0-6.2-2.78-6.2-6.2v-64.57c0-4.83,3.91-8.74,8.74-8.74h21.41
			C5150.56,2059.96,5153.03,2062.42,5153.03,2065.46z"/>
		<path class="st2" d="M5243.73,2077.3c-2.16,2.16-5.62,2.05-7.76-0.12c-5.23-5.32-12.45-8.69-21.25-8.69
			c-17.21,0-29.61,13.02-29.61,31.15c0,17.83,12.4,31.15,29.61,31.15c9.24,0,16.67-3.82,21.96-9.52c2.08-2.23,5.55-2.39,7.73-0.25
			l0,0c2.02,1.98,2.14,5.18,0.3,7.33c-6.95,8.17-17.55,13.59-29.99,13.59c-22.67,0-39.07-14.96-41.88-35.83
			c-3.61-26.74,18.42-50.58,45.32-48.52c10.24,0.79,19.1,5.08,25.7,12.04c2.01,2.12,2,5.51-0.07,7.58L5243.73,2077.3z"/>
		<path class="st2" d="M5276.87,2133.22v-67.06c0-3.42,2.78-6.2,6.2-6.2l0,0c3.42,0,6.2,2.78,6.2,6.2v59.76
			c0,1.41,1.14,2.55,2.55,2.55h34.58c1.41,0,2.55-1.14,2.55-2.55v-59.76c0-3.42,2.78-6.2,6.2-6.2l0,0c3.42,0,6.2,2.78,6.2,6.2v67.06
			c0,3.45-2.8,6.25-6.25,6.25h-51.97C5279.67,2139.48,5276.87,2136.68,5276.87,2133.22z"/>
		<path class="st2" d="M5422.1,2141.96c-13.95,0-26.35-6.04-31.46-16.43h-0.46c0.31,2.48,0.46,5.12,0.46,8.68l0,0
			c0,2.91-2.36,5.27-5.27,5.27h-1.08c-2.91,0-5.27-2.36-5.27-5.27v-104.78c0-3.42,2.78-6.2,6.2-6.2l0,0c3.42,0,6.2,2.78,6.2,6.2
			v35.18c0,4.18-0.16,6.51-0.47,8.68h0.47c5.11-9.3,17.67-15.81,30.53-15.81c24.8,0,41.23,17.82,41.23,42.16
			C5463.18,2124.13,5446.9,2141.96,5422.1,2141.96z M5450.47,2099.64c0-18.13-12.71-31.15-29.76-31.15
			c-17.36,0-29.76,13.02-29.76,31.15c0,17.83,12.4,31.15,29.76,31.15C5437.76,2130.8,5450.47,2117.47,5450.47,2099.64z"/>
		<path class="st2" d="M5537.11,2141.55c-25.91,3.45-49.11-17.54-48.17-43.66c0.84-23.29,18.38-40.41,41.82-40.41
			c23.25,0,39.21,18.13,39.21,42.16v0.05c0,2.97-2.41,5.38-5.38,5.38h-60.65c-1.07,0-1.88,0.98-1.67,2.04
			c2.85,14.22,13.84,23.69,28.79,23.69c8.78,0,15.99-3.03,21.72-8.4c2.12-1.98,5.42-1.93,7.44,0.14h0c2.02,2.07,2.01,5.36,0,7.45
			C5554.08,2136.39,5546.22,2140.34,5537.11,2141.55z M5504.26,2094.53h51.13c1.19,0,2.12-1.05,1.97-2.23
			c-1.8-13.88-12.18-23.81-26.76-23.81c-14.55,0-25.48,9.48-28.29,23.69C5502.07,2093.39,5503.02,2094.53,5504.26,2094.53z"/>
	</g>
</g>
<g>
	<g>
		<path class="st1" d="M4645.39,2056.76c0-0.72-0.17-1.4-0.45-2.01c-0.23-0.63-0.59-1.23-1.1-1.73l-59.98-59.98
			c-0.49-0.49-1.08-0.86-1.73-1.09c-0.61-0.29-1.29-0.45-2.02-0.45h-84.82c-0.72,0-1.41,0.17-2.02,0.46
			c-0.64,0.23-1.23,0.6-1.72,1.09l-59.98,59.98c-0.49,0.49-0.86,1.08-1.09,1.72c-0.29,0.61-0.46,1.3-0.46,2.02v84.82
			c0,0.72,0.17,1.4,0.45,2.01c0.23,0.64,0.6,1.23,1.09,1.73l59.98,59.98c0.49,0.49,1.08,0.86,1.73,1.09
			c0.61,0.29,1.29,0.45,2.02,0.45h84.82c0.72,0,1.4-0.17,2.01-0.45c0.63-0.23,1.22-0.59,1.73-1.1l59.98-59.98
			c0.49-0.49,0.86-1.08,1.09-1.72c0.29-0.61,0.46-1.3,0.46-2.02V2056.76z M4444.23,2072.37l24.85,24.85c1.08,1.08,1.08,2.84,0,3.92
			l-24.85,24.85c-1.75,1.75-4.73,0.51-4.73-1.96v-49.69C4439.5,2071.86,4442.48,2070.63,4444.23,2072.37z M4546.37,2126.76
			L4546.37,2126.76c-1.08-1.08-1.08-2.84,0-3.92l0,0c0.52-0.52,1.22-0.81,1.96-0.81h0c1.53,0,2.77,1.24,2.77,2.77v0
			C4551.1,2127.27,4548.11,2128.51,4546.37,2126.76z M4529.05,2071.59L4529.05,2071.59c1.08,1.08,1.08,2.84,0,3.92l0,0
			c-0.52,0.52-1.22,0.81-1.96,0.81h0c-1.53,0-2.77-1.24-2.77-2.77v0C4524.33,2071.08,4527.31,2069.84,4529.05,2071.59z
			 M4531.36,2111.75l-6.22-6.22c-0.52-0.52-0.81-1.22-0.81-1.96v-8.79c0-0.73,0.29-1.44,0.81-1.96l6.22-6.22
			c0.52-0.52,1.22-0.81,1.96-0.81h8.79c0.73,0,1.44,0.29,1.96,0.81l6.22,6.22c0.52,0.52,0.81,1.22,0.81,1.96v8.79
			c0,0.73-0.29,1.44-0.81,1.96l-6.22,6.22c-0.52,0.52-1.22,0.81-1.96,0.81h-8.79C4532.58,2112.56,4531.88,2112.27,4531.36,2111.75z
			 M4514.04,2090.52L4514.04,2090.52c-1.08,1.08-2.84,1.08-3.92,0l0,0c-1.75-1.75-0.51-4.73,1.96-4.73h0c1.53,0,2.77,1.24,2.77,2.77
			v0C4514.85,2089.3,4514.56,2090,4514.04,2090.52z M4514.85,2109.79L4514.85,2109.79c0,1.53-1.24,2.77-2.77,2.77h0
			c-2.47,0-3.7-2.98-1.96-4.73l0,0c1.08-1.08,2.84-1.08,3.92,0l0,0C4514.56,2108.35,4514.85,2109.06,4514.85,2109.79z
			 M4561.38,2107.83L4561.38,2107.83c1.08-1.08,2.84-1.08,3.92,0l0,0c1.75,1.75,0.51,4.73-1.96,4.73h0c-1.53,0-2.77-1.24-2.77-2.77
			v0C4560.57,2109.06,4560.86,2108.35,4561.38,2107.83z M4560.57,2088.56L4560.57,2088.56c0-1.53,1.24-2.77,2.77-2.77h0
			c2.47,0,3.7,2.98,1.96,4.73l0,0c-1.08,1.08-2.84,1.08-3.92,0l0,0C4560.86,2090,4560.57,2089.3,4560.57,2088.56z M4572.62,2076.32
			h-9.28c-1.53,0-2.77-1.24-2.77-2.77v-9.28c0-1.53,1.24-2.77,2.77-2.77h9.28c1.53,0,2.77,1.24,2.77,2.77v9.28
			C4575.39,2075.08,4574.15,2076.32,4572.62,2076.32z M4548.33,2076.32L4548.33,2076.32c-0.74,0-1.44-0.29-1.96-0.81l0,0
			c-1.08-1.08-1.08-2.84,0-3.92l0,0c1.75-1.75,4.73-0.51,4.73,1.96v0C4551.1,2075.08,4549.86,2076.32,4548.33,2076.32z
			 M4535.75,2064.89l-6.56-6.56c-1.08-1.08-1.08-2.84,0-3.92l6.56-6.56c1.08-1.08,2.84-1.08,3.92,0l6.56,6.56
			c1.08,1.08,1.08,2.84,0,3.92l-6.56,6.56C4538.59,2065.97,4536.83,2065.97,4535.75,2064.89z M4512.08,2076.32h-9.28
			c-1.53,0-2.77-1.24-2.77-2.77v-9.28c0-1.53,1.24-2.77,2.77-2.77h9.28c1.53,0,2.77,1.24,2.77,2.77v9.28
			C4514.85,2075.08,4513.61,2076.32,4512.08,2076.32z M4489.75,2080.46l-10.06,10.06c-1.08,1.08-2.84,1.08-3.92,0l-24.29-24.29
			c-1.75-1.75-0.51-4.73,1.96-4.73h34.36c1.53,0,2.77,1.24,2.77,2.77v14.23C4490.56,2079.23,4490.27,2079.94,4489.75,2080.46z
			 M4496.87,2090.66l6.56,6.56c1.08,1.08,1.08,2.84,0,3.92l-6.56,6.56c-1.08,1.08-2.84,1.08-3.92,0l-6.56-6.56
			c-1.08-1.08-1.08-2.84,0-3.92l6.56-6.56C4494.03,2089.57,4495.78,2089.57,4496.87,2090.66z M4490.56,2119.85v14.23
			c0,1.53-1.24,2.77-2.77,2.77h-34.35c-2.47,0-3.7-2.98-1.96-4.73l24.29-24.29c1.08-1.08,2.84-1.08,3.92,0l10.06,10.06
			C4490.27,2118.41,4490.56,2119.12,4490.56,2119.85z M4502.81,2122.03h9.28c1.53,0,2.77,1.24,2.77,2.77v9.28
			c0,1.53-1.24,2.77-2.77,2.77h-9.28c-1.53,0-2.77-1.24-2.77-2.77v-9.28C4500.04,2123.27,4501.28,2122.03,4502.81,2122.03z
			 M4527.1,2122.03L4527.1,2122.03c0.73,0,1.44,0.29,1.96,0.81l0,0c1.08,1.08,1.08,2.84,0,3.92l0,0c-1.75,1.75-4.73,0.51-4.73-1.96
			v0C4524.33,2123.27,4525.57,2122.03,4527.1,2122.03z M4539.67,2133.46l6.56,6.56c1.08,1.08,1.08,2.84,0,3.92l-6.56,6.56
			c-1.08,1.08-2.84,1.08-3.92,0l-6.56-6.56c-1.08-1.08-1.08-2.84,0-3.92l6.56-6.56C4536.83,2132.38,4538.59,2132.38,4539.67,2133.46
			z M4563.34,2122.03h9.28c1.53,0,2.77,1.24,2.77,2.77v9.28c0,1.53-1.24,2.77-2.77,2.77h-9.28c-1.53,0-2.77-1.24-2.77-2.77v-9.28
			C4560.57,2123.27,4561.81,2122.03,4563.34,2122.03z M4585.67,2117.89l10.06-10.06c1.08-1.08,2.84-1.08,3.92,0l24.29,24.29
			c1.75,1.75,0.51,4.73-1.96,4.73h-34.35c-1.53,0-2.77-1.24-2.77-2.77v-14.23C4584.86,2119.12,4585.15,2118.41,4585.67,2117.89z
			 M4578.56,2107.7l-6.56-6.56c-1.08-1.08-1.08-2.84,0-3.92l6.56-6.56c1.08-1.08,2.84-1.08,3.92,0l6.56,6.56
			c1.08,1.08,1.08,2.84,0,3.92l-6.56,6.56C4581.39,2108.78,4579.64,2108.78,4578.56,2107.7z M4584.86,2078.5v-14.23
			c0-1.53,1.24-2.77,2.77-2.77h34.35c2.47,0,3.7,2.98,1.96,4.73l-24.29,24.29c-1.08,1.08-2.84,1.08-3.92,0l-10.06-10.06
			C4585.15,2079.94,4584.86,2079.23,4584.86,2078.5z M4584.86,2049.26v-35.14c0-2.47,2.98-3.7,4.73-1.96l35.14,35.14
			c1.75,1.75,0.51,4.73-1.96,4.73h-35.14C4586.1,2052.03,4584.86,2050.79,4584.86,2049.26z M4572.62,2052.03h-14.23
			c-0.73,0-1.44-0.29-1.96-0.81l-10.06-10.06c-1.08-1.08-1.08-2.84,0-3.92l24.29-24.29c1.75-1.75,4.73-0.51,4.73,1.96v34.35
			C4575.39,2050.79,4574.15,2052.03,4572.62,2052.03z M4535.75,2030.54l-24.85-24.85c-1.75-1.75-0.51-4.73,1.96-4.73h49.69
			c2.47,0,3.7,2.98,1.96,4.73l-24.85,24.85C4538.59,2031.62,4536.83,2031.62,4535.75,2030.54z M4529.06,2041.15l-10.06,10.06
			c-0.52,0.52-1.22,0.81-1.96,0.81h-14.23c-1.53,0-2.77-1.24-2.77-2.77v-34.35c0-2.47,2.98-3.7,4.73-1.96l24.29,24.29
			C4530.14,2038.32,4530.14,2040.07,4529.06,2041.15z M4487.79,2052.03h-35.14c-2.47,0-3.7-2.98-1.96-4.73l35.14-35.14
			c1.75-1.75,4.73-0.51,4.73,1.96v35.14C4490.56,2050.79,4489.32,2052.03,4487.79,2052.03z M4490.56,2149.09v35.14
			c0,2.47-2.98,3.7-4.73,1.96l-35.14-35.14c-1.75-1.75-0.51-4.73,1.96-4.73h35.14C4489.32,2146.32,4490.56,2147.56,4490.56,2149.09z
			 M4502.81,2146.32h14.23c0.73,0,1.44,0.29,1.96,0.81l10.06,10.06c1.08,1.08,1.08,2.84,0,3.92l-24.29,24.29
			c-1.75,1.75-4.73,0.51-4.73-1.96v-34.35C4500.04,2147.56,4501.28,2146.32,4502.81,2146.32z M4539.67,2167.81l24.85,24.85
			c1.75,1.75,0.51,4.73-1.96,4.73h-49.69c-2.47,0-3.7-2.98-1.96-4.73l24.85-24.85C4536.83,2166.73,4538.59,2166.73,4539.67,2167.81z
			 M4546.37,2157.2l10.06-10.06c0.52-0.52,1.22-0.81,1.96-0.81h14.23c1.53,0,2.77,1.24,2.77,2.77v34.36c0,2.47-2.98,3.7-4.73,1.96
			l-24.29-24.29C4545.29,2160.03,4545.29,2158.28,4546.37,2157.2z M4587.63,2146.32h35.14c2.47,0,3.7,2.98,1.96,4.73l-35.14,35.14
			c-1.75,1.75-4.73,0.51-4.73-1.96v-35.14C4584.86,2147.56,4586.1,2146.32,4587.63,2146.32z M4606.35,2097.22l24.85-24.85
			c1.75-1.75,4.73-0.51,4.73,1.96v49.69c0,2.47-2.98,3.7-4.73,1.96l-24.85-24.85C4605.27,2100.05,4605.27,2098.3,4606.35,2097.22z"
			/>
	</g>
	<g>
		<path class="st2" d="M4690.51,2133.28v-103.85c0-3.42,2.78-6.2,6.2-6.2l0,0c3.42,0,6.2,2.78,6.2,6.2v27.23
			c0,1.83,1.48,3.31,3.31,3.31h42.12c4.19,0,7.58,3.4,7.58,7.58v65.73c0,3.42-2.78,6.2-6.2,6.2l0,0c-3.42,0-6.2-2.78-6.2-6.2v-59.71
			c0-1.52-1.24-2.76-2.76-2.76h-34.54c-1.83,0-3.31,1.48-3.31,3.31v59.16c0,3.42-2.78,6.2-6.2,6.2l0,0
			C4693.29,2139.48,4690.51,2136.7,4690.51,2133.28z"/>
		<path class="st2" d="M4805.75,2164.12h37.02c1.42,0,2.58-1.15,2.58-2.58v-24.24c0-3.25,0.15-5.74,0.31-7.91h-0.47
			c-1.71,4.5-8.37,11.47-22.94,11.47c-17.51,0-29.92-13.33-29.92-31.77v-42.93c0-3.42,2.78-6.2,6.2-6.2l0,0c3.42,0,6.2,2.78,6.2,6.2
			v42.78c0,12.25,8.37,20.62,20.3,20.62c11.93,0,20.3-8.37,20.3-20.62v-42.78c0-3.42,2.78-6.2,6.2-6.2l0,0c3.42,0,6.2,2.78,6.2,6.2
			v100.59c0,4.63-3.75,8.38-8.38,8.38h-43.63c-3.04,0-5.5-2.46-5.5-5.5l0,0C4800.25,2166.58,4802.71,2164.12,4805.75,2164.12z"/>
		<path class="st2" d="M4938.35,2141.96c-14.26,0-26.19-6.2-30.53-15.5h-0.47c0.31,2.02,0.47,4.34,0.47,8.37v34.88
			c0,3-2.43,5.42-5.42,5.42h-1.55c-3,0-5.42-2.43-5.42-5.42v-104.31c0-3,2.43-5.42,5.42-5.42h0.78c3,0,5.42,2.43,5.42,5.42l0,0
			c0,3.72-0.16,6.04-0.46,8.37h0.46c5.27-8.99,16.74-16.27,31.93-16.27c23.71,0,40.61,17.82,40.61,42.16
			C4979.58,2124.13,4962.53,2141.96,4938.35,2141.96z M4907.35,2099.64c0,17.98,12.56,31.15,29.92,31.15
			c16.89,0,29.6-13.17,29.6-31.15s-12.71-31.15-29.6-31.15C4919.91,2068.49,4907.35,2081.66,4907.35,2099.64z"/>
		<path class="st2" d="M5055.22,2141.29c-27.1,4.72-51.79-17.73-49.78-45.16c1.64-22.39,18.88-38.65,41.72-38.65
			c23.25,0,39.21,18.13,39.21,42.16v0.05c0,2.97-2.41,5.38-5.38,5.38h-59.8c-1.55,0-2.66,1.44-2.32,2.95
			c3.13,13.71,13.97,22.78,28.6,22.78c8.78,0,15.99-3.03,21.72-8.4c2.12-1.98,5.42-1.93,7.44,0.14h0c2.02,2.07,2.01,5.36,0,7.45
			C5070.87,2135.98,5063.61,2139.83,5055.22,2141.29z M5022.43,2094.53h47.71c2.1,0,3.73-1.89,3.35-3.96
			c-2.41-12.97-12.52-22.08-26.49-22.08c-13.93,0-24.53,8.68-27.88,21.87C5018.59,2092.48,5020.24,2094.53,5022.43,2094.53z"/>
		<path class="st2" d="M5153.03,2065.46L5153.03,2065.46c0,3.04-2.46,5.5-5.5,5.5h-15.16c-1.43,0-2.58,1.16-2.58,2.58v59.73
			c0,3.42-2.78,6.2-6.2,6.2l0,0c-3.42,0-6.2-2.78-6.2-6.2v-64.57c0-4.83,3.91-8.74,8.74-8.74h21.41
			C5150.56,2059.96,5153.03,2062.42,5153.03,2065.46z"/>
		<path class="st2" d="M5243.73,2077.3c-2.16,2.16-5.62,2.05-7.76-0.12c-5.23-5.32-12.45-8.69-21.25-8.69
			c-17.21,0-29.61,13.02-29.61,31.15c0,17.83,12.4,31.15,29.61,31.15c9.24,0,16.67-3.82,21.96-9.52c2.08-2.23,5.55-2.39,7.73-0.25
			l0,0c2.02,1.98,2.14,5.18,0.3,7.33c-6.95,8.17-17.55,13.59-29.99,13.59c-22.67,0-39.07-14.96-41.88-35.83
			c-3.61-26.74,18.42-50.58,45.32-48.52c10.24,0.79,19.1,5.08,25.7,12.04c2.01,2.12,2,5.51-0.07,7.58L5243.73,2077.3z"/>
		<path class="st2" d="M5276.87,2133.22v-67.06c0-3.42,2.78-6.2,6.2-6.2l0,0c3.42,0,6.2,2.78,6.2,6.2v59.76
			c0,1.41,1.14,2.55,2.55,2.55h34.58c1.41,0,2.55-1.14,2.55-2.55v-59.76c0-3.42,2.78-6.2,6.2-6.2l0,0c3.42,0,6.2,2.78,6.2,6.2v67.06
			c0,3.45-2.8,6.25-6.25,6.25h-51.97C5279.67,2139.48,5276.87,2136.68,5276.87,2133.22z"/>
		<path class="st2" d="M5422.1,2141.96c-13.95,0-26.35-6.04-31.46-16.43h-0.46c0.31,2.48,0.46,5.12,0.46,8.68l0,0
			c0,2.91-2.36,5.27-5.27,5.27h-1.08c-2.91,0-5.27-2.36-5.27-5.27v-104.78c0-3.42,2.78-6.2,6.2-6.2l0,0c3.42,0,6.2,2.78,6.2,6.2
			v35.18c0,4.18-0.16,6.51-0.47,8.68h0.47c5.11-9.3,17.67-15.81,30.53-15.81c24.8,0,41.23,17.82,41.23,42.16
			C5463.18,2124.13,5446.9,2141.96,5422.1,2141.96z M5450.47,2099.64c0-18.13-12.71-31.15-29.76-31.15
			c-17.36,0-29.76,13.02-29.76,31.15c0,17.83,12.4,31.15,29.76,31.15C5437.76,2130.8,5450.47,2117.47,5450.47,2099.64z"/>
		<path class="st2" d="M5537.11,2141.55c-25.91,3.45-49.11-17.54-48.17-43.66c0.84-23.29,18.38-40.41,41.82-40.41
			c23.25,0,39.21,18.13,39.21,42.16v0.05c0,2.97-2.41,5.38-5.38,5.38h-60.65c-1.07,0-1.88,0.98-1.67,2.04
			c2.85,14.22,13.84,23.69,28.79,23.69c8.78,0,15.99-3.03,21.72-8.4c2.12-1.98,5.42-1.93,7.44,0.14h0c2.02,2.07,2.01,5.36,0,7.45
			C5554.08,2136.39,5546.22,2140.34,5537.11,2141.55z M5504.26,2094.53h51.13c1.19,0,2.12-1.05,1.97-2.23
			c-1.8-13.88-12.18-23.81-26.76-23.81c-14.55,0-25.48,9.48-28.29,23.69C5502.07,2093.39,5503.02,2094.53,5504.26,2094.53z"/>
	</g>
</g>
<g>
	<g>
		<path class="st1" d="M605.39,497.59c0-0.72-0.16-1.4-0.45-2.01c-0.23-0.63-0.59-1.23-1.1-1.73l-59.98-59.98
			c-0.49-0.49-1.08-0.86-1.73-1.09c-0.61-0.29-1.29-0.45-2.02-0.45H455.3c-0.72,0-1.41,0.17-2.02,0.46
			c-0.64,0.23-1.23,0.6-1.72,1.09l-59.98,59.98c-0.49,0.49-0.86,1.08-1.09,1.72c-0.29,0.61-0.46,1.3-0.46,2.02v84.82
			c0,0.72,0.17,1.4,0.45,2.02c0.23,0.64,0.6,1.23,1.09,1.73l59.98,59.98c0.49,0.49,1.08,0.86,1.73,1.09
			c0.61,0.29,1.29,0.45,2.02,0.45h84.82c0.72,0,1.4-0.17,2.01-0.45c0.63-0.23,1.22-0.59,1.73-1.1l59.98-59.98
			c0.49-0.49,0.86-1.08,1.09-1.72c0.29-0.61,0.46-1.3,0.46-2.02V497.59z M404.23,513.2l24.85,24.85c1.08,1.08,1.08,2.84,0,3.92
			l-24.85,24.85c-1.75,1.75-4.73,0.51-4.73-1.96v-49.69C399.5,512.69,402.48,511.45,404.23,513.2z M506.37,567.59L506.37,567.59
			c-1.08-1.08-1.08-2.84,0-3.92l0,0c0.52-0.52,1.22-0.81,1.96-0.81h0c1.53,0,2.77,1.24,2.77,2.77v0
			C511.1,568.1,508.11,569.33,506.37,567.59z M489.05,512.41L489.05,512.41c1.08,1.08,1.08,2.84,0,3.92l0,0
			c-0.52,0.52-1.22,0.81-1.96,0.81h0c-1.53,0-2.77-1.24-2.77-2.77v0C484.33,511.9,487.31,510.67,489.05,512.41z M491.36,552.57
			l-6.22-6.22c-0.52-0.52-0.81-1.22-0.81-1.96v-8.79c0-0.73,0.29-1.44,0.81-1.96l6.22-6.22c0.52-0.52,1.22-0.81,1.96-0.81h8.79
			c0.73,0,1.44,0.29,1.96,0.81l6.22,6.22c0.52,0.52,0.81,1.22,0.81,1.96v8.79c0,0.73-0.29,1.44-0.81,1.96l-6.22,6.22
			c-0.52,0.52-1.22,0.81-1.96,0.81h-8.79C492.58,553.39,491.87,553.09,491.36,552.57z M474.04,531.34L474.04,531.34
			c-1.08,1.08-2.84,1.08-3.92,0l0,0c-1.75-1.75-0.51-4.73,1.96-4.73h0c1.53,0,2.77,1.24,2.77,2.77v0
			C474.85,530.12,474.56,530.82,474.04,531.34z M474.85,550.62L474.85,550.62c0,1.53-1.24,2.77-2.77,2.77h0
			c-2.47,0-3.7-2.98-1.96-4.73l0,0c1.08-1.08,2.84-1.08,3.92,0l0,0C474.56,549.18,474.85,549.88,474.85,550.62z M521.38,548.66
			L521.38,548.66c1.08-1.08,2.84-1.08,3.92,0l0,0c1.75,1.75,0.51,4.73-1.96,4.73h0c-1.53,0-2.77-1.24-2.77-2.77v0
			C520.57,549.88,520.86,549.18,521.38,548.66z M520.57,529.38L520.57,529.38c0-1.53,1.24-2.77,2.77-2.77h0
			c2.47,0,3.7,2.98,1.96,4.73l0,0c-1.08,1.08-2.84,1.08-3.92,0l0,0C520.86,530.82,520.57,530.12,520.57,529.38z M532.62,517.14
			h-9.28c-1.53,0-2.77-1.24-2.77-2.77v-9.28c0-1.53,1.24-2.77,2.77-2.77h9.28c1.53,0,2.77,1.24,2.77,2.77v9.28
			C535.39,515.9,534.15,517.14,532.62,517.14z M508.33,517.14L508.33,517.14c-0.74,0-1.44-0.29-1.96-0.81l0,0
			c-1.08-1.08-1.08-2.84,0-3.92l0,0c1.75-1.75,4.73-0.51,4.73,1.96v0C511.1,515.9,509.86,517.14,508.33,517.14z M495.75,505.72
			l-6.56-6.56c-1.08-1.08-1.08-2.84,0-3.92l6.56-6.56c1.08-1.08,2.84-1.08,3.92,0l6.56,6.56c1.08,1.08,1.08,2.84,0,3.92l-6.56,6.56
			C498.59,506.8,496.83,506.8,495.75,505.72z M472.08,517.14h-9.28c-1.53,0-2.77-1.24-2.77-2.77v-9.28c0-1.53,1.24-2.77,2.77-2.77
			h9.28c1.53,0,2.77,1.24,2.77,2.77v9.28C474.85,515.9,473.61,517.14,472.08,517.14z M449.75,521.28l-10.06,10.06
			c-1.08,1.08-2.84,1.08-3.92,0l-24.29-24.29c-1.75-1.75-0.51-4.73,1.96-4.73h34.36c1.53,0,2.77,1.24,2.77,2.77v14.23
			C450.56,520.06,450.27,520.76,449.75,521.28z M456.87,531.48l6.56,6.56c1.08,1.08,1.08,2.84,0,3.92l-6.56,6.56
			c-1.08,1.08-2.84,1.08-3.92,0l-6.56-6.56c-1.08-1.08-1.08-2.84,0-3.92l6.56-6.56C454.03,530.4,455.78,530.4,456.87,531.48z
			 M450.56,560.68v14.23c0,1.53-1.24,2.77-2.77,2.77h-34.35c-2.47,0-3.7-2.98-1.96-4.73l24.29-24.29c1.08-1.08,2.84-1.08,3.92,0
			l10.06,10.06C450.27,559.24,450.56,559.94,450.56,560.68z M462.81,562.86h9.28c1.53,0,2.77,1.24,2.77,2.77v9.28
			c0,1.53-1.24,2.77-2.77,2.77h-9.28c-1.53,0-2.77-1.24-2.77-2.77v-9.28C460.04,564.1,461.28,562.86,462.81,562.86z M487.1,562.86
			L487.1,562.86c0.73,0,1.44,0.29,1.96,0.81l0,0c1.08,1.08,1.08,2.84,0,3.92l0,0c-1.75,1.75-4.73,0.51-4.73-1.96v0
			C484.33,564.1,485.57,562.86,487.1,562.86z M499.67,574.28l6.56,6.56c1.08,1.08,1.08,2.84,0,3.92l-6.56,6.56
			c-1.08,1.08-2.84,1.08-3.92,0l-6.56-6.56c-1.08-1.08-1.08-2.84,0-3.92l6.56-6.56C496.83,573.2,498.59,573.2,499.67,574.28z
			 M523.34,562.86h9.28c1.53,0,2.77,1.24,2.77,2.77v9.28c0,1.53-1.24,2.77-2.77,2.77h-9.28c-1.53,0-2.77-1.24-2.77-2.77v-9.28
			C520.57,564.1,521.81,562.86,523.34,562.86z M545.67,558.72l10.06-10.06c1.08-1.08,2.84-1.08,3.92,0l24.29,24.29
			c1.75,1.75,0.51,4.73-1.96,4.73h-34.35c-1.53,0-2.77-1.24-2.77-2.77v-14.23C544.86,559.94,545.15,559.24,545.67,558.72z
			 M538.56,548.52l-6.56-6.56c-1.08-1.08-1.08-2.84,0-3.92l6.56-6.56c1.08-1.08,2.84-1.08,3.92,0l6.56,6.56
			c1.08,1.08,1.08,2.84,0,3.92l-6.56,6.56C541.39,549.6,539.64,549.6,538.56,548.52z M544.86,519.32v-14.23
			c0-1.53,1.24-2.77,2.77-2.77h34.35c2.47,0,3.7,2.98,1.96,4.73l-24.29,24.29c-1.08,1.08-2.84,1.08-3.92,0l-10.06-10.06
			C545.15,520.76,544.86,520.06,544.86,519.32z M544.86,490.08v-35.14c0-2.47,2.98-3.7,4.73-1.96l35.14,35.14
			c1.75,1.75,0.51,4.73-1.96,4.73h-35.14C546.1,492.85,544.86,491.61,544.86,490.08z M532.62,492.85h-14.23
			c-0.73,0-1.44-0.29-1.96-0.81l-10.06-10.06c-1.08-1.08-1.08-2.84,0-3.92l24.29-24.29c1.75-1.75,4.73-0.51,4.73,1.96v34.35
			C535.39,491.61,534.15,492.85,532.62,492.85z M495.75,471.36l-24.85-24.85c-1.75-1.75-0.51-4.73,1.96-4.73h49.69
			c2.47,0,3.7,2.98,1.96,4.73l-24.85,24.85C498.59,472.45,496.83,472.45,495.75,471.36z M489.06,481.98l-10.06,10.06
			c-0.52,0.52-1.22,0.81-1.96,0.81H462.8c-1.53,0-2.77-1.24-2.77-2.77v-34.35c0-2.47,2.98-3.7,4.73-1.96l24.29,24.29
			C490.14,479.14,490.14,480.9,489.06,481.98z M447.79,492.85h-35.14c-2.47,0-3.7-2.98-1.96-4.73l35.14-35.14
			c1.75-1.75,4.73-0.51,4.73,1.96v35.14C450.56,491.61,449.32,492.85,447.79,492.85z M450.56,589.92v35.14
			c0,2.47-2.98,3.7-4.73,1.96l-35.14-35.14c-1.75-1.75-0.51-4.73,1.96-4.73h35.14C449.32,587.15,450.56,588.39,450.56,589.92z
			 M462.81,587.15h14.23c0.73,0,1.44,0.29,1.96,0.81l10.06,10.06c1.08,1.08,1.08,2.84,0,3.92l-24.29,24.29
			c-1.75,1.75-4.73,0.51-4.73-1.96v-34.35C460.04,588.39,461.28,587.15,462.81,587.15z M499.67,608.64l24.85,24.85
			c1.75,1.75,0.51,4.73-1.96,4.73h-49.69c-2.47,0-3.7-2.98-1.96-4.73l24.85-24.85C496.83,607.55,498.59,607.55,499.67,608.64z
			 M506.37,598.02l10.06-10.06c0.52-0.52,1.22-0.81,1.96-0.81h14.23c1.53,0,2.77,1.24,2.77,2.77v34.36c0,2.47-2.98,3.7-4.73,1.96
			l-24.29-24.29C505.29,600.86,505.29,599.1,506.37,598.02z M547.63,587.15h35.14c2.47,0,3.7,2.98,1.96,4.73l-35.14,35.14
			c-1.75,1.75-4.73,0.51-4.73-1.96v-35.14C544.86,588.39,546.1,587.15,547.63,587.15z M566.35,538.04l24.85-24.85
			c1.75-1.75,4.73-0.51,4.73,1.96v49.69c0,2.47-2.98,3.7-4.73,1.96l-24.85-24.85C565.27,540.88,565.27,539.12,566.35,538.04z"/>
	</g>
	<g>
		<path class="st2" d="M650.51,574.1V470.25c0-3.42,2.78-6.2,6.2-6.2h0c3.42,0,6.2,2.78,6.2,6.2v27.23c0,1.83,1.48,3.31,3.31,3.31
			h42.12c4.19,0,7.58,3.4,7.58,7.58v65.73c0,3.42-2.78,6.2-6.2,6.2h0c-3.42,0-6.2-2.78-6.2-6.2v-59.71c0-1.52-1.24-2.76-2.76-2.76
			h-34.54c-1.83,0-3.31,1.48-3.31,3.31v59.16c0,3.42-2.78,6.2-6.2,6.2h0C653.29,580.3,650.51,577.52,650.51,574.1z"/>
		<path class="st2" d="M765.75,604.94h37.02c1.42,0,2.58-1.15,2.58-2.58v-24.24c0-3.25,0.15-5.74,0.31-7.91h-0.47
			c-1.71,4.5-8.37,11.47-22.94,11.47c-17.51,0-29.92-13.33-29.92-31.77v-42.93c0-3.42,2.78-6.2,6.2-6.2h0c3.42,0,6.2,2.78,6.2,6.2
			v42.78c0,12.25,8.37,20.62,20.3,20.62c11.93,0,20.3-8.37,20.3-20.62v-42.78c0-3.42,2.78-6.2,6.2-6.2h0c3.42,0,6.2,2.78,6.2,6.2
			v100.59c0,4.63-3.75,8.38-8.38,8.38h-43.63c-3.04,0-5.5-2.46-5.5-5.5l0,0C760.25,607.41,762.71,604.94,765.75,604.94z"/>
		<path class="st2" d="M898.35,582.78c-14.26,0-26.19-6.2-30.53-15.5h-0.47c0.31,2.02,0.47,4.34,0.47,8.37v34.88
			c0,3-2.43,5.42-5.42,5.42h-1.55c-3,0-5.42-2.43-5.42-5.42V506.21c0-3,2.43-5.42,5.42-5.42h0.78c3,0,5.42,2.43,5.42,5.42l0,0
			c0,3.72-0.16,6.04-0.46,8.37h0.46c5.27-8.99,16.74-16.27,31.93-16.27c23.71,0,40.61,17.82,40.61,42.16
			C939.58,564.96,922.53,582.78,898.35,582.78z M867.35,540.46c0,17.98,12.56,31.15,29.92,31.15c16.89,0,29.6-13.17,29.6-31.15
			s-12.71-31.15-29.6-31.15C879.91,509.31,867.35,522.49,867.35,540.46z"/>
		<path class="st2" d="M1015.22,582.11c-27.1,4.72-51.79-17.73-49.78-45.16c1.64-22.39,18.88-38.65,41.72-38.65
			c23.25,0,39.21,18.13,39.21,42.16v0.05c0,2.97-2.41,5.38-5.38,5.38l-59.8,0c-1.55,0-2.66,1.44-2.32,2.95
			c3.13,13.71,13.97,22.78,28.6,22.78c8.78,0,15.99-3.03,21.72-8.4c2.11-1.98,5.42-1.93,7.44,0.14l0,0c2.02,2.07,2.01,5.36,0,7.45
			C1030.87,576.81,1023.61,580.65,1015.22,582.11z M982.43,535.35h47.71c2.1,0,3.73-1.89,3.35-3.96
			c-2.41-12.97-12.52-22.08-26.49-22.08c-13.93,0-24.53,8.68-27.88,21.87C978.59,533.3,980.24,535.35,982.43,535.35z"/>
		<path class="st2" d="M1113.03,506.29L1113.03,506.29c0,3.04-2.46,5.5-5.5,5.5h-15.16c-1.43,0-2.58,1.16-2.58,2.58v59.73
			c0,3.42-2.78,6.2-6.2,6.2l0,0c-3.42,0-6.2-2.78-6.2-6.2v-64.57c0-4.83,3.91-8.74,8.74-8.74h21.41
			C1110.56,500.79,1113.03,503.25,1113.03,506.29z"/>
		<path class="st2" d="M1203.72,518.12c-2.16,2.16-5.62,2.05-7.76-0.12c-5.23-5.32-12.45-8.69-21.25-8.69
			c-17.21,0-29.61,13.02-29.61,31.15c0,17.83,12.4,31.15,29.61,31.15c9.24,0,16.66-3.82,21.96-9.52c2.08-2.23,5.55-2.39,7.73-0.25
			l0,0c2.02,1.98,2.14,5.18,0.3,7.33c-6.95,8.17-17.55,13.59-29.99,13.59c-22.67,0-39.07-14.96-41.88-35.83
			c-3.61-26.74,18.42-50.58,45.32-48.52c10.24,0.79,19.1,5.08,25.7,12.04c2.01,2.12,2,5.51-0.07,7.58L1203.72,518.12z"/>
		<path class="st2" d="M1236.87,574.05v-67.06c0-3.42,2.78-6.2,6.2-6.2l0,0c3.42,0,6.2,2.78,6.2,6.2v59.76
			c0,1.41,1.14,2.55,2.55,2.55h34.58c1.41,0,2.55-1.14,2.55-2.55v-59.76c0-3.42,2.78-6.2,6.2-6.2l0,0c3.42,0,6.2,2.78,6.2,6.2v67.06
			c0,3.45-2.8,6.25-6.25,6.25h-51.97C1239.67,580.3,1236.87,577.5,1236.87,574.05z"/>
		<path class="st2" d="M1382.1,582.78c-13.95,0-26.35-6.04-31.46-16.43h-0.46c0.31,2.48,0.46,5.12,0.46,8.68l0,0
			c0,2.91-2.36,5.27-5.27,5.27h-1.08c-2.91,0-5.27-2.36-5.27-5.27V470.25c0-3.42,2.78-6.2,6.2-6.2l0,0c3.42,0,6.2,2.78,6.2,6.2
			v35.18c0,4.18-0.16,6.51-0.47,8.68h0.47c5.11-9.3,17.67-15.81,30.53-15.81c24.8,0,41.23,17.82,41.23,42.16
			C1423.18,564.96,1406.9,582.78,1382.1,582.78z M1410.47,540.46c0-18.13-12.71-31.15-29.76-31.15c-17.36,0-29.76,13.02-29.76,31.15
			c0,17.83,12.4,31.15,29.76,31.15C1397.76,571.62,1410.47,558.29,1410.47,540.46z"/>
		<path class="st2" d="M1497.11,582.38c-25.91,3.45-49.11-17.54-48.17-43.66c0.84-23.29,18.38-40.41,41.82-40.41
			c23.25,0,39.21,18.13,39.21,42.16v0.05c0,2.97-2.41,5.38-5.38,5.38l-60.65,0c-1.07,0-1.88,0.98-1.67,2.04
			c2.85,14.22,13.84,23.69,28.79,23.69c8.78,0,15.99-3.03,21.72-8.4c2.11-1.98,5.42-1.93,7.44,0.14l0,0c2.02,2.07,2.01,5.36,0,7.45
			C1514.08,577.21,1506.22,581.16,1497.11,582.38z M1464.26,535.35h51.13c1.19,0,2.12-1.05,1.97-2.23
			c-1.8-13.88-12.18-23.81-26.76-23.81c-14.55,0-25.48,9.48-28.29,23.69C1462.07,534.22,1463.02,535.35,1464.26,535.35z"/>
	</g>
</g>
<g>
	<g>
		<path d="M2625.39,497.59c0-0.72-0.17-1.4-0.45-2.01c-0.23-0.63-0.59-1.23-1.1-1.73l-59.98-59.98c-0.49-0.49-1.08-0.86-1.73-1.09
			c-0.61-0.29-1.29-0.45-2.02-0.45h-84.82c-0.72,0-1.41,0.17-2.02,0.46c-0.64,0.23-1.23,0.6-1.72,1.09l-59.98,59.98
			c-0.49,0.49-0.86,1.08-1.09,1.72c-0.29,0.61-0.46,1.3-0.46,2.02v84.82c0,0.72,0.17,1.4,0.45,2.02c0.23,0.64,0.6,1.23,1.09,1.73
			l59.98,59.98c0.49,0.49,1.08,0.86,1.73,1.09c0.61,0.29,1.29,0.45,2.01,0.45h84.82c0.72,0,1.4-0.17,2.01-0.45
			c0.63-0.23,1.22-0.59,1.73-1.1l59.98-59.98c0.49-0.49,0.86-1.08,1.09-1.72c0.29-0.61,0.46-1.3,0.46-2.02V497.59z M2424.23,513.2
			l24.85,24.85c1.08,1.08,1.08,2.84,0,3.92l-24.85,24.85c-1.75,1.75-4.73,0.51-4.73-1.96v-49.69
			C2419.5,512.69,2422.48,511.45,2424.23,513.2z M2526.37,567.59L2526.37,567.59c-1.08-1.08-1.08-2.84,0-3.92l0,0
			c0.52-0.52,1.22-0.81,1.96-0.81h0c1.53,0,2.77,1.24,2.77,2.77v0C2531.1,568.1,2528.11,569.33,2526.37,567.59z M2509.05,512.41
			L2509.05,512.41c1.08,1.08,1.08,2.84,0,3.92l0,0c-0.52,0.52-1.22,0.81-1.96,0.81h0c-1.53,0-2.77-1.24-2.77-2.77v0
			C2504.33,511.9,2507.31,510.67,2509.05,512.41z M2511.36,552.57l-6.22-6.22c-0.52-0.52-0.81-1.22-0.81-1.96v-8.79
			c0-0.73,0.29-1.44,0.81-1.96l6.22-6.22c0.52-0.52,1.22-0.81,1.96-0.81h8.79c0.73,0,1.44,0.29,1.96,0.81l6.22,6.22
			c0.52,0.52,0.81,1.22,0.81,1.96v8.79c0,0.73-0.29,1.44-0.81,1.96l-6.22,6.22c-0.52,0.52-1.22,0.81-1.96,0.81h-8.79
			C2512.58,553.39,2511.87,553.09,2511.36,552.57z M2494.04,531.34L2494.04,531.34c-1.08,1.08-2.84,1.08-3.92,0l0,0
			c-1.75-1.75-0.51-4.73,1.96-4.73h0c1.53,0,2.77,1.24,2.77,2.77v0C2494.85,530.12,2494.56,530.82,2494.04,531.34z M2494.85,550.62
			L2494.85,550.62c0,1.53-1.24,2.77-2.77,2.77h0c-2.47,0-3.7-2.98-1.96-4.73l0,0c1.08-1.08,2.84-1.08,3.92,0l0,0
			C2494.56,549.18,2494.85,549.88,2494.85,550.62z M2541.38,548.66L2541.38,548.66c1.08-1.08,2.84-1.08,3.92,0l0,0
			c1.75,1.75,0.51,4.73-1.96,4.73h0c-1.53,0-2.77-1.24-2.77-2.77v0C2540.57,549.88,2540.86,549.18,2541.38,548.66z M2540.57,529.38
			L2540.57,529.38c0-1.53,1.24-2.77,2.77-2.77h0c2.47,0,3.7,2.98,1.96,4.73l0,0c-1.08,1.08-2.84,1.08-3.92,0l0,0
			C2540.86,530.82,2540.57,530.12,2540.57,529.38z M2552.62,517.14h-9.28c-1.53,0-2.77-1.24-2.77-2.77v-9.28
			c0-1.53,1.24-2.77,2.77-2.77h9.28c1.53,0,2.77,1.24,2.77,2.77v9.28C2555.39,515.9,2554.15,517.14,2552.62,517.14z M2528.33,517.14
			L2528.33,517.14c-0.73,0-1.44-0.29-1.96-0.81l0,0c-1.08-1.08-1.08-2.84,0-3.92l0,0c1.75-1.75,4.73-0.51,4.73,1.96v0
			C2531.1,515.9,2529.86,517.14,2528.33,517.14z M2515.75,505.72l-6.56-6.56c-1.08-1.08-1.08-2.84,0-3.92l6.56-6.56
			c1.08-1.08,2.84-1.08,3.92,0l6.56,6.56c1.08,1.08,1.08,2.84,0,3.92l-6.56,6.56C2518.59,506.8,2516.83,506.8,2515.75,505.72z
			 M2492.08,517.14h-9.28c-1.53,0-2.77-1.24-2.77-2.77v-9.28c0-1.53,1.24-2.77,2.77-2.77h9.28c1.53,0,2.77,1.24,2.77,2.77v9.28
			C2494.85,515.9,2493.61,517.14,2492.08,517.14z M2469.75,521.28l-10.06,10.06c-1.08,1.08-2.84,1.08-3.92,0l-24.29-24.29
			c-1.75-1.75-0.51-4.73,1.96-4.73h34.35c1.53,0,2.77,1.24,2.77,2.77v14.23C2470.56,520.06,2470.27,520.76,2469.75,521.28z
			 M2476.87,531.48l6.56,6.56c1.08,1.08,1.08,2.84,0,3.92l-6.56,6.56c-1.08,1.08-2.84,1.08-3.92,0l-6.56-6.56
			c-1.08-1.08-1.08-2.84,0-3.92l6.56-6.56C2474.03,530.4,2475.78,530.4,2476.87,531.48z M2470.56,560.68v14.23
			c0,1.53-1.24,2.77-2.77,2.77h-34.35c-2.47,0-3.7-2.98-1.96-4.73l24.29-24.29c1.08-1.08,2.84-1.08,3.92,0l10.06,10.06
			C2470.27,559.24,2470.56,559.94,2470.56,560.68z M2482.81,562.86h9.28c1.53,0,2.77,1.24,2.77,2.77v9.28
			c0,1.53-1.24,2.77-2.77,2.77h-9.28c-1.53,0-2.77-1.24-2.77-2.77v-9.28C2480.03,564.1,2481.28,562.86,2482.81,562.86z
			 M2507.1,562.86L2507.1,562.86c0.73,0,1.44,0.29,1.96,0.81l0,0c1.08,1.08,1.08,2.84,0,3.92l0,0c-1.75,1.75-4.73,0.51-4.73-1.96v0
			C2504.33,564.1,2505.57,562.86,2507.1,562.86z M2519.67,574.28l6.56,6.56c1.08,1.08,1.08,2.84,0,3.92l-6.56,6.56
			c-1.08,1.08-2.84,1.08-3.92,0l-6.56-6.56c-1.08-1.08-1.08-2.84,0-3.92l6.56-6.56C2516.83,573.2,2518.59,573.2,2519.67,574.28z
			 M2543.34,562.86h9.28c1.53,0,2.77,1.24,2.77,2.77v9.28c0,1.53-1.24,2.77-2.77,2.77h-9.28c-1.53,0-2.77-1.24-2.77-2.77v-9.28
			C2540.57,564.1,2541.81,562.86,2543.34,562.86z M2565.67,558.72l10.06-10.06c1.08-1.08,2.84-1.08,3.92,0l24.29,24.29
			c1.75,1.75,0.51,4.73-1.96,4.73h-34.35c-1.53,0-2.77-1.24-2.77-2.77v-14.23C2564.86,559.94,2565.15,559.24,2565.67,558.72z
			 M2558.56,548.52l-6.56-6.56c-1.08-1.08-1.08-2.84,0-3.92l6.56-6.56c1.08-1.08,2.84-1.08,3.92,0l6.56,6.56
			c1.08,1.08,1.08,2.84,0,3.92l-6.56,6.56C2561.39,549.6,2559.64,549.6,2558.56,548.52z M2564.86,519.32v-14.23
			c0-1.53,1.24-2.77,2.77-2.77h34.35c2.47,0,3.7,2.98,1.96,4.73l-24.29,24.29c-1.08,1.08-2.84,1.08-3.92,0l-10.06-10.06
			C2565.15,520.76,2564.86,520.06,2564.86,519.32z M2564.86,490.08v-35.14c0-2.47,2.98-3.7,4.73-1.96l35.14,35.14
			c1.75,1.75,0.51,4.73-1.96,4.73h-35.14C2566.1,492.85,2564.86,491.61,2564.86,490.08z M2552.62,492.85h-14.23
			c-0.73,0-1.44-0.29-1.96-0.81l-10.06-10.06c-1.08-1.08-1.08-2.84,0-3.92l24.29-24.29c1.75-1.75,4.73-0.51,4.73,1.96v34.35
			C2555.39,491.61,2554.15,492.85,2552.62,492.85z M2515.75,471.36l-24.85-24.85c-1.75-1.75-0.51-4.73,1.96-4.73h49.69
			c2.47,0,3.7,2.98,1.96,4.73l-24.85,24.85C2518.59,472.45,2516.83,472.45,2515.75,471.36z M2509.06,481.98l-10.06,10.06
			c-0.52,0.52-1.22,0.81-1.96,0.81h-14.23c-1.53,0-2.77-1.24-2.77-2.77v-34.35c0-2.47,2.98-3.7,4.73-1.96l24.29,24.29
			C2510.14,479.14,2510.14,480.9,2509.06,481.98z M2467.79,492.85h-35.14c-2.47,0-3.7-2.98-1.96-4.73l35.14-35.14
			c1.75-1.75,4.73-0.51,4.73,1.96v35.14C2470.56,491.61,2469.32,492.85,2467.79,492.85z M2470.56,589.92v35.14
			c0,2.47-2.98,3.7-4.73,1.96l-35.14-35.14c-1.75-1.75-0.51-4.73,1.96-4.73h35.14C2469.32,587.15,2470.56,588.39,2470.56,589.92z
			 M2482.81,587.15h14.23c0.73,0,1.44,0.29,1.96,0.81l10.06,10.06c1.08,1.08,1.08,2.84,0,3.92l-24.29,24.29
			c-1.75,1.75-4.73,0.51-4.73-1.96v-34.35C2480.03,588.39,2481.28,587.15,2482.81,587.15z M2519.67,608.64l24.85,24.85
			c1.75,1.75,0.51,4.73-1.96,4.73h-49.69c-2.47,0-3.7-2.98-1.96-4.73l24.85-24.85C2516.83,607.55,2518.59,607.55,2519.67,608.64z
			 M2526.37,598.02l10.06-10.06c0.52-0.52,1.22-0.81,1.96-0.81h14.23c1.53,0,2.77,1.24,2.77,2.77v34.36c0,2.47-2.98,3.7-4.73,1.96
			l-24.29-24.29C2525.29,600.86,2525.29,599.1,2526.37,598.02z M2567.63,587.15h35.14c2.47,0,3.7,2.98,1.96,4.73l-35.14,35.14
			c-1.75,1.75-4.73,0.51-4.73-1.96v-35.14C2564.86,588.39,2566.1,587.15,2567.63,587.15z M2586.35,538.04l24.85-24.85
			c1.75-1.75,4.73-0.51,4.73,1.96v49.69c0,2.47-2.98,3.7-4.73,1.96l-24.85-24.85C2585.27,540.88,2585.27,539.12,2586.35,538.04z"/>
	</g>
	<g>
		<path d="M2670.51,574.1V470.25c0-3.42,2.78-6.2,6.2-6.2l0,0c3.42,0,6.2,2.78,6.2,6.2v27.23c0,1.83,1.48,3.31,3.3,3.31h42.12
			c4.19,0,7.58,3.4,7.58,7.58v65.73c0,3.42-2.78,6.2-6.2,6.2l0,0c-3.42,0-6.2-2.78-6.2-6.2v-59.71c0-1.52-1.24-2.76-2.76-2.76
			h-34.54c-1.83,0-3.31,1.48-3.31,3.31v59.16c0,3.42-2.78,6.2-6.2,6.2l0,0C2673.29,580.3,2670.51,577.52,2670.51,574.1z"/>
		<path d="M2785.75,604.94h37.02c1.42,0,2.58-1.15,2.58-2.58v-24.24c0-3.25,0.15-5.74,0.31-7.91h-0.47
			c-1.71,4.5-8.37,11.47-22.94,11.47c-17.51,0-29.92-13.33-29.92-31.77v-42.93c0-3.42,2.78-6.2,6.2-6.2l0,0c3.42,0,6.2,2.78,6.2,6.2
			v42.78c0,12.25,8.37,20.62,20.3,20.62c11.93,0,20.3-8.37,20.3-20.62v-42.78c0-3.42,2.78-6.2,6.2-6.2l0,0c3.42,0,6.2,2.78,6.2,6.2
			v100.59c0,4.63-3.75,8.38-8.38,8.38h-43.63c-3.04,0-5.5-2.46-5.5-5.5l0,0C2780.25,607.41,2782.71,604.94,2785.75,604.94z"/>
		<path d="M2918.35,582.78c-14.26,0-26.19-6.2-30.53-15.5h-0.47c0.31,2.02,0.47,4.34,0.47,8.37v34.88c0,3-2.43,5.42-5.42,5.42h-1.55
			c-3,0-5.42-2.43-5.42-5.42V506.21c0-3,2.43-5.42,5.42-5.42h0.78c3,0,5.42,2.43,5.42,5.42l0,0c0,3.72-0.16,6.04-0.46,8.37h0.46
			c5.27-8.99,16.74-16.27,31.93-16.27c23.71,0,40.61,17.82,40.61,42.16C2959.58,564.96,2942.53,582.78,2918.35,582.78z
			 M2887.35,540.46c0,17.98,12.56,31.15,29.92,31.15c16.89,0,29.6-13.17,29.6-31.15s-12.71-31.15-29.6-31.15
			C2899.91,509.31,2887.35,522.49,2887.35,540.46z"/>
		<path d="M3035.22,582.11c-27.1,4.72-51.79-17.73-49.78-45.16c1.64-22.39,18.88-38.65,41.72-38.65c23.25,0,39.21,18.13,39.21,42.16
			l0,0.05c0,2.97-2.41,5.38-5.38,5.38l-59.8,0c-1.55,0-2.66,1.44-2.32,2.95c3.13,13.71,13.97,22.78,28.6,22.78
			c8.78,0,15.99-3.03,21.72-8.4c2.11-1.98,5.42-1.93,7.45,0.14l0,0c2.02,2.07,2.01,5.36,0,7.45
			C3050.87,576.81,3043.61,580.65,3035.22,582.11z M3002.43,535.35h47.71c2.1,0,3.73-1.89,3.35-3.96
			c-2.41-12.97-12.52-22.08-26.49-22.08c-13.93,0-24.53,8.68-27.88,21.87C2998.59,533.3,3000.24,535.35,3002.43,535.35z"/>
		<path d="M3133.03,506.29L3133.03,506.29c0,3.04-2.46,5.5-5.5,5.5h-15.16c-1.43,0-2.58,1.16-2.58,2.58v59.73
			c0,3.42-2.78,6.2-6.2,6.2l0,0c-3.42,0-6.2-2.78-6.2-6.2v-64.57c0-4.83,3.91-8.74,8.74-8.74h21.41
			C3130.56,500.79,3133.03,503.25,3133.03,506.29z"/>
		<path d="M3223.72,518.12c-2.16,2.16-5.62,2.05-7.76-0.12c-5.23-5.32-12.45-8.69-21.25-8.69c-17.21,0-29.61,13.02-29.61,31.15
			c0,17.83,12.4,31.15,29.61,31.15c9.24,0,16.66-3.82,21.96-9.52c2.08-2.23,5.55-2.39,7.73-0.25l0,0c2.02,1.98,2.14,5.18,0.3,7.33
			c-6.95,8.17-17.55,13.59-29.99,13.59c-22.67,0-39.07-14.96-41.88-35.83c-3.61-26.74,18.42-50.58,45.32-48.52
			c10.24,0.79,19.1,5.08,25.7,12.04c2.01,2.12,2,5.51-0.07,7.58L3223.72,518.12z"/>
		<path d="M3256.87,574.05v-67.06c0-3.42,2.78-6.2,6.2-6.2l0,0c3.42,0,6.2,2.78,6.2,6.2v59.76c0,1.41,1.14,2.55,2.55,2.55h34.58
			c1.41,0,2.55-1.14,2.55-2.55v-59.76c0-3.42,2.78-6.2,6.2-6.2l0,0c3.42,0,6.2,2.78,6.2,6.2v67.06c0,3.45-2.8,6.25-6.25,6.25h-51.97
			C3259.67,580.3,3256.87,577.5,3256.87,574.05z"/>
		<path d="M3402.1,582.78c-13.95,0-26.35-6.04-31.46-16.43h-0.46c0.31,2.48,0.46,5.12,0.46,8.68l0,0c0,2.91-2.36,5.27-5.27,5.27
			h-1.08c-2.91,0-5.27-2.36-5.27-5.27V470.25c0-3.42,2.78-6.2,6.2-6.2l0,0c3.42,0,6.2,2.78,6.2,6.2v35.18
			c0,4.18-0.16,6.51-0.47,8.68h0.47c5.11-9.3,17.67-15.81,30.53-15.81c24.8,0,41.23,17.82,41.23,42.16
			C3443.18,564.96,3426.9,582.78,3402.1,582.78z M3430.47,540.46c0-18.13-12.71-31.15-29.76-31.15c-17.36,0-29.76,13.02-29.76,31.15
			c0,17.83,12.4,31.15,29.76,31.15C3417.76,571.62,3430.47,558.29,3430.47,540.46z"/>
		<path d="M3517.11,582.38c-25.91,3.45-49.11-17.54-48.17-43.66c0.84-23.29,18.38-40.41,41.82-40.41
			c23.25,0,39.21,18.13,39.21,42.16l0,0.05c0,2.97-2.41,5.38-5.38,5.38l-60.65,0c-1.07,0-1.88,0.98-1.67,2.04
			c2.85,14.22,13.84,23.69,28.79,23.69c8.78,0,15.99-3.03,21.72-8.4c2.11-1.98,5.42-1.93,7.45,0.14l0,0c2.02,2.07,2.01,5.36,0,7.45
			C3534.08,577.21,3526.22,581.16,3517.11,582.38z M3484.26,535.35h51.13c1.19,0,2.12-1.05,1.97-2.23
			c-1.8-13.88-12.18-23.81-26.76-23.81c-14.55,0-25.48,9.48-28.29,23.69C3482.07,534.22,3483.02,535.35,3484.26,535.35z"/>
	</g>
</g>
<g>
	<path class="st1" d="M5335.83,407.73c0-2.24-0.51-4.36-1.41-6.26c-0.71-1.97-1.85-3.82-3.42-5.4L5143.94,209
		c-1.54-1.53-3.38-2.68-5.38-3.41c-1.91-0.9-4.03-1.42-6.29-1.42h-264.54c-2.26,0-4.39,0.52-6.31,1.43
		c-1.99,0.73-3.83,1.87-5.36,3.4L4669,396.07c-1.53,1.53-2.68,3.37-3.41,5.37c-0.9,1.91-1.42,4.04-1.42,6.3v264.54
		c0,2.25,0.52,4.38,1.42,6.28c0.73,2,1.88,3.85,3.41,5.38L4856.06,871c1.54,1.54,3.38,2.68,5.38,3.41c1.91,0.9,4.03,1.42,6.28,1.42
		h264.54c2.25,0,4.37-0.52,6.27-1.41c1.96-0.71,3.81-1.84,5.39-3.42l187.06-187.06c1.53-1.53,2.68-3.37,3.41-5.37
		c0.9-1.91,1.43-4.04,1.43-6.3V407.73z M4708.46,456.41l77.49,77.48c3.37,3.37,3.37,8.84,0,12.22l-77.49,77.48
		c-5.44,5.44-14.75,1.59-14.75-6.11V462.52C4693.71,454.82,4703.02,450.96,4708.46,456.41z M5027,626.04L5027,626.04
		c-3.38-3.38-3.38-8.85,0-12.22l0,0c1.62-1.62,3.82-2.53,6.11-2.53h0c4.77,0,8.64,3.87,8.64,8.64v0.01
		C5041.75,627.63,5032.44,631.48,5027,626.04z M4973,453.96L4973,453.96c3.38,3.38,3.38,8.85,0,12.22l0,0
		c-1.62,1.62-3.82,2.53-6.11,2.53h0c-4.77,0-8.64-3.87-8.64-8.64v0C4958.25,452.38,4967.56,448.52,4973,453.96z M4980.18,579.22
		l-19.39-19.39c-1.62-1.62-2.53-3.82-2.53-6.11v-27.43c0-2.29,0.91-4.49,2.53-6.11l19.4-19.39c1.62-1.62,3.82-2.53,6.11-2.53h27.43
		c2.29,0,4.49,0.91,6.11,2.53l19.39,19.39c1.62,1.62,2.53,3.82,2.53,6.11v27.43c0,2.29-0.91,4.49-2.53,6.11l-19.4,19.39
		c-1.62,1.62-3.82,2.53-6.11,2.53h-27.43C4983.99,581.75,4981.8,580.84,4980.18,579.22z M4926.19,513L4926.19,513
		c-3.38,3.38-8.85,3.38-12.22,0l0,0c-5.44-5.44-1.59-14.75,6.11-14.75h0.01c4.77,0,8.64,3.87,8.64,8.64v0
		C4928.72,509.19,4927.81,511.38,4926.19,513z M4928.72,573.11L4928.72,573.11c0,4.77-3.87,8.64-8.64,8.64h0
		c-7.7,0-11.55-9.31-6.11-14.75l0,0c3.37-3.37,8.84-3.37,12.22,0l0,0C4927.81,568.62,4928.72,570.82,4928.72,573.11z M5073.81,567
		L5073.81,567c3.38-3.38,8.85-3.38,12.22,0l0,0c5.44,5.44,1.59,14.75-6.11,14.75h-0.01c-4.77,0-8.64-3.87-8.64-8.64v0
		C5071.28,570.81,5072.19,568.62,5073.81,567z M5071.28,506.89L5071.28,506.89c0-4.77,3.87-8.64,8.64-8.64h0
		c7.7,0,11.55,9.31,6.11,14.75l0,0c-3.37,3.37-8.84,3.37-12.22,0l0,0C5072.19,511.38,5071.28,509.18,5071.28,506.89z
		 M5108.86,468.72h-28.94c-4.77,0-8.64-3.87-8.64-8.64v-28.94c0-4.77,3.87-8.64,8.64-8.64h28.94c4.77,0,8.64,3.87,8.64,8.64v28.94
		C5117.5,464.85,5113.63,468.72,5108.86,468.72z M5033.11,468.72L5033.11,468.72c-2.29,0-4.49-0.91-6.11-2.53l0,0
		c-3.37-3.37-3.37-8.84,0-12.22l0,0c5.44-5.44,14.75-1.59,14.75,6.11v0C5041.75,464.85,5037.88,468.72,5033.11,468.72z
		 M4993.89,433.08l-20.46-20.46c-3.37-3.37-3.37-8.84,0-12.22l20.46-20.46c3.37-3.37,8.84-3.37,12.22,0l20.46,20.46
		c3.37,3.37,3.37,8.84,0,12.22l-20.46,20.46C5002.74,436.45,4997.26,436.45,4993.89,433.08z M4920.08,468.72h-28.94
		c-4.77,0-8.64-3.87-8.64-8.64v-28.94c0-4.77,3.87-8.64,8.64-8.64h28.94c4.77,0,8.64,3.87,8.64,8.64v28.94
		C4928.72,464.85,4924.85,468.72,4920.08,468.72z M4850.43,481.63l-31.38,31.38c-3.37,3.37-8.84,3.37-12.22,0l-75.76-75.76
		c-5.44-5.44-1.59-14.75,6.11-14.75h107.14c4.77,0,8.64,3.87,8.64,8.64v44.38C4852.96,477.81,4852.05,480,4850.43,481.63z
		 M4872.62,513.43l20.46,20.46c3.37,3.37,3.37,8.84,0,12.22l-20.46,20.46c-3.37,3.37-8.84,3.37-12.22,0l-20.46-20.46
		c-3.37-3.37-3.37-8.84,0-12.22l20.46-20.46C4863.77,510.05,4869.24,510.05,4872.62,513.43z M4852.96,604.49v44.37
		c0,4.77-3.87,8.64-8.64,8.64h-107.14c-7.7,0-11.55-9.31-6.11-14.75l75.76-75.76c3.37-3.37,8.84-3.37,12.22,0l31.38,31.38
		C4852.05,600,4852.96,602.2,4852.96,604.49z M4891.14,611.28h28.94c4.77,0,8.64,3.87,8.64,8.64v28.94c0,4.77-3.87,8.64-8.64,8.64
		h-28.94c-4.77,0-8.64-3.87-8.64-8.64v-28.94C4882.5,615.15,4886.37,611.28,4891.14,611.28z M4966.89,611.28L4966.89,611.28
		c2.29,0,4.49,0.91,6.11,2.53l0,0c3.37,3.37,3.37,8.84,0,12.22l0,0c-5.44,5.44-14.75,1.59-14.75-6.11v0
		C4958.25,615.15,4962.12,611.28,4966.89,611.28z M5006.11,646.92l20.46,20.46c3.37,3.37,3.37,8.84,0,12.22l-20.46,20.46
		c-3.37,3.37-8.84,3.37-12.22,0l-20.46-20.46c-3.37-3.37-3.37-8.84,0-12.22l20.46-20.46
		C4997.26,643.55,5002.73,643.55,5006.11,646.92z M5079.92,611.28h28.94c4.77,0,8.64,3.87,8.64,8.64v28.94
		c0,4.77-3.87,8.64-8.64,8.64h-28.94c-4.77,0-8.64-3.87-8.64-8.64v-28.94C5071.28,615.15,5075.15,611.28,5079.92,611.28z
		 M5149.57,598.37l31.38-31.38c3.37-3.37,8.84-3.37,12.22,0l75.76,75.76c5.44,5.44,1.59,14.75-6.11,14.75h-107.14
		c-4.77,0-8.64-3.87-8.64-8.64v-44.38C5147.04,602.19,5147.95,600,5149.57,598.37z M5127.38,566.57l-20.46-20.46
		c-3.37-3.37-3.37-8.84,0-12.22l20.46-20.46c3.37-3.37,8.84-3.37,12.22,0l20.46,20.46c3.37,3.37,3.37,8.84,0,12.22l-20.46,20.46
		C5136.23,569.95,5130.76,569.95,5127.38,566.57z M5147.04,475.52v-44.38c0-4.77,3.87-8.64,8.64-8.64h107.14
		c7.7,0,11.55,9.31,6.11,14.75l-75.76,75.76c-3.37,3.37-8.84,3.37-12.22,0l-31.38-31.38C5147.95,480,5147.04,477.81,5147.04,475.52z
		 M5147.04,384.32V274.74c0-7.7,9.31-11.55,14.75-6.11l109.58,109.58c5.44,5.44,1.59,14.75-6.11,14.75h-109.58
		C5150.91,392.96,5147.04,389.09,5147.04,384.32z M5108.86,392.96h-44.38c-2.29,0-4.49-0.91-6.11-2.53l-31.38-31.38
		c-3.37-3.37-3.37-8.84,0-12.22l75.76-75.76c5.44-5.44,14.75-1.59,14.75,6.11v107.14C5117.5,389.09,5113.63,392.96,5108.86,392.96z
		 M4993.89,325.95l-77.49-77.49c-5.44-5.44-1.59-14.75,6.11-14.75h154.97c7.7,0,11.55,9.31,6.11,14.75l-77.49,77.49
		C5002.73,329.32,4997.26,329.32,4993.89,325.95z M4973,359.05l-31.38,31.38c-1.62,1.62-3.82,2.53-6.11,2.53h-44.38
		c-4.77,0-8.64-3.87-8.64-8.64V277.18c0-7.7,9.31-11.55,14.75-6.11l75.76,75.76C4976.38,350.21,4976.38,355.68,4973,359.05z
		 M4844.32,392.96h-109.58c-7.7,0-11.55-9.31-6.11-14.75l109.58-109.58c5.44-5.44,14.75-1.59,14.75,6.11v109.58
		C4852.96,389.09,4849.09,392.96,4844.32,392.96z M4852.96,695.68v109.59c0,7.7-9.31,11.55-14.75,6.11l-109.59-109.59
		c-5.44-5.44-1.59-14.75,6.11-14.75h109.59C4849.09,687.04,4852.96,690.91,4852.96,695.68z M4891.14,687.04h44.37
		c2.29,0,4.49,0.91,6.11,2.53l31.38,31.38c3.37,3.37,3.37,8.84,0,12.22l-75.76,75.76c-5.44,5.44-14.75,1.59-14.75-6.11V695.68
		C4882.5,690.91,4886.37,687.04,4891.14,687.04z M5006.11,754.06l77.49,77.49c5.44,5.44,1.59,14.75-6.11,14.75h-154.97
		c-7.7,0-11.55-9.31-6.11-14.75l77.48-77.49C4997.26,750.68,5002.73,750.68,5006.11,754.06z M5026.99,720.95l31.38-31.38
		c1.62-1.62,3.82-2.53,6.11-2.53h44.38c4.77,0,8.64,3.87,8.64,8.64v107.14c0,7.7-9.31,11.55-14.75,6.11l-75.76-75.76
		C5023.62,729.8,5023.62,724.32,5026.99,720.95z M5155.68,687.04h109.58c7.7,0,11.55,9.31,6.11,14.75l-109.58,109.58
		c-5.44,5.44-14.75,1.59-14.75-6.11V695.68C5147.04,690.91,5150.91,687.04,5155.68,687.04z M5214.05,533.89l77.49-77.49
		c5.44-5.44,14.75-1.59,14.75,6.11v154.97c0,7.7-9.31,11.55-14.75,6.11l-77.49-77.49C5210.68,542.74,5210.68,537.27,5214.05,533.89z
		"/>
</g>
<g>
	<path d="M7355.83,407.73c0-2.24-0.51-4.36-1.41-6.26c-0.71-1.97-1.85-3.82-3.42-5.4L7163.94,209c-1.54-1.53-3.38-2.68-5.38-3.41
		c-1.91-0.9-4.03-1.42-6.29-1.42h-264.54c-2.26,0-4.39,0.52-6.31,1.43c-1.99,0.73-3.83,1.87-5.36,3.4L6689,396.07
		c-1.53,1.53-2.68,3.37-3.41,5.37c-0.9,1.91-1.42,4.04-1.42,6.3v264.54c0,2.25,0.52,4.38,1.42,6.28c0.73,2,1.88,3.85,3.41,5.38
		L6876.06,871c1.54,1.54,3.38,2.68,5.38,3.41c1.91,0.9,4.03,1.42,6.28,1.42h264.54c2.25,0,4.37-0.52,6.27-1.41
		c1.96-0.71,3.81-1.84,5.39-3.42l187.06-187.06c1.53-1.53,2.68-3.37,3.41-5.37c0.9-1.91,1.43-4.04,1.43-6.3V407.73z M6728.46,456.41
		l77.49,77.48c3.37,3.37,3.37,8.84,0,12.22l-77.49,77.48c-5.44,5.44-14.75,1.59-14.75-6.11V462.52
		C6713.71,454.82,6723.02,450.96,6728.46,456.41z M7047,626.04L7047,626.04c-3.38-3.38-3.38-8.85,0-12.22l0,0
		c1.62-1.62,3.82-2.53,6.11-2.53h0c4.77,0,8.64,3.87,8.64,8.64v0.01C7061.75,627.63,7052.44,631.48,7047,626.04z M6993,453.96
		L6993,453.96c3.38,3.38,3.38,8.85,0,12.22l0,0c-1.62,1.62-3.82,2.53-6.11,2.53h0c-4.77,0-8.64-3.87-8.64-8.64v0
		C6978.25,452.38,6987.56,448.52,6993,453.96z M7000.18,579.22l-19.39-19.39c-1.62-1.62-2.53-3.82-2.53-6.11v-27.43
		c0-2.29,0.91-4.49,2.53-6.11l19.4-19.39c1.62-1.62,3.82-2.53,6.11-2.53h27.43c2.29,0,4.49,0.91,6.11,2.53l19.39,19.39
		c1.62,1.62,2.53,3.82,2.53,6.11v27.43c0,2.29-0.91,4.49-2.53,6.11l-19.4,19.39c-1.62,1.62-3.82,2.53-6.11,2.53h-27.43
		C7003.99,581.75,7001.8,580.84,7000.18,579.22z M6946.19,513L6946.19,513c-3.38,3.38-8.85,3.38-12.22,0l0,0
		c-5.44-5.44-1.59-14.75,6.11-14.75h0.01c4.77,0,8.64,3.87,8.64,8.64v0C6948.72,509.19,6947.81,511.38,6946.19,513z M6948.72,573.11
		L6948.72,573.11c0,4.77-3.87,8.64-8.64,8.64h0c-7.7,0-11.55-9.31-6.11-14.75l0,0c3.37-3.37,8.84-3.37,12.22,0l0,0
		C6947.81,568.62,6948.72,570.82,6948.72,573.11z M7093.81,567L7093.81,567c3.38-3.38,8.85-3.38,12.22,0l0,0
		c5.44,5.44,1.59,14.75-6.11,14.75h-0.01c-4.77,0-8.64-3.87-8.64-8.64v0C7091.28,570.81,7092.19,568.62,7093.81,567z
		 M7091.28,506.89L7091.28,506.89c0-4.77,3.87-8.64,8.64-8.64h0c7.7,0,11.55,9.31,6.11,14.75l0,0c-3.37,3.37-8.84,3.37-12.22,0l0,0
		C7092.19,511.38,7091.28,509.18,7091.28,506.89z M7128.86,468.72h-28.94c-4.77,0-8.64-3.87-8.64-8.64v-28.94
		c0-4.77,3.87-8.64,8.64-8.64h28.94c4.77,0,8.64,3.87,8.64,8.64v28.94C7137.5,464.85,7133.63,468.72,7128.86,468.72z
		 M7053.11,468.72L7053.11,468.72c-2.29,0-4.49-0.91-6.11-2.53l0,0c-3.37-3.37-3.37-8.84,0-12.22l0,0
		c5.44-5.44,14.75-1.59,14.75,6.11v0C7061.75,464.85,7057.88,468.72,7053.11,468.72z M7013.89,433.08l-20.46-20.46
		c-3.37-3.37-3.37-8.84,0-12.22l20.46-20.46c3.37-3.37,8.84-3.37,12.22,0l20.46,20.46c3.37,3.37,3.37,8.84,0,12.22l-20.46,20.46
		C7022.74,436.45,7017.26,436.45,7013.89,433.08z M6940.08,468.72h-28.94c-4.77,0-8.64-3.87-8.64-8.64v-28.94
		c0-4.77,3.87-8.64,8.64-8.64h28.94c4.77,0,8.64,3.87,8.64,8.64v28.94C6948.72,464.85,6944.85,468.72,6940.08,468.72z
		 M6870.43,481.63l-31.38,31.38c-3.37,3.37-8.84,3.37-12.22,0l-75.76-75.76c-5.44-5.44-1.59-14.75,6.11-14.75h107.14
		c4.77,0,8.64,3.87,8.64,8.64v44.38C6872.96,477.81,6872.05,480,6870.43,481.63z M6892.62,513.43l20.46,20.46
		c3.37,3.37,3.37,8.84,0,12.22l-20.46,20.46c-3.37,3.37-8.84,3.37-12.22,0l-20.46-20.46c-3.37-3.37-3.37-8.84,0-12.22l20.46-20.46
		C6883.77,510.05,6889.24,510.05,6892.62,513.43z M6872.96,604.49v44.37c0,4.77-3.87,8.64-8.64,8.64h-107.14
		c-7.7,0-11.55-9.31-6.11-14.75l75.76-75.76c3.37-3.37,8.84-3.37,12.22,0l31.38,31.38C6872.05,600,6872.96,602.2,6872.96,604.49z
		 M6911.14,611.28h28.94c4.77,0,8.64,3.87,8.64,8.64v28.94c0,4.77-3.87,8.64-8.64,8.64h-28.94c-4.77,0-8.64-3.87-8.64-8.64v-28.94
		C6902.5,615.15,6906.37,611.28,6911.14,611.28z M6986.89,611.28L6986.89,611.28c2.29,0,4.49,0.91,6.11,2.53l0,0
		c3.37,3.37,3.37,8.84,0,12.22l0,0c-5.44,5.44-14.75,1.59-14.75-6.11v0C6978.25,615.15,6982.12,611.28,6986.89,611.28z
		 M7026.11,646.92l20.46,20.46c3.37,3.37,3.37,8.84,0,12.22l-20.46,20.46c-3.37,3.37-8.84,3.37-12.22,0l-20.46-20.46
		c-3.37-3.37-3.37-8.84,0-12.22l20.46-20.46C7017.26,643.55,7022.73,643.55,7026.11,646.92z M7099.92,611.28h28.94
		c4.77,0,8.64,3.87,8.64,8.64v28.94c0,4.77-3.87,8.64-8.64,8.64h-28.94c-4.77,0-8.64-3.87-8.64-8.64v-28.94
		C7091.28,615.15,7095.15,611.28,7099.92,611.28z M7169.57,598.37l31.38-31.38c3.37-3.37,8.84-3.37,12.22,0l75.76,75.76
		c5.44,5.44,1.59,14.75-6.11,14.75h-107.14c-4.77,0-8.64-3.87-8.64-8.64v-44.38C7167.04,602.19,7167.95,600,7169.57,598.37z
		 M7147.38,566.57l-20.46-20.46c-3.37-3.37-3.37-8.84,0-12.22l20.46-20.46c3.37-3.37,8.84-3.37,12.22,0l20.46,20.46
		c3.37,3.37,3.37,8.84,0,12.22l-20.46,20.46C7156.23,569.95,7150.76,569.95,7147.38,566.57z M7167.04,475.52v-44.38
		c0-4.77,3.87-8.64,8.64-8.64h107.14c7.7,0,11.55,9.31,6.11,14.75l-75.76,75.76c-3.37,3.37-8.84,3.37-12.22,0l-31.38-31.38
		C7167.95,480,7167.04,477.81,7167.04,475.52z M7167.04,384.32V274.74c0-7.7,9.31-11.55,14.75-6.11l109.58,109.58
		c5.44,5.44,1.59,14.75-6.11,14.75h-109.58C7170.91,392.96,7167.04,389.09,7167.04,384.32z M7128.86,392.96h-44.38
		c-2.29,0-4.49-0.91-6.11-2.53l-31.38-31.38c-3.37-3.37-3.37-8.84,0-12.22l75.76-75.76c5.44-5.44,14.75-1.59,14.75,6.11v107.14
		C7137.5,389.09,7133.63,392.96,7128.86,392.96z M7013.89,325.95l-77.49-77.49c-5.44-5.44-1.59-14.75,6.11-14.75h154.97
		c7.7,0,11.55,9.31,6.11,14.75l-77.49,77.49C7022.73,329.32,7017.26,329.32,7013.89,325.95z M6993,359.05l-31.38,31.38
		c-1.62,1.62-3.82,2.53-6.11,2.53h-44.38c-4.77,0-8.64-3.87-8.64-8.64V277.18c0-7.7,9.31-11.55,14.75-6.11l75.76,75.76
		C6996.38,350.21,6996.38,355.68,6993,359.05z M6864.32,392.96h-109.58c-7.7,0-11.55-9.31-6.11-14.75l109.58-109.58
		c5.44-5.44,14.75-1.59,14.75,6.11v109.58C6872.96,389.09,6869.09,392.96,6864.32,392.96z M6872.96,695.68v109.59
		c0,7.7-9.31,11.55-14.75,6.11l-109.59-109.59c-5.44-5.44-1.59-14.75,6.11-14.75h109.59
		C6869.09,687.04,6872.96,690.91,6872.96,695.68z M6911.14,687.04h44.37c2.29,0,4.49,0.91,6.11,2.53l31.38,31.38
		c3.37,3.37,3.37,8.84,0,12.22l-75.76,75.76c-5.44,5.44-14.75,1.59-14.75-6.11V695.68C6902.5,690.91,6906.37,687.04,6911.14,687.04z
		 M7026.11,754.06l77.49,77.49c5.44,5.44,1.59,14.75-6.11,14.75h-154.97c-7.7,0-11.55-9.31-6.11-14.75l77.48-77.49
		C7017.26,750.68,7022.73,750.68,7026.11,754.06z M7046.99,720.95l31.38-31.38c1.62-1.62,3.82-2.53,6.11-2.53h44.38
		c4.77,0,8.64,3.87,8.64,8.64v107.14c0,7.7-9.31,11.55-14.75,6.11l-75.76-75.76C7043.62,729.8,7043.62,724.32,7046.99,720.95z
		 M7175.68,687.04h109.58c7.7,0,11.55,9.31,6.11,14.75l-109.58,109.58c-5.44,5.44-14.75,1.59-14.75-6.11V695.68
		C7167.04,690.91,7170.91,687.04,7175.68,687.04z M7234.05,533.89l77.49-77.49c5.44-5.44,14.75-1.59,14.75,6.11v154.97
		c0,7.7-9.31,11.55-14.75,6.11l-77.49-77.49C7230.68,542.74,7230.68,537.27,7234.05,533.89z"/>
</g>
<g>
	<path class="st2" d="M569.83,2129.43v-92.15c0-3.04,2.46-5.5,5.5-5.5l0,0c3.04,0,5.5,2.46,5.5,5.5v24.16
		c0,1.62,1.31,2.93,2.93,2.93h37.37c3.72,0,6.73,3.01,6.73,6.73v58.32c0,3.04-2.46,5.5-5.5,5.5l0,0c-3.04,0-5.5-2.46-5.5-5.5v-52.98
		c0-1.35-1.1-2.45-2.45-2.45h-30.65c-1.62,0-2.93,1.31-2.93,2.93v52.49c0,3.04-2.46,5.5-5.5,5.5l0,0
		C572.29,2134.93,569.83,2132.47,569.83,2129.43z"/>
	<path class="st2" d="M672.08,2156.8h32.85c1.26,0,2.29-1.02,2.29-2.29v-21.5c0-2.89,0.14-5.09,0.28-7.01h-0.41
		c-1.51,3.99-7.43,10.18-20.35,10.18c-15.54,0-26.54-11.83-26.54-28.19v-38.1c0-3.04,2.46-5.5,5.5-5.5l0,0c3.04,0,5.5,2.46,5.5,5.5
		v37.96c0,10.87,7.43,18.29,18.02,18.29c10.59,0,18.02-7.43,18.02-18.29v-37.96c0-3.04,2.46-5.5,5.5-5.5l0,0
		c3.04,0,5.5,2.46,5.5,5.5v89.25c0,4.1-3.33,7.43-7.43,7.43h-38.71c-2.7,0-4.88-2.19-4.88-4.88l0,0
		C667.2,2158.99,669.38,2156.8,672.08,2156.8z"/>
	<path class="st2" d="M789.74,2137.13c-12.65,0-23.24-5.5-27.09-13.75h-0.41c0.27,1.79,0.41,3.85,0.41,7.43v30.94
		c0,2.66-2.16,4.81-4.81,4.81h-1.38c-2.66,0-4.81-2.16-4.81-4.81v-92.56c0-2.66,2.16-4.81,4.81-4.81h0.69
		c2.66,0,4.81,2.16,4.81,4.81l0,0c0,3.3-0.14,5.36-0.41,7.43h0.41c4.68-7.98,14.85-14.44,28.33-14.44
		c21.04,0,36.03,15.82,36.03,37.41C826.32,2121.32,811.19,2137.13,789.74,2137.13z M762.23,2099.59c0,15.95,11.14,27.64,26.54,27.64
		c14.99,0,26.27-11.69,26.27-27.64c0-15.95-11.28-27.64-26.27-27.64C773.37,2071.95,762.23,2083.64,762.23,2099.59z"/>
	<path class="st2" d="M893.44,2136.54c-24.04,4.19-45.95-15.73-44.17-40.07c1.45-19.86,16.75-34.29,37.02-34.29
		c20.63,0,34.79,16.09,34.79,37.41l0,0.04c0,2.64-2.14,4.77-4.78,4.77l-53.06,0c-1.37,0-2.36,1.28-2.05,2.62
		c2.78,12.16,12.39,20.21,25.37,20.21c7.79,0,14.19-2.69,19.27-7.45c1.88-1.76,4.81-1.71,6.61,0.12l0,0c1.8,1.83,1.78,4.76,0,6.61
		C907.32,2131.84,900.88,2135.25,893.44,2136.54z M864.34,2095.05l42.34,0c1.86,0,3.31-1.68,2.97-3.51
		c-2.14-11.51-11.11-19.59-23.5-19.59c-12.36,0-21.77,7.7-24.74,19.41C860.93,2093.23,862.4,2095.05,864.34,2095.05z"/>
	<path class="st2" d="M980.22,2069.26L980.22,2069.26c0,2.7-2.19,4.88-4.88,4.88h-13.45c-1.27,0-2.29,1.03-2.29,2.29v53
		c0,3.04-2.46,5.5-5.5,5.5l0,0c-3.04,0-5.5-2.46-5.5-5.5v-57.3c0-4.28,3.47-7.76,7.76-7.76h18.99
		C978.03,2064.38,980.22,2066.57,980.22,2069.26z"/>
	<path class="st2" d="M1060.69,2079.76c-1.91,1.91-4.98,1.82-6.88-0.11c-4.64-4.72-11.05-7.71-18.86-7.71
		c-15.27,0-26.27,11.55-26.27,27.64c0,15.82,11,27.64,26.27,27.64c8.2,0,14.79-3.39,19.48-8.44c1.84-1.98,4.93-2.12,6.86-0.22l0,0
		c1.79,1.76,1.9,4.6,0.27,6.51c-6.17,7.25-15.57,12.06-26.61,12.06c-20.11,0-34.67-13.28-37.16-31.79
		c-3.2-23.73,16.34-44.88,40.21-43.05c9.09,0.7,16.94,4.51,22.8,10.68c1.79,1.88,1.78,4.89-0.06,6.73L1060.69,2079.76z"/>
	<path class="st2" d="M1090.1,2129.38v-59.5c0-3.04,2.46-5.5,5.5-5.5l0,0c3.04,0,5.5,2.46,5.5,5.5v53.02c0,1.25,1.01,2.26,2.26,2.26
		h30.68c1.25,0,2.26-1.01,2.26-2.26v-53.02c0-3.04,2.46-5.5,5.5-5.5l0,0c3.04,0,5.5,2.46,5.5,5.5v59.5c0,3.06-2.48,5.55-5.55,5.55
		h-46.11C1092.59,2134.93,1090.1,2132.45,1090.1,2129.38z"/>
	<path class="st2" d="M1218.97,2137.13c-12.38,0-23.38-5.36-27.92-14.58h-0.41c0.27,2.2,0.41,4.54,0.41,7.7l0,0
		c0,2.58-2.09,4.68-4.68,4.68h-0.96c-2.58,0-4.68-2.09-4.68-4.68v-92.97c0-3.04,2.46-5.5,5.5-5.5l0,0c3.04,0,5.5,2.46,5.5,5.5v31.22
		c0,3.71-0.14,5.78-0.41,7.7h0.41c4.54-8.25,15.68-14.03,27.09-14.03c22,0,36.58,15.82,36.58,37.41
		C1255.41,2121.32,1240.97,2137.13,1218.97,2137.13z M1244.14,2099.59c0-16.09-11.28-27.64-26.41-27.64
		c-15.4,0-26.41,11.55-26.41,27.64c0,15.82,11,27.64,26.41,27.64C1232.86,2127.23,1244.14,2115.4,1244.14,2099.59z"/>
	<path class="st2" d="M1321.01,2136.78c-22.99,3.07-43.57-15.56-42.74-38.74c0.74-20.67,16.3-35.86,37.11-35.86
		c20.63,0,34.79,16.09,34.79,37.41l0,0.04c0,2.64-2.14,4.77-4.78,4.77l-53.81,0c-0.95,0-1.67,0.87-1.48,1.81
		c2.53,12.62,12.28,21.02,25.55,21.02c7.79,0,14.19-2.69,19.27-7.45c1.88-1.76,4.81-1.71,6.61,0.12l0,0c1.8,1.83,1.78,4.76,0,6.61
		C1336.07,2132.2,1329.1,2135.7,1321.01,2136.78z M1291.87,2095.05h45.37c1.06,0,1.88-0.93,1.75-1.97
		c-1.6-12.32-10.81-21.13-23.74-21.13c-12.91,0-22.61,8.41-25.1,21.02C1289.92,2094.04,1290.77,2095.05,1291.87,2095.05z"/>
</g>
<g>
	<path d="M2589.83,2129.43v-92.15c0-3.04,2.46-5.5,5.5-5.5l0,0c3.04,0,5.5,2.46,5.5,5.5v24.16c0,1.62,1.31,2.93,2.93,2.93h37.37
		c3.72,0,6.73,3.01,6.73,6.73v58.32c0,3.04-2.46,5.5-5.5,5.5l0,0c-3.04,0-5.5-2.46-5.5-5.5v-52.98c0-1.35-1.1-2.45-2.45-2.45h-30.65
		c-1.62,0-2.93,1.31-2.93,2.93v52.49c0,3.04-2.46,5.5-5.5,5.5l0,0C2592.29,2134.93,2589.83,2132.47,2589.83,2129.43z"/>
	<path d="M2692.08,2156.8h32.85c1.26,0,2.29-1.02,2.29-2.29v-21.5c0-2.89,0.14-5.09,0.28-7.01h-0.41
		c-1.51,3.99-7.43,10.18-20.35,10.18c-15.54,0-26.54-11.83-26.54-28.19v-38.1c0-3.04,2.46-5.5,5.5-5.5l0,0c3.04,0,5.5,2.46,5.5,5.5
		v37.96c0,10.87,7.43,18.29,18.02,18.29c10.59,0,18.02-7.43,18.02-18.29v-37.96c0-3.04,2.46-5.5,5.5-5.5l0,0
		c3.04,0,5.5,2.46,5.5,5.5v89.25c0,4.1-3.33,7.43-7.43,7.43h-38.71c-2.7,0-4.88-2.19-4.88-4.88l0,0
		C2687.2,2158.99,2689.38,2156.8,2692.08,2156.8z"/>
	<path d="M2809.74,2137.13c-12.65,0-23.24-5.5-27.09-13.75h-0.41c0.27,1.79,0.41,3.85,0.41,7.43v30.94c0,2.66-2.16,4.81-4.81,4.81
		h-1.38c-2.66,0-4.81-2.16-4.81-4.81v-92.56c0-2.66,2.16-4.81,4.81-4.81h0.69c2.66,0,4.81,2.16,4.81,4.81l0,0
		c0,3.3-0.14,5.36-0.41,7.43h0.41c4.68-7.98,14.85-14.44,28.33-14.44c21.04,0,36.03,15.82,36.03,37.41
		C2846.32,2121.32,2831.19,2137.13,2809.74,2137.13z M2782.23,2099.59c0,15.95,11.14,27.64,26.54,27.64
		c14.99,0,26.27-11.69,26.27-27.64c0-15.95-11.28-27.64-26.27-27.64C2793.37,2071.95,2782.23,2083.64,2782.23,2099.59z"/>
	<path d="M2913.44,2136.54c-24.04,4.19-45.95-15.73-44.17-40.07c1.45-19.86,16.75-34.29,37.02-34.29
		c20.63,0,34.79,16.09,34.79,37.41v0.04c0,2.64-2.14,4.77-4.78,4.77l-53.06,0c-1.37,0-2.36,1.28-2.05,2.62
		c2.78,12.16,12.39,20.21,25.37,20.21c7.79,0,14.19-2.69,19.27-7.45c1.88-1.76,4.81-1.71,6.61,0.12l0,0c1.8,1.83,1.78,4.76,0,6.61
		C2927.32,2131.84,2920.88,2135.25,2913.44,2136.54z M2884.34,2095.05l42.34,0c1.86,0,3.31-1.68,2.97-3.51
		c-2.14-11.51-11.11-19.59-23.5-19.59c-12.36,0-21.77,7.7-24.74,19.41C2880.93,2093.23,2882.4,2095.05,2884.34,2095.05z"/>
	<path d="M3000.22,2069.26L3000.22,2069.26c0,2.7-2.19,4.88-4.88,4.88h-13.45c-1.27,0-2.29,1.03-2.29,2.29v53
		c0,3.04-2.46,5.5-5.5,5.5l0,0c-3.04,0-5.5-2.46-5.5-5.5v-57.3c0-4.28,3.47-7.76,7.76-7.76h18.99
		C2998.03,2064.38,3000.22,2066.57,3000.22,2069.26z"/>
	<path d="M3080.69,2079.76c-1.91,1.91-4.98,1.82-6.88-0.11c-4.64-4.72-11.05-7.71-18.86-7.71c-15.27,0-26.27,11.55-26.27,27.64
		c0,15.82,11,27.64,26.27,27.64c8.2,0,14.79-3.39,19.48-8.44c1.84-1.98,4.93-2.12,6.86-0.22l0,0c1.79,1.76,1.9,4.6,0.27,6.51
		c-6.17,7.25-15.57,12.06-26.61,12.06c-20.11,0-34.67-13.28-37.16-31.79c-3.2-23.73,16.34-44.88,40.21-43.05
		c9.09,0.7,16.94,4.51,22.8,10.68c1.79,1.88,1.78,4.89-0.06,6.73L3080.69,2079.76z"/>
	<path d="M3110.1,2129.38v-59.5c0-3.04,2.46-5.5,5.5-5.5l0,0c3.04,0,5.5,2.46,5.5,5.5v53.02c0,1.25,1.01,2.26,2.26,2.26h30.68
		c1.25,0,2.26-1.01,2.26-2.26v-53.02c0-3.04,2.46-5.5,5.5-5.5l0,0c3.04,0,5.5,2.46,5.5,5.5v59.5c0,3.06-2.48,5.55-5.55,5.55h-46.11
		C3112.59,2134.93,3110.1,2132.45,3110.1,2129.38z"/>
	<path d="M3238.97,2137.13c-12.38,0-23.38-5.36-27.92-14.58h-0.41c0.27,2.2,0.41,4.54,0.41,7.7l0,0c0,2.58-2.09,4.68-4.68,4.68
		h-0.96c-2.58,0-4.68-2.09-4.68-4.68v-92.97c0-3.04,2.46-5.5,5.5-5.5l0,0c3.04,0,5.5,2.46,5.5,5.5v31.22c0,3.71-0.14,5.78-0.41,7.7
		h0.41c4.54-8.25,15.68-14.03,27.09-14.03c22,0,36.58,15.82,36.58,37.41C3275.41,2121.32,3260.97,2137.13,3238.97,2137.13z
		 M3264.14,2099.59c0-16.09-11.28-27.64-26.41-27.64c-15.4,0-26.41,11.55-26.41,27.64c0,15.82,11,27.64,26.41,27.64
		C3252.86,2127.23,3264.14,2115.4,3264.14,2099.59z"/>
	<path d="M3341.01,2136.78c-22.99,3.07-43.57-15.56-42.74-38.74c0.74-20.67,16.3-35.86,37.11-35.86c20.63,0,34.79,16.09,34.79,37.41
		v0.04c0,2.64-2.14,4.77-4.78,4.77l-53.81,0c-0.95,0-1.67,0.87-1.48,1.81c2.53,12.62,12.28,21.02,25.55,21.02
		c7.79,0,14.19-2.69,19.27-7.45c1.88-1.76,4.81-1.71,6.61,0.12l0,0c1.8,1.83,1.78,4.76,0,6.61
		C3356.07,2132.2,3349.1,2135.7,3341.01,2136.78z M3311.87,2095.05h45.37c1.06,0,1.88-0.93,1.75-1.97
		c-1.6-12.32-10.81-21.13-23.74-21.13c-12.91,0-22.61,8.41-25.1,21.02C3309.92,2094.04,3310.77,2095.05,3311.87,2095.05z"/>
</g>
</svg>
